<svg xmlns="http://www.w3.org/2000/svg" xmlns:xlink="http://www.w3.org/1999/xlink" width="500" zoomAndPan="magnify" viewBox="0 0 375 374.999991" height="500" preserveAspectRatio="xMidYMid meet" version="1.0"><defs><clipPath id="a7864dc601"><path d="M 0 69.375 L 374 69.375 L 374 305.625 L 0 305.625 Z M 0 69.375 " clip-rule="nonzero"/></clipPath></defs><rect x="-37.5" width="450" fill="#ffffff" y="-37.499999" height="449.999989" fill-opacity="1"/><rect x="-37.5" width="450" fill="#050a30" y="-37.499999" height="449.999989" fill-opacity="1"/><g clip-path="url(#a7864dc601)"><path fill="#ffffff" d="M 355.707031 235.910156 C 355.476562 235.753906 355.242188 235.675781 355.011719 235.601562 C 355.476562 231.664062 356.167969 227.960938 357.328125 222.253906 C 359.253906 212.6875 361.105469 203.351562 362.339844 197.027344 C 362.804688 194.789062 363.5 191.242188 363.960938 189.390625 C 365.8125 181.597656 368.4375 170.953125 362.03125 158.839844 C 358.484375 152.050781 353.082031 146.730469 346.296875 143.566406 C 341.359375 141.25 335.1875 139.785156 329.863281 139.785156 C 328.550781 139.785156 327.316406 139.863281 326.082031 140.015625 C 325.003906 140.015625 323.613281 140.015625 321.996094 140.09375 C 317.289062 140.09375 314.125 140.25 311.964844 140.402344 C 308.183594 138.9375 304.097656 138.164062 300.007812 138.164062 C 293.449219 138.164062 287.046875 140.171875 281.570312 143.796875 C 278.484375 143.875 275.398438 144.492188 272.542969 145.417969 C 267.375 142.332031 261.511719 140.710938 255.496094 140.710938 C 252.023438 140.710938 248.628906 141.25 245.464844 142.253906 C 239.835938 139.324219 233.664062 137.703125 227.335938 137.546875 C 226.101562 124.972656 218.003906 114.789062 206.738281 110.546875 C 203.808594 96.585938 192.542969 86.246094 178.347656 85.242188 C 176.1875 81.617188 173.566406 78.839844 171.097656 76.914062 C 163.613281 70.742188 155.898438 69.429688 150.730469 69.429688 C 146.796875 69.429688 141.164062 70.199219 135.226562 73.519531 C 128.820312 70.277344 122.882812 69.96875 120.800781 69.96875 C 114.394531 69.96875 108.148438 71.898438 102.824219 75.601562 C 102.363281 75.371094 101.898438 75.136719 101.433594 74.90625 C 97.578125 73.210938 93.414062 72.4375 89.167969 72.4375 C 85.082031 72.4375 80.992188 73.210938 77.132812 74.753906 C 70.191406 77.527344 64.484375 82.621094 61.011719 89.179688 C 51.90625 89.253906 43.421875 93.265625 37.480469 100.210938 C 32.777344 105.6875 30.230469 112.554688 30 119.726562 C 23.519531 122.042969 17.886719 126.363281 13.953125 132.378906 C 7.394531 142.253906 6.855469 154.132812 12.179688 164.242188 C 4.539062 170.414062 -0.0117188 179.824219 0.222656 189.777344 C 0.375 201.191406 6.777344 211.609375 16.808594 217.085938 C 17.039062 217.164062 17.191406 217.316406 17.425781 217.394531 C 16.960938 219.476562 16.808594 221.558594 16.808594 223.71875 C 16.808594 237.453125 24.984375 248.945312 36.863281 253.574219 C 37.636719 258.820312 39.796875 263.757812 43.113281 268.078125 C 49.132812 275.945312 58.3125 280.421875 68.339844 280.421875 C 76.515625 280.421875 83.769531 277.179688 89.015625 274.019531 C 89.554688 274.945312 90.019531 275.714844 90.402344 276.410156 C 91.484375 281.117188 93.335938 284.742188 94.648438 286.824219 L 94.800781 287.132812 C 101.050781 296.929688 110.230469 302.332031 122.265625 303.257812 C 126.199219 304.492188 129.746094 304.953125 132.832031 305.261719 C 134.839844 305.492188 136.691406 305.570312 138.464844 305.570312 C 146.875 305.570312 153.355469 303.488281 158.523438 301.40625 C 171.945312 296.160156 182.4375 287.828125 188.300781 277.796875 C 193.007812 284.664062 199.332031 291.066406 207.511719 294.925781 C 214.453125 298.164062 220.085938 298.628906 224.636719 298.628906 C 227.105469 298.628906 229.726562 298.472656 232.660156 297.933594 C 236.054688 300.171875 239.988281 301.945312 244.539062 302.792969 C 246.621094 303.179688 248.859375 303.410156 251.019531 303.410156 C 258.890625 303.410156 266.371094 300.710938 272.3125 295.773438 C 276.476562 295.464844 280.722656 294.386719 284.65625 292.6875 C 286.585938 293.84375 288.589844 294.925781 290.75 295.695312 C 292.292969 296.3125 296.765625 298.011719 302.628906 298.011719 C 305.097656 298.011719 307.335938 297.703125 309.265625 297.316406 C 312.582031 298.550781 316.285156 299.476562 320.605469 299.9375 C 321.917969 300.09375 324.230469 300.246094 328.9375 300.246094 C 344.058594 300.246094 347.914062 299.089844 350.539062 298.242188 C 363.34375 294.152344 372.445312 282.96875 373.757812 269.46875 C 374.992188 255.425781 367.972656 242.390625 355.707031 235.910156 Z M 355.707031 235.910156 " fill-opacity="1" fill-rule="nonzero"/></g><path fill="#000000" d="M 149.652344 100.054688 C 148.339844 100.980469 146.027344 108 146.027344 111.011719 C 146.027344 112.011719 146.179688 112.554688 146.796875 113.171875 C 148.339844 114.789062 148.648438 114.40625 150.730469 109.234375 C 152.121094 105.765625 152.429688 104.53125 152.507812 102.910156 C 152.507812 101.058594 152.429688 100.75 151.734375 100.210938 C 150.886719 99.4375 150.5 99.363281 149.652344 100.054688 Z M 119.71875 100.597656 C 118.871094 101.214844 118.5625 102.601562 118.5625 105.070312 C 118.5625 107.847656 119.023438 109.699219 119.949219 110.625 C 120.875 111.628906 122.1875 111.550781 122.960938 110.546875 C 123.960938 109.234375 124.117188 107.769531 123.34375 104.683594 C 122.417969 100.75 121.261719 99.4375 119.71875 100.597656 Z M 88.242188 102.753906 C 86.777344 103.296875 87.085938 106.148438 88.9375 109.777344 C 90.945312 113.480469 93.027344 115.023438 94.261719 113.554688 C 95.03125 112.554688 95.03125 111.78125 93.875 109.46875 C 92.71875 107.152344 89.941406 102.832031 89.324219 102.601562 C 89.167969 102.601562 88.628906 102.601562 88.242188 102.753906 Z M 175.03125 115.5625 C 174.339844 115.949219 170.789062 121.195312 169.785156 123.277344 C 168.859375 125.207031 168.785156 126.75 169.554688 127.441406 C 170.25 128.136719 170.480469 128.058594 171.097656 127.054688 C 171.40625 126.59375 172.488281 125.359375 173.488281 124.203125 C 175.726562 121.8125 177.039062 119.265625 177.039062 117.492188 C 177.117188 115.5625 176.34375 114.789062 175.03125 115.5625 Z M 60.316406 119.804688 C 60.085938 120.113281 60.007812 120.730469 60.164062 121.425781 C 60.625 123.816406 65.101562 126.980469 68.261719 127.054688 C 69.652344 127.132812 69.804688 127.054688 69.730469 126.515625 C 69.496094 125.359375 68.417969 124.125 65.332031 121.734375 C 62.246094 119.34375 61.164062 118.878906 60.316406 119.804688 Z M 112.003906 129.832031 C 102.824219 130.914062 93.414062 133.921875 84.925781 138.550781 C 79.679688 141.40625 78.214844 142.332031 73.894531 145.726562 C 67.878906 150.433594 64.097656 154.75 61.628906 159.765625 C 58.695312 165.859375 57.617188 171.722656 57.925781 180.59375 C 58.15625 189.46875 59.390625 195.949219 62.015625 202.660156 C 63.710938 206.980469 65.71875 210.066406 69.574219 213.921875 C 72.351562 216.699219 73.355469 217.472656 77.367188 219.863281 C 82.84375 223.101562 85.234375 224.335938 90.019531 226.34375 C 91.945312 227.191406 94.878906 228.65625 96.574219 229.582031 C 98.273438 230.585938 100.433594 231.820312 101.4375 232.28125 C 102.4375 232.824219 103.75 233.671875 104.367188 234.132812 C 105.832031 235.445312 108.765625 240.074219 110 243.238281 C 110.539062 244.625 111.234375 246.09375 111.464844 246.402344 C 111.695312 246.785156 111.925781 247.402344 111.925781 247.867188 C 111.925781 250.101562 114.164062 252.648438 116.015625 252.648438 C 116.53125 252.648438 116.609375 252.828125 116.246094 253.1875 C 115.476562 254.113281 114.78125 255.964844 114.78125 257.277344 C 114.78125 258.125 115.167969 259.050781 116.09375 260.519531 C 117.558594 262.753906 118.5625 263.527344 120.492188 263.527344 L 121.800781 263.527344 L 120.875 265.378906 C 119.566406 267.847656 119.410156 269.46875 120.257812 270.777344 C 121.417969 272.550781 122.34375 272.9375 125.660156 273.015625 C 127.433594 273.015625 128.976562 273.246094 129.515625 273.554688 C 131.136719 274.402344 132.679688 274.710938 135.765625 275.019531 C 140.007812 275.40625 142.632812 275.019531 147.492188 273.09375 C 154.898438 270.238281 160.527344 265.996094 162.6875 261.519531 C 163.304688 260.285156 163.847656 258.976562 163.847656 258.511719 C 163.847656 258.050781 164.308594 257.433594 165.15625 256.816406 C 166.933594 255.347656 168.089844 253.34375 168.242188 251.105469 C 168.476562 248.867188 167.703125 247.171875 165.929688 245.707031 L 164.773438 244.78125 L 165.3125 243.777344 C 165.851562 242.621094 166.007812 239.148438 165.464844 237.761719 C 164.617188 235.445312 161.917969 232.898438 160.296875 232.898438 C 159.988281 232.898438 159.757812 232.898438 159.757812 232.824219 C 159.757812 232.824219 159.988281 232.207031 160.21875 231.511719 C 160.835938 229.8125 160.835938 227.035156 160.21875 225.878906 C 159.679688 224.800781 158.292969 223.644531 157.519531 223.644531 C 157.210938 223.644531 156.824219 223.488281 156.59375 223.257812 C 156.207031 222.792969 154.898438 215.621094 154.898438 213.84375 C 154.898438 212.378906 156.515625 209.0625 159.449219 204.511719 C 160.375 203.042969 162.84375 199.1875 164.847656 196.023438 C 171.019531 186.535156 172.179688 183.21875 172.253906 175.890625 C 172.253906 172.804688 172.101562 171.339844 171.40625 168.253906 C 169.710938 160.921875 166.699219 153.824219 163.152344 148.65625 C 162.226562 147.347656 159.601562 144.335938 157.289062 142.023438 C 154.511719 139.246094 151.683594 137.136719 148.804688 135.695312 C 138.929688 130.914062 132.910156 129.679688 119.949219 129.757812 C 116.015625 129.679688 112.542969 129.757812 112.003906 129.832031 Z M 128.589844 133.304688 C 135.84375 134.152344 139.621094 135.234375 146.335938 138.472656 C 150.578125 140.558594 150.65625 140.632812 154.511719 144.414062 C 156.59375 146.496094 159.140625 149.429688 160.066406 150.816406 C 163.460938 155.910156 166.699219 164.007812 167.78125 170.179688 C 168.320312 173.34375 168.242188 178.742188 167.625 181.597656 C 167.007812 184.605469 165.234375 188.15625 161.839844 193.554688 C 160.296875 195.949219 158.523438 198.726562 157.90625 199.804688 C 157.289062 200.882812 156.207031 202.503906 155.589844 203.507812 C 154.898438 204.433594 153.742188 206.59375 152.890625 208.214844 C 151.503906 211.066406 151.425781 211.300781 151.425781 214 C 151.425781 215.773438 151.734375 218.011719 152.199219 220.09375 L 152.96875 223.335938 L 151.65625 223.71875 C 150.886719 223.875 149.496094 224.566406 148.417969 225.109375 C 146.796875 226.035156 142.089844 227.5 140.933594 227.5 C 140.394531 227.5 137 217.933594 136.226562 214.152344 C 135.6875 211.53125 134.300781 201.65625 133.992188 197.875 L 133.757812 195.640625 L 136.226562 193.863281 C 139.160156 191.78125 140.316406 190.625 143.171875 186.765625 C 145.640625 183.449219 146.257812 182.371094 147.261719 179.207031 C 147.953125 177.125 148.03125 176.199219 148.03125 172.03125 C 147.953125 165.9375 147.570312 163.699219 146.101562 160.691406 C 144.019531 156.601562 141.9375 156.140625 138.773438 159.226562 C 136.84375 161.078125 133.992188 165.167969 132.910156 167.636719 C 130.828125 172.496094 129.824219 179.976562 130.132812 188.617188 L 130.289062 193.632812 L 128.667969 194.328125 C 127.046875 195.023438 123.421875 195.949219 122.109375 195.949219 C 121.546875 195.949219 121.46875 195.074219 121.878906 193.324219 C 122.574219 190.855469 122.34375 182.0625 121.492188 177.585938 C 120.027344 169.488281 116.710938 164.316406 112.929688 164.316406 C 108.222656 164.316406 102.824219 172.726562 102.824219 179.976562 C 102.824219 184.453125 105.0625 190.085938 108.222656 193.480469 C 109.765625 195.175781 113.394531 197.800781 114.78125 198.339844 C 115.554688 198.648438 115.476562 198.878906 113.777344 201.191406 C 112.003906 203.507812 109.148438 205.898438 108.148438 205.898438 C 108.070312 205.898438 106.914062 204.585938 105.601562 202.890625 C 104.289062 201.269531 101.589844 198.492188 99.585938 196.71875 C 94.878906 192.476562 94.722656 192.320312 91.945312 191.011719 C 87.933594 189.082031 84.695312 189.542969 82.535156 192.476562 C 81.53125 193.789062 80.761719 196.257812 80.761719 198.109375 C 80.761719 199.882812 81.839844 203.894531 82.84375 205.820312 C 84.078125 208.289062 88.628906 212.300781 91.636719 213.691406 C 94.800781 215.15625 100.894531 214.308594 105.445312 211.917969 C 107.066406 211.066406 107.375 210.992188 107.761719 211.375 C 109.148438 212.84375 116.941406 225.183594 119.410156 229.890625 C 121.03125 232.898438 122.265625 235.445312 122.1875 235.523438 C 122.109375 235.601562 120.953125 236.371094 119.566406 237.296875 C 118.175781 238.222656 116.171875 239.84375 115.089844 240.847656 L 113.085938 242.699219 L 112.699219 241.386719 C 112.082031 239.304688 109.148438 234.210938 107.683594 232.515625 C 106.914062 231.742188 105.601562 230.585938 104.675781 230.046875 C 103.75 229.503906 101.433594 228.195312 99.585938 227.113281 C 96.191406 225.109375 94.878906 224.492188 88.476562 221.714844 C 86.46875 220.789062 82.765625 218.9375 80.144531 217.472656 C 75.824219 215.003906 75.128906 214.460938 71.582031 210.914062 C 68.496094 207.828125 67.492188 206.59375 66.410156 204.511719 C 62.015625 196.101562 59.855469 182.214844 61.398438 172.109375 C 62.167969 166.554688 64.328125 161 66.953125 157.375 C 69.652344 153.671875 75.207031 148.65625 80.761719 144.878906 C 88.550781 139.632812 101.898438 134.460938 111 133.304688 C 114.703125 132.6875 124.117188 132.765625 128.589844 133.304688 Z M 143.09375 161.847656 C 144.019531 163.699219 144.328125 165.242188 144.714844 169.949219 C 145.101562 174.808594 144.714844 177.507812 143.324219 180.59375 C 141.78125 183.914062 135.070312 191.394531 133.527344 191.394531 C 133.066406 191.394531 133.066406 185.457031 133.527344 179.976562 C 134.066406 173.421875 135.609375 168.636719 138.386719 164.550781 C 139.777344 162.542969 141.472656 160.691406 142.015625 160.691406 C 142.246094 160.613281 142.785156 161.15625 143.09375 161.847656 Z M 114.242188 168.484375 C 116.632812 171.105469 118.253906 177.277344 118.714844 185.53125 C 118.871094 188.695312 118.792969 190.085938 118.40625 191.9375 C 117.636719 195.253906 117.636719 195.332031 116.09375 194.558594 C 110.769531 191.859375 107.144531 186.691406 106.527344 181.058594 C 106.140625 176.96875 107.839844 172.03125 110.691406 169.023438 C 112.234375 167.402344 113.085938 167.25 114.242188 168.484375 Z M 90.867188 193.941406 C 93.566406 195.253906 99.816406 200.960938 102.980469 204.972656 C 104.136719 206.4375 105.0625 207.671875 104.984375 207.75 C 104.90625 207.75 104.136719 208.214844 103.289062 208.675781 C 100.511719 210.066406 98.195312 210.527344 95.417969 210.449219 C 93.105469 210.375 92.796875 210.296875 91.097656 209.0625 C 86.546875 205.898438 84.695312 203.042969 84.386719 198.570312 C 84.15625 195.949219 84.386719 195.175781 85.464844 193.863281 C 86.546875 192.554688 88.011719 192.554688 90.867188 193.941406 Z M 130.980469 197.800781 C 130.980469 197.953125 131.289062 200.652344 131.597656 203.585938 C 132.679688 212.917969 133.835938 217.238281 137 224.027344 C 138.078125 226.265625 138.929688 228.195312 138.851562 228.195312 C 138.773438 228.269531 137.230469 228.734375 135.457031 229.351562 C 133.605469 229.890625 130.675781 231.046875 128.976562 231.742188 C 127.203125 232.515625 125.660156 233.054688 125.503906 232.976562 C 125.351562 232.898438 124.117188 230.664062 122.726562 227.960938 C 121.339844 225.261719 118.097656 219.941406 115.398438 215.929688 L 110.539062 208.753906 L 112.390625 207.363281 C 114.164062 206.054688 116.324219 203.738281 118.332031 200.960938 L 119.257812 199.652344 L 122.574219 199.265625 C 124.347656 199.109375 126.816406 198.570312 127.972656 198.109375 C 130.597656 197.335938 130.980469 197.257812 130.980469 197.800781 Z M 156.75 227.269531 C 157.058594 227.652344 157.132812 228.425781 157.058594 229.503906 C 156.902344 230.972656 156.75 231.203125 154.742188 233.132812 C 152.96875 234.75 151.425781 235.753906 146.488281 238.222656 C 143.171875 239.921875 138.386719 242.15625 135.917969 243.082031 C 120.644531 249.332031 118.5625 250.101562 116.710938 250.101562 C 115.167969 250.101562 114.085938 247.558594 114.859375 245.476562 C 115.089844 244.78125 115.707031 243.777344 116.324219 243.160156 C 117.636719 241.847656 124.347656 237.296875 125.042969 237.296875 C 125.351562 237.296875 125.8125 236.988281 126.199219 236.601562 C 127.511719 235.292969 134.683594 232.4375 148.03125 227.886719 C 151.503906 226.726562 152.507812 226.496094 154.203125 226.574219 C 155.824219 226.652344 156.441406 226.804688 156.75 227.269531 Z M 159.757812 236.601562 C 161.222656 237.683594 161.839844 238.839844 161.996094 240.769531 C 162.148438 242.542969 162.070312 242.699219 161.070312 243.777344 C 159.527344 245.242188 155.4375 247.402344 151.195312 248.792969 C 149.1875 249.484375 145.023438 251.105469 141.9375 252.496094 C 138.851562 253.804688 136.226562 254.886719 136.152344 254.886719 C 135.996094 254.886719 134.300781 255.582031 132.214844 256.429688 C 128.28125 258.125 122.726562 260.054688 121.03125 260.441406 C 120.183594 260.59375 119.875 260.519531 119.179688 259.746094 C 118.714844 259.285156 118.097656 258.433594 117.867188 257.816406 C 117.40625 256.890625 117.40625 256.660156 117.867188 255.734375 C 118.175781 255.195312 118.871094 254.347656 119.488281 253.804688 C 120.566406 252.878906 125.042969 250.796875 129.902344 248.945312 C 142.089844 244.242188 150.964844 239.996094 155.515625 236.679688 C 156.671875 235.832031 157.132812 235.675781 158.058594 235.832031 C 158.445312 235.984375 159.292969 236.292969 159.757812 236.601562 Z M 162.996094 248.40625 C 164 249.410156 164.230469 249.792969 164.230469 250.953125 C 164.230469 253.960938 160.835938 256.273438 149.035156 261.445312 C 146.257812 262.679688 142.089844 264.453125 139.929688 265.378906 C 135.535156 267.308594 130.054688 269.390625 127.589844 270.160156 C 125.890625 270.703125 123.578125 270.546875 122.804688 269.929688 C 121.878906 269.160156 122.652344 266.382812 124.269531 264.914062 C 125.503906 263.757812 133.835938 259.515625 136.769531 258.433594 C 138.3125 257.894531 142.246094 256.199219 145.5625 254.578125 C 148.878906 252.957031 152.121094 251.492188 152.816406 251.335938 C 153.507812 251.105469 155.746094 250.101562 157.75 249.101562 C 159.757812 248.019531 161.453125 247.25 161.609375 247.25 C 161.761719 247.25 162.378906 247.789062 162.996094 248.40625 Z M 158.214844 261.519531 C 157.132812 263.0625 153.507812 266.304688 151.503906 267.617188 C 149.34375 269.003906 143.710938 271.320312 140.703125 272.011719 C 138.695312 272.476562 133.140625 272.554688 132.0625 272.167969 C 131.601562 272.011719 132.0625 271.703125 134.066406 271.011719 C 139.160156 269.3125 151.8125 263.988281 156.363281 261.597656 C 158.753906 260.441406 158.984375 260.441406 158.214844 261.519531 Z M 189.613281 141.328125 C 185.0625 144.492188 183.902344 145.804688 184.597656 147.347656 C 185.292969 148.8125 185.753906 148.734375 192.234375 145.648438 C 193.160156 145.1875 194.628906 144.183594 195.554688 143.335938 C 196.863281 142.101562 197.097656 141.636719 197.097656 140.710938 C 197.097656 139.324219 196.324219 138.550781 194.78125 138.550781 C 194.011719 138.550781 192.851562 139.167969 189.613281 141.328125 Z M 39.023438 148.964844 C 38.484375 149.738281 38.484375 149.816406 39.101562 150.664062 C 39.875 151.820312 43.421875 153.515625 45.429688 153.824219 C 46.40625 153.929688 46.894531 153.722656 46.894531 153.207031 C 46.894531 152.050781 45.195312 150.355469 42.960938 149.199219 C 40.644531 147.886719 39.71875 147.886719 39.023438 148.964844 Z M 223.25 168.175781 C 221.320312 168.871094 218.929688 170.488281 217.078125 172.339844 C 212.910156 176.582031 209.128906 185.222656 206.351562 196.796875 C 203.652344 207.75 203.113281 212.378906 203.113281 223.410156 C 203.113281 232.515625 203.421875 235.136719 205.195312 242.234375 C 208.359375 254.578125 214.300781 264.53125 220.164062 267.308594 C 221.628906 268 222.398438 268.15625 224.484375 268.15625 C 226.71875 268.15625 227.261719 268 228.492188 267.308594 C 231.425781 265.609375 234.28125 261.675781 235.824219 257.507812 C 236.207031 256.429688 236.671875 255.503906 236.75 255.503906 C 236.902344 255.503906 237.675781 256.816406 238.523438 258.433594 C 240.683594 262.601562 241.917969 264.53125 244.15625 267.382812 C 246.625 270.546875 248.9375 272.628906 250.25 272.859375 C 252.484375 273.324219 254.722656 271.085938 254.183594 268.773438 C 254.027344 268.234375 253.101562 266.84375 251.867188 265.53125 C 249.167969 262.679688 247.859375 260.828125 245.773438 257.046875 C 243.539062 253.035156 242.457031 251.414062 240.914062 249.792969 L 239.679688 248.484375 L 241.300781 242.234375 C 243.152344 235.058594 245.003906 225.570312 245.699219 219.246094 C 246.855469 209.371094 245.390625 194.636719 242.378906 185.222656 C 241.070312 181.136719 238.675781 176.199219 236.59375 173.265625 C 233.199219 168.714844 227.878906 166.554688 223.25 168.175781 Z M 228.492188 175.117188 C 231.578125 176.660156 235.667969 185.222656 237.289062 193.324219 C 238.601562 199.957031 238.910156 203.507812 238.910156 211.222656 C 238.910156 218.707031 238.910156 219.089844 237.597656 227.191406 C 236.824219 231.742188 235.746094 237.296875 235.28125 239.457031 C 234.742188 241.617188 234.355469 243.625 234.355469 243.933594 C 234.355469 244.859375 233.972656 244.859375 231.347656 244.085938 C 229.960938 243.625 227.644531 243.160156 226.257812 243.082031 C 223.710938 242.929688 223.632812 242.929688 222.785156 243.777344 C 220.933594 245.628906 222.089844 248.792969 224.945312 249.175781 C 227.492188 249.5625 230.269531 250.410156 230.421875 250.796875 C 230.578125 251.335938 229.417969 255.425781 228.570312 257.125 C 227.644531 259.050781 225.484375 261.210938 224.558594 261.210938 C 221.9375 261.210938 217.847656 256.199219 215.148438 249.640625 C 212.988281 244.316406 211.136719 237.296875 210.441406 231.820312 C 210.054688 228.347656 210.054688 218.164062 210.441406 213.921875 C 211.523438 203.507812 214.761719 190.855469 218.464844 183.0625 C 221.398438 176.582031 225.332031 173.5 228.492188 175.117188 Z M 298.078125 169.023438 C 296.84375 170.179688 296.769531 171.105469 297.152344 175.964844 C 297.617188 181.367188 297.617188 193.554688 297.152344 208.058594 C 296.769531 221.097656 297.152344 239.6875 298.15625 252.496094 C 298.464844 256.890625 298.851562 261.519531 298.851562 262.753906 C 299.003906 265.457031 299.621094 266.613281 301.472656 267.230469 C 302.476562 267.617188 302.707031 267.617188 303.789062 267.074219 C 306.101562 265.996094 306.179688 264.605469 305.253906 252.570312 C 304.328125 241.230469 303.789062 220.710938 304.171875 206.824219 C 304.558594 192.9375 304.25 179.515625 303.554688 175.042969 C 303.246094 173.265625 303.015625 171.492188 303.015625 170.953125 C 303.015625 170.335938 302.707031 169.640625 302.089844 169.101562 C 300.855469 168.019531 299.238281 167.945312 298.078125 169.023438 Z M 329.476562 170.027344 C 329.398438 170.105469 326.082031 170.179688 322.148438 170.179688 C 318.214844 170.179688 314.433594 170.335938 313.738281 170.488281 C 312.273438 170.796875 311.117188 171.800781 310.652344 173.265625 C 309.960938 175.425781 311.964844 177.664062 314.046875 177.046875 C 314.820312 176.816406 328.242188 176.816406 328.472656 177.046875 C 328.472656 177.046875 328.089844 178.820312 327.625 180.902344 C 327.085938 182.988281 326.3125 186.765625 325.851562 189.3125 C 324.695312 195.5625 322.84375 204.664062 320.761719 215.078125 C 318.058594 228.425781 317.367188 234.289062 316.671875 249.101562 C 316.132812 259.746094 316.363281 265.148438 317.367188 266.84375 C 318.367188 268.542969 320.144531 269.234375 323.613281 269.621094 C 327.085938 270.007812 339.816406 269.699219 341.28125 269.234375 C 344.210938 268.386719 344.445312 264.222656 341.667969 262.753906 C 340.972656 262.371094 339.890625 262.371094 335.878906 262.601562 C 329.863281 262.988281 324.386719 262.988281 323.921875 262.679688 C 322.996094 262.0625 323.152344 253.34375 324.308594 239.148438 C 324.925781 231.125 325.773438 225.800781 327.703125 216.3125 C 329.632812 206.824219 331.40625 197.566406 332.640625 191.472656 C 333.101562 188.925781 333.953125 184.839844 334.570312 182.371094 C 336.113281 176.042969 336.1875 174.65625 335.261719 172.882812 C 334.800781 171.957031 334.105469 171.261719 333.410156 170.875 C 332.175781 170.257812 329.707031 169.71875 329.476562 170.027344 Z M 253.335938 171.800781 C 252.871094 172.339844 252.484375 172.957031 252.484375 173.113281 C 252.410156 176.121094 251.714844 187.152344 251.40625 190.855469 C 249.863281 205.898438 250.09375 222.253906 252.023438 233.824219 C 252.71875 237.761719 254.800781 246.324219 256.035156 250.101562 C 257.191406 253.652344 259.429688 258.28125 260.972656 260.363281 C 263.363281 263.605469 266.371094 265.378906 269.457031 265.378906 C 271.773438 265.378906 275.246094 263.679688 276.941406 261.828125 C 278.253906 260.363281 280.105469 256.582031 280.566406 254.5 C 281.03125 252.648438 282.726562 240.152344 283.035156 236.910156 C 283.113281 235.601562 283.421875 232.28125 283.730469 229.582031 C 284.5 221.175781 285.117188 210.375 285.425781 198.570312 C 285.582031 192.320312 285.890625 184.914062 286.042969 182.136719 C 286.429688 175.890625 286.042969 174.734375 283.652344 173.960938 C 282.339844 173.5 280.488281 174.269531 279.871094 175.582031 C 279.332031 176.507812 279.023438 182.679688 278.40625 200.5 C 277.558594 225.570312 275.011719 251.105469 272.851562 255.425781 C 271.234375 258.589844 269.457031 259.128906 267.453125 256.96875 C 264.90625 254.347656 263.132812 250.027344 260.894531 241.078125 C 257.730469 228.425781 256.882812 216.855469 257.886719 198.109375 C 258.273438 191.9375 258.503906 183.605469 258.503906 179.59375 L 258.503906 172.265625 L 257.578125 171.492188 C 256.113281 170.414062 254.335938 170.566406 253.335938 171.800781 Z M 185.988281 173.960938 C 184.367188 174.5 183.519531 176.660156 184.519531 177.507812 C 185.292969 178.203125 191.773438 179.824219 192.777344 179.667969 C 195.011719 179.207031 195.554688 177.433594 193.933594 175.964844 C 192.3125 174.425781 187.761719 173.265625 185.988281 173.960938 Z M 39.410156 184.375 C 36.789062 185.148438 32.46875 186.765625 31.386719 187.460938 C 30.078125 188.234375 29.921875 189.777344 31.003906 190.394531 C 33.007812 191.472656 39.488281 189.851562 42.109375 187.617188 C 43.421875 186.457031 44.269531 185.070312 43.808594 184.605469 C 43.269531 184.066406 40.953125 183.988281 39.410156 184.375 Z M 174.183594 205.976562 C 173.722656 206.128906 173.179688 206.59375 172.949219 207.132812 C 172.5625 207.90625 172.5625 208.136719 173.105469 208.90625 C 174.957031 211.375 181.976562 213.382812 183.980469 211.917969 C 184.367188 211.683594 184.675781 211.144531 184.675781 210.835938 C 184.675781 209.832031 182.207031 208.058594 179.429688 207.054688 C 176.421875 205.898438 175.265625 205.667969 174.183594 205.976562 Z M 50.75 220.25 C 48.746094 220.867188 46.894531 222.5625 46.894531 223.71875 C 46.894531 226.496094 49.902344 226.109375 54.222656 222.871094 C 55.304688 222.023438 56.226562 221.175781 56.226562 221.097656 C 56.152344 220.09375 52.757812 219.554688 50.75 220.25 Z M 74.976562 241.773438 C 72.121094 242.621094 66.953125 246.476562 66.566406 248.019531 C 66.257812 249.253906 66.875 250.101562 68.03125 250.101562 C 69.574219 250.101562 74.125 247.789062 75.902344 246.015625 C 77.445312 244.550781 78.214844 242.699219 77.675781 241.847656 C 77.519531 241.386719 76.210938 241.386719 74.976562 241.773438 Z M 74.976562 241.773438 " fill-opacity="1" fill-rule="nonzero"/></svg>