<svg xmlns="http://www.w3.org/2000/svg" xmlns:xlink="http://www.w3.org/1999/xlink" width="96" zoomAndPan="magnify" viewBox="0 0 72 72" height="96" preserveAspectRatio="xMidYMid meet" version="1.0"><path fill="#737373" d="M 36 0 C 34.820312 0 33.644531 0.0585938 32.472656 0.171875 C 31.296875 0.289062 30.132812 0.460938 28.976562 0.691406 C 27.820312 0.921875 26.679688 1.207031 25.550781 1.550781 C 24.421875 1.890625 23.3125 2.289062 22.222656 2.742188 C 21.132812 3.191406 20.070312 3.695312 19.03125 4.25 C 17.988281 4.804688 16.980469 5.410156 16 6.066406 C 15.019531 6.722656 14.074219 7.421875 13.160156 8.171875 C 12.25 8.917969 11.378906 9.710938 10.542969 10.542969 C 9.710938 11.378906 8.917969 12.25 8.171875 13.160156 C 7.421875 14.074219 6.722656 15.019531 6.066406 16 C 5.410156 16.980469 4.804688 17.988281 4.25 19.03125 C 3.695312 20.070312 3.191406 21.132812 2.742188 22.222656 C 2.289062 23.3125 1.890625 24.421875 1.550781 25.550781 C 1.207031 26.679688 0.921875 27.820312 0.691406 28.976562 C 0.460938 30.132812 0.289062 31.296875 0.171875 32.472656 C 0.0585938 33.644531 0 34.820312 0 36 C 0 37.179688 0.0585938 38.355469 0.171875 39.527344 C 0.289062 40.703125 0.460938 41.867188 0.691406 43.023438 C 0.921875 44.179688 1.207031 45.320312 1.550781 46.449219 C 1.890625 47.578125 2.289062 48.6875 2.742188 49.777344 C 3.191406 50.867188 3.695312 51.929688 4.25 52.96875 C 4.804688 54.011719 5.410156 55.019531 6.066406 56 C 6.722656 56.980469 7.421875 57.925781 8.171875 58.839844 C 8.917969 59.75 9.710938 60.621094 10.542969 61.457031 C 11.378906 62.289062 12.25 63.082031 13.160156 63.828125 C 14.074219 64.578125 15.019531 65.277344 16 65.933594 C 16.980469 66.589844 17.988281 67.195312 19.03125 67.75 C 20.070312 68.304688 21.132812 68.808594 22.222656 69.257812 C 23.3125 69.710938 24.421875 70.109375 25.550781 70.449219 C 26.679688 70.792969 27.820312 71.078125 28.976562 71.308594 C 30.132812 71.539062 31.296875 71.710938 32.472656 71.828125 C 33.644531 71.941406 34.820312 72 36 72 C 37.179688 72 38.355469 71.941406 39.527344 71.828125 C 40.703125 71.710938 41.867188 71.539062 43.023438 71.308594 C 44.179688 71.078125 45.320312 70.792969 46.449219 70.449219 C 47.578125 70.109375 48.6875 69.710938 49.777344 69.257812 C 50.867188 68.808594 51.929688 68.304688 52.96875 67.75 C 54.011719 67.195312 55.019531 66.589844 56 65.933594 C 56.980469 65.277344 57.925781 64.578125 58.839844 63.828125 C 59.75 63.082031 60.621094 62.289062 61.457031 61.457031 C 62.289062 60.621094 63.082031 59.75 63.828125 58.839844 C 64.578125 57.925781 65.277344 56.980469 65.933594 56 C 66.589844 55.019531 67.195312 54.011719 67.75 52.96875 C 68.304688 51.929688 68.808594 50.867188 69.257812 49.777344 C 69.710938 48.6875 70.109375 47.578125 70.449219 46.449219 C 70.792969 45.320312 71.078125 44.179688 71.308594 43.023438 C 71.539062 41.867188 71.710938 40.703125 71.828125 39.527344 C 71.941406 38.355469 72 37.179688 72 36 C 72 34.820312 71.941406 33.644531 71.828125 32.472656 C 71.710938 31.296875 71.539062 30.132812 71.308594 28.976562 C 71.078125 27.820312 70.792969 26.679688 70.449219 25.550781 C 70.105469 24.421875 69.710938 23.3125 69.257812 22.222656 C 68.808594 21.136719 68.304688 20.070312 67.746094 19.03125 C 67.191406 17.992188 66.585938 16.980469 65.929688 16 C 65.277344 15.019531 64.574219 14.074219 63.828125 13.164062 C 63.078125 12.25 62.289062 11.378906 61.453125 10.546875 C 60.621094 9.710938 59.75 8.921875 58.835938 8.171875 C 57.925781 7.425781 56.980469 6.722656 56 6.070312 C 55.019531 5.414062 54.007812 4.808594 52.96875 4.253906 C 51.929688 3.695312 50.863281 3.191406 49.777344 2.742188 C 48.6875 2.289062 47.578125 1.894531 46.449219 1.550781 C 45.320312 1.207031 44.179688 0.921875 43.023438 0.691406 C 41.867188 0.460938 40.703125 0.289062 39.527344 0.171875 C 38.355469 0.0585938 37.179688 0 36 0 Z M 36 13.5 C 36.425781 13.5 36.851562 13.523438 37.273438 13.574219 C 37.699219 13.621094 38.117188 13.695312 38.53125 13.792969 C 38.949219 13.890625 39.355469 14.011719 39.757812 14.15625 C 40.15625 14.300781 40.546875 14.46875 40.929688 14.660156 C 41.3125 14.847656 41.679688 15.0625 42.039062 15.292969 C 42.394531 15.527344 42.738281 15.777344 43.066406 16.050781 C 43.394531 16.324219 43.703125 16.613281 44 16.921875 C 44.292969 17.230469 44.566406 17.554688 44.824219 17.898438 C 45.082031 18.238281 45.316406 18.589844 45.53125 18.960938 C 45.746094 19.328125 45.941406 19.707031 46.113281 20.097656 C 46.285156 20.488281 46.433594 20.886719 46.558594 21.292969 C 46.683594 21.699219 46.785156 22.113281 46.863281 22.53125 C 46.941406 22.953125 46.992188 23.375 47.023438 23.800781 C 47.050781 24.226562 47.054688 24.652344 47.035156 25.078125 C 47.015625 25.503906 46.96875 25.925781 46.898438 26.347656 C 46.828125 26.765625 46.734375 27.183594 46.617188 27.589844 C 46.5 28 46.359375 28.402344 46.195312 28.796875 C 46.03125 29.191406 45.84375 29.570312 45.636719 29.945312 C 45.425781 30.316406 45.199219 30.675781 44.949219 31.019531 C 44.699219 31.363281 44.429688 31.695312 44.140625 32.007812 C 43.851562 32.324219 43.546875 32.617188 43.222656 32.898438 C 42.902344 33.175781 42.5625 33.433594 42.210938 33.675781 C 41.859375 33.914062 41.492188 34.132812 41.113281 34.332031 C 40.738281 34.527344 40.347656 34.703125 39.949219 34.855469 C 39.554688 35.007812 39.148438 35.136719 38.734375 35.242188 C 38.320312 35.347656 37.902344 35.429688 37.480469 35.484375 C 37.058594 35.542969 36.632812 35.574219 36.207031 35.582031 C 35.78125 35.589844 35.355469 35.574219 34.933594 35.53125 C 34.507812 35.488281 34.085938 35.425781 33.671875 35.335938 C 33.253906 35.242188 32.84375 35.128906 32.441406 34.992188 C 32.035156 34.855469 31.644531 34.695312 31.257812 34.511719 C 30.871094 34.328125 30.5 34.121094 30.140625 33.894531 C 20.867188 28.023438 24.886719 13.613281 36 13.5 Z M 48.949219 58.5 L 23.050781 58.5 C 22.515625 58.5 21.984375 58.445312 21.460938 58.339844 C 20.933594 58.234375 20.425781 58.078125 19.929688 57.875 C 19.433594 57.667969 18.964844 57.417969 18.519531 57.117188 C 18.074219 56.820312 17.664062 56.480469 17.285156 56.101562 C 16.90625 55.722656 16.566406 55.3125 16.269531 54.867188 C 15.972656 54.421875 15.722656 53.949219 15.515625 53.453125 C 15.3125 52.960938 15.15625 52.449219 15.050781 51.925781 C 14.949219 51.398438 14.894531 50.867188 14.894531 50.332031 C 14.894531 43.414062 19.992188 37.441406 27.304688 34.75 C 27.90625 35.261719 28.550781 35.714844 29.234375 36.113281 C 29.914062 36.507812 30.628906 36.84375 31.371094 37.113281 C 32.109375 37.386719 32.871094 37.589844 33.648438 37.730469 C 34.425781 37.867188 35.210938 37.9375 36 37.9375 C 36.789062 37.9375 37.574219 37.867188 38.351562 37.730469 C 39.128906 37.589844 39.890625 37.386719 40.628906 37.113281 C 41.371094 36.84375 42.085938 36.507812 42.765625 36.113281 C 43.449219 35.714844 44.09375 35.261719 44.695312 34.75 C 52.007812 37.441406 57.105469 43.414062 57.105469 50.332031 C 57.105469 50.867188 57.050781 51.398438 56.949219 51.925781 C 56.84375 52.449219 56.6875 52.960938 56.484375 53.453125 C 56.277344 53.949219 56.027344 54.421875 55.730469 54.867188 C 55.433594 55.3125 55.09375 55.722656 54.714844 56.101562 C 54.335938 56.480469 53.925781 56.820312 53.480469 57.117188 C 53.035156 57.417969 52.566406 57.667969 52.070312 57.875 C 51.574219 58.078125 51.066406 58.234375 50.539062 58.339844 C 50.015625 58.445312 49.484375 58.5 48.949219 58.5 Z M 48.949219 58.5 " fill-opacity="1" fill-rule="nonzero"/></svg>