<svg xmlns="http://www.w3.org/2000/svg" xmlns:xlink="http://www.w3.org/1999/xlink" width="353" zoomAndPan="magnify" viewBox="0 0 264.75 283.499996" height="378" preserveAspectRatio="xMidYMid meet" version="1.0"><defs><clipPath id="4f04360b1a"><path d="M 38.03125 38.207031 L 226.878906 38.207031 L 226.878906 245 L 38.03125 245 Z M 38.03125 38.207031 " clip-rule="nonzero"/></clipPath><clipPath id="6eff9fc986"><path d="M 90.113281 69.277344 L 157.554688 69.277344 L 157.554688 214.660156 L 90.113281 214.660156 Z M 90.113281 69.277344 " clip-rule="nonzero"/></clipPath></defs><path fill="#243047" d="M 154.109375 194.882812 L 174.640625 195.726562 L 154.109375 196.5625 Z M 154.109375 194.882812 " fill-opacity="1" fill-rule="nonzero"/><path fill="#243047" d="M 153.738281 200.191406 L 174.277344 201.035156 L 153.738281 201.882812 Z M 153.738281 200.191406 " fill-opacity="1" fill-rule="nonzero"/><path fill="#243047" d="M 154.109375 205.507812 L 174.640625 206.355469 L 154.109375 207.199219 Z M 154.109375 205.507812 " fill-opacity="1" fill-rule="nonzero"/><path fill="#243047" d="M 110.800781 196.5625 L 90.269531 195.726562 L 110.800781 194.882812 Z M 110.800781 196.5625 " fill-opacity="1" fill-rule="nonzero"/><path fill="#243047" d="M 111.171875 201.882812 L 90.632812 201.035156 L 111.171875 200.191406 Z M 111.171875 201.882812 " fill-opacity="1" fill-rule="nonzero"/><path fill="#243047" d="M 110.800781 207.199219 L 90.269531 206.355469 L 110.800781 205.507812 Z M 110.800781 207.199219 " fill-opacity="1" fill-rule="nonzero"/><g clip-path="url(#4f04360b1a)"><path fill="#243047" d="M 220.460938 57.425781 L 219.476562 116.484375 C 219.089844 140.101562 212.648438 163.285156 200.410156 183.515625 C 199.523438 184.988281 198.605469 186.445312 197.660156 187.875 C 182.089844 211.355469 160.164062 228.167969 132.457031 237.871094 C 104.75 228.167969 82.820312 211.355469 67.25 187.875 C 66.304688 186.445312 65.386719 184.988281 64.5 183.515625 C 52.261719 163.285156 45.824219 140.101562 45.433594 116.484375 L 44.449219 57.425781 L 44.449219 54.191406 C 44.449219 49.128906 49.097656 45.011719 54.8125 45.011719 L 210.097656 45.011719 C 215.8125 45.011719 220.460938 49.128906 220.460938 54.191406 Z M 210.097656 38.65625 L 54.8125 38.65625 C 45.5625 38.65625 38.074219 45.617188 38.074219 54.191406 L 38.074219 62.234375 L 39.351562 118.679688 C 39.957031 145.613281 48.292969 171.867188 63.707031 193.996094 C 77.6875 214.058594 99.242188 233.488281 132.457031 244.585938 C 165.667969 233.488281 187.222656 214.058594 201.203125 193.996094 C 216.617188 171.867188 224.957031 145.613281 225.5625 118.679688 L 226.835938 62.234375 L 226.835938 54.191406 C 226.835938 45.617188 219.347656 38.65625 210.097656 38.65625 " fill-opacity="1" fill-rule="nonzero"/></g><path fill="#243047" d="M 64.28125 104.507812 C 63.738281 103.492188 63.011719 102.351562 62.0625 101.0625 C 61.675781 102.558594 61.449219 103.855469 61.335938 104.972656 C 60.808594 110.28125 62.972656 111.59375 63.894531 111.914062 C 63.820312 111.425781 63.609375 110.949219 63.289062 110.589844 C 62.78125 110.015625 62.0625 108.898438 62.09375 107.195312 C 62.09375 107.128906 62.09375 107.082031 62.09375 107.082031 C 62.09375 107.121094 62.09375 107.160156 62.09375 107.195312 C 62.101562 107.652344 62.238281 109.414062 63.691406 110.578125 L 62.925781 105.335938 L 64.273438 110.484375 C 65.175781 108.945312 64.613281 107.25 64.441406 106.824219 C 64.425781 106.792969 64.417969 106.75 64.402344 106.71875 C 64.402344 106.71875 64.417969 106.757812 64.441406 106.824219 C 65.144531 108.40625 64.910156 109.679688 64.660156 110.371094 C 64.5 110.8125 64.492188 111.3125 64.613281 111.792969 C 65.355469 111.214844 66.863281 109.316406 64.28125 104.507812 " fill-opacity="1" fill-rule="nonzero"/><path fill="#243047" d="M 66.929688 96.625 C 66.539062 95.648438 66 94.546875 65.273438 93.285156 C 64.765625 94.570312 64.417969 95.691406 64.199219 96.664062 C 63.167969 101.3125 65 102.753906 65.796875 103.148438 C 65.78125 102.703125 65.644531 102.261719 65.386719 101.898438 C 64.992188 101.320312 64.449219 100.242188 64.660156 98.738281 C 64.667969 98.675781 64.675781 98.632812 64.675781 98.632812 C 64.667969 98.675781 64.667969 98.699219 64.660156 98.738281 C 64.621094 99.140625 64.5625 100.726562 65.757812 101.941406 L 65.613281 97.1875 L 66.289062 101.933594 C 67.273438 100.675781 66.9375 99.101562 66.832031 98.699219 C 66.816406 98.667969 66.808594 98.632812 66.800781 98.601562 C 66.800781 98.601562 66.808594 98.632812 66.832031 98.699219 C 67.300781 100.195312 66.953125 101.289062 66.652344 101.875 C 66.460938 102.253906 66.402344 102.695312 66.460938 103.140625 C 67.195312 102.710938 68.761719 101.214844 66.929688 96.625 " fill-opacity="1" fill-rule="nonzero"/><path fill="#243047" d="M 74.304688 94.121094 C 74.472656 92.929688 74.554688 91.5 74.53125 89.785156 C 73.238281 90.648438 72.214844 91.46875 71.414062 92.246094 C 67.589844 95.941406 68.664062 98.59375 69.269531 99.535156 C 69.519531 99.101562 69.632812 98.585938 69.582031 98.054688 C 69.496094 97.226562 69.566406 95.820312 70.671875 94.539062 C 70.722656 94.484375 70.746094 94.453125 70.746094 94.453125 C 70.722656 94.476562 70.695312 94.507812 70.671875 94.539062 C 70.398438 94.894531 69.398438 96.359375 69.945312 98.359375 L 72.59375 93.726562 L 70.511719 98.722656 C 72.285156 98.222656 72.859375 96.488281 72.980469 96.027344 C 72.988281 95.988281 72.996094 95.957031 73.003906 95.914062 C 73.003906 95.914062 72.996094 95.957031 72.980469 96.027344 C 72.601562 97.78125 71.585938 98.578125 70.929688 98.925781 C 70.503906 99.148438 70.179688 99.527344 69.988281 99.992188 C 70.996094 100.105469 73.539062 99.785156 74.304688 94.121094 " fill-opacity="1" fill-rule="nonzero"/><path fill="#243047" d="M 62.207031 113.074219 C 61.449219 112.238281 60.480469 111.328125 59.269531 110.347656 C 59.269531 111.929688 59.375 113.273438 59.542969 114.410156 C 60.359375 119.789062 62.722656 120.441406 63.667969 120.480469 C 63.472656 120.023438 63.167969 119.621094 62.773438 119.355469 C 62.148438 118.945312 61.199219 118.054688 60.808594 116.371094 C 60.792969 116.300781 60.785156 116.257812 60.785156 116.257812 C 60.792969 116.300781 60.800781 116.332031 60.808594 116.371094 C 60.929688 116.8125 61.496094 118.511719 63.152344 119.226562 L 61.132812 114.289062 L 63.675781 118.96875 C 64.144531 117.183594 63.191406 115.679688 62.925781 115.308594 C 62.910156 115.277344 62.882812 115.253906 62.859375 115.222656 C 62.859375 115.222656 62.882812 115.253906 62.925781 115.308594 C 63.980469 116.660156 64.070312 117.980469 64.007812 118.738281 C 63.964844 119.21875 64.078125 119.71875 64.320312 120.160156 C 64.871094 119.371094 65.824219 117.046875 62.207031 113.074219 " fill-opacity="1" fill-rule="nonzero"/><path fill="#243047" d="M 62.609375 123.371094 C 61.699219 122.75 60.578125 122.125 59.195312 121.480469 C 59.566406 123.046875 59.972656 124.351562 60.398438 125.421875 C 62.410156 130.503906 64.804688 130.496094 65.703125 130.28125 C 65.417969 129.878906 65.03125 129.570312 64.59375 129.417969 C 63.917969 129.179688 62.804688 128.566406 62.054688 127.007812 C 62.011719 126.941406 61.996094 126.910156 61.996094 126.910156 C 62.011719 126.941406 62.027344 126.972656 62.054688 127.007812 C 62.269531 127.417969 63.191406 128.9375 64.925781 129.1875 L 61.875 124.859375 L 65.363281 128.785156 C 65.394531 126.894531 64.152344 125.671875 63.8125 125.375 C 63.78125 125.347656 63.757812 125.324219 63.730469 125.308594 C 63.730469 125.308594 63.765625 125.332031 63.8125 125.375 C 65.121094 126.417969 65.515625 127.699219 65.628906 128.460938 C 65.703125 128.953125 65.917969 129.410156 66.25 129.78125 C 66.589844 128.847656 66.960938 126.289062 62.609375 123.371094 " fill-opacity="1" fill-rule="nonzero"/><path fill="#243047" d="M 75.597656 123.972656 C 75.757812 122.871094 75.847656 121.542969 75.832031 119.953125 C 74.628906 120.738281 73.667969 121.496094 72.917969 122.210938 C 69.339844 125.605469 70.324219 128.085938 70.882812 128.960938 C 71.117188 128.558594 71.222656 128.074219 71.171875 127.585938 C 71.101562 126.820312 71.179688 125.511719 72.222656 124.335938 C 72.261719 124.277344 72.285156 124.253906 72.285156 124.253906 C 72.261719 124.277344 72.238281 124.304688 72.222656 124.335938 C 71.957031 124.664062 71.019531 126.007812 71.511719 127.875 L 74.007812 123.59375 L 72.035156 128.222656 C 73.691406 127.769531 74.230469 126.160156 74.351562 125.734375 C 74.359375 125.703125 74.371094 125.671875 74.378906 125.628906 C 74.378906 125.628906 74.371094 125.671875 74.351562 125.734375 C 73.980469 127.359375 73.039062 128.09375 72.425781 128.40625 C 72.027344 128.605469 71.722656 128.960938 71.535156 129.386719 C 72.480469 129.5 74.835938 129.226562 75.597656 123.972656 " fill-opacity="1" fill-rule="nonzero"/><path fill="#243047" d="M 79.1875 130.199219 C 79.074219 129.058594 78.839844 127.722656 78.453125 126.160156 C 77.5 127.28125 76.78125 128.300781 76.242188 129.21875 C 73.667969 133.585938 75.183594 135.75 75.917969 136.457031 C 76.046875 136 76.039062 135.492188 75.871094 135.019531 C 75.621094 134.285156 75.386719 132.976562 76.082031 131.511719 C 76.113281 131.445312 76.128906 131.414062 76.128906 131.414062 C 76.113281 131.445312 76.097656 131.480469 76.082031 131.511719 C 75.917969 131.914062 75.355469 133.503906 76.257812 135.203125 L 77.597656 130.28125 L 76.839844 135.394531 C 78.292969 134.480469 78.421875 132.742188 78.429688 132.28125 C 78.429688 132.25 78.4375 132.210938 78.429688 132.171875 C 78.429688 132.171875 78.4375 132.21875 78.429688 132.28125 C 78.46875 133.988281 77.75 134.984375 77.25 135.476562 C 76.917969 135.78125 76.71875 136.214844 76.644531 136.691406 C 77.566406 136.539062 79.726562 135.589844 79.1875 130.199219 " fill-opacity="1" fill-rule="nonzero"/><path fill="#243047" d="M 83.578125 135.925781 C 83.160156 134.855469 82.570312 133.625 81.777344 132.226562 C 81.207031 133.644531 80.816406 134.875 80.566406 135.953125 C 79.398438 141.074219 81.40625 142.683594 82.285156 143.125 C 82.269531 142.636719 82.125 142.152344 81.84375 141.742188 C 81.40625 141.109375 80.816406 139.902344 81.058594 138.242188 C 81.066406 138.171875 81.078125 138.132812 81.078125 138.132812 C 81.066406 138.171875 81.066406 138.203125 81.058594 138.242188 C 81.011719 138.695312 80.9375 140.441406 82.253906 141.792969 L 82.125 136.539062 L 82.84375 141.792969 C 83.933594 140.40625 83.578125 138.671875 83.457031 138.21875 C 83.449219 138.1875 83.441406 138.148438 83.425781 138.113281 C 83.425781 138.113281 83.441406 138.15625 83.457031 138.21875 C 83.972656 139.875 83.578125 141.082031 83.246094 141.726562 C 83.03125 142.144531 82.957031 142.628906 83.03125 143.117188 C 83.835938 142.660156 85.578125 141.019531 83.578125 135.925781 " fill-opacity="1" fill-rule="nonzero"/><path fill="#243047" d="M 76.886719 148.964844 C 75.984375 149.3125 74.941406 149.8125 73.773438 150.519531 C 75.039062 151.242188 76.144531 151.765625 77.105469 152.121094 C 81.648438 153.808594 82.933594 151.855469 83.273438 150.976562 C 82.835938 150.945312 82.425781 151.058594 82.085938 151.316406 C 81.550781 151.71875 80.535156 152.214844 79.074219 151.8125 C 79.011719 151.796875 78.976562 151.789062 78.976562 151.789062 C 79.011719 151.796875 79.042969 151.804688 79.074219 151.8125 C 79.46875 151.902344 80.996094 152.144531 82.101562 150.890625 L 77.515625 150.550781 L 82.0625 150.269531 C 80.785156 149 79.285156 149.222656 78.90625 149.304688 C 78.871094 149.3125 78.839844 149.3125 78.808594 149.328125 C 78.808594 149.328125 78.847656 149.3125 78.90625 149.304688 C 80.316406 148.917969 81.398438 149.441406 81.988281 149.84375 C 82.359375 150.109375 82.796875 150.230469 83.214844 150.199219 C 82.761719 149.3125 81.222656 147.339844 76.886719 148.964844 " fill-opacity="1" fill-rule="nonzero"/><path fill="#243047" d="M 88.96875 140.625 C 88.46875 139.675781 87.792969 138.605469 86.910156 137.398438 C 86.539062 138.800781 86.324219 140.003906 86.21875 141.042969 C 85.707031 145.992188 87.726562 147.230469 88.582031 147.527344 C 88.515625 147.078125 88.324219 146.632812 88.015625 146.289062 C 87.550781 145.757812 86.878906 144.710938 86.917969 143.117188 C 86.917969 143.054688 86.917969 143.015625 86.917969 143.015625 C 86.917969 143.054688 86.917969 143.085938 86.917969 143.117188 C 86.925781 143.546875 87.046875 145.195312 88.40625 146.289062 L 87.703125 141.390625 L 88.945312 146.199219 C 89.792969 144.769531 89.269531 143.183594 89.113281 142.78125 C 89.097656 142.75 89.089844 142.714844 89.074219 142.683594 C 89.074219 142.683594 89.089844 142.722656 89.113281 142.78125 C 89.769531 144.261719 89.535156 145.453125 89.300781 146.09375 C 89.15625 146.503906 89.140625 146.972656 89.261719 147.429688 C 89.945312 146.882812 91.367188 145.121094 88.96875 140.625 " fill-opacity="1" fill-rule="nonzero"/><path fill="#243047" d="M 73.820312 116.429688 C 74.144531 115.382812 74.433594 114.101562 74.667969 112.550781 C 73.34375 113.105469 72.269531 113.667969 71.40625 114.222656 C 67.324219 116.878906 67.929688 119.460938 68.347656 120.417969 C 68.648438 120.070312 68.824219 119.628906 68.855469 119.140625 C 68.898438 118.382812 69.171875 117.121094 70.390625 116.164062 C 70.4375 116.113281 70.472656 116.097656 70.472656 116.097656 C 70.4375 116.113281 70.414062 116.136719 70.390625 116.164062 C 70.074219 116.4375 68.9375 117.578125 69.148438 119.476562 L 72.285156 115.769531 L 69.625 119.910156 C 71.335938 119.765625 72.125 118.300781 72.3125 117.910156 C 72.320312 117.875 72.335938 117.851562 72.351562 117.8125 C 72.351562 117.8125 72.335938 117.851562 72.3125 117.910156 C 71.699219 119.429688 70.640625 119.96875 69.980469 120.160156 C 69.550781 120.289062 69.195312 120.570312 68.945312 120.957031 C 69.875 121.238281 72.269531 121.398438 73.820312 116.429688 " fill-opacity="1" fill-rule="nonzero"/><path fill="#243047" d="M 73.175781 109.003906 C 73.488281 108.0625 73.78125 106.910156 74.015625 105.511719 C 72.804688 105.988281 71.820312 106.46875 71.027344 106.953125 C 67.257812 109.269531 67.765625 111.625 68.128906 112.503906 C 68.40625 112.195312 68.582031 111.792969 68.613281 111.351562 C 68.671875 110.667969 68.9375 109.535156 70.058594 108.691406 C 70.109375 108.648438 70.140625 108.632812 70.140625 108.632812 C 70.109375 108.648438 70.089844 108.664062 70.058594 108.691406 C 69.777344 108.929688 68.71875 109.9375 68.875 111.664062 L 71.792969 108.375 L 69.292969 112.066406 C 70.859375 111.972656 71.601562 110.667969 71.777344 110.316406 C 71.785156 110.28125 71.804688 110.257812 71.820312 110.226562 C 71.820312 110.226562 71.804688 110.257812 71.777344 110.316406 C 71.1875 111.675781 70.222656 112.140625 69.617188 112.300781 C 69.226562 112.40625 68.898438 112.65625 68.664062 113 C 69.503906 113.273438 71.683594 113.476562 73.175781 109.003906 " fill-opacity="1" fill-rule="nonzero"/><path fill="#243047" d="M 74.144531 102.019531 C 74.5 101.265625 74.84375 100.324219 75.167969 99.171875 C 74.085938 99.445312 73.207031 99.746094 72.480469 100.074219 C 69.058594 101.625 69.285156 103.660156 69.519531 104.433594 C 69.785156 104.199219 69.960938 103.886719 70.035156 103.515625 C 70.140625 102.945312 70.472656 102.019531 71.511719 101.433594 C 71.550781 101.402344 71.578125 101.394531 71.578125 101.394531 C 71.550781 101.402344 71.527344 101.417969 71.511719 101.433594 C 71.238281 101.601562 70.246094 102.34375 70.230469 103.808594 L 73.011719 101.351562 L 70.550781 104.191406 C 71.898438 104.28125 72.648438 103.261719 72.828125 102.976562 C 72.84375 102.953125 72.859375 102.9375 72.875 102.90625 C 72.875 102.90625 72.859375 102.9375 72.828125 102.976562 C 72.214844 104.054688 71.335938 104.355469 70.808594 104.425781 C 70.464844 104.472656 70.15625 104.644531 69.929688 104.910156 C 70.625 105.230469 72.472656 105.625 74.144531 102.019531 " fill-opacity="1" fill-rule="nonzero"/><path fill="#243047" d="M 65.21875 132.902344 C 64.128906 132.597656 62.828125 132.355469 61.277344 132.195312 C 62.125 133.683594 62.917969 134.882812 63.660156 135.839844 C 67.195312 140.375 69.542969 139.492188 70.367188 138.9375 C 69.960938 138.621094 69.488281 138.445312 69.011719 138.445312 C 68.269531 138.445312 66.992188 138.21875 65.773438 136.875 C 65.71875 136.828125 65.691406 136.796875 65.691406 136.796875 C 65.71875 136.828125 65.75 136.851562 65.773438 136.875 C 66.113281 137.222656 67.484375 138.453125 69.269531 138.082031 L 64.941406 134.71875 L 69.574219 137.503906 C 69.027344 135.53125 67.429688 134.71875 67.007812 134.542969 C 66.96875 134.527344 66.9375 134.511719 66.902344 134.503906 C 66.902344 134.503906 66.945312 134.511719 67.007812 134.542969 C 68.613281 135.148438 69.390625 136.328125 69.738281 137.078125 C 69.953125 137.558594 70.316406 137.953125 70.746094 138.210938 C 70.792969 137.125 70.382812 134.34375 65.21875 132.902344 " fill-opacity="1" fill-rule="nonzero"/><path fill="#243047" d="M 70.292969 141.40625 C 69.15625 141.324219 67.824219 141.347656 66.257812 141.519531 C 67.363281 142.859375 68.363281 143.914062 69.277344 144.734375 C 73.585938 148.628906 75.757812 147.230469 76.476562 146.488281 C 76.015625 146.246094 75.515625 146.167969 75.046875 146.273438 C 74.304688 146.433594 72.996094 146.464844 71.550781 145.355469 C 71.488281 145.316406 71.457031 145.28125 71.457031 145.28125 C 71.488281 145.316406 71.519531 145.332031 71.550781 145.355469 C 71.949219 145.636719 73.53125 146.609375 75.234375 145.84375 L 70.351562 143.320312 L 75.433594 145.195312 C 74.546875 143.289062 72.820312 142.796875 72.367188 142.699219 C 72.328125 142.699219 72.296875 142.683594 72.253906 142.683594 C 72.253906 142.683594 72.296875 142.691406 72.367188 142.699219 C 74.0625 142.980469 75.046875 144.027344 75.523438 144.71875 C 75.820312 145.167969 76.25 145.492188 76.726562 145.667969 C 76.582031 144.542969 75.675781 141.785156 70.292969 141.40625 " fill-opacity="1" fill-rule="nonzero"/><path fill="#243047" d="M 69.988281 99.132812 C 69.988281 99.132812 69.832031 99.359375 69.574219 99.792969 C 69.316406 100.234375 68.929688 100.878906 68.519531 101.738281 C 68.097656 102.59375 67.628906 103.644531 67.179688 104.902344 C 66.703125 106.148438 66.28125 107.59375 65.910156 109.195312 C 65.539062 110.796875 65.265625 112.566406 65.121094 114.457031 C 65.015625 116.355469 65 118.367188 65.242188 120.433594 C 65.289062 120.949219 65.394531 121.464844 65.46875 121.988281 C 65.539062 122.507812 65.621094 123.039062 65.75 123.554688 C 65.863281 124.085938 65.984375 124.609375 66.097656 125.140625 C 66.242188 125.664062 66.410156 126.175781 66.574219 126.699219 L 66.816406 127.488281 C 66.902344 127.746094 67.015625 128.003906 67.105469 128.261719 C 67.308594 128.777344 67.507812 129.289062 67.710938 129.804688 C 67.929688 130.3125 68.179688 130.8125 68.414062 131.308594 C 68.65625 131.808594 68.875 132.324219 69.164062 132.796875 C 69.730469 133.753906 70.253906 134.738281 70.898438 135.628906 C 71.214844 136.089844 71.519531 136.546875 71.835938 136.996094 C 72.15625 137.4375 72.503906 137.859375 72.84375 138.292969 C 73.183594 138.71875 73.515625 139.144531 73.859375 139.5625 C 74.222656 139.957031 74.585938 140.34375 74.949219 140.738281 C 75.3125 141.125 75.675781 141.507812 76.039062 141.894531 C 76.417969 142.25 76.796875 142.613281 77.179688 142.964844 C 77.550781 143.3125 77.921875 143.664062 78.292969 144.011719 C 78.664062 144.355469 79.066406 144.65625 79.445312 144.976562 C 79.832031 145.28125 80.210938 145.589844 80.59375 145.894531 C 80.972656 146.199219 81.34375 146.496094 81.730469 146.761719 C 82.496094 147.308594 83.238281 147.839844 83.964844 148.347656 C 84.691406 148.855469 85.441406 149.265625 86.128906 149.707031 C 86.832031 150.125 87.484375 150.558594 88.144531 150.90625 C 88.808594 151.25 89.429688 151.582031 90.019531 151.886719 C 90.609375 152.191406 91.148438 152.488281 91.664062 152.746094 C 92.191406 152.980469 92.664062 153.199219 93.101562 153.390625 C 94.835938 154.171875 95.835938 154.582031 95.835938 154.582031 C 95.835938 154.582031 94.917969 153.996094 93.304688 153.011719 C 92.898438 152.761719 92.457031 152.5 91.972656 152.199219 C 91.496094 151.878906 90.988281 151.539062 90.4375 151.179688 C 89.898438 150.816406 89.316406 150.429688 88.703125 150.019531 C 88.089844 149.609375 87.476562 149.136719 86.824219 148.667969 C 86.183594 148.1875 85.484375 147.726562 84.820312 147.171875 C 84.144531 146.632812 83.449219 146.070312 82.738281 145.5 C 82.367188 145.21875 82.027344 144.90625 81.679688 144.589844 C 81.335938 144.269531 80.988281 143.957031 80.625 143.625 C 80.277344 143.304688 79.90625 142.988281 79.558594 142.652344 C 79.210938 142.304688 78.863281 141.953125 78.519531 141.597656 C 78.164062 141.246094 77.816406 140.890625 77.460938 140.535156 C 77.121094 140.148438 76.789062 139.773438 76.460938 139.386719 C 76.121094 139 75.789062 138.613281 75.449219 138.226562 C 75.136719 137.824219 74.8125 137.414062 74.5 137.003906 C 74.183594 136.59375 73.859375 136.183594 73.554688 135.765625 C 73.261719 135.332031 72.972656 134.898438 72.683594 134.464844 C 72.078125 133.609375 71.601562 132.667969 71.078125 131.769531 C 70.792969 131.316406 70.585938 130.84375 70.351562 130.375 C 70.125 129.902344 69.882812 129.433594 69.671875 128.960938 C 69.476562 128.476562 69.285156 127.996094 69.089844 127.519531 C 68.992188 127.273438 68.890625 127.039062 68.808594 126.796875 L 68.566406 126.058594 C 67.886719 124.109375 67.453125 122.125 67.136719 120.191406 C 66.855469 118.246094 66.742188 116.339844 66.742188 114.53125 C 66.789062 112.710938 66.902344 111 67.128906 109.421875 C 67.378906 107.84375 67.636719 106.40625 67.96875 105.140625 C 68.292969 103.878906 68.605469 102.785156 68.921875 101.898438 C 69.21875 101.007812 69.476562 100.316406 69.671875 99.847656 C 69.867188 99.382812 69.988281 99.132812 69.988281 99.132812 " fill-opacity="1" fill-rule="nonzero"/><path fill="#243047" d="M 200.628906 104.507812 C 201.171875 103.492188 201.898438 102.351562 202.847656 101.0625 C 203.238281 102.558594 203.460938 103.855469 203.574219 104.972656 C 204.101562 110.28125 201.9375 111.59375 201.015625 111.914062 C 201.089844 111.425781 201.300781 110.949219 201.621094 110.589844 C 202.132812 110.015625 202.847656 108.898438 202.816406 107.195312 C 202.816406 107.128906 202.816406 107.082031 202.816406 107.082031 C 202.816406 107.121094 202.816406 107.160156 202.816406 107.195312 C 202.808594 107.652344 202.671875 109.414062 201.21875 110.578125 L 201.984375 105.335938 L 200.636719 110.484375 C 199.734375 108.945312 200.300781 107.25 200.46875 106.824219 C 200.484375 106.792969 200.492188 106.75 200.507812 106.71875 C 200.507812 106.71875 200.492188 106.757812 200.46875 106.824219 C 199.765625 108.40625 200 109.679688 200.25 110.371094 C 200.410156 110.8125 200.421875 111.3125 200.300781 111.792969 C 199.554688 111.214844 198.046875 109.316406 200.628906 104.507812 " fill-opacity="1" fill-rule="nonzero"/><path fill="#243047" d="M 197.984375 96.625 C 198.371094 95.648438 198.910156 94.546875 199.636719 93.285156 C 200.144531 94.570312 200.492188 95.691406 200.710938 96.664062 C 201.742188 101.3125 199.910156 102.753906 199.113281 103.148438 C 199.128906 102.703125 199.265625 102.261719 199.523438 101.898438 C 199.917969 101.320312 200.460938 100.242188 200.25 98.738281 C 200.242188 98.675781 200.234375 98.632812 200.234375 98.632812 C 200.242188 98.675781 200.242188 98.699219 200.25 98.738281 C 200.289062 99.140625 200.347656 100.726562 199.152344 101.941406 L 199.296875 97.1875 L 198.621094 101.933594 C 197.636719 100.675781 197.976562 99.101562 198.078125 98.699219 C 198.097656 98.667969 198.105469 98.632812 198.113281 98.601562 C 198.113281 98.601562 198.097656 98.632812 198.078125 98.699219 C 197.613281 100.195312 197.957031 101.289062 198.257812 101.875 C 198.449219 102.253906 198.507812 102.695312 198.449219 103.140625 C 197.714844 102.710938 196.152344 101.214844 197.984375 96.625 " fill-opacity="1" fill-rule="nonzero"/><path fill="#243047" d="M 190.605469 94.121094 C 190.4375 92.929688 190.355469 91.5 190.378906 89.785156 C 191.671875 90.648438 192.695312 91.46875 193.496094 92.246094 C 197.320312 95.941406 196.246094 98.59375 195.640625 99.535156 C 195.390625 99.101562 195.277344 98.585938 195.328125 98.054688 C 195.417969 97.226562 195.34375 95.820312 194.238281 94.539062 C 194.1875 94.484375 194.164062 94.453125 194.164062 94.453125 C 194.1875 94.476562 194.214844 94.507812 194.238281 94.539062 C 194.511719 94.894531 195.511719 96.359375 194.964844 98.359375 L 192.316406 93.726562 L 194.398438 98.722656 C 192.625 98.222656 192.050781 96.488281 191.929688 96.027344 C 191.921875 95.988281 191.914062 95.957031 191.90625 95.914062 C 191.90625 95.914062 191.914062 95.957031 191.929688 96.027344 C 192.308594 97.78125 193.324219 98.578125 193.988281 98.925781 C 194.40625 99.148438 194.730469 99.527344 194.925781 99.992188 C 193.914062 100.105469 191.371094 99.785156 190.605469 94.121094 " fill-opacity="1" fill-rule="nonzero"/><path fill="#243047" d="M 202.703125 113.074219 C 203.460938 112.238281 204.429688 111.328125 205.640625 110.347656 C 205.640625 111.929688 205.535156 113.273438 205.367188 114.410156 C 204.550781 119.789062 202.1875 120.441406 201.242188 120.480469 C 201.4375 120.023438 201.742188 119.621094 202.140625 119.355469 C 202.761719 118.945312 203.714844 118.054688 204.101562 116.371094 C 204.117188 116.300781 204.125 116.257812 204.125 116.257812 C 204.117188 116.300781 204.109375 116.332031 204.101562 116.371094 C 203.980469 116.8125 203.414062 118.511719 201.761719 119.226562 L 203.777344 114.289062 L 201.234375 118.96875 C 200.765625 117.183594 201.71875 115.679688 201.984375 115.308594 C 202.003906 115.277344 202.027344 115.253906 202.050781 115.222656 C 202.050781 115.222656 202.027344 115.253906 201.984375 115.308594 C 200.929688 116.660156 200.839844 117.980469 200.90625 118.738281 C 200.945312 119.21875 200.832031 119.71875 200.589844 120.160156 C 200.039062 119.371094 199.089844 117.046875 202.703125 113.074219 " fill-opacity="1" fill-rule="nonzero"/><path fill="#243047" d="M 202.300781 123.371094 C 203.210938 122.75 204.335938 122.125 205.714844 121.480469 C 205.34375 123.046875 204.941406 124.351562 204.511719 125.421875 C 202.503906 130.503906 200.105469 130.496094 199.210938 130.28125 C 199.492188 129.878906 199.878906 129.570312 200.316406 129.417969 C 200.992188 129.179688 202.105469 128.566406 202.859375 127.007812 C 202.898438 126.941406 202.914062 126.910156 202.914062 126.910156 C 202.898438 126.941406 202.882812 126.972656 202.859375 127.007812 C 202.640625 127.417969 201.71875 128.9375 199.984375 129.1875 L 203.035156 124.859375 L 199.546875 128.785156 C 199.515625 126.894531 200.757812 125.671875 201.097656 125.375 C 201.128906 125.347656 201.15625 125.324219 201.179688 125.308594 C 201.179688 125.308594 201.148438 125.332031 201.097656 125.375 C 199.789062 126.417969 199.394531 127.699219 199.28125 128.460938 C 199.210938 128.953125 198.992188 129.410156 198.660156 129.78125 C 198.320312 128.847656 197.949219 126.289062 202.300781 123.371094 " fill-opacity="1" fill-rule="nonzero"/><path fill="#243047" d="M 189.316406 123.972656 C 189.152344 122.871094 189.0625 121.542969 189.082031 119.953125 C 190.28125 120.738281 191.242188 121.496094 191.996094 122.210938 C 195.570312 125.605469 194.585938 128.085938 194.027344 128.960938 C 193.792969 128.558594 193.6875 128.074219 193.738281 127.585938 C 193.808594 126.820312 193.730469 125.511719 192.6875 124.335938 C 192.648438 124.277344 192.625 124.253906 192.625 124.253906 C 192.648438 124.277344 192.671875 124.304688 192.6875 124.335938 C 192.953125 124.664062 193.890625 126.007812 193.398438 127.875 L 190.90625 123.59375 L 192.875 128.222656 C 191.21875 127.769531 190.679688 126.160156 190.558594 125.734375 C 190.550781 125.703125 190.542969 125.671875 190.535156 125.628906 C 190.535156 125.628906 190.542969 125.671875 190.558594 125.734375 C 190.929688 127.359375 191.875 128.09375 192.488281 128.40625 C 192.882812 128.605469 193.1875 128.960938 193.375 129.386719 C 192.429688 129.5 190.074219 129.226562 189.316406 123.972656 " fill-opacity="1" fill-rule="nonzero"/><path fill="#243047" d="M 185.722656 130.199219 C 185.835938 129.058594 186.070312 127.722656 186.457031 126.160156 C 187.410156 127.28125 188.128906 128.300781 188.667969 129.21875 C 191.242188 133.585938 189.726562 135.75 188.992188 136.457031 C 188.863281 136 188.871094 135.492188 189.039062 135.019531 C 189.289062 134.285156 189.523438 132.976562 188.832031 131.511719 C 188.796875 131.445312 188.78125 131.414062 188.78125 131.414062 C 188.796875 131.445312 188.8125 131.480469 188.832031 131.511719 C 188.992188 131.914062 189.558594 133.503906 188.652344 135.203125 L 187.3125 130.28125 L 188.070312 135.394531 C 186.617188 134.480469 186.488281 132.742188 186.480469 132.28125 C 186.480469 132.25 186.472656 132.210938 186.480469 132.171875 C 186.480469 132.171875 186.472656 132.21875 186.480469 132.28125 C 186.441406 133.988281 187.160156 134.984375 187.660156 135.476562 C 187.992188 135.78125 188.191406 136.214844 188.265625 136.691406 C 187.34375 136.539062 185.183594 135.589844 185.722656 130.199219 " fill-opacity="1" fill-rule="nonzero"/><path fill="#243047" d="M 181.332031 135.925781 C 181.753906 134.855469 182.339844 133.625 183.132812 132.226562 C 183.707031 133.644531 184.09375 134.875 184.34375 135.953125 C 185.511719 141.074219 183.503906 142.683594 182.625 143.125 C 182.640625 142.636719 182.785156 142.152344 183.066406 141.742188 C 183.503906 141.109375 184.09375 139.902344 183.851562 138.242188 C 183.84375 138.171875 183.835938 138.132812 183.835938 138.132812 C 183.84375 138.171875 183.84375 138.203125 183.851562 138.242188 C 183.898438 138.695312 183.972656 140.441406 182.65625 141.792969 L 182.785156 136.539062 L 182.066406 141.792969 C 180.976562 140.40625 181.332031 138.671875 181.453125 138.21875 C 181.460938 138.1875 181.46875 138.148438 181.484375 138.113281 C 181.484375 138.113281 181.46875 138.15625 181.453125 138.21875 C 180.9375 139.875 181.332031 141.082031 181.664062 141.726562 C 181.882812 142.144531 181.953125 142.628906 181.882812 143.117188 C 181.074219 142.660156 179.332031 141.019531 181.332031 135.925781 " fill-opacity="1" fill-rule="nonzero"/><path fill="#243047" d="M 188.015625 148.964844 C 188.925781 149.3125 189.96875 149.8125 191.136719 150.519531 C 189.871094 151.242188 188.765625 151.765625 187.804688 152.121094 C 183.261719 153.808594 181.976562 151.855469 181.640625 150.976562 C 182.074219 150.945312 182.488281 151.058594 182.824219 151.316406 C 183.359375 151.71875 184.375 152.214844 185.835938 151.8125 C 185.902344 151.796875 185.933594 151.789062 185.933594 151.789062 C 185.902344 151.796875 185.867188 151.804688 185.835938 151.8125 C 185.441406 151.902344 183.914062 152.144531 182.808594 150.890625 L 187.394531 150.550781 L 182.851562 150.269531 C 184.125 149 185.625 149.222656 186.003906 149.304688 C 186.039062 149.3125 186.070312 149.3125 186.101562 149.328125 C 186.101562 149.328125 186.0625 149.3125 186.003906 149.304688 C 184.59375 148.917969 183.511719 149.441406 182.921875 149.84375 C 182.550781 150.109375 182.117188 150.230469 181.695312 150.199219 C 182.148438 149.3125 183.6875 147.339844 188.015625 148.964844 " fill-opacity="1" fill-rule="nonzero"/><path fill="#243047" d="M 175.941406 140.625 C 176.441406 139.675781 177.121094 138.605469 178 137.398438 C 178.371094 138.800781 178.589844 140.003906 178.691406 141.042969 C 179.203125 145.992188 177.183594 147.230469 176.328125 147.527344 C 176.394531 147.078125 176.585938 146.632812 176.894531 146.289062 C 177.363281 145.757812 178.03125 144.710938 177.992188 143.117188 C 177.992188 143.054688 177.992188 143.015625 177.992188 143.015625 C 177.992188 143.054688 177.992188 143.085938 177.992188 143.117188 C 177.984375 143.546875 177.863281 145.195312 176.507812 146.289062 L 177.207031 141.390625 L 175.964844 146.199219 C 175.117188 144.769531 175.640625 143.183594 175.796875 142.78125 C 175.8125 142.75 175.820312 142.714844 175.835938 142.683594 C 175.835938 142.683594 175.820312 142.722656 175.796875 142.78125 C 175.140625 144.261719 175.375 145.453125 175.609375 146.09375 C 175.753906 146.503906 175.773438 146.972656 175.652344 147.429688 C 174.964844 146.882812 173.542969 145.121094 175.941406 140.625 " fill-opacity="1" fill-rule="nonzero"/><path fill="#243047" d="M 191.089844 116.429688 C 190.765625 115.382812 190.476562 114.101562 190.242188 112.550781 C 191.566406 113.105469 192.640625 113.667969 193.503906 114.222656 C 197.585938 116.878906 196.980469 119.460938 196.5625 120.417969 C 196.261719 120.070312 196.085938 119.628906 196.054688 119.140625 C 196.011719 118.382812 195.738281 117.121094 194.519531 116.164062 C 194.472656 116.113281 194.441406 116.097656 194.441406 116.097656 C 194.472656 116.113281 194.496094 116.136719 194.519531 116.164062 C 194.835938 116.4375 195.972656 117.578125 195.761719 119.476562 L 192.625 115.769531 L 195.285156 119.910156 C 193.574219 119.765625 192.785156 118.300781 192.597656 117.910156 C 192.589844 117.875 192.574219 117.851562 192.558594 117.8125 C 192.558594 117.8125 192.574219 117.851562 192.597656 117.910156 C 193.210938 119.429688 194.269531 119.96875 194.933594 120.160156 C 195.359375 120.289062 195.714844 120.570312 195.964844 120.957031 C 195.035156 121.238281 192.640625 121.398438 191.089844 116.429688 " fill-opacity="1" fill-rule="nonzero"/><path fill="#243047" d="M 191.734375 109.003906 C 191.421875 108.0625 191.128906 106.910156 190.898438 105.511719 C 192.105469 105.988281 193.089844 106.46875 193.882812 106.953125 C 197.652344 109.269531 197.144531 111.625 196.78125 112.503906 C 196.503906 112.195312 196.328125 111.792969 196.296875 111.351562 C 196.238281 110.667969 195.972656 109.535156 194.851562 108.691406 C 194.804688 108.648438 194.769531 108.632812 194.769531 108.632812 C 194.804688 108.648438 194.820312 108.664062 194.851562 108.691406 C 195.132812 108.929688 196.191406 109.9375 196.039062 111.664062 L 193.117188 108.375 L 195.617188 112.066406 C 194.050781 111.972656 193.308594 110.667969 193.132812 110.316406 C 193.125 110.28125 193.109375 110.257812 193.089844 110.226562 C 193.089844 110.226562 193.109375 110.257812 193.132812 110.316406 C 193.722656 111.675781 194.691406 112.140625 195.296875 112.300781 C 195.683594 112.40625 196.011719 112.65625 196.246094 113 C 195.40625 113.273438 193.230469 113.476562 191.734375 109.003906 " fill-opacity="1" fill-rule="nonzero"/><path fill="#243047" d="M 190.765625 102.019531 C 190.414062 101.265625 190.066406 100.324219 189.742188 99.171875 C 190.824219 99.445312 191.703125 99.746094 192.429688 100.074219 C 195.851562 101.625 195.625 103.660156 195.390625 104.433594 C 195.125 104.199219 194.949219 103.886719 194.875 103.515625 C 194.769531 102.945312 194.441406 102.019531 193.398438 101.433594 C 193.359375 101.402344 193.332031 101.394531 193.332031 101.394531 C 193.359375 101.402344 193.382812 101.417969 193.398438 101.433594 C 193.671875 101.601562 194.664062 102.34375 194.683594 103.808594 L 191.898438 101.351562 L 194.359375 104.191406 C 193.011719 104.28125 192.261719 103.261719 192.082031 102.976562 C 192.066406 102.953125 192.050781 102.9375 192.035156 102.90625 C 192.035156 102.90625 192.050781 102.9375 192.082031 102.976562 C 192.695312 104.054688 193.574219 104.355469 194.101562 104.425781 C 194.449219 104.472656 194.753906 104.644531 194.980469 104.910156 C 194.285156 105.230469 192.4375 105.625 190.765625 102.019531 " fill-opacity="1" fill-rule="nonzero"/><path fill="#243047" d="M 199.695312 132.902344 C 200.785156 132.597656 202.082031 132.355469 203.632812 132.195312 C 202.785156 133.683594 201.992188 134.882812 201.25 135.839844 C 197.714844 140.375 195.367188 139.492188 194.542969 138.9375 C 194.949219 138.621094 195.425781 138.445312 195.902344 138.445312 C 196.644531 138.445312 197.917969 138.21875 199.136719 136.875 C 199.195312 136.828125 199.21875 136.796875 199.21875 136.796875 C 199.195312 136.828125 199.160156 136.851562 199.136719 136.875 C 198.796875 137.222656 197.425781 138.453125 195.640625 138.082031 L 199.96875 134.71875 L 195.335938 137.503906 C 195.882812 135.53125 197.480469 134.71875 197.902344 134.542969 C 197.941406 134.527344 197.976562 134.511719 198.007812 134.503906 C 198.007812 134.503906 197.964844 134.511719 197.902344 134.542969 C 196.296875 135.148438 195.519531 136.328125 195.175781 137.078125 C 194.957031 137.558594 194.59375 137.953125 194.164062 138.210938 C 194.117188 137.125 194.527344 134.34375 199.695312 132.902344 " fill-opacity="1" fill-rule="nonzero"/><path fill="#243047" d="M 194.617188 141.40625 C 195.753906 141.324219 197.085938 141.347656 198.652344 141.519531 C 197.546875 142.859375 196.546875 143.914062 195.632812 144.734375 C 191.324219 148.628906 189.152344 147.230469 188.433594 146.488281 C 188.894531 146.246094 189.394531 146.167969 189.863281 146.273438 C 190.605469 146.433594 191.914062 146.464844 193.359375 145.355469 C 193.421875 145.316406 193.453125 145.28125 193.453125 145.28125 C 193.421875 145.316406 193.390625 145.332031 193.359375 145.355469 C 192.960938 145.636719 191.378906 146.609375 189.679688 145.84375 L 194.5625 143.320312 L 189.476562 145.195312 C 190.363281 143.289062 192.089844 142.796875 192.542969 142.699219 C 192.582031 142.699219 192.617188 142.683594 192.65625 142.683594 C 192.65625 142.683594 192.617188 142.691406 192.542969 142.699219 C 190.847656 142.980469 189.863281 144.027344 189.386719 144.71875 C 189.089844 145.167969 188.660156 145.492188 188.183594 145.667969 C 188.328125 144.542969 189.234375 141.785156 194.617188 141.40625 " fill-opacity="1" fill-rule="nonzero"/><path fill="#243047" d="M 194.925781 99.132812 C 194.925781 99.132812 195.078125 99.359375 195.335938 99.792969 C 195.59375 100.234375 195.980469 100.878906 196.394531 101.738281 C 196.8125 102.59375 197.28125 103.644531 197.734375 104.902344 C 198.207031 106.148438 198.628906 107.59375 199 109.195312 C 199.371094 110.796875 199.644531 112.566406 199.789062 114.457031 C 199.894531 116.355469 199.910156 118.367188 199.667969 120.433594 C 199.621094 120.949219 199.515625 121.464844 199.445312 121.988281 C 199.371094 122.507812 199.289062 123.039062 199.160156 123.554688 C 199.046875 124.085938 198.925781 124.609375 198.8125 125.140625 C 198.667969 125.664062 198.5 126.175781 198.335938 126.699219 L 198.097656 127.488281 C 198.007812 127.746094 197.894531 128.003906 197.796875 128.261719 C 197.601562 128.777344 197.402344 129.289062 197.199219 129.804688 C 196.980469 130.3125 196.730469 130.8125 196.496094 131.308594 C 196.253906 131.808594 196.039062 132.324219 195.746094 132.796875 C 195.183594 133.753906 194.65625 134.738281 194.011719 135.628906 C 193.695312 136.089844 193.390625 136.546875 193.074219 136.996094 C 192.753906 137.4375 192.40625 137.859375 192.066406 138.292969 C 191.726562 138.71875 191.398438 139.144531 191.050781 139.5625 C 190.6875 139.957031 190.324219 140.34375 189.960938 140.738281 C 189.597656 141.125 189.234375 141.507812 188.871094 141.894531 C 188.492188 142.25 188.113281 142.613281 187.734375 142.964844 C 187.363281 143.3125 186.988281 143.664062 186.617188 144.011719 C 186.246094 144.355469 185.84375 144.65625 185.464844 144.976562 C 185.078125 145.28125 184.699219 145.589844 184.320312 145.894531 C 183.9375 146.199219 183.566406 146.496094 183.179688 146.761719 C 182.414062 147.308594 181.671875 147.839844 180.945312 148.347656 C 180.21875 148.855469 179.46875 149.265625 178.78125 149.707031 C 178.078125 150.125 177.425781 150.558594 176.765625 150.90625 C 176.101562 151.25 175.480469 151.582031 174.890625 151.886719 C 174.304688 152.191406 173.761719 152.488281 173.246094 152.746094 C 172.722656 152.980469 172.246094 153.199219 171.808594 153.390625 C 170.074219 154.171875 169.074219 154.582031 169.074219 154.582031 C 169.074219 154.582031 169.992188 153.996094 171.605469 153.011719 C 172.011719 152.761719 172.453125 152.5 172.9375 152.199219 C 173.414062 151.878906 173.921875 151.539062 174.472656 151.179688 C 175.011719 150.816406 175.59375 150.429688 176.207031 150.019531 C 176.820312 149.609375 177.433594 149.136719 178.089844 148.667969 C 178.726562 148.1875 179.429688 147.726562 180.089844 147.171875 C 180.765625 146.632812 181.460938 146.070312 182.171875 145.5 C 182.542969 145.21875 182.882812 144.90625 183.230469 144.589844 C 183.578125 144.269531 183.921875 143.957031 184.285156 143.625 C 184.632812 143.304688 185.003906 142.988281 185.351562 142.652344 C 185.699219 142.304688 186.046875 141.953125 186.394531 141.597656 C 186.75 141.246094 187.09375 140.890625 187.449219 140.535156 C 187.789062 140.148438 188.121094 139.773438 188.449219 139.386719 C 188.789062 139 189.121094 138.613281 189.460938 138.226562 C 189.773438 137.824219 190.097656 137.414062 190.414062 137.003906 C 190.726562 136.59375 191.050781 136.183594 191.355469 135.765625 C 191.648438 135.332031 191.9375 134.898438 192.226562 134.464844 C 192.832031 133.609375 193.308594 132.667969 193.835938 131.769531 C 194.117188 131.316406 194.328125 130.84375 194.5625 130.375 C 194.785156 129.902344 195.027344 129.433594 195.238281 128.960938 C 195.433594 128.476562 195.625 127.996094 195.820312 127.519531 C 195.917969 127.273438 196.023438 127.039062 196.101562 126.796875 L 196.34375 126.058594 C 197.023438 124.109375 197.457031 122.125 197.773438 120.191406 C 198.054688 118.246094 198.167969 116.339844 198.167969 114.53125 C 198.121094 112.710938 198.007812 111 197.78125 109.421875 C 197.53125 107.84375 197.273438 106.40625 196.941406 105.140625 C 196.617188 103.878906 196.304688 102.785156 195.988281 101.898438 C 195.691406 101.007812 195.433594 100.316406 195.238281 99.847656 C 195.046875 99.382812 194.925781 99.132812 194.925781 99.132812 " fill-opacity="1" fill-rule="nonzero"/><g clip-path="url(#6eff9fc986)"><path fill="#243047" d="M 157.4375 106.492188 C 157.386719 105.21875 156.847656 103.984375 157.179688 102.675781 C 157.285156 102.269531 157.25 101.8125 157.097656 101.398438 C 157.011719 101.148438 156.988281 100.890625 157.007812 100.632812 C 157.058594 100.019531 156.820312 99.503906 156.484375 99.027344 C 155.597656 97.765625 154.6875 96.53125 153.472656 95.546875 C 152.5 94.765625 151.652344 93.824219 150.496094 93.273438 C 150.175781 93.121094 149.769531 92.933594 149.683594 92.550781 C 149.597656 92.171875 149.34375 92.039062 149.066406 91.902344 C 148.734375 91.738281 148.429688 91.554688 148.195312 91.242188 C 147.960938 90.933594 147.566406 90.730469 147.210938 90.820312 C 146.714844 90.949219 146.472656 90.691406 146.203125 90.394531 C 145.949219 90.121094 145.65625 89.898438 145.359375 89.671875 C 145.117188 89.484375 144.851562 89.277344 144.851562 88.914062 C 144.851562 88.082031 144.636719 87.273438 144.660156 86.433594 C 144.683594 85.492188 144.582031 84.535156 144.445312 83.609375 C 144.28125 82.492188 144.480469 81.449219 144.714844 80.398438 C 145.007812 79.070312 145.671875 77.90625 146.425781 76.789062 C 146.964844 75.988281 146.722656 75.277344 145.820312 74.960938 C 145.609375 74.886719 145.335938 74.933594 145.203125 74.710938 C 144.894531 74.183594 144.433594 73.800781 143.878906 73.621094 C 143.355469 73.453125 143.28125 72.753906 142.703125 72.734375 C 142.199219 72.71875 142.09375 72.421875 142.101562 72 C 142.105469 71.769531 142.109375 71.539062 142.078125 71.3125 C 142.015625 70.84375 141.820312 70.660156 141.355469 70.613281 C 141.066406 70.585938 140.796875 70.648438 140.519531 70.75 C 140.039062 70.929688 139.550781 71.082031 139.058594 71.230469 C 138.613281 71.363281 138.191406 71.289062 137.890625 70.921875 C 137.210938 70.089844 136.238281 69.859375 135.285156 69.574219 C 134.390625 69.300781 133.46875 69.445312 132.5625 69.375 C 131.355469 69.273438 130.246094 69.589844 129.148438 70.003906 C 128.550781 70.230469 128.019531 70.554688 127.65625 71.105469 C 127.476562 71.375 127.257812 71.609375 126.960938 71.722656 C 126.671875 71.832031 126.480469 72.042969 126.316406 72.265625 C 125.921875 72.792969 125.203125 73.117188 125.261719 73.933594 C 125.265625 73.972656 125.199219 74.023438 125.160156 74.0625 C 124.367188 74.84375 123.925781 75.820312 123.554688 76.851562 C 123.394531 77.304688 123.070312 77.695312 122.992188 78.1875 C 122.339844 78.578125 122.257812 79.308594 121.96875 79.914062 C 121.90625 80.039062 121.859375 80.179688 121.71875 80.25 C 121.175781 80.53125 120.746094 80.957031 120.28125 81.347656 C 119.839844 81.71875 119.503906 82.363281 118.742188 82.179688 C 118.625 82.152344 118.5 82.28125 118.511719 82.386719 C 118.539062 82.707031 118.667969 83 118.863281 83.246094 C 119.023438 83.445312 119.160156 83.242188 119.300781 83.167969 C 119.445312 83.09375 119.652344 83.144531 119.703125 83.21875 C 120.085938 83.769531 120.535156 83.535156 120.984375 83.371094 C 120.996094 83.621094 121.277344 83.84375 121.144531 84.078125 C 120.898438 84.519531 120.5 84.910156 120.96875 85.441406 C 120.992188 85.464844 120.898438 85.582031 120.875 85.664062 C 120.636719 86.398438 120.480469 87.148438 120.015625 87.8125 C 119.855469 88.039062 119.394531 88.285156 119.609375 88.667969 C 119.78125 88.96875 120.25 88.867188 120.5 89.148438 C 120.570312 89.3125 120.414062 89.460938 120.414062 89.625 C 120.410156 89.820312 120.328125 90.054688 120.558594 90.167969 C 120.742188 90.257812 120.945312 90.238281 121.140625 90.148438 C 121.335938 90.0625 121.433594 89.886719 121.5625 89.734375 C 121.664062 89.617188 121.664062 89.378906 121.914062 89.417969 C 122.113281 89.628906 121.988281 89.824219 121.898438 90.035156 C 121.644531 90.636719 121.699219 91.277344 121.65625 91.90625 C 121.640625 92.132812 121.722656 92.316406 121.941406 92.375 C 122.105469 92.417969 122.285156 92.394531 122.355469 92.175781 C 122.402344 92.019531 122.527344 91.886719 122.648438 92.0625 C 122.976562 92.53125 123.179688 92.257812 123.429688 91.988281 C 123.84375 91.546875 124.035156 91.023438 124.015625 90.433594 C 124.011719 90.292969 123.925781 90.125 124.058594 90.039062 C 124.410156 89.8125 124.527344 89.390625 124.789062 89.035156 C 125.082031 89.546875 124.859375 89.90625 124.605469 90.199219 C 124.242188 90.628906 124.21875 91.027344 124.585938 91.421875 C 124.800781 91.660156 124.816406 91.945312 124.664062 92.121094 C 124.421875 92.398438 124.445312 92.695312 124.425781 93.003906 C 124.378906 93.832031 124.003906 94.351562 123.179688 94.628906 C 122.363281 94.902344 121.558594 95.101562 120.683594 95.097656 C 118.828125 95.089844 116.996094 95.292969 115.214844 95.871094 C 113.386719 96.46875 111.507812 96.746094 109.582031 96.648438 C 109.09375 96.621094 108.617188 96.671875 108.136719 96.785156 C 106.3125 97.207031 104.492188 97.640625 102.679688 98.101562 C 100.917969 98.550781 99.113281 98.8125 97.289062 98.875 C 96.0625 98.917969 94.835938 98.894531 93.609375 98.894531 C 92.8125 98.894531 92.011719 98.957031 91.226562 98.738281 C 91.035156 98.683594 90.835938 98.664062 90.640625 98.628906 C 90.449219 98.59375 90.296875 98.660156 90.203125 98.820312 C 90.109375 98.984375 90.136719 99.167969 90.253906 99.304688 C 90.363281 99.433594 90.503906 99.539062 90.636719 99.640625 C 91.332031 100.167969 92.09375 100.539062 92.976562 100.601562 C 93.25 100.621094 93.460938 100.667969 93.5 101.023438 C 93.539062 101.375 93.824219 101.53125 94.152344 101.621094 C 94.625 101.75 95.09375 101.839844 95.585938 101.816406 C 97.445312 101.726562 99.292969 101.933594 101.144531 102.027344 C 101.164062 102.375 100.949219 102.601562 100.734375 102.820312 C 100.457031 103.109375 100.167969 103.390625 99.894531 103.683594 C 99.59375 103.996094 99.34375 104.351562 99.238281 104.777344 C 99.160156 105.089844 99.175781 105.417969 99.46875 105.640625 C 99.785156 105.878906 100.0625 105.71875 100.324219 105.515625 C 100.773438 105.164062 101.191406 104.773438 101.535156 104.316406 C 102.140625 103.519531 102.941406 102.984375 103.8125 102.535156 C 104.371094 102.246094 104.945312 101.976562 105.402344 101.535156 C 105.78125 101.171875 106.257812 101.015625 106.726562 101.058594 C 107.550781 101.132812 108.378906 101.050781 109.195312 101.152344 C 111.125 101.390625 113.070312 101.273438 115.003906 101.464844 C 115.488281 101.511719 115.949219 101.285156 116.441406 101.285156 C 117.265625 101.285156 118.082031 101.140625 118.894531 100.996094 C 119.933594 100.8125 120.96875 100.640625 122.027344 100.910156 C 122.5 101.03125 123.011719 100.980469 123.449219 100.738281 C 124.117188 100.375 124.828125 100.445312 125.539062 100.433594 C 125.914062 100.425781 126.054688 100.585938 126.179688 100.953125 C 126.519531 101.9375 126.636719 102.9375 126.710938 103.972656 C 126.75 104.527344 126.609375 104.84375 126.226562 105.105469 C 125.554688 105.558594 124.988281 106.121094 124.484375 106.742188 C 123.34375 108.144531 122.121094 109.460938 120.679688 110.5625 C 119.777344 111.257812 118.945312 112.054688 117.777344 112.296875 C 117.640625 112.324219 117.480469 112.371094 117.386719 112.464844 C 116.746094 113.097656 115.898438 112.996094 115.144531 112.992188 C 113.574219 112.980469 112.121094 112.515625 110.941406 111.402344 C 110.839844 111.304688 110.699219 111.25 110.578125 111.171875 C 109.761719 110.65625 108.882812 110.230469 108.195312 109.515625 C 108.101562 109.417969 107.960938 109.347656 107.832031 109.296875 C 107.457031 109.152344 107.214844 109.351562 107.273438 109.761719 C 107.328125 110.179688 107.558594 110.527344 107.839844 110.804688 C 108.304688 111.265625 108.808594 111.695312 109.320312 112.105469 C 110.121094 112.753906 110.96875 113.359375 111.601562 114.179688 C 112.050781 114.761719 112.566406 115.226562 113.210938 115.554688 C 113.699219 115.804688 113.992188 116.1875 114.132812 116.742188 C 113.765625 116.882812 113.429688 117 113.046875 117.027344 C 112.390625 117.078125 111.847656 117.394531 111.492188 117.964844 C 111.367188 118.167969 111.171875 118.40625 111.382812 118.671875 C 111.5625 118.894531 111.789062 118.8125 112.011719 118.746094 C 112.804688 118.503906 113.601562 118.378906 114.441406 118.355469 C 116.109375 118.308594 117.53125 117.609375 118.636719 116.347656 C 119.59375 115.25 120.703125 114.390625 122.082031 113.910156 C 122.863281 113.636719 123.621094 113.3125 124.355469 112.933594 C 125.496094 112.34375 126.660156 111.800781 127.773438 111.152344 C 128.359375 110.808594 128.585938 110.875 128.832031 111.484375 C 129.128906 112.222656 129.53125 112.921875 129.628906 113.742188 C 129.671875 114.125 129.835938 114.484375 130.195312 114.757812 C 131.175781 115.507812 132.183594 116.199219 133.253906 116.808594 C 133.804688 117.121094 134.390625 117.269531 134.984375 117.132812 C 135.90625 116.917969 136.804688 117.171875 137.710938 117.15625 C 137.890625 117.15625 138.136719 117.121094 138.152344 117.425781 C 138.164062 117.628906 138.175781 117.910156 137.957031 117.945312 C 137.375 118.050781 137.238281 118.511719 137.007812 118.9375 C 136.894531 119.152344 136.691406 119.335938 136.4375 119.433594 C 136.25 119.5 136.050781 119.574219 135.910156 119.703125 C 134.613281 120.863281 133.367188 122.078125 132.105469 123.273438 C 131.644531 123.707031 131.289062 124.347656 130.566406 124.429688 C 130.042969 124.488281 129.816406 124.785156 129.757812 125.269531 C 129.65625 126.058594 129.28125 126.726562 128.828125 127.359375 C 128.257812 128.152344 127.800781 129.003906 127.46875 129.925781 C 126.695312 132.054688 125.765625 134.101562 124.253906 135.820312 C 124.160156 135.925781 124.027344 136.136719 124.066406 136.183594 C 124.578125 136.847656 123.902344 137.089844 123.617188 137.433594 C 123.34375 137.769531 123.035156 138.070312 122.886719 138.484375 C 122.800781 138.722656 122.800781 138.972656 123.09375 139.042969 C 123.398438 139.117188 123.402344 139.304688 123.402344 139.550781 C 123.40625 140.324219 123.4375 141.101562 123.433594 141.875 C 123.433594 142.261719 123.304688 142.621094 123 142.867188 C 122.554688 143.234375 122.257812 143.722656 121.917969 144.175781 C 121.546875 144.664062 121.335938 145.234375 121.347656 145.851562 C 121.363281 146.53125 121.207031 147.1875 120.953125 147.777344 C 120.5625 148.675781 120.453125 149.589844 120.472656 150.539062 C 120.488281 151.289062 120.386719 152.039062 120.214844 152.746094 C 120.039062 153.484375 119.984375 154.210938 119.921875 154.953125 C 119.886719 155.355469 119.996094 155.589844 120.449219 155.660156 C 121.097656 155.757812 121.699219 156.023438 122.304688 156.277344 C 122.804688 156.488281 123.257812 156.773438 123.753906 156.980469 C 124.671875 157.363281 125.640625 157.363281 126.613281 157.378906 C 127.496094 157.394531 128.355469 157.582031 129.160156 157.976562 C 129.449219 158.121094 129.609375 158.308594 129.554688 158.652344 C 129.355469 159.949219 129.101562 161.242188 128.976562 162.550781 C 128.878906 163.550781 128.65625 164.523438 128.519531 165.515625 C 128.390625 166.445312 128.375 167.386719 128.125 168.3125 C 127.636719 170.105469 127.335938 171.949219 127.335938 173.8125 C 127.335938 174.601562 127.253906 175.355469 127 176.082031 C 126.535156 177.414062 126.226562 178.757812 126.09375 180.171875 C 126.027344 180.882812 126.019531 181.597656 125.929688 182.308594 C 125.804688 183.300781 125.691406 184.292969 125.632812 185.292969 C 125.558594 186.554688 125.667969 187.808594 125.933594 189.050781 C 126 189.363281 125.96875 189.664062 125.851562 189.976562 C 125.542969 190.773438 125.25 191.578125 124.980469 192.390625 C 124.394531 194.148438 123.578125 195.832031 123.40625 197.714844 C 123.359375 198.199219 123.09375 198.632812 122.820312 199.039062 C 122.433594 199.609375 122.0625 200.1875 121.667969 200.753906 C 121.523438 200.964844 121.476562 201.214844 121.277344 201.410156 C 120.539062 202.136719 120 203.023438 119.394531 203.855469 C 119.144531 204.199219 119.078125 204.578125 119.125 204.996094 C 119.207031 205.769531 119.265625 206.542969 119.324219 207.316406 C 119.363281 207.871094 119.578125 208.296875 120.085938 208.566406 C 120.335938 208.695312 120.582031 208.863281 120.789062 209.054688 C 122.410156 210.589844 124.199219 211.941406 125.714844 213.59375 C 125.917969 213.816406 126.152344 213.953125 126.441406 214.011719 C 127.730469 214.285156 129.03125 214.554688 130.339844 214.582031 C 134.253906 214.65625 138.171875 214.601562 142.085938 214.539062 C 142.875 214.527344 143.667969 214.570312 144.460938 214.523438 C 144.96875 214.496094 145.488281 214.484375 145.980469 214.402344 C 146.90625 214.253906 147.226562 213.523438 146.835938 212.683594 C 146.742188 212.484375 146.621094 212.359375 146.417969 212.296875 C 145.820312 212.117188 145.234375 211.9375 144.601562 211.847656 C 143.546875 211.695312 142.457031 211.613281 141.503906 210.988281 C 141.003906 210.660156 140.476562 210.394531 140.109375 209.894531 C 140.011719 209.761719 139.859375 209.636719 139.707031 209.582031 C 138.882812 209.289062 138.347656 208.476562 137.523438 208.253906 C 136.496094 207.976562 136.542969 206.917969 135.941406 206.355469 C 135.675781 206.105469 135.609375 205.777344 135.488281 205.453125 C 135.183594 204.652344 135.28125 203.8125 135.1875 202.988281 C 135.003906 201.371094 134.707031 199.761719 134.71875 198.125 C 134.722656 197.867188 134.730469 197.601562 134.679688 197.351562 C 134.421875 196.097656 134.519531 194.832031 134.59375 193.578125 C 134.679688 192.09375 134.914062 190.613281 134.875 189.121094 C 134.859375 188.332031 135.035156 187.636719 135.472656 187.019531 C 136.730469 185.242188 137.71875 183.296875 138.976562 181.523438 C 139.796875 180.363281 140.566406 179.148438 141.742188 178.292969 C 142.457031 177.769531 143.140625 177.207031 143.800781 176.613281 C 144.769531 175.734375 145.574219 174.710938 145.820312 173.414062 C 145.988281 172.527344 146.363281 171.652344 146.21875 170.710938 C 146.199219 170.605469 146.226562 170.476562 146.273438 170.375 C 146.597656 169.707031 146.621094 168.988281 146.644531 168.269531 C 146.675781 167.214844 146.898438 166.179688 146.957031 165.121094 C 147.007812 164.183594 147.089844 163.175781 147.707031 162.351562 C 147.90625 162.085938 147.832031 161.796875 147.738281 161.460938 C 147.457031 160.457031 147.667969 159.421875 147.714844 158.402344 C 147.71875 158.347656 147.765625 158.296875 147.785156 158.246094 C 148.246094 156.914062 148.550781 155.550781 148.625 154.144531 C 148.65625 153.539062 148.671875 152.941406 148.847656 152.359375 C 148.929688 152.101562 148.988281 151.828125 148.839844 151.609375 C 148.574219 151.210938 148.695312 150.910156 149.003906 150.632812 C 149.53125 150.152344 149.59375 149.617188 149.398438 148.925781 C 149.257812 148.429688 149.027344 147.894531 149.191406 147.339844 C 149.539062 146.160156 149.539062 144.96875 149.367188 143.757812 C 149.269531 143.046875 149.316406 142.363281 149.554688 141.648438 C 149.8125 140.867188 150.253906 140.21875 150.636719 139.519531 C 151.285156 138.347656 151.761719 137.085938 152.523438 135.964844 C 152.960938 135.324219 153.09375 134.539062 153.089844 133.746094 C 153.089844 132.386719 153.449219 131.082031 153.839844 129.804688 C 154.46875 127.742188 154.878906 125.648438 154.96875 123.496094 C 154.996094 122.78125 155.019531 122.074219 155.21875 121.375 C 155.558594 120.199219 155.628906 118.980469 155.421875 117.792969 C 155.234375 116.710938 155.257812 115.625 155.152344 114.546875 C 155.140625 114.40625 155.121094 114.21875 155.191406 114.125 C 155.660156 113.496094 155.730469 112.679688 156.210938 112.0625 C 156.875 111.195312 157.152344 110.1875 157.261719 109.117188 C 157.304688 108.691406 157.328125 108.257812 157.433594 107.84375 C 157.550781 107.382812 157.453125 106.945312 157.4375 106.492188 Z M 157.4375 106.492188 " fill-opacity="1" fill-rule="nonzero"/></g></svg>