<svg xmlns="http://www.w3.org/2000/svg" xmlns:xlink="http://www.w3.org/1999/xlink" width="500" zoomAndPan="magnify" viewBox="0 0 375 374.999991" height="500" preserveAspectRatio="xMidYMid meet" version="1.0"><defs><clipPath id="3656036b20"><path d="M 62.253906 50.398438 L 312.824219 50.398438 L 312.824219 324.816406 L 62.253906 324.816406 Z M 62.253906 50.398438 " clip-rule="nonzero"/></clipPath><clipPath id="95ddfe1e58"><path d="M 131.355469 91.523438 L 220.84375 91.523438 L 220.84375 284.492188 L 131.355469 284.492188 Z M 131.355469 91.523438 " clip-rule="nonzero"/></clipPath></defs><path fill="#ffd034" d="M 216.273438 258.242188 L 243.511719 259.363281 L 216.273438 260.476562 Z M 216.273438 258.242188 " fill-opacity="1" fill-rule="nonzero"/><path fill="#ffd034" d="M 215.773438 265.289062 L 243.03125 266.414062 L 215.773438 267.53125 Z M 215.773438 265.289062 " fill-opacity="1" fill-rule="nonzero"/><path fill="#ffd034" d="M 216.273438 272.347656 L 243.511719 273.46875 L 216.273438 274.585938 Z M 216.273438 272.347656 " fill-opacity="1" fill-rule="nonzero"/><path fill="#ffd034" d="M 158.808594 260.476562 L 131.5625 259.363281 L 158.808594 258.242188 Z M 158.808594 260.476562 " fill-opacity="1" fill-rule="nonzero"/><path fill="#ffd034" d="M 159.300781 267.53125 L 132.042969 266.414062 L 159.300781 265.289062 Z M 159.300781 267.53125 " fill-opacity="1" fill-rule="nonzero"/><path fill="#ffd034" d="M 158.808594 274.585938 L 131.5625 273.46875 L 158.808594 272.347656 Z M 158.808594 274.585938 " fill-opacity="1" fill-rule="nonzero"/><g clip-path="url(#3656036b20)"><path fill="#ffd034" d="M 304.308594 75.789062 L 303 154.183594 C 302.488281 185.53125 293.945312 216.300781 277.707031 243.15625 C 276.527344 245.109375 275.3125 247.042969 274.058594 248.941406 C 253.398438 280.109375 224.300781 302.421875 187.539062 315.300781 C 150.777344 302.421875 121.675781 280.109375 101.023438 248.941406 C 99.769531 247.042969 98.546875 245.109375 97.367188 243.15625 C 81.136719 216.300781 72.585938 185.53125 72.074219 154.183594 L 70.769531 75.789062 L 70.769531 71.492188 C 70.769531 64.78125 76.9375 59.3125 84.519531 59.3125 L 290.558594 59.3125 C 298.140625 59.3125 304.308594 64.78125 304.308594 71.492188 Z M 290.558594 50.878906 L 84.519531 50.878906 C 72.246094 50.878906 62.308594 60.113281 62.308594 71.492188 L 62.308594 82.171875 L 64 157.09375 C 64.804688 192.839844 75.863281 227.691406 96.320312 257.066406 C 114.867188 283.695312 143.46875 309.484375 187.539062 324.21875 C 231.605469 309.484375 260.210938 283.695312 278.753906 257.066406 C 299.210938 227.691406 310.273438 192.839844 311.074219 157.09375 L 312.769531 82.171875 L 312.769531 71.492188 C 312.769531 60.113281 302.832031 50.878906 290.558594 50.878906 " fill-opacity="1" fill-rule="nonzero"/></g><path fill="#ffd034" d="M 97.082031 138.285156 C 96.363281 136.9375 95.398438 135.417969 94.136719 133.714844 C 93.621094 135.699219 93.324219 137.417969 93.171875 138.898438 C 92.472656 145.949219 95.347656 147.691406 96.566406 148.117188 C 96.472656 147.464844 96.191406 146.835938 95.761719 146.355469 C 95.089844 145.597656 94.136719 144.113281 94.175781 141.847656 C 94.175781 141.765625 94.175781 141.699219 94.175781 141.699219 C 94.175781 141.753906 94.175781 141.804688 94.175781 141.847656 C 94.1875 142.457031 94.367188 144.796875 96.300781 146.34375 L 95.28125 139.382812 L 97.070312 146.214844 C 98.269531 144.171875 97.515625 141.925781 97.292969 141.355469 C 97.273438 141.3125 97.265625 141.261719 97.242188 141.222656 C 97.242188 141.222656 97.265625 141.273438 97.292969 141.355469 C 98.226562 143.457031 97.917969 145.148438 97.585938 146.066406 C 97.367188 146.65625 97.355469 147.3125 97.515625 147.957031 C 98.507812 147.1875 100.503906 144.664062 97.082031 138.285156 " fill-opacity="1" fill-rule="nonzero"/><path fill="#ffd034" d="M 100.59375 127.816406 C 100.082031 126.527344 99.359375 125.0625 98.398438 123.390625 C 97.726562 125.09375 97.265625 126.582031 96.972656 127.871094 C 95.601562 134.046875 98.035156 135.953125 99.09375 136.476562 C 99.070312 135.890625 98.890625 135.304688 98.546875 134.824219 C 98.023438 134.054688 97.304688 132.621094 97.585938 130.625 C 97.59375 130.542969 97.605469 130.488281 97.605469 130.488281 C 97.59375 130.542969 97.59375 130.574219 97.585938 130.625 C 97.527344 131.160156 97.457031 133.261719 99.039062 134.875 L 98.847656 128.5625 L 99.746094 134.863281 C 101.054688 133.199219 100.605469 131.109375 100.464844 130.574219 C 100.445312 130.527344 100.433594 130.488281 100.421875 130.445312 C 100.421875 130.445312 100.433594 130.488281 100.464844 130.574219 C 101.085938 132.558594 100.625 134.007812 100.230469 134.792969 C 99.972656 135.292969 99.894531 135.878906 99.972656 136.464844 C 100.945312 135.898438 103.023438 133.914062 100.59375 127.816406 " fill-opacity="1" fill-rule="nonzero"/><path fill="#ffd034" d="M 110.382812 124.496094 C 110.605469 122.917969 110.714844 121.015625 110.683594 118.742188 C 108.96875 119.886719 107.605469 120.972656 106.550781 122.011719 C 101.46875 126.910156 102.894531 130.433594 103.699219 131.683594 C 104.03125 131.109375 104.183594 130.425781 104.117188 129.71875 C 103.996094 128.621094 104.09375 126.75 105.558594 125.050781 C 105.628906 124.980469 105.660156 124.9375 105.660156 124.9375 C 105.628906 124.96875 105.597656 125.011719 105.558594 125.050781 C 105.199219 125.523438 103.871094 127.464844 104.597656 130.125 L 108.109375 123.972656 L 105.347656 130.605469 C 107.703125 129.941406 108.464844 127.636719 108.625 127.027344 C 108.636719 126.972656 108.648438 126.933594 108.65625 126.878906 C 108.65625 126.878906 108.648438 126.933594 108.625 127.027344 C 108.125 129.355469 106.773438 130.414062 105.902344 130.871094 C 105.335938 131.171875 104.90625 131.671875 104.652344 132.292969 C 105.988281 132.441406 109.363281 132.015625 110.382812 124.496094 " fill-opacity="1" fill-rule="nonzero"/><path fill="#ffd034" d="M 94.328125 149.65625 C 93.324219 148.542969 92.039062 147.335938 90.425781 146.035156 C 90.425781 148.136719 90.566406 149.917969 90.796875 151.425781 C 91.878906 158.570312 95.015625 159.4375 96.265625 159.488281 C 96.011719 158.875 95.601562 158.34375 95.078125 157.992188 C 94.253906 157.445312 92.992188 156.261719 92.472656 154.03125 C 92.453125 153.933594 92.441406 153.882812 92.441406 153.882812 C 92.453125 153.933594 92.464844 153.976562 92.472656 154.03125 C 92.632812 154.617188 93.386719 156.871094 95.582031 157.820312 L 92.902344 151.265625 L 96.28125 157.476562 C 96.894531 155.109375 95.632812 153.109375 95.28125 152.625 C 95.257812 152.578125 95.226562 152.546875 95.199219 152.503906 C 95.199219 152.503906 95.226562 152.546875 95.28125 152.625 C 96.683594 154.417969 96.804688 156.167969 96.714844 157.171875 C 96.664062 157.808594 96.8125 158.472656 97.132812 159.058594 C 97.863281 158.011719 99.128906 154.929688 94.328125 149.65625 " fill-opacity="1" fill-rule="nonzero"/><path fill="#ffd034" d="M 94.867188 163.320312 C 93.652344 162.496094 92.164062 161.664062 90.335938 160.808594 C 90.828125 162.890625 91.359375 164.621094 91.929688 166.042969 C 94.597656 172.792969 97.777344 172.78125 98.96875 172.492188 C 98.589844 171.957031 98.078125 171.554688 97.496094 171.351562 C 96.601562 171.03125 95.121094 170.21875 94.125 168.144531 C 94.074219 168.0625 94.046875 168.019531 94.046875 168.019531 C 94.074219 168.0625 94.09375 168.101562 94.125 168.144531 C 94.414062 168.6875 95.632812 170.710938 97.9375 171.039062 L 93.886719 165.296875 L 98.515625 170.507812 C 98.558594 168 96.910156 166.375 96.460938 165.980469 C 96.414062 165.949219 96.382812 165.917969 96.351562 165.890625 C 96.351562 165.890625 96.394531 165.925781 96.460938 165.980469 C 98.195312 167.367188 98.71875 169.066406 98.871094 170.078125 C 98.96875 170.730469 99.253906 171.339844 99.691406 171.828125 C 100.144531 170.589844 100.636719 167.195312 94.867188 163.320312 " fill-opacity="1" fill-rule="nonzero"/><path fill="#ffd034" d="M 112.097656 164.121094 C 112.308594 162.660156 112.425781 160.898438 112.40625 158.785156 C 110.8125 159.828125 109.53125 160.835938 108.539062 161.78125 C 103.792969 166.289062 105.097656 169.578125 105.839844 170.742188 C 106.152344 170.207031 106.289062 169.5625 106.226562 168.917969 C 106.128906 167.902344 106.238281 166.160156 107.617188 164.601562 C 107.671875 164.527344 107.703125 164.492188 107.703125 164.492188 C 107.671875 164.527344 107.636719 164.558594 107.617188 164.601562 C 107.265625 165.042969 106.019531 166.824219 106.671875 169.300781 L 109.984375 163.617188 L 107.371094 169.761719 C 109.570312 169.160156 110.285156 167.027344 110.445312 166.460938 C 110.453125 166.414062 110.464844 166.375 110.476562 166.320312 C 110.476562 166.320312 110.464844 166.375 110.445312 166.460938 C 109.953125 168.617188 108.699219 169.589844 107.886719 170.003906 C 107.363281 170.269531 106.953125 170.742188 106.710938 171.304688 C 107.964844 171.457031 111.085938 171.09375 112.097656 164.121094 " fill-opacity="1" fill-rule="nonzero"/><path fill="#ffd034" d="M 116.859375 172.386719 C 116.710938 170.871094 116.398438 169.097656 115.886719 167.027344 C 114.625 168.507812 113.671875 169.863281 112.949219 171.082031 C 109.53125 176.878906 111.546875 179.753906 112.519531 180.691406 C 112.695312 180.085938 112.679688 179.414062 112.457031 178.78125 C 112.125 177.8125 111.816406 176.070312 112.738281 174.128906 C 112.78125 174.039062 112.800781 174 112.800781 174 C 112.78125 174.039062 112.757812 174.082031 112.738281 174.128906 C 112.519531 174.664062 111.773438 176.777344 112.972656 179.03125 L 114.753906 172.492188 L 113.742188 179.285156 C 115.667969 178.066406 115.839844 175.761719 115.855469 175.148438 C 115.855469 175.109375 115.867188 175.054688 115.855469 175.003906 C 115.855469 175.003906 115.867188 175.066406 115.855469 175.148438 C 115.90625 177.414062 114.953125 178.738281 114.292969 179.390625 C 113.851562 179.796875 113.582031 180.371094 113.488281 181.003906 C 114.707031 180.800781 117.574219 179.539062 116.859375 172.386719 " fill-opacity="1" fill-rule="nonzero"/><path fill="#ffd034" d="M 122.6875 179.988281 C 122.128906 178.570312 121.34375 176.9375 120.300781 175.078125 C 119.539062 176.957031 119.023438 178.589844 118.6875 180.019531 C 117.140625 186.820312 119.808594 188.957031 120.972656 189.546875 C 120.953125 188.894531 120.761719 188.25 120.382812 187.707031 C 119.808594 186.863281 119.023438 185.261719 119.347656 183.066406 C 119.355469 182.96875 119.367188 182.914062 119.367188 182.914062 C 119.355469 182.96875 119.355469 183.007812 119.347656 183.066406 C 119.277344 183.660156 119.1875 185.976562 120.929688 187.769531 L 120.761719 180.800781 L 121.710938 187.769531 C 123.15625 185.933594 122.6875 183.628906 122.527344 183.027344 C 122.515625 182.988281 122.503906 182.9375 122.480469 182.894531 C 122.480469 182.894531 122.503906 182.945312 122.527344 183.027344 C 123.210938 185.230469 122.6875 186.832031 122.246094 187.6875 C 121.957031 188.242188 121.863281 188.882812 121.957031 189.535156 C 123.027344 188.925781 125.34375 186.75 122.6875 179.988281 " fill-opacity="1" fill-rule="nonzero"/><path fill="#ffd034" d="M 113.808594 197.296875 C 112.609375 197.753906 111.226562 198.414062 109.671875 199.359375 C 111.355469 200.316406 112.820312 201.011719 114.09375 201.484375 C 120.128906 203.726562 121.828125 201.128906 122.277344 199.964844 C 121.703125 199.921875 121.152344 200.074219 120.703125 200.414062 C 120 200.949219 118.648438 201.605469 116.710938 201.074219 C 116.621094 201.050781 116.582031 201.042969 116.582031 201.042969 C 116.621094 201.050781 116.667969 201.0625 116.710938 201.074219 C 117.234375 201.191406 119.257812 201.515625 120.722656 199.84375 L 114.644531 199.398438 L 120.671875 199.027344 C 118.976562 197.339844 116.988281 197.636719 116.488281 197.742188 C 116.441406 197.753906 116.398438 197.753906 116.359375 197.777344 C 116.359375 197.777344 116.410156 197.753906 116.488281 197.742188 C 118.355469 197.230469 119.792969 197.921875 120.574219 198.460938 C 121.070312 198.816406 121.644531 198.96875 122.203125 198.929688 C 121.605469 197.753906 119.558594 195.140625 113.808594 197.296875 " fill-opacity="1" fill-rule="nonzero"/><path fill="#ffd034" d="M 129.839844 186.226562 C 129.175781 184.960938 128.273438 183.542969 127.109375 181.941406 C 126.617188 183.800781 126.328125 185.402344 126.1875 186.78125 C 125.515625 193.34375 128.191406 194.992188 129.324219 195.386719 C 129.238281 194.789062 128.984375 194.199219 128.574219 193.742188 C 127.953125 193.039062 127.066406 191.648438 127.121094 189.535156 C 127.121094 189.449219 127.121094 189.394531 127.121094 189.394531 C 127.121094 189.449219 127.121094 189.488281 127.121094 189.535156 C 127.128906 190.101562 127.289062 192.285156 129.085938 193.742188 L 128.15625 187.234375 L 129.808594 193.625 C 130.929688 191.722656 130.238281 189.617188 130.03125 189.085938 C 130.007812 189.042969 130 188.996094 129.976562 188.957031 C 129.976562 188.957031 130 189.011719 130.03125 189.085938 C 130.898438 191.046875 130.589844 192.628906 130.277344 193.484375 C 130.085938 194.027344 130.066406 194.648438 130.226562 195.253906 C 131.132812 194.53125 133.019531 192.195312 129.839844 186.226562 " fill-opacity="1" fill-rule="nonzero"/><path fill="#ffd034" d="M 109.738281 154.105469 C 110.164062 152.714844 110.550781 151.023438 110.863281 148.960938 C 109.109375 149.695312 107.683594 150.441406 106.535156 151.179688 C 101.117188 154.707031 101.917969 158.128906 102.480469 159.398438 C 102.871094 158.945312 103.109375 158.351562 103.152344 157.707031 C 103.203125 156.699219 103.570312 155.023438 105.1875 153.753906 C 105.25 153.691406 105.296875 153.671875 105.296875 153.671875 C 105.25 153.691406 105.21875 153.722656 105.1875 153.753906 C 104.769531 154.117188 103.261719 155.632812 103.539062 158.152344 L 107.703125 153.230469 L 104.171875 158.730469 C 106.441406 158.535156 107.492188 156.59375 107.734375 156.070312 C 107.746094 156.027344 107.765625 155.996094 107.785156 155.945312 C 107.785156 155.945312 107.765625 155.996094 107.734375 156.070312 C 106.921875 158.089844 105.519531 158.804688 104.636719 159.058594 C 104.074219 159.230469 103.601562 159.605469 103.269531 160.113281 C 104.503906 160.492188 107.683594 160.707031 109.738281 154.105469 " fill-opacity="1" fill-rule="nonzero"/><path fill="#ffd034" d="M 108.878906 144.25 C 109.300781 143.003906 109.683594 141.476562 109.992188 139.613281 C 108.386719 140.246094 107.082031 140.890625 106.03125 141.527344 C 101.035156 144.605469 101.707031 147.734375 102.1875 148.894531 C 102.550781 148.488281 102.789062 147.957031 102.832031 147.371094 C 102.910156 146.457031 103.261719 144.957031 104.746094 143.832031 C 104.8125 143.78125 104.855469 143.757812 104.855469 143.757812 C 104.8125 143.78125 104.789062 143.800781 104.746094 143.832031 C 104.375 144.152344 102.972656 145.488281 103.171875 147.785156 L 107.050781 143.417969 L 103.730469 148.316406 C 105.808594 148.1875 106.792969 146.457031 107.03125 145.992188 C 107.042969 145.949219 107.0625 145.914062 107.082031 145.871094 C 107.082031 145.871094 107.0625 145.914062 107.03125 145.992188 C 106.25 147.796875 104.964844 148.417969 104.15625 148.628906 C 103.644531 148.769531 103.203125 149.101562 102.894531 149.554688 C 104.007812 149.917969 106.902344 150.1875 108.878906 144.25 " fill-opacity="1" fill-rule="nonzero"/><path fill="#ffd034" d="M 110.164062 134.984375 C 110.636719 133.976562 111.097656 132.730469 111.527344 131.203125 C 110.089844 131.5625 108.925781 131.960938 107.964844 132.398438 C 103.421875 134.460938 103.722656 137.160156 104.03125 138.183594 C 104.382812 137.875 104.617188 137.460938 104.714844 136.96875 C 104.855469 136.210938 105.296875 134.984375 106.671875 134.199219 C 106.730469 134.160156 106.761719 134.148438 106.761719 134.148438 C 106.730469 134.160156 106.699219 134.179688 106.671875 134.199219 C 106.3125 134.429688 104.996094 135.40625 104.976562 137.351562 L 108.667969 134.097656 L 105.398438 137.863281 C 107.191406 137.984375 108.1875 136.625 108.417969 136.253906 C 108.445312 136.222656 108.464844 136.199219 108.484375 136.160156 C 108.484375 136.160156 108.464844 136.199219 108.417969 136.253906 C 107.605469 137.683594 106.441406 138.082031 105.742188 138.175781 C 105.285156 138.242188 104.875 138.464844 104.578125 138.816406 C 105.496094 139.242188 107.949219 139.765625 110.164062 134.984375 " fill-opacity="1" fill-rule="nonzero"/><path fill="#ffd034" d="M 98.320312 175.972656 C 96.875 175.570312 95.152344 175.246094 93.09375 175.035156 C 94.21875 177.007812 95.269531 178.597656 96.253906 179.867188 C 100.945312 185.894531 104.0625 184.71875 105.15625 183.980469 C 104.617188 183.5625 103.984375 183.328125 103.355469 183.328125 C 102.371094 183.328125 100.675781 183.027344 99.0625 181.246094 C 98.988281 181.183594 98.953125 181.144531 98.953125 181.144531 C 98.988281 181.183594 99.03125 181.214844 99.0625 181.246094 C 99.511719 181.707031 101.335938 183.339844 103.699219 182.847656 L 97.957031 178.386719 L 104.105469 182.082031 C 103.375 179.464844 101.257812 178.386719 100.703125 178.152344 C 100.644531 178.128906 100.605469 178.105469 100.5625 178.097656 C 100.5625 178.097656 100.613281 178.105469 100.703125 178.152344 C 102.832031 178.953125 103.863281 180.523438 104.316406 181.515625 C 104.605469 182.152344 105.089844 182.675781 105.660156 183.019531 C 105.71875 181.578125 105.175781 177.882812 98.320312 175.972656 " fill-opacity="1" fill-rule="nonzero"/><path fill="#ffd034" d="M 105.058594 187.261719 C 103.550781 187.152344 101.78125 187.183594 99.703125 187.40625 C 101.171875 189.195312 102.5 190.59375 103.710938 191.679688 C 109.429688 196.847656 112.308594 194.992188 113.261719 194.007812 C 112.648438 193.6875 111.988281 193.582031 111.367188 193.71875 C 110.382812 193.933594 108.648438 193.976562 106.730469 192.5 C 106.640625 192.449219 106.601562 192.40625 106.601562 192.40625 C 106.640625 192.449219 106.683594 192.46875 106.730469 192.5 C 107.253906 192.878906 109.351562 194.167969 111.613281 193.152344 L 105.136719 189.800781 L 111.878906 192.285156 C 110.703125 189.757812 108.410156 189.105469 107.8125 188.976562 C 107.757812 188.976562 107.714844 188.957031 107.664062 188.957031 C 107.664062 188.957031 107.714844 188.964844 107.8125 188.976562 C 110.058594 189.347656 111.367188 190.738281 111.996094 191.660156 C 112.394531 192.257812 112.960938 192.6875 113.59375 192.917969 C 113.402344 191.421875 112.199219 187.757812 105.058594 187.261719 " fill-opacity="1" fill-rule="nonzero"/><path fill="#ffd034" d="M 104.652344 131.148438 C 104.652344 131.148438 104.445312 131.449219 104.105469 132.023438 C 103.761719 132.609375 103.25 133.464844 102.703125 134.609375 C 102.148438 135.738281 101.527344 137.136719 100.925781 138.804688 C 100.292969 140.460938 99.734375 142.382812 99.242188 144.503906 C 98.75 146.628906 98.386719 148.980469 98.195312 151.488281 C 98.054688 154.011719 98.035156 156.679688 98.355469 159.425781 C 98.417969 160.105469 98.558594 160.789062 98.65625 161.484375 C 98.75 162.175781 98.859375 162.882812 99.03125 163.566406 C 99.179688 164.269531 99.339844 164.964844 99.492188 165.667969 C 99.683594 166.363281 99.910156 167.046875 100.121094 167.742188 L 100.445312 168.789062 C 100.5625 169.128906 100.710938 169.472656 100.828125 169.8125 C 101.097656 170.496094 101.367188 171.179688 101.628906 171.863281 C 101.917969 172.53125 102.25 173.195312 102.5625 173.859375 C 102.882812 174.523438 103.171875 175.207031 103.5625 175.832031 C 104.308594 177.109375 105.007812 178.40625 105.859375 179.59375 C 106.28125 180.199219 106.683594 180.8125 107.101562 181.40625 C 107.535156 181.992188 107.996094 182.550781 108.445312 183.128906 C 108.890625 183.691406 109.332031 184.257812 109.792969 184.816406 C 110.273438 185.339844 110.753906 185.847656 111.234375 186.371094 C 111.71875 186.882812 112.199219 187.394531 112.679688 187.910156 C 113.1875 188.378906 113.691406 188.863281 114.191406 189.328125 C 114.683594 189.789062 115.175781 190.261719 115.667969 190.71875 C 116.160156 191.179688 116.699219 191.570312 117.203125 192.003906 C 117.714844 192.40625 118.222656 192.808594 118.726562 193.21875 C 119.226562 193.625 119.71875 194.015625 120.230469 194.371094 C 121.25 195.09375 122.234375 195.800781 123.199219 196.472656 C 124.164062 197.144531 125.15625 197.691406 126.066406 198.277344 C 127 198.835938 127.871094 199.410156 128.746094 199.871094 C 129.625 200.328125 130.449219 200.769531 131.230469 201.171875 C 132.011719 201.574219 132.726562 201.976562 133.417969 202.316406 C 134.109375 202.621094 134.742188 202.914062 135.324219 203.167969 C 137.621094 204.203125 138.953125 204.746094 138.953125 204.746094 C 138.953125 204.746094 137.730469 203.96875 135.59375 202.667969 C 135.054688 202.335938 134.464844 201.984375 133.820312 201.585938 C 133.1875 201.160156 132.515625 200.710938 131.785156 200.234375 C 131.070312 199.753906 130.300781 199.238281 129.484375 198.695312 C 128.671875 198.152344 127.859375 197.519531 126.988281 196.902344 C 126.144531 196.261719 125.214844 195.648438 124.332031 194.914062 C 123.4375 194.199219 122.515625 193.453125 121.574219 192.695312 C 121.082031 192.316406 120.628906 191.902344 120.167969 191.488281 C 119.707031 191.058594 119.246094 190.644531 118.765625 190.203125 C 118.304688 189.78125 117.8125 189.363281 117.351562 188.914062 C 116.890625 188.453125 116.429688 187.988281 115.96875 187.515625 C 115.5 187.042969 115.039062 186.578125 114.566406 186.105469 C 114.121094 185.59375 113.679688 185.089844 113.242188 184.578125 C 112.789062 184.066406 112.347656 183.550781 111.898438 183.039062 C 111.484375 182.503906 111.054688 181.960938 110.636719 181.417969 C 110.222656 180.875 109.792969 180.328125 109.386719 179.777344 C 109 179.195312 108.617188 178.621094 108.226562 178.046875 C 107.425781 176.910156 106.792969 175.660156 106.097656 174.464844 C 105.71875 173.871094 105.445312 173.238281 105.136719 172.621094 C 104.835938 171.988281 104.515625 171.371094 104.234375 170.742188 C 103.976562 170.101562 103.722656 169.460938 103.460938 168.828125 C 103.332031 168.496094 103.195312 168.191406 103.089844 167.871094 L 102.769531 166.886719 C 101.867188 164.300781 101.289062 161.664062 100.875 159.105469 C 100.496094 156.519531 100.34375 153.984375 100.34375 151.585938 C 100.414062 149.171875 100.5625 146.898438 100.863281 144.804688 C 101.195312 142.710938 101.535156 140.800781 101.976562 139.128906 C 102.402344 137.449219 102.820312 136 103.238281 134.824219 C 103.632812 133.636719 103.976562 132.71875 104.234375 132.097656 C 104.492188 131.480469 104.652344 131.148438 104.652344 131.148438 " fill-opacity="1" fill-rule="nonzero"/><path fill="#ffd034" d="M 278 138.285156 C 278.714844 136.9375 279.675781 135.417969 280.941406 133.714844 C 281.453125 135.699219 281.753906 137.417969 281.902344 138.898438 C 282.601562 145.949219 279.734375 147.691406 278.511719 148.117188 C 278.605469 147.464844 278.882812 146.835938 279.3125 146.355469 C 279.988281 145.597656 280.941406 144.113281 280.898438 141.847656 C 280.898438 141.765625 280.898438 141.699219 280.898438 141.699219 C 280.898438 141.753906 280.898438 141.804688 280.898438 141.847656 C 280.886719 142.457031 280.707031 144.796875 278.78125 146.34375 L 279.796875 139.382812 L 278.007812 146.214844 C 276.808594 144.171875 277.558594 141.925781 277.78125 141.355469 C 277.800781 141.3125 277.8125 141.261719 277.839844 141.222656 C 277.839844 141.222656 277.8125 141.273438 277.78125 141.355469 C 276.847656 143.457031 277.160156 145.148438 277.492188 146.066406 C 277.707031 146.65625 277.71875 147.3125 277.558594 147.957031 C 276.574219 147.1875 274.570312 144.664062 278 138.285156 " fill-opacity="1" fill-rule="nonzero"/><path fill="#ffd034" d="M 274.480469 127.816406 C 275 126.527344 275.714844 125.0625 276.679688 123.390625 C 277.355469 125.09375 277.8125 126.582031 278.101562 127.871094 C 279.476562 134.046875 277.046875 135.953125 275.984375 136.476562 C 276.003906 135.890625 276.1875 135.304688 276.527344 134.824219 C 277.054688 134.054688 277.769531 132.621094 277.492188 130.625 C 277.480469 130.542969 277.46875 130.488281 277.46875 130.488281 C 277.480469 130.542969 277.480469 130.574219 277.492188 130.625 C 277.546875 131.160156 277.621094 133.261719 276.035156 134.875 L 276.226562 128.5625 L 275.332031 134.863281 C 274.019531 133.199219 274.472656 131.109375 274.613281 130.574219 C 274.632812 130.527344 274.644531 130.488281 274.652344 130.445312 C 274.652344 130.445312 274.632812 130.488281 274.613281 130.574219 C 273.992188 132.558594 274.453125 134.007812 274.851562 134.792969 C 275.105469 135.292969 275.179688 135.878906 275.105469 136.464844 C 274.128906 135.898438 272.054688 133.914062 274.480469 127.816406 " fill-opacity="1" fill-rule="nonzero"/><path fill="#ffd034" d="M 264.695312 124.496094 C 264.472656 122.917969 264.363281 121.015625 264.394531 118.742188 C 266.109375 119.886719 267.46875 120.972656 268.53125 122.011719 C 273.605469 126.910156 272.183594 130.433594 271.378906 131.683594 C 271.046875 131.109375 270.898438 130.425781 270.960938 129.71875 C 271.078125 128.621094 270.980469 126.75 269.515625 125.050781 C 269.449219 124.980469 269.417969 124.9375 269.417969 124.9375 C 269.449219 124.96875 269.484375 125.011719 269.515625 125.050781 C 269.878906 125.523438 271.210938 127.464844 270.480469 130.125 L 266.96875 123.972656 L 269.726562 130.605469 C 267.371094 129.941406 266.609375 127.636719 266.449219 127.027344 C 266.441406 126.972656 266.429688 126.933594 266.417969 126.878906 C 266.417969 126.878906 266.429688 126.933594 266.449219 127.027344 C 266.957031 129.355469 268.304688 130.414062 269.183594 130.871094 C 269.738281 131.171875 270.167969 131.671875 270.425781 132.292969 C 269.085938 132.441406 265.714844 132.015625 264.695312 124.496094 " fill-opacity="1" fill-rule="nonzero"/><path fill="#ffd034" d="M 280.75 149.65625 C 281.753906 148.542969 283.042969 147.335938 284.648438 146.035156 C 284.648438 148.136719 284.507812 149.917969 284.28125 151.425781 C 283.203125 158.570312 280.066406 159.4375 278.8125 159.488281 C 279.066406 158.875 279.476562 158.34375 279.996094 157.992188 C 280.820312 157.445312 282.085938 156.261719 282.601562 154.03125 C 282.625 153.933594 282.632812 153.882812 282.632812 153.882812 C 282.625 153.933594 282.613281 153.976562 282.601562 154.03125 C 282.441406 154.617188 281.691406 156.871094 279.496094 157.820312 L 282.171875 151.265625 L 278.800781 157.476562 C 278.179688 155.109375 279.445312 153.109375 279.796875 152.625 C 279.816406 152.578125 279.847656 152.546875 279.882812 152.503906 C 279.882812 152.503906 279.847656 152.546875 279.796875 152.625 C 278.390625 154.417969 278.273438 156.167969 278.359375 157.171875 C 278.414062 157.808594 278.261719 158.472656 277.941406 159.058594 C 277.214844 158.011719 275.953125 154.929688 280.75 149.65625 " fill-opacity="1" fill-rule="nonzero"/><path fill="#ffd034" d="M 280.214844 163.320312 C 281.421875 162.496094 282.914062 161.664062 284.742188 160.808594 C 284.25 162.890625 283.714844 164.621094 283.144531 166.042969 C 280.480469 172.792969 277.300781 172.78125 276.113281 172.492188 C 276.488281 171.957031 277 171.554688 277.578125 171.351562 C 278.480469 171.03125 279.957031 170.21875 280.949219 168.144531 C 281.007812 168.0625 281.027344 168.019531 281.027344 168.019531 C 281.007812 168.0625 280.988281 168.101562 280.949219 168.144531 C 280.660156 168.6875 279.445312 170.710938 277.140625 171.039062 L 281.1875 165.296875 L 276.558594 170.507812 C 276.515625 168 278.167969 166.375 278.621094 165.980469 C 278.660156 165.949219 278.691406 165.917969 278.722656 165.890625 C 278.722656 165.890625 278.683594 165.925781 278.621094 165.980469 C 276.886719 167.367188 276.355469 169.066406 276.207031 170.078125 C 276.113281 170.730469 275.824219 171.339844 275.382812 171.828125 C 274.933594 170.589844 274.441406 167.195312 280.214844 163.320312 " fill-opacity="1" fill-rule="nonzero"/><path fill="#ffd034" d="M 262.980469 164.121094 C 262.769531 162.660156 262.648438 160.898438 262.675781 158.785156 C 264.269531 159.828125 265.542969 160.835938 266.539062 161.78125 C 271.28125 166.289062 269.976562 169.578125 269.234375 170.742188 C 268.925781 170.207031 268.785156 169.5625 268.851562 168.917969 C 268.945312 167.902344 268.84375 166.160156 267.460938 164.601562 C 267.402344 164.527344 267.371094 164.492188 267.371094 164.492188 C 267.402344 164.527344 267.4375 164.558594 267.460938 164.601562 C 267.8125 165.042969 269.054688 166.824219 268.402344 169.300781 L 265.09375 163.617188 L 267.703125 169.761719 C 265.507812 169.160156 264.792969 167.027344 264.632812 166.460938 C 264.621094 166.414062 264.613281 166.375 264.601562 166.320312 C 264.601562 166.320312 264.613281 166.375 264.632812 166.460938 C 265.125 168.617188 266.378906 169.589844 267.191406 170.003906 C 267.714844 170.269531 268.121094 170.742188 268.371094 171.304688 C 267.117188 171.457031 263.988281 171.09375 262.980469 164.121094 " fill-opacity="1" fill-rule="nonzero"/><path fill="#ffd034" d="M 258.214844 172.386719 C 258.367188 170.871094 258.675781 169.097656 259.1875 167.027344 C 260.453125 168.507812 261.410156 169.863281 262.125 171.082031 C 265.542969 176.878906 263.527344 179.753906 262.554688 180.691406 C 262.382812 180.085938 262.394531 179.414062 262.617188 178.78125 C 262.949219 177.8125 263.261719 176.070312 262.339844 174.128906 C 262.296875 174.039062 262.277344 174 262.277344 174 C 262.296875 174.039062 262.316406 174.082031 262.339844 174.128906 C 262.554688 174.664062 263.304688 176.777344 262.105469 179.03125 L 260.328125 172.492188 L 261.332031 179.285156 C 259.40625 178.066406 259.234375 175.761719 259.226562 175.148438 C 259.226562 175.109375 259.214844 175.054688 259.226562 175.003906 C 259.226562 175.003906 259.214844 175.066406 259.226562 175.148438 C 259.167969 177.414062 260.121094 178.738281 260.789062 179.390625 C 261.222656 179.796875 261.492188 180.371094 261.59375 181.003906 C 260.371094 180.800781 257.5 179.539062 258.214844 172.386719 " fill-opacity="1" fill-rule="nonzero"/><path fill="#ffd034" d="M 252.390625 179.988281 C 252.949219 178.570312 253.730469 176.9375 254.78125 175.078125 C 255.539062 176.957031 256.054688 178.589844 256.386719 180.019531 C 257.941406 186.820312 255.273438 188.957031 254.105469 189.546875 C 254.125 188.894531 254.320312 188.25 254.695312 187.707031 C 255.273438 186.863281 256.054688 185.261719 255.734375 183.066406 C 255.71875 182.96875 255.710938 182.914062 255.710938 182.914062 C 255.71875 182.96875 255.71875 183.007812 255.734375 183.066406 C 255.796875 183.660156 255.894531 185.976562 254.148438 187.769531 L 254.320312 180.800781 L 253.367188 187.769531 C 251.917969 185.933594 252.390625 183.628906 252.550781 183.027344 C 252.558594 182.988281 252.574219 182.9375 252.597656 182.894531 C 252.597656 182.894531 252.574219 182.945312 252.550781 183.027344 C 251.867188 185.230469 252.390625 186.832031 252.828125 187.6875 C 253.121094 188.242188 253.21875 188.882812 253.121094 189.535156 C 252.046875 188.925781 249.738281 186.75 252.390625 179.988281 " fill-opacity="1" fill-rule="nonzero"/><path fill="#ffd034" d="M 261.261719 197.296875 C 262.46875 197.753906 263.851562 198.414062 265.402344 199.359375 C 263.722656 200.316406 262.253906 201.011719 260.980469 201.484375 C 254.953125 203.726562 253.25 201.128906 252.796875 199.964844 C 253.378906 199.921875 253.921875 200.074219 254.371094 200.414062 C 255.078125 200.949219 256.429688 201.605469 258.367188 201.074219 C 258.453125 201.050781 258.496094 201.042969 258.496094 201.042969 C 258.453125 201.050781 258.414062 201.0625 258.367188 201.074219 C 257.84375 201.191406 255.816406 201.515625 254.351562 199.84375 L 260.433594 199.398438 L 254.402344 199.027344 C 256.097656 197.339844 258.085938 197.636719 258.59375 197.742188 C 258.636719 197.753906 258.675781 197.753906 258.71875 197.777344 C 258.71875 197.777344 258.667969 197.753906 258.59375 197.742188 C 256.71875 197.230469 255.285156 197.921875 254.503906 198.460938 C 254.011719 198.816406 253.429688 198.96875 252.871094 198.929688 C 253.472656 197.753906 255.515625 195.140625 261.261719 197.296875 " fill-opacity="1" fill-rule="nonzero"/><path fill="#ffd034" d="M 245.238281 186.226562 C 245.902344 184.960938 246.800781 183.542969 247.96875 181.941406 C 248.457031 183.800781 248.75 185.402344 248.886719 186.78125 C 249.5625 193.34375 246.890625 194.992188 245.75 195.386719 C 245.839844 194.789062 246.097656 194.199219 246.5 193.742188 C 247.121094 193.039062 248.011719 191.648438 247.957031 189.535156 C 247.957031 189.449219 247.957031 189.394531 247.957031 189.394531 C 247.957031 189.449219 247.957031 189.488281 247.957031 189.535156 C 247.945312 190.101562 247.785156 192.285156 245.988281 193.742188 L 246.921875 187.234375 L 245.269531 193.625 C 244.144531 191.722656 244.84375 189.617188 245.046875 189.085938 C 245.066406 189.042969 245.078125 188.996094 245.097656 188.957031 C 245.097656 188.957031 245.078125 189.011719 245.046875 189.085938 C 244.175781 191.046875 244.488281 192.628906 244.796875 193.484375 C 244.996094 194.027344 245.015625 194.648438 244.855469 195.253906 C 243.941406 194.53125 242.058594 192.195312 245.238281 186.226562 " fill-opacity="1" fill-rule="nonzero"/><path fill="#ffd034" d="M 265.335938 154.105469 C 264.910156 152.714844 264.523438 151.023438 264.210938 148.960938 C 265.96875 149.695312 267.390625 150.441406 268.542969 151.179688 C 273.960938 154.707031 273.15625 158.128906 272.597656 159.398438 C 272.203125 158.945312 271.964844 158.351562 271.925781 157.707031 C 271.871094 156.699219 271.503906 155.023438 269.890625 153.753906 C 269.828125 153.691406 269.785156 153.671875 269.785156 153.671875 C 269.828125 153.691406 269.859375 153.722656 269.890625 153.753906 C 270.308594 154.117188 271.816406 155.632812 271.539062 158.152344 L 267.371094 153.230469 L 270.910156 158.730469 C 268.636719 158.535156 267.589844 156.59375 267.339844 156.070312 C 267.332031 156.027344 267.308594 155.996094 267.289062 155.945312 C 267.289062 155.945312 267.308594 155.996094 267.339844 156.070312 C 268.152344 158.089844 269.558594 158.804688 270.4375 159.058594 C 271.003906 159.230469 271.472656 159.605469 271.804688 160.113281 C 270.578125 160.492188 267.390625 160.707031 265.335938 154.105469 " fill-opacity="1" fill-rule="nonzero"/><path fill="#ffd034" d="M 266.195312 144.25 C 265.777344 143.003906 265.394531 141.476562 265.082031 139.613281 C 266.6875 140.246094 267.992188 140.890625 269.042969 141.527344 C 274.046875 144.605469 273.367188 147.734375 272.886719 148.894531 C 272.523438 148.488281 272.285156 147.957031 272.246094 147.371094 C 272.171875 146.457031 271.816406 144.957031 270.328125 143.832031 C 270.265625 143.78125 270.21875 143.757812 270.21875 143.757812 C 270.265625 143.78125 270.289062 143.800781 270.328125 143.832031 C 270.703125 144.152344 272.105469 145.488281 271.902344 147.785156 L 268.023438 143.417969 L 271.34375 148.316406 C 269.265625 148.1875 268.285156 146.457031 268.050781 145.992188 C 268.035156 145.949219 268.015625 145.914062 267.992188 145.871094 C 267.992188 145.871094 268.015625 145.914062 268.050781 145.992188 C 268.832031 147.796875 270.117188 148.417969 270.917969 148.628906 C 271.433594 148.769531 271.871094 149.101562 272.183594 149.554688 C 271.070312 149.917969 268.175781 150.1875 266.195312 144.25 " fill-opacity="1" fill-rule="nonzero"/><path fill="#ffd034" d="M 264.910156 134.984375 C 264.441406 133.976562 263.980469 132.730469 263.550781 131.203125 C 264.984375 131.5625 266.15625 131.960938 267.117188 132.398438 C 271.65625 134.460938 271.359375 137.160156 271.046875 138.183594 C 270.691406 137.875 270.457031 137.460938 270.359375 136.96875 C 270.21875 136.210938 269.785156 134.984375 268.402344 134.199219 C 268.34375 134.160156 268.3125 134.148438 268.3125 134.148438 C 268.34375 134.160156 268.382812 134.179688 268.402344 134.199219 C 268.765625 134.429688 270.082031 135.40625 270.105469 137.351562 L 266.410156 134.097656 L 269.675781 137.863281 C 267.890625 137.984375 266.890625 136.625 266.65625 136.253906 C 266.636719 136.222656 266.609375 136.199219 266.589844 136.160156 C 266.589844 136.160156 266.609375 136.199219 266.65625 136.253906 C 267.46875 137.683594 268.636719 138.082031 269.335938 138.175781 C 269.796875 138.242188 270.199219 138.464844 270.5 138.816406 C 269.578125 139.242188 267.128906 139.765625 264.910156 134.984375 " fill-opacity="1" fill-rule="nonzero"/><path fill="#ffd034" d="M 276.753906 175.972656 C 278.199219 175.570312 279.925781 175.246094 281.980469 175.035156 C 280.855469 177.007812 279.804688 178.597656 278.820312 179.867188 C 274.128906 185.894531 271.011719 184.71875 269.917969 183.980469 C 270.457031 183.5625 271.089844 183.328125 271.722656 183.328125 C 272.707031 183.328125 274.398438 183.027344 276.015625 181.246094 C 276.09375 181.183594 276.125 181.144531 276.125 181.144531 C 276.09375 181.183594 276.046875 181.214844 276.015625 181.246094 C 275.566406 181.707031 273.746094 183.339844 271.378906 182.847656 L 277.117188 178.386719 L 270.972656 182.082031 C 271.703125 179.464844 273.820312 178.386719 274.378906 178.152344 C 274.429688 178.128906 274.472656 178.105469 274.519531 178.097656 C 274.519531 178.097656 274.460938 178.105469 274.378906 178.152344 C 272.246094 178.953125 271.21875 180.523438 270.757812 181.515625 C 270.46875 182.152344 269.988281 182.675781 269.417969 183.019531 C 269.355469 181.578125 269.898438 177.882812 276.753906 175.972656 " fill-opacity="1" fill-rule="nonzero"/><path fill="#ffd034" d="M 270.019531 187.261719 C 271.53125 187.152344 273.296875 187.183594 275.371094 187.40625 C 273.90625 189.195312 272.578125 190.59375 271.371094 191.679688 C 265.648438 196.847656 262.769531 194.992188 261.816406 194.007812 C 262.425781 193.6875 263.089844 193.582031 263.710938 193.71875 C 264.695312 193.933594 266.429688 193.976562 268.34375 192.5 C 268.433594 192.449219 268.476562 192.40625 268.476562 192.40625 C 268.433594 192.449219 268.390625 192.46875 268.34375 192.5 C 267.824219 192.878906 265.726562 194.167969 263.46875 193.152344 L 269.945312 189.800781 L 263.199219 192.285156 C 264.375 189.757812 266.667969 189.105469 267.269531 188.976562 C 267.320312 188.976562 267.363281 188.957031 267.417969 188.957031 C 267.417969 188.957031 267.363281 188.964844 267.269531 188.976562 C 265.015625 189.347656 263.710938 190.738281 263.078125 191.660156 C 262.683594 192.257812 262.117188 192.6875 261.484375 192.917969 C 261.675781 191.421875 262.875 187.757812 270.019531 187.261719 " fill-opacity="1" fill-rule="nonzero"/><path fill="#ffd034" d="M 270.425781 131.148438 C 270.425781 131.148438 270.628906 131.449219 270.972656 132.023438 C 271.3125 132.609375 271.832031 133.464844 272.375 134.609375 C 272.929688 135.738281 273.550781 137.136719 274.152344 138.804688 C 274.78125 140.460938 275.34375 142.382812 275.832031 144.503906 C 276.324219 146.628906 276.6875 148.980469 276.886719 151.488281 C 277.019531 154.011719 277.046875 156.679688 276.726562 159.425781 C 276.65625 160.105469 276.515625 160.789062 276.425781 161.484375 C 276.324219 162.175781 276.21875 162.882812 276.046875 163.566406 C 275.894531 164.269531 275.734375 164.964844 275.585938 165.667969 C 275.394531 166.363281 275.171875 167.046875 274.953125 167.742188 L 274.632812 168.789062 C 274.519531 169.128906 274.367188 169.472656 274.238281 169.8125 C 273.980469 170.496094 273.710938 171.179688 273.445312 171.863281 C 273.15625 172.53125 272.824219 173.195312 272.515625 173.859375 C 272.191406 174.523438 271.902344 175.207031 271.519531 175.832031 C 270.769531 177.109375 270.070312 178.40625 269.214844 179.59375 C 268.796875 180.199219 268.390625 180.8125 267.972656 181.40625 C 267.542969 181.992188 267.082031 182.550781 266.636719 183.128906 C 266.1875 183.691406 265.746094 184.257812 265.285156 184.816406 C 264.804688 185.339844 264.320312 185.847656 263.839844 186.371094 C 263.359375 186.882812 262.875 187.394531 262.394531 187.910156 C 261.894531 188.378906 261.386719 188.863281 260.882812 189.328125 C 260.390625 189.789062 259.898438 190.261719 259.40625 190.71875 C 258.914062 191.179688 258.375 191.570312 257.875 192.003906 C 257.359375 192.40625 256.859375 192.808594 256.351562 193.21875 C 255.847656 193.625 255.355469 194.015625 254.84375 194.371094 C 253.824219 195.09375 252.839844 195.800781 251.875 196.472656 C 250.914062 197.144531 249.917969 197.691406 249.007812 198.277344 C 248.074219 198.835938 247.210938 199.410156 246.332031 199.871094 C 245.449219 200.328125 244.625 200.769531 243.84375 201.171875 C 243.0625 201.574219 242.347656 201.976562 241.660156 202.316406 C 240.964844 202.621094 240.332031 202.914062 239.753906 203.167969 C 237.453125 204.203125 236.121094 204.746094 236.121094 204.746094 C 236.121094 204.746094 237.34375 203.96875 239.488281 202.667969 C 240.023438 202.335938 240.613281 201.984375 241.253906 201.585938 C 241.886719 201.160156 242.558594 200.710938 243.289062 200.234375 C 244.003906 199.753906 244.777344 199.238281 245.589844 198.695312 C 246.402344 198.152344 247.222656 197.519531 248.085938 196.902344 C 248.929688 196.261719 249.863281 195.648438 250.742188 194.914062 C 251.644531 194.199219 252.558594 193.453125 253.503906 192.695312 C 254 192.316406 254.445312 191.902344 254.90625 191.488281 C 255.367188 191.058594 255.828125 190.644531 256.308594 190.203125 C 256.769531 189.78125 257.261719 189.363281 257.722656 188.914062 C 258.183594 188.453125 258.644531 187.988281 259.105469 187.515625 C 259.578125 187.042969 260.039062 186.578125 260.511719 186.105469 C 260.960938 185.59375 261.394531 185.089844 261.835938 184.578125 C 262.285156 184.066406 262.726562 183.550781 263.175781 183.039062 C 263.589844 182.503906 264.019531 181.960938 264.441406 181.417969 C 264.855469 180.875 265.285156 180.328125 265.695312 179.777344 C 266.078125 179.195312 266.464844 178.621094 266.847656 178.046875 C 267.652344 176.910156 268.285156 175.660156 268.976562 174.464844 C 269.355469 173.871094 269.636719 173.238281 269.945312 172.621094 C 270.242188 171.988281 270.566406 171.371094 270.839844 170.742188 C 271.101562 170.101562 271.359375 169.460938 271.613281 168.828125 C 271.742188 168.496094 271.882812 168.191406 271.992188 167.871094 L 272.3125 166.886719 C 273.207031 164.300781 273.789062 161.664062 274.207031 159.105469 C 274.582031 156.519531 274.730469 153.984375 274.730469 151.585938 C 274.664062 149.171875 274.519531 146.898438 274.21875 144.804688 C 273.886719 142.710938 273.539062 140.800781 273.105469 139.128906 C 272.675781 137.449219 272.253906 136 271.839844 134.824219 C 271.441406 133.636719 271.101562 132.71875 270.839844 132.097656 C 270.585938 131.480469 270.425781 131.148438 270.425781 131.148438 " fill-opacity="1" fill-rule="nonzero"/><g clip-path="url(#95ddfe1e58)"><path fill="#ffd034" d="M 220.683594 140.921875 C 220.621094 139.226562 219.902344 137.589844 220.34375 135.847656 C 220.484375 135.308594 220.4375 134.707031 220.238281 134.152344 C 220.121094 133.824219 220.089844 133.480469 220.113281 133.140625 C 220.183594 132.324219 219.867188 131.640625 219.421875 131.007812 C 218.246094 129.335938 217.039062 127.695312 215.421875 126.394531 C 214.132812 125.351562 213.011719 124.105469 211.472656 123.375 C 211.050781 123.171875 210.515625 122.917969 210.394531 122.410156 C 210.28125 121.90625 209.949219 121.734375 209.582031 121.550781 C 209.136719 121.332031 208.738281 121.089844 208.421875 120.675781 C 208.109375 120.265625 207.585938 120 207.121094 120.121094 C 206.457031 120.285156 206.136719 119.945312 205.78125 119.550781 C 205.445312 119.1875 205.050781 118.890625 204.65625 118.589844 C 204.339844 118.34375 203.988281 118.066406 203.988281 117.582031 C 203.988281 116.484375 203.703125 115.40625 203.734375 114.292969 C 203.765625 113.042969 203.632812 111.769531 203.449219 110.539062 C 203.230469 109.058594 203.496094 107.675781 203.808594 106.28125 C 204.195312 104.519531 205.074219 102.972656 206.074219 101.488281 C 206.789062 100.429688 206.46875 99.484375 205.273438 99.066406 C 204.992188 98.96875 204.625 99.027344 204.453125 98.734375 C 204.039062 98.027344 203.429688 97.523438 202.699219 97.289062 C 202 97.066406 201.902344 96.132812 201.136719 96.113281 C 200.46875 96.085938 200.328125 95.699219 200.335938 95.132812 C 200.34375 94.828125 200.347656 94.523438 200.304688 94.222656 C 200.222656 93.601562 199.964844 93.355469 199.347656 93.292969 C 198.964844 93.253906 198.601562 93.339844 198.238281 93.476562 C 197.601562 93.714844 196.949219 93.914062 196.296875 94.113281 C 195.710938 94.289062 195.148438 94.191406 194.75 93.703125 C 193.847656 92.601562 192.554688 92.292969 191.289062 91.910156 C 190.105469 91.554688 188.882812 91.746094 187.679688 91.648438 C 186.082031 91.515625 184.609375 91.929688 183.148438 92.484375 C 182.355469 92.785156 181.652344 93.214844 181.171875 93.945312 C 180.933594 94.304688 180.640625 94.613281 180.25 94.765625 C 179.867188 94.910156 179.613281 95.191406 179.394531 95.484375 C 178.871094 96.183594 177.917969 96.613281 177.996094 97.703125 C 178 97.753906 177.914062 97.816406 177.855469 97.867188 C 176.808594 98.910156 176.21875 100.210938 175.734375 101.574219 C 175.515625 102.171875 175.085938 102.691406 174.980469 103.351562 C 174.117188 103.863281 174.007812 104.835938 173.621094 105.640625 C 173.542969 105.804688 173.480469 105.988281 173.289062 106.085938 C 172.570312 106.457031 172 107.023438 171.382812 107.542969 C 170.796875 108.03125 170.351562 108.894531 169.34375 108.648438 C 169.191406 108.613281 169.019531 108.777344 169.035156 108.925781 C 169.078125 109.34375 169.242188 109.738281 169.503906 110.0625 C 169.714844 110.328125 169.894531 110.058594 170.082031 109.960938 C 170.273438 109.863281 170.550781 109.929688 170.617188 110.023438 C 171.125 110.757812 171.722656 110.449219 172.320312 110.226562 C 172.335938 110.5625 172.703125 110.851562 172.53125 111.167969 C 172.207031 111.753906 171.679688 112.269531 172.292969 112.976562 C 172.324219 113.007812 172.207031 113.167969 172.167969 113.269531 C 171.859375 114.246094 171.648438 115.238281 171.03125 116.121094 C 170.824219 116.421875 170.207031 116.746094 170.496094 117.261719 C 170.71875 117.660156 171.347656 117.523438 171.679688 117.898438 C 171.765625 118.113281 171.5625 118.304688 171.558594 118.527344 C 171.558594 118.789062 171.449219 119.097656 171.75 119.25 C 171.992188 119.367188 172.269531 119.34375 172.527344 119.222656 C 172.78125 119.109375 172.914062 118.875 173.085938 118.675781 C 173.222656 118.519531 173.222656 118.203125 173.550781 118.253906 C 173.816406 118.527344 173.652344 118.792969 173.53125 119.074219 C 173.195312 119.871094 173.269531 120.722656 173.210938 121.554688 C 173.191406 121.855469 173.300781 122.105469 173.589844 122.183594 C 173.804688 122.238281 174.042969 122.203125 174.136719 121.917969 C 174.199219 121.710938 174.367188 121.535156 174.527344 121.761719 C 174.960938 122.390625 175.230469 122.019531 175.566406 121.664062 C 176.109375 121.078125 176.363281 120.390625 176.339844 119.601562 C 176.332031 119.414062 176.226562 119.191406 176.394531 119.078125 C 176.867188 118.777344 177.015625 118.21875 177.363281 117.742188 C 177.757812 118.425781 177.457031 118.902344 177.125 119.296875 C 176.640625 119.859375 176.609375 120.390625 177.09375 120.917969 C 177.378906 121.226562 177.40625 121.613281 177.199219 121.839844 C 176.878906 122.210938 176.910156 122.605469 176.886719 123.015625 C 176.820312 124.113281 176.324219 124.804688 175.230469 125.171875 C 174.148438 125.535156 173.082031 125.796875 171.921875 125.792969 C 169.457031 125.78125 167.027344 126.050781 164.664062 126.824219 C 162.238281 127.609375 159.746094 127.984375 157.1875 127.847656 C 156.539062 127.816406 155.910156 127.886719 155.265625 128.03125 C 152.851562 128.59375 150.433594 129.164062 148.03125 129.777344 C 145.691406 130.371094 143.296875 130.726562 140.878906 130.808594 C 139.253906 130.863281 137.621094 130.828125 135.996094 130.832031 C 134.941406 130.832031 133.878906 130.917969 132.835938 130.625 C 132.582031 130.554688 132.3125 130.527344 132.054688 130.480469 C 131.804688 130.433594 131.605469 130.523438 131.480469 130.734375 C 131.351562 130.953125 131.386719 131.195312 131.542969 131.378906 C 131.6875 131.546875 131.875 131.6875 132.054688 131.824219 C 132.976562 132.523438 133.988281 133.015625 135.15625 133.101562 C 135.519531 133.128906 135.792969 133.183594 135.851562 133.664062 C 135.902344 134.125 136.28125 134.335938 136.714844 134.449219 C 137.34375 134.621094 137.96875 134.746094 138.621094 134.714844 C 141.085938 134.59375 143.535156 134.863281 145.996094 134.992188 C 146.023438 135.453125 145.738281 135.75 145.453125 136.046875 C 145.078125 136.429688 144.703125 136.800781 144.332031 137.191406 C 143.941406 137.605469 143.605469 138.074219 143.464844 138.640625 C 143.359375 139.054688 143.382812 139.492188 143.769531 139.785156 C 144.195312 140.101562 144.554688 139.890625 144.902344 139.621094 C 145.503906 139.152344 146.058594 138.636719 146.515625 138.03125 C 147.3125 136.972656 148.378906 136.261719 149.535156 135.667969 C 150.273438 135.285156 151.035156 134.925781 151.640625 134.339844 C 152.148438 133.855469 152.78125 133.648438 153.402344 133.703125 C 154.496094 133.800781 155.59375 133.691406 156.679688 133.828125 C 159.238281 134.148438 161.816406 133.988281 164.382812 134.242188 C 165.027344 134.308594 165.632812 134.007812 166.292969 134.007812 C 167.382812 134.003906 168.46875 133.816406 169.542969 133.621094 C 170.921875 133.378906 172.292969 133.148438 173.703125 133.507812 C 174.328125 133.667969 175.007812 133.601562 175.589844 133.285156 C 176.472656 132.796875 177.414062 132.894531 178.359375 132.875 C 178.859375 132.863281 179.042969 133.078125 179.214844 133.5625 C 179.664062 134.875 179.820312 136.195312 179.917969 137.574219 C 179.96875 138.308594 179.78125 138.730469 179.273438 139.074219 C 178.382812 139.675781 177.632812 140.421875 176.960938 141.25 C 175.449219 143.113281 173.828125 144.859375 171.917969 146.324219 C 170.71875 147.242188 169.613281 148.304688 168.0625 148.625 C 167.882812 148.660156 167.667969 148.722656 167.546875 148.847656 C 166.691406 149.6875 165.566406 149.550781 164.566406 149.546875 C 162.484375 149.53125 160.558594 148.914062 158.988281 147.433594 C 158.855469 147.308594 158.675781 147.230469 158.511719 147.132812 C 157.425781 146.441406 156.261719 145.878906 155.347656 144.933594 C 155.21875 144.800781 155.039062 144.707031 154.867188 144.640625 C 154.371094 144.449219 154.050781 144.710938 154.121094 145.257812 C 154.199219 145.8125 154.503906 146.273438 154.878906 146.640625 C 155.496094 147.257812 156.164062 147.820312 156.839844 148.371094 C 157.90625 149.226562 159.027344 150.03125 159.863281 151.121094 C 160.464844 151.894531 161.148438 152.507812 162.003906 152.945312 C 162.652344 153.277344 163.042969 153.789062 163.226562 154.519531 C 162.738281 154.710938 162.292969 154.863281 161.785156 154.902344 C 160.917969 154.96875 160.191406 155.386719 159.726562 156.144531 C 159.558594 156.414062 159.296875 156.730469 159.582031 157.085938 C 159.820312 157.378906 160.113281 157.277344 160.414062 157.183594 C 161.464844 156.859375 162.523438 156.695312 163.636719 156.664062 C 165.847656 156.601562 167.738281 155.675781 169.203125 153.996094 C 170.476562 152.546875 171.941406 151.402344 173.769531 150.761719 C 174.8125 150.402344 175.816406 149.972656 176.789062 149.46875 C 178.300781 148.679688 179.851562 147.964844 181.324219 147.101562 C 182.101562 146.644531 182.402344 146.734375 182.730469 147.546875 C 183.125 148.527344 183.65625 149.453125 183.785156 150.539062 C 183.847656 151.046875 184.066406 151.53125 184.542969 151.894531 C 185.835938 152.882812 187.179688 153.804688 188.601562 154.613281 C 189.328125 155.023438 190.109375 155.222656 190.894531 155.042969 C 192.117188 154.757812 193.308594 155.09375 194.511719 155.074219 C 194.753906 155.070312 195.082031 155.027344 195.097656 155.429688 C 195.113281 155.699219 195.128906 156.074219 194.835938 156.121094 C 194.066406 156.253906 193.882812 156.871094 193.578125 157.4375 C 193.429688 157.722656 193.160156 157.964844 192.816406 158.09375 C 192.574219 158.1875 192.308594 158.28125 192.117188 158.453125 C 190.40625 159.996094 188.746094 161.605469 187.074219 163.191406 C 186.464844 163.765625 185.992188 164.621094 185.035156 164.726562 C 184.339844 164.804688 184.039062 165.195312 183.957031 165.839844 C 183.828125 166.890625 183.324219 167.777344 182.722656 168.617188 C 181.972656 169.667969 181.363281 170.796875 180.921875 172.023438 C 179.898438 174.847656 178.664062 177.5625 176.65625 179.847656 C 176.535156 179.984375 176.359375 180.269531 176.40625 180.328125 C 177.085938 181.210938 176.1875 181.527344 175.8125 181.988281 C 175.449219 182.433594 175.042969 182.832031 174.84375 183.382812 C 174.726562 183.699219 174.726562 184.027344 175.117188 184.121094 C 175.519531 184.21875 175.527344 184.46875 175.527344 184.796875 C 175.53125 185.828125 175.574219 186.859375 175.566406 187.882812 C 175.566406 188.394531 175.394531 188.871094 174.992188 189.199219 C 174.402344 189.6875 174.007812 190.339844 173.558594 190.933594 C 173.066406 191.585938 172.78125 192.34375 172.800781 193.164062 C 172.816406 194.0625 172.609375 194.933594 172.273438 195.714844 C 171.761719 196.90625 171.609375 198.121094 171.640625 199.382812 C 171.664062 200.378906 171.523438 201.375 171.300781 202.3125 C 171.0625 203.289062 170.996094 204.257812 170.90625 205.238281 C 170.859375 205.777344 171.011719 206.089844 171.605469 206.179688 C 172.464844 206.3125 173.261719 206.660156 174.070312 207 C 174.734375 207.28125 175.335938 207.65625 175.992188 207.933594 C 177.214844 208.441406 178.492188 208.441406 179.789062 208.460938 C 180.957031 208.480469 182.097656 208.730469 183.164062 209.257812 C 183.546875 209.445312 183.765625 209.699219 183.691406 210.148438 C 183.421875 211.875 183.09375 213.589844 182.921875 215.324219 C 182.792969 216.652344 182.496094 217.945312 182.316406 219.261719 C 182.144531 220.496094 182.128906 221.746094 181.792969 222.972656 C 181.144531 225.355469 180.746094 227.800781 180.746094 230.277344 C 180.746094 231.320312 180.636719 232.324219 180.300781 233.285156 C 179.683594 235.054688 179.273438 236.839844 179.097656 238.714844 C 179.007812 239.660156 179 240.605469 178.882812 241.550781 C 178.714844 242.867188 178.566406 244.1875 178.488281 245.511719 C 178.382812 247.1875 178.535156 248.855469 178.886719 250.496094 C 178.976562 250.910156 178.933594 251.316406 178.773438 251.726562 C 178.367188 252.789062 177.980469 253.859375 177.625 254.9375 C 176.847656 257.269531 175.757812 259.5 175.53125 262.003906 C 175.472656 262.644531 175.117188 263.222656 174.753906 263.761719 C 174.242188 264.515625 173.75 265.28125 173.226562 266.035156 C 173.035156 266.3125 172.96875 266.644531 172.707031 266.90625 C 171.730469 267.867188 171.015625 269.050781 170.207031 270.152344 C 169.875 270.609375 169.792969 271.113281 169.851562 271.671875 C 169.964844 272.691406 170.042969 273.722656 170.113281 274.75 C 170.164062 275.484375 170.449219 276.046875 171.128906 276.402344 C 171.460938 276.578125 171.78125 276.792969 172.054688 277.054688 C 174.210938 279.089844 176.582031 280.886719 178.597656 283.078125 C 178.867188 283.375 179.175781 283.554688 179.558594 283.632812 C 181.269531 283.996094 182.992188 284.351562 184.734375 284.390625 C 189.929688 284.488281 195.121094 284.414062 200.316406 284.332031 C 201.367188 284.316406 202.414062 284.375 203.46875 284.3125 C 204.136719 284.277344 204.828125 284.261719 205.484375 284.152344 C 206.710938 283.953125 207.136719 282.984375 206.621094 281.871094 C 206.496094 281.601562 206.335938 281.4375 206.066406 281.359375 C 205.273438 281.121094 204.492188 280.878906 203.65625 280.757812 C 202.253906 280.554688 200.808594 280.453125 199.546875 279.617188 C 198.882812 279.183594 198.183594 278.832031 197.695312 278.167969 C 197.5625 277.992188 197.363281 277.824219 197.164062 277.753906 C 196.066406 277.363281 195.355469 276.285156 194.261719 275.992188 C 192.902344 275.625 192.960938 274.214844 192.164062 273.46875 C 191.8125 273.140625 191.71875 272.703125 191.558594 272.277344 C 191.160156 271.210938 191.285156 270.097656 191.160156 269.003906 C 190.917969 266.851562 190.527344 264.722656 190.542969 262.546875 C 190.542969 262.207031 190.554688 261.851562 190.488281 261.523438 C 190.152344 259.855469 190.28125 258.175781 190.375 256.511719 C 190.488281 254.539062 190.796875 252.574219 190.75 250.597656 C 190.726562 249.550781 190.957031 248.621094 191.539062 247.804688 C 193.210938 245.445312 194.527344 242.859375 196.1875 240.507812 C 197.277344 238.96875 198.300781 237.359375 199.859375 236.21875 C 200.808594 235.53125 201.714844 234.777344 202.589844 233.992188 C 203.878906 232.824219 204.945312 231.46875 205.269531 229.75 C 205.496094 228.566406 205.992188 227.414062 205.800781 226.160156 C 205.773438 226.019531 205.8125 225.84375 205.875 225.710938 C 206.304688 224.828125 206.335938 223.867188 206.359375 222.914062 C 206.40625 221.515625 206.703125 220.144531 206.78125 218.738281 C 206.847656 217.496094 206.957031 216.160156 207.78125 215.0625 C 208.039062 214.714844 207.945312 214.324219 207.816406 213.878906 C 207.441406 212.546875 207.722656 211.175781 207.785156 209.820312 C 207.789062 209.746094 207.851562 209.683594 207.878906 209.609375 C 208.488281 207.84375 208.898438 206.035156 208.992188 204.167969 C 209.03125 203.367188 209.058594 202.570312 209.292969 201.804688 C 209.394531 201.457031 209.472656 201.09375 209.28125 200.804688 C 208.925781 200.277344 209.085938 199.875 209.492188 199.507812 C 210.199219 198.871094 210.277344 198.160156 210.015625 197.238281 C 209.835938 196.582031 209.53125 195.871094 209.746094 195.136719 C 210.207031 193.570312 210.207031 191.988281 209.980469 190.378906 C 209.84375 189.441406 209.914062 188.53125 210.222656 187.582031 C 210.566406 186.546875 211.15625 185.6875 211.664062 184.757812 C 212.523438 183.199219 213.15625 181.527344 214.171875 180.039062 C 214.746094 179.191406 214.921875 178.144531 214.921875 177.09375 C 214.914062 175.289062 215.390625 173.558594 215.910156 171.863281 C 216.75 169.125 217.292969 166.347656 217.40625 163.492188 C 217.449219 162.535156 217.480469 161.601562 217.742188 160.675781 C 218.1875 159.113281 218.285156 157.492188 218.011719 155.917969 C 217.765625 154.484375 217.796875 153.042969 217.65625 151.609375 C 217.632812 151.421875 217.613281 151.179688 217.707031 151.046875 C 218.328125 150.214844 218.421875 149.132812 219.058594 148.308594 C 219.9375 147.164062 220.308594 145.820312 220.453125 144.402344 C 220.507812 143.835938 220.546875 143.257812 220.679688 142.710938 C 220.835938 142.097656 220.710938 141.519531 220.683594 140.921875 Z M 220.683594 140.921875 " fill-opacity="1" fill-rule="nonzero"/></g></svg>