<?xml version="1.0" encoding="utf-8"?>
<!-- Uploaded to: SVG Repo, www.svgrepo.com, Generator: SVG Repo Mixer Tools -->
<svg fill="#000000" width="800px" height="800px" viewBox="0 0 32 32" version="1.1" xmlns="http://www.w3.org/2000/svg">
<title>alt-battery-3</title>
<path d="M0 20q0 2.496 1.76 4.256t4.256 1.76h17.984q2.496 0 4.256-1.76t1.76-4.256h1.984v-8h-1.984q0-2.464-1.76-4.224t-4.256-1.76h-17.984q-2.496 0-4.256 1.76t-1.76 4.224v8zM4 20v-8q0-0.832 0.576-1.408t1.44-0.576h17.984q0.832 0 1.408 0.576t0.608 1.408v8q0 0.832-0.608 1.44t-1.408 0.576h-17.984q-0.832 0-1.44-0.576t-0.576-1.44zM6.016 20h1.984v-8h-1.984v8zM10.016 20h1.984v-8h-1.984v8zM14.016 20h1.984v-8h-1.984v8z"></path>
</svg>