<svg xmlns="http://www.w3.org/2000/svg" xmlns:xlink="http://www.w3.org/1999/xlink" version="1.1" width="256" height="256" viewBox="0 0 256 256" xml:space="preserve">

<defs>
</defs>
<g style="stroke: none; stroke-width: 0; stroke-dasharray: none; stroke-linecap: butt; stroke-linejoin: miter; stroke-miterlimit: 10; fill: none; fill-rule: nonzero; opacity: 1;" transform="translate(1.4065934065934016 1.4065934065934016) scale(2.81 2.81)" >
	<path d="M 6.241 90 c -2.196 0 -4.311 -1.209 -5.365 -3.305 c -1.489 -2.96 -0.297 -6.567 2.664 -8.056 L 70.413 45 L 3.539 11.361 c -2.96 -1.489 -4.153 -5.096 -2.664 -8.056 c 1.489 -2.959 5.095 -4.153 8.056 -2.664 L 86.46 39.64 c 2.025 1.019 3.304 3.092 3.304 5.36 s -1.278 4.341 -3.304 5.36 L 8.932 89.359 C 8.067 89.794 7.147 90 6.241 90 z" style="stroke: none; stroke-width: 1; stroke-dasharray: none; stroke-linecap: butt; stroke-linejoin: miter; stroke-miterlimit: 10; fill: rgb(0,0,0); fill-rule: nonzero; opacity: 1;" transform=" matrix(1 0 0 1 0 0) " stroke-linecap="round" />
</g>
</svg>