<svg xmlns="http://www.w3.org/2000/svg" xmlns:xlink="http://www.w3.org/1999/xlink" width="500" zoomAndPan="magnify" viewBox="0 0 375 374.999991" height="500" preserveAspectRatio="xMidYMid meet" version="1.0"><path fill="#243047" d="M 300.375 42.808594 L 300.375 290.527344 C 300.375 299.050781 293.464844 305.960938 284.941406 305.960938 L 48.394531 305.960938 L 48.394531 333.335938 C 48.394531 356.25 67.140625 375 90.058594 375 L 274.324219 375 C 281.566406 375 287.4375 369.128906 287.4375 361.882812 C 287.4375 354.640625 281.566406 348.769531 274.324219 348.769531 L 90.058594 348.769531 C 81.535156 348.769531 74.625 341.859375 74.625 333.335938 L 74.625 332.191406 L 284.945312 332.191406 C 307.859375 332.191406 326.609375 313.441406 326.609375 290.527344 L 326.609375 69.039062 L 333.335938 69.039062 C 341.859375 69.039062 348.769531 75.949219 348.769531 84.472656 L 348.769531 333.335938 C 348.769531 341.859375 341.859375 348.769531 333.335938 348.769531 L 332.105469 348.769531 C 324.863281 348.769531 318.992188 354.640625 318.992188 361.886719 C 318.992188 369.128906 324.863281 375 332.105469 375 L 333.335938 375 C 356.25 375 375 356.25 375 333.335938 L 375 84.472656 C 375 61.558594 356.25 42.808594 333.335938 42.808594 Z M 300.375 42.808594 " fill-opacity="1" fill-rule="nonzero"/><path fill="#243047" d="M 241.8125 152.972656 L 176.429688 152.972656 L 176.429688 87.585938 C 176.429688 80.339844 170.554688 74.460938 163.304688 74.460938 C 156.058594 74.460938 150.183594 80.339844 150.183594 87.585938 L 150.183594 152.972656 L 84.792969 152.972656 C 77.546875 152.972656 71.667969 158.851562 71.667969 166.097656 C 71.667969 173.347656 77.546875 179.222656 84.792969 179.222656 L 150.183594 179.222656 L 150.183594 244.601562 C 150.183594 251.851562 156.058594 257.726562 163.304688 257.726562 C 170.554688 257.726562 176.429688 251.851562 176.429688 244.601562 L 176.429688 179.222656 L 241.8125 179.222656 C 249.058594 179.222656 254.933594 173.347656 254.933594 166.097656 C 254.933594 158.851562 249.058594 152.972656 241.8125 152.972656 Z M 241.8125 152.972656 " fill-opacity="1" fill-rule="nonzero"/><path fill="#243047" d="M 41.664062 0 C 18.808594 0 0 18.808594 0 41.664062 L 0 290.527344 C 0 313.382812 18.808594 332.191406 41.664062 332.191406 L 284.945312 332.191406 C 307.800781 332.191406 326.609375 313.382812 326.609375 290.527344 L 326.609375 41.664062 C 326.609375 18.808594 307.800781 0 284.945312 0 Z M 41.664062 26.230469 L 284.945312 26.230469 C 293.722656 26.230469 300.375 32.886719 300.375 41.664062 L 300.375 290.527344 C 300.375 299.304688 293.71875 305.960938 284.945312 305.960938 L 41.664062 305.960938 C 32.886719 305.960938 26.230469 299.304688 26.230469 290.527344 L 26.230469 41.664062 C 26.230469 32.886719 32.886719 26.230469 41.664062 26.230469 Z M 41.664062 26.230469 " fill-opacity="1" fill-rule="nonzero"/></svg>