<svg xmlns="http://www.w3.org/2000/svg" xmlns:xlink="http://www.w3.org/1999/xlink" width="500" zoomAndPan="magnify" viewBox="0 0 375 374.999991" height="500" preserveAspectRatio="xMidYMid meet" version="1.0"><defs><clipPath id="c5f11e91a3"><path d="M 87 0 L 373.5 0 L 373.5 375 L 87 375 Z M 87 0 " clip-rule="nonzero"/></clipPath></defs><g clip-path="url(#c5f11e91a3)"><path fill="#243047" d="M 87.949219 55.191406 L 87.949219 110.351562 L 109.871094 110.351562 L 109.894531 66.234375 L 109.929688 22.128906 L 230.703125 22.09375 L 351.464844 22.070312 L 351.464844 352.929688 L 230.703125 352.90625 L 109.929688 352.871094 L 109.894531 330.863281 L 109.871094 308.847656 L 87.949219 308.847656 L 87.949219 374.972656 L 373.5 374.972656 L 373.5 0.0273438 L 87.949219 0.0273438 Z M 87.949219 55.191406 " fill-opacity="1" fill-rule="nonzero"/></g><path fill="#243047" d="M 153.828125 110.296875 L 153.828125 154.4375 L 307.621094 154.4375 L 307.621094 66.152344 L 153.828125 66.152344 Z M 285.585938 110.296875 L 285.585938 132.394531 L 230.703125 132.371094 L 175.808594 132.335938 L 175.773438 110.410156 C 175.761719 98.351562 175.773438 88.414062 175.808594 88.335938 C 175.839844 88.230469 186.941406 88.195312 230.726562 88.195312 L 285.585938 88.195312 Z M 285.585938 110.296875 " fill-opacity="1" fill-rule="nonzero"/><path fill="#243047" d="M 53.394531 110.398438 C 51.539062 110.699219 50.015625 111.324219 48.550781 112.371094 C 47.601562 113.042969 2.871094 157.933594 2.144531 158.9375 C 1.441406 159.894531 0.691406 161.5 0.359375 162.6875 C 0 164.015625 0 166.890625 0.359375 168.226562 C 0.667969 169.382812 1.59375 171.261719 2.273438 172.152344 C 3.035156 173.132812 135.277344 305.878906 136.175781 306.5625 C 137.179688 307.335938 139.003906 308.199219 140.273438 308.523438 L 141.308594 308.789062 L 188.382812 308.789062 L 189.351562 308.535156 C 191.464844 307.957031 192.953125 307.105469 194.496094 305.558594 C 196.125 303.929688 196.988281 302.359375 197.507812 300.132812 C 197.714844 299.246094 197.726562 298.242188 197.726562 275.726562 C 197.726562 253.234375 197.714844 252.207031 197.507812 251.316406 C 197.195312 249.980469 196.621094 248.617188 195.894531 247.53125 C 195.375 246.746094 184.273438 235.554688 128.628906 179.6875 C 56.210938 106.984375 61.296875 112.003906 59.082031 111.101562 C 57.328125 110.386719 55.101562 110.121094 53.394531 110.398438 Z M 66.167969 148.21875 C 72.269531 154.378906 77.289062 159.445312 77.300781 159.492188 C 77.324219 159.539062 70.964844 165.941406 63.167969 173.742188 L 49.011719 187.902344 L 37.796875 176.6875 L 26.59375 165.457031 L 40.726562 151.230469 C 48.515625 143.417969 54.917969 137.011719 54.964844 137.011719 C 55.011719 137.011719 60.050781 142.054688 66.167969 148.21875 Z M 130.0625 212.371094 C 147.089844 229.472656 164.339844 246.792969 168.386719 250.855469 L 175.75 258.242188 L 175.75 286.6875 L 147.308594 286.6875 L 143.546875 282.902344 C 140.28125 279.613281 89.519531 228.628906 71.117188 210.140625 L 64.585938 203.597656 L 67.988281 200.160156 C 69.859375 198.277344 76.25 191.863281 82.179688 185.90625 L 92.96875 175.09375 L 96.027344 178.175781 C 97.710938 179.871094 113.019531 195.253906 130.0625 212.371094 Z M 130.0625 212.371094 " fill-opacity="1" fill-rule="nonzero"/><path fill="#243047" d="M 197.785156 209.542969 L 197.785156 220.5625 L 307.621094 220.5625 L 307.621094 198.519531 L 197.785156 198.519531 Z M 197.785156 209.542969 " fill-opacity="1" fill-rule="nonzero"/><path fill="#243047" d="M 238.972656 255.011719 L 238.972656 266.03125 L 304.96875 266.03125 L 304.96875 243.988281 L 238.972656 243.988281 Z M 238.972656 255.011719 " fill-opacity="1" fill-rule="nonzero"/><path fill="#243047" d="M 272.582031 281.113281 L 239.667969 281.148438 L 239.667969 303.191406 L 305.542969 303.191406 L 305.542969 292.113281 C 305.542969 286.019531 305.535156 281.046875 305.523438 281.058594 C 305.5 281.082031 290.671875 281.101562 272.582031 281.113281 Z M 272.582031 281.113281 " fill-opacity="1" fill-rule="nonzero"/></svg>