<svg xmlns="http://www.w3.org/2000/svg" xmlns:xlink="http://www.w3.org/1999/xlink" width="500" zoomAndPan="magnify" viewBox="0 0 375 374.999991" height="500" preserveAspectRatio="xMidYMid meet" version="1.0"><defs><clipPath id="449f57a513"><path d="M 0 268 L 120 268 L 120 359.203125 L 0 359.203125 Z M 0 268 " clip-rule="nonzero"/></clipPath><clipPath id="790fbeaa42"><path d="M 7 15.703125 L 183 15.703125 L 183 158 L 7 158 Z M 7 15.703125 " clip-rule="nonzero"/></clipPath><clipPath id="3324a8617a"><path d="M 113 268 L 262 268 L 262 359.203125 L 113 359.203125 Z M 113 268 " clip-rule="nonzero"/></clipPath></defs><path fill="#243047" d="M 329.757812 268.277344 C 312.65625 278.378906 290.113281 279.15625 270.675781 268.277344 C 265.234375 269.832031 260.570312 272.164062 255.90625 274.492188 C 283.894531 304.800781 273.785156 338.21875 276.121094 358.425781 L 374.066406 358.425781 L 374.066406 325.785156 C 374.066406 298.585938 355.410156 275.269531 329.757812 268.277344 Z M 329.757812 268.277344 " fill-opacity="1" fill-rule="nonzero"/><g clip-path="url(#449f57a513)"><path fill="#243047" d="M 103.546875 268.277344 C 85.664062 279.15625 63.121094 279.15625 44.464844 268.277344 C 19.589844 275.269531 0.933594 298.585938 0.933594 326.5625 L 0.933594 359.203125 L 98.878906 359.203125 C 101.210938 338.996094 91.105469 305.578125 119.09375 275.269531 C 114.429688 272.164062 108.988281 269.832031 103.546875 268.277344 Z M 103.546875 268.277344 " fill-opacity="1" fill-rule="nonzero"/></g><g clip-path="url(#790fbeaa42)"><path fill="#243047" d="M 172.730469 15.703125 L 17.257812 15.703125 C 11.816406 15.703125 7.152344 20.367188 7.152344 25.804688 L 7.152344 107.40625 C 7.152344 112.847656 11.039062 117.507812 17.257812 117.507812 L 110.542969 117.507812 C 125.3125 136.9375 141.636719 151.703125 159.515625 157.144531 C 154.851562 143.933594 157.183594 130.722656 167.289062 117.507812 L 172.730469 117.507812 C 178.171875 117.507812 182.835938 112.847656 182.835938 107.40625 L 182.835938 25.804688 C 182.058594 20.367188 178.171875 15.703125 172.730469 15.703125 Z M 147.855469 83.316406 L 37.46875 83.316406 C 34.359375 83.316406 31.25 80.984375 31.25 77.097656 C 31.25 73.988281 33.582031 70.878906 37.46875 70.878906 L 147.855469 70.878906 C 150.964844 70.878906 154.074219 73.210938 154.074219 77.097656 C 153.296875 80.984375 150.964844 83.316406 147.855469 83.316406 Z M 147.855469 54.5625 L 37.46875 54.5625 C 34.359375 54.5625 31.25 52.230469 31.25 48.34375 C 31.25 45.234375 33.582031 42.125 37.46875 42.125 L 147.855469 42.125 C 150.964844 42.125 154.074219 44.457031 154.074219 48.34375 C 153.296875 52.230469 150.964844 54.5625 147.855469 54.5625 Z M 147.855469 54.5625 " fill-opacity="1" fill-rule="nonzero"/></g><g clip-path="url(#3324a8617a)"><path fill="#243047" d="M 217.039062 268.277344 C 199.160156 279.15625 176.617188 279.15625 157.960938 268.277344 C 132.308594 275.269531 113.652344 298.585938 113.652344 326.5625 L 113.652344 359.203125 C 143.96875 359.203125 230.253906 359.203125 260.570312 359.203125 C 259.015625 349.101562 273.785156 284.597656 217.039062 268.277344 Z M 217.039062 268.277344 " fill-opacity="1" fill-rule="nonzero"/></g><path fill="#243047" d="M 144.746094 217.761719 C 144.746094 241.855469 164.179688 260.503906 187.5 260.503906 C 210.820312 260.503906 230.253906 241.855469 230.253906 217.761719 C 230.253906 194.449219 210.820312 175.019531 187.5 175.019531 C 164.179688 175.019531 144.746094 194.449219 144.746094 217.761719 Z M 144.746094 217.761719 " fill-opacity="1" fill-rule="nonzero"/><path fill="#243047" d="M 300.996094 261.28125 C 325.09375 261.28125 343.75 241.855469 343.75 218.539062 C 343.75 195.222656 324.316406 175.796875 300.996094 175.796875 C 277.675781 175.796875 258.238281 195.222656 258.238281 218.539062 C 258.238281 241.855469 276.898438 261.28125 300.996094 261.28125 Z M 300.996094 261.28125 " fill-opacity="1" fill-rule="nonzero"/><path fill="#243047" d="M 116.761719 217.761719 C 116.761719 219.160156 116.691406 220.558594 116.554688 221.953125 C 116.417969 223.34375 116.210938 224.726562 115.9375 226.101562 C 115.664062 227.472656 115.324219 228.828125 114.917969 230.167969 C 114.511719 231.507812 114.042969 232.824219 113.503906 234.117188 C 112.96875 235.414062 112.371094 236.675781 111.710938 237.910156 C 111.050781 239.144531 110.332031 240.34375 109.554688 241.507812 C 108.777344 242.671875 107.945312 243.796875 107.054688 244.878906 C 106.167969 245.960938 105.226562 246.996094 104.238281 247.984375 C 103.246094 248.976562 102.210938 249.914062 101.128906 250.804688 C 100.046875 251.691406 98.921875 252.523438 97.757812 253.300781 C 96.59375 254.078125 95.394531 254.796875 94.160156 255.457031 C 92.925781 256.117188 91.660156 256.714844 90.367188 257.25 C 89.074219 257.789062 87.757812 258.257812 86.417969 258.664062 C 85.078125 259.070312 83.71875 259.410156 82.347656 259.683594 C 80.972656 259.957031 79.589844 260.164062 78.195312 260.300781 C 76.800781 260.4375 75.40625 260.503906 74.003906 260.503906 C 72.605469 260.503906 71.207031 260.4375 69.816406 260.300781 C 68.421875 260.164062 67.039062 259.957031 65.664062 259.683594 C 64.289062 259.410156 62.933594 259.070312 61.59375 258.664062 C 60.253906 258.257812 58.9375 257.789062 57.644531 257.25 C 56.351562 256.714844 55.085938 256.117188 53.851562 255.457031 C 52.617188 254.796875 51.417969 254.078125 50.25 253.300781 C 49.085938 252.523438 47.964844 251.691406 46.882812 250.804688 C 45.800781 249.914062 44.761719 248.976562 43.773438 247.984375 C 42.78125 246.996094 41.84375 245.960938 40.957031 244.878906 C 40.066406 243.796875 39.234375 242.671875 38.457031 241.507812 C 37.679688 240.34375 36.957031 239.144531 36.296875 237.910156 C 35.640625 236.675781 35.039062 235.414062 34.503906 234.117188 C 33.96875 232.824219 33.496094 231.507812 33.089844 230.167969 C 32.683594 228.828125 32.34375 227.472656 32.070312 226.101562 C 31.796875 224.726562 31.59375 223.34375 31.457031 221.953125 C 31.320312 220.558594 31.25 219.160156 31.25 217.761719 C 31.25 216.363281 31.320312 214.964844 31.457031 213.574219 C 31.59375 212.179688 31.796875 210.796875 32.070312 209.421875 C 32.34375 208.050781 32.683594 206.695312 33.089844 205.355469 C 33.496094 204.015625 33.96875 202.699219 34.503906 201.40625 C 35.039062 200.113281 35.640625 198.847656 36.296875 197.613281 C 36.957031 196.378906 37.679688 195.179688 38.457031 194.015625 C 39.234375 192.851562 40.066406 191.726562 40.957031 190.644531 C 41.84375 189.5625 42.78125 188.527344 43.773438 187.539062 C 44.761719 186.546875 45.800781 185.609375 46.882812 184.722656 C 47.964844 183.832031 49.085938 183 50.25 182.222656 C 51.417969 181.445312 52.617188 180.726562 53.851562 180.066406 C 55.085938 179.40625 56.351562 178.808594 57.644531 178.273438 C 58.9375 177.738281 60.253906 177.265625 61.59375 176.859375 C 62.933594 176.453125 64.289062 176.113281 65.664062 175.839844 C 67.039062 175.566406 68.421875 175.363281 69.816406 175.222656 C 71.207031 175.085938 72.605469 175.019531 74.003906 175.019531 C 75.40625 175.019531 76.800781 175.085938 78.195312 175.222656 C 79.589844 175.363281 80.972656 175.566406 82.347656 175.839844 C 83.71875 176.113281 85.078125 176.453125 86.417969 176.859375 C 87.757812 177.265625 89.074219 177.738281 90.367188 178.273438 C 91.660156 178.808594 92.925781 179.40625 94.160156 180.066406 C 95.394531 180.726562 96.59375 181.445312 97.757812 182.222656 C 98.921875 183 100.046875 183.832031 101.128906 184.722656 C 102.210938 185.609375 103.246094 186.546875 104.238281 187.539062 C 105.226562 188.527344 106.167969 189.5625 107.054688 190.644531 C 107.945312 191.726562 108.777344 192.851562 109.554688 194.015625 C 110.332031 195.179688 111.050781 196.378906 111.710938 197.613281 C 112.371094 198.847656 112.96875 200.113281 113.503906 201.40625 C 114.042969 202.699219 114.511719 204.015625 114.917969 205.355469 C 115.324219 206.695312 115.664062 208.050781 115.9375 209.421875 C 116.210938 210.796875 116.417969 212.179688 116.554688 213.574219 C 116.691406 214.964844 116.761719 216.363281 116.761719 217.761719 Z M 116.761719 217.761719 " fill-opacity="1" fill-rule="nonzero"/></svg>