<svg xmlns="http://www.w3.org/2000/svg" xmlns:xlink="http://www.w3.org/1999/xlink" width="500" zoomAndPan="magnify" viewBox="0 0 375 374.999991" height="500" preserveAspectRatio="xMidYMid meet" version="1.0"><path fill="#243047" d="M 115.625 211.71875 C 87.5 233.59375 70.3125 267.1875 70.3125 304.6875 L 70.3125 312.5 L 15.625 312.5 C 7.03125 312.5 0 305.46875 0 296.875 L 0 265.625 C 0 235.9375 18.75 210.9375 44.53125 200 C 35.9375 192.1875 31.25 180.46875 31.25 167.96875 C 31.25 144.53125 48.4375 125 70.3125 125 C 92.1875 125 109.375 144.53125 109.375 167.96875 C 109.375 181.25 103.90625 192.1875 96.09375 200 C 103.125 203.125 110.15625 207.03125 115.625 211.71875 Z M 115.625 211.71875 " fill-opacity="1" fill-rule="nonzero"/><path fill="#243047" d="M 257.8125 138.28125 C 257.03125 139.0625 257.03125 139.84375 256.25 140.625 C 250 105.46875 221.09375 78.125 187.5 78.125 C 153.90625 78.125 125 104.6875 118.75 140.625 C 117.96875 139.84375 117.96875 139.0625 117.1875 138.28125 C 117.96875 109.375 136.71875 85.15625 161.71875 75.78125 C 153.125 67.96875 148.4375 56.25 148.4375 43.75 C 148.4375 20.3125 165.625 0.78125 187.5 0.78125 C 209.375 0.78125 226.5625 20.3125 226.5625 43.75 C 226.5625 57.03125 221.09375 67.96875 213.28125 75.78125 C 238.28125 85.15625 257.03125 109.375 257.8125 138.28125 Z M 257.8125 138.28125 " fill-opacity="1" fill-rule="nonzero"/><path fill="#243047" d="M 118.75 89.84375 C 111.71875 99.21875 106.25 110.15625 103.90625 121.875 C 94.53125 114.0625 82.8125 109.375 70.3125 109.375 C 39.84375 109.375 15.625 135.9375 15.625 167.96875 C 15.625 175 16.40625 181.25 18.75 187.5 L 15.625 187.5 C 7.03125 187.5 0 180.46875 0 171.875 L 0 140.625 C 0 110.9375 18.75 85.9375 44.53125 75 C 36.71875 67.1875 31.25 56.25 31.25 42.96875 C 31.25 19.53125 48.4375 0 70.3125 0 C 92.1875 0 109.375 19.53125 109.375 42.96875 C 109.375 56.25 103.90625 67.1875 96.09375 75 C 104.6875 78.125 111.71875 83.59375 118.75 89.84375 Z M 118.75 89.84375 " fill-opacity="1" fill-rule="nonzero"/><path fill="#243047" d="M 375 140.625 L 375 171.875 C 375 180.46875 367.96875 187.5 359.375 187.5 L 356.25 187.5 C 358.59375 181.25 359.375 175 359.375 167.96875 C 359.375 135.9375 335.15625 109.375 304.6875 109.375 C 292.1875 109.375 280.46875 114.0625 271.09375 121.875 C 268.75 110.15625 263.28125 99.21875 256.25 89.84375 C 262.5 83.59375 270.3125 78.90625 278.90625 75.78125 C 270.3125 67.96875 265.625 56.25 265.625 43.75 C 265.625 20.3125 282.8125 0.78125 304.6875 0.78125 C 326.5625 0.78125 343.75 20.3125 343.75 43.75 C 343.75 57.03125 338.28125 67.96875 330.46875 75.78125 C 356.25 85.9375 375 110.9375 375 140.625 Z M 375 140.625 " fill-opacity="1" fill-rule="nonzero"/><path fill="#243047" d="M 375 265.625 L 375 296.875 C 375 305.46875 367.96875 312.5 359.375 312.5 L 304.6875 312.5 L 304.6875 304.6875 C 304.6875 267.1875 287.5 233.59375 259.375 211.71875 C 264.84375 207.03125 271.875 202.34375 278.90625 200 C 270.3125 192.1875 265.625 180.46875 265.625 167.96875 C 265.625 144.53125 282.8125 125 304.6875 125 C 326.5625 125 343.75 144.53125 343.75 167.96875 C 343.75 181.25 338.28125 192.1875 330.46875 200 C 356.25 210.9375 375 235.9375 375 265.625 Z M 375 265.625 " fill-opacity="1" fill-rule="nonzero"/><path fill="#243047" d="M 289.0625 304.6875 L 289.0625 351.5625 C 289.0625 364.0625 278.90625 375 265.625 375 L 236.71875 375 C 258.59375 359.375 273.4375 333.59375 273.4375 304.6875 C 273.4375 257.03125 235.15625 218.75 187.5 218.75 C 139.84375 218.75 101.5625 257.03125 101.5625 304.6875 C 101.5625 333.59375 115.625 359.375 138.28125 375 L 109.375 375 C 96.09375 375 85.9375 364.0625 85.9375 351.5625 L 85.9375 304.6875 C 85.9375 259.375 115.625 221.09375 157.03125 207.8125 C 142.1875 196.875 132.8125 178.125 132.8125 156.25 C 132.8125 121.875 157.03125 93.75 187.5 93.75 C 217.96875 93.75 242.1875 121.875 242.1875 156.25 C 242.1875 178.125 232.8125 196.875 217.96875 207.8125 C 259.375 221.09375 289.0625 259.375 289.0625 304.6875 Z M 289.0625 304.6875 " fill-opacity="1" fill-rule="nonzero"/><path fill="#243047" d="M 187.5 234.375 C 148.4375 234.375 117.1875 265.625 117.1875 304.6875 C 117.1875 343.75 148.4375 375 187.5 375 C 226.5625 375 257.8125 343.75 257.8125 304.6875 C 257.8125 265.625 226.5625 234.375 187.5 234.375 Z M 218.75 312.5 L 195.3125 312.5 L 195.3125 335.9375 C 195.3125 339.84375 191.40625 343.75 187.5 343.75 C 183.59375 343.75 179.6875 339.84375 179.6875 335.9375 L 179.6875 312.5 L 156.25 312.5 C 152.34375 312.5 148.4375 308.59375 148.4375 304.6875 C 148.4375 300.78125 152.34375 296.875 156.25 296.875 L 179.6875 296.875 L 179.6875 273.4375 C 179.6875 269.53125 183.59375 265.625 187.5 265.625 C 191.40625 265.625 195.3125 269.53125 195.3125 273.4375 L 195.3125 296.875 L 218.75 296.875 C 222.65625 296.875 226.5625 300.78125 226.5625 304.6875 C 226.5625 308.59375 222.65625 312.5 218.75 312.5 Z M 218.75 312.5 " fill-opacity="1" fill-rule="nonzero"/></svg>