<svg xmlns="http://www.w3.org/2000/svg" xmlns:xlink="http://www.w3.org/1999/xlink" width="500" zoomAndPan="magnify" viewBox="0 0 375 374.999991" height="500" preserveAspectRatio="xMidYMid meet" version="1.0"><path fill="#243047" d="M 187.5 375 C 291.054688 375 375 291.054688 375 187.5 C 375 83.945312 291.054688 0 187.5 0 C 83.945312 0 0 83.945312 0 187.5 C 0 291.054688 83.945312 375 187.5 375 Z M 96.585938 187.5 C 96.585938 132.269531 141.359375 87.5 196.585938 87.5 C 207.621094 87.5 218.257812 89.289062 228.207031 92.605469 C 231.472656 93.691406 233.84375 96.53125 234.332031 99.9375 C 234.820312 103.347656 233.34375 106.738281 230.515625 108.699219 C 212.742188 121.023438 201.132812 141.542969 201.132812 164.773438 C 201.132812 202.425781 231.664062 232.953125 269.320312 232.953125 C 272.765625 232.953125 275.914062 234.902344 277.453125 237.984375 C 278.992188 241.0625 278.660156 244.75 276.589844 247.503906 C 258.359375 271.773438 229.308594 287.5 196.585938 287.5 C 141.359375 287.5 96.585938 242.730469 96.585938 187.5 Z M 96.585938 187.5 " fill-opacity="1" fill-rule="evenodd"/></svg>