<svg xmlns="http://www.w3.org/2000/svg" xmlns:xlink="http://www.w3.org/1999/xlink" width="500" zoomAndPan="magnify" viewBox="0 0 375 374.999991" height="500" preserveAspectRatio="xMidYMid meet" version="1.0"><defs><clipPath id="c170625eb0"><path d="M 3.632812 0 L 331 0 L 331 375 L 3.632812 375 Z M 3.632812 0 " clip-rule="nonzero"/></clipPath><clipPath id="9449f4c091"><path d="M 278 206 L 371.132812 206 L 371.132812 375 L 278 375 Z M 278 206 " clip-rule="nonzero"/></clipPath></defs><g clip-path="url(#c170625eb0)"><path fill="#243047" d="M 324.976562 374.996094 L 9.445312 374.996094 C 9.0625 374.996094 8.683594 374.957031 8.308594 374.882812 C 7.9375 374.808594 7.574219 374.699219 7.21875 374.550781 C 6.867188 374.40625 6.53125 374.226562 6.214844 374.015625 C 5.898438 373.804688 5.605469 373.5625 5.335938 373.292969 C 5.066406 373.023438 4.824219 372.726562 4.613281 372.410156 C 4.402344 372.09375 4.222656 371.757812 4.074219 371.40625 C 3.929688 371.054688 3.820312 370.691406 3.746094 370.316406 C 3.671875 369.941406 3.632812 369.5625 3.632812 369.179688 L 3.632812 5.820312 C 3.632812 5.4375 3.671875 5.058594 3.746094 4.683594 C 3.820312 4.308594 3.929688 3.945312 4.074219 3.59375 C 4.222656 3.242188 4.402344 2.90625 4.613281 2.589844 C 4.824219 2.269531 5.066406 1.976562 5.335938 1.707031 C 5.605469 1.4375 5.898438 1.195312 6.214844 0.984375 C 6.53125 0.773438 6.867188 0.59375 7.21875 0.449219 C 7.574219 0.300781 7.9375 0.191406 8.308594 0.117188 C 8.683594 0.0429688 9.0625 0.00390625 9.445312 0.00390625 L 284.625 0.00390625 C 285.007812 0.00390625 285.386719 0.0429688 285.757812 0.117188 C 286.132812 0.191406 286.496094 0.300781 286.847656 0.449219 C 287.203125 0.59375 287.535156 0.773438 287.855469 0.984375 C 288.171875 1.195312 288.464844 1.4375 288.734375 1.707031 C 289.003906 1.976562 289.246094 2.269531 289.457031 2.589844 C 289.667969 2.90625 289.847656 3.242188 289.992188 3.59375 C 290.140625 3.945312 290.25 4.308594 290.324219 4.683594 C 290.398438 5.058594 290.4375 5.4375 290.4375 5.820312 L 290.4375 212.308594 C 290.4375 212.6875 290.398438 213.066406 290.324219 213.441406 C 290.25 213.816406 290.140625 214.179688 289.992188 214.53125 C 289.847656 214.882812 289.667969 215.21875 289.457031 215.535156 C 289.246094 215.855469 289.003906 216.148438 288.734375 216.417969 C 288.464844 216.6875 288.171875 216.929688 287.855469 217.140625 C 287.535156 217.351562 287.203125 217.53125 286.847656 217.679688 C 286.496094 217.824219 286.132812 217.933594 285.757812 218.007812 C 285.386719 218.082031 285.007812 218.121094 284.625 218.121094 C 284.246094 218.121094 283.867188 218.082031 283.492188 218.007812 C 283.117188 217.933594 282.753906 217.824219 282.402344 217.679688 C 282.050781 217.53125 281.714844 217.351562 281.398438 217.140625 C 281.082031 216.929688 280.789062 216.6875 280.515625 216.417969 C 280.246094 216.148438 280.007812 215.855469 279.792969 215.535156 C 279.582031 215.21875 279.402344 214.882812 279.257812 214.53125 C 279.113281 214.179688 279 213.816406 278.925781 213.441406 C 278.851562 213.066406 278.816406 212.6875 278.816406 212.308594 L 278.816406 11.632812 L 15.253906 11.632812 L 15.253906 363.367188 L 324.976562 363.367188 C 325.355469 363.367188 325.734375 363.40625 326.109375 363.480469 C 326.480469 363.554688 326.84375 363.664062 327.199219 363.808594 C 327.550781 363.957031 327.886719 364.136719 328.203125 364.347656 C 328.519531 364.558594 328.8125 364.800781 329.082031 365.070312 C 329.351562 365.339844 329.59375 365.632812 329.804688 365.949219 C 330.019531 366.269531 330.195312 366.605469 330.34375 366.957031 C 330.488281 367.308594 330.597656 367.671875 330.671875 368.046875 C 330.746094 368.421875 330.785156 368.800781 330.785156 369.179688 C 330.785156 369.5625 330.746094 369.941406 330.671875 370.316406 C 330.597656 370.691406 330.488281 371.054688 330.34375 371.40625 C 330.195312 371.757812 330.019531 372.09375 329.804688 372.410156 C 329.59375 372.726562 329.351562 373.023438 329.082031 373.292969 C 328.8125 373.5625 328.519531 373.804688 328.203125 374.015625 C 327.886719 374.226562 327.550781 374.40625 327.199219 374.550781 C 326.84375 374.699219 326.480469 374.808594 326.109375 374.882812 C 325.734375 374.957031 325.355469 374.996094 324.976562 374.996094 Z M 324.976562 374.996094 " fill-opacity="1" fill-rule="nonzero"/></g><g clip-path="url(#9449f4c091)"><path fill="#243047" d="M 326.105469 374.996094 L 323.84375 374.996094 C 322.371094 374.992188 320.898438 374.917969 319.433594 374.773438 C 317.964844 374.628906 316.507812 374.410156 315.0625 374.121094 C 313.617188 373.832031 312.191406 373.472656 310.78125 373.042969 C 309.367188 372.613281 307.984375 372.117188 306.621094 371.550781 C 305.257812 370.984375 303.929688 370.355469 302.628906 369.660156 C 301.328125 368.964844 300.066406 368.207031 298.839844 367.386719 C 297.613281 366.566406 296.433594 365.6875 295.292969 364.75 C 294.152344 363.816406 293.0625 362.828125 292.019531 361.78125 C 290.976562 360.738281 289.988281 359.648438 289.050781 358.507812 C 288.117188 357.367188 287.238281 356.183594 286.421875 354.957031 C 285.601562 353.730469 284.84375 352.46875 284.148438 351.167969 C 283.453125 349.867188 282.820312 348.535156 282.257812 347.171875 C 281.691406 345.808594 281.195312 344.421875 280.765625 343.011719 C 280.335938 341.601562 279.976562 340.171875 279.6875 338.726562 C 279.402344 337.277344 279.183594 335.820312 279.039062 334.351562 C 278.890625 332.886719 278.816406 331.414062 278.816406 329.9375 L 278.816406 212.308594 C 278.816406 211.925781 278.851562 211.546875 278.925781 211.171875 C 279 210.796875 279.113281 210.433594 279.257812 210.082031 C 279.402344 209.730469 279.582031 209.394531 279.792969 209.078125 C 280.007812 208.757812 280.246094 208.464844 280.515625 208.195312 C 280.789062 207.925781 281.082031 207.683594 281.398438 207.472656 C 281.714844 207.261719 282.050781 207.082031 282.402344 206.933594 C 282.753906 206.789062 283.117188 206.679688 283.492188 206.605469 C 283.867188 206.53125 284.246094 206.492188 284.625 206.492188 L 365.324219 206.492188 C 365.703125 206.492188 366.082031 206.53125 366.457031 206.605469 C 366.832031 206.679688 367.195312 206.789062 367.546875 206.933594 C 367.898438 207.082031 368.234375 207.261719 368.550781 207.472656 C 368.867188 207.683594 369.160156 207.925781 369.433594 208.195312 C 369.703125 208.464844 369.941406 208.757812 370.15625 209.078125 C 370.367188 209.394531 370.546875 209.730469 370.691406 210.082031 C 370.835938 210.433594 370.949219 210.796875 371.023438 211.171875 C 371.097656 211.546875 371.132812 211.925781 371.132812 212.308594 L 371.132812 329.9375 C 371.132812 331.414062 371.058594 332.882812 370.910156 334.351562 C 370.765625 335.820312 370.546875 337.277344 370.257812 338.722656 C 369.96875 340.171875 369.613281 341.601562 369.183594 343.011719 C 368.753906 344.421875 368.257812 345.808594 367.691406 347.171875 C 367.125 348.535156 366.496094 349.867188 365.800781 351.167969 C 365.105469 352.46875 364.347656 353.730469 363.527344 354.957031 C 362.707031 356.183594 361.832031 357.367188 360.894531 358.507812 C 359.960938 359.648438 358.972656 360.738281 357.929688 361.78125 C 356.886719 362.824219 355.796875 363.816406 354.65625 364.75 C 353.515625 365.6875 352.332031 366.566406 351.109375 367.382812 C 349.882812 368.203125 348.621094 368.960938 347.320312 369.660156 C 346.019531 370.355469 344.6875 370.984375 343.328125 371.550781 C 341.964844 372.117188 340.578125 372.613281 339.167969 373.042969 C 337.757812 373.472656 336.332031 373.832031 334.886719 374.121094 C 333.4375 374.410156 331.984375 374.625 330.515625 374.773438 C 329.050781 374.917969 327.578125 374.992188 326.105469 374.996094 Z M 290.4375 218.121094 L 290.4375 329.9375 C 290.4375 331.03125 290.492188 332.125 290.601562 333.214844 C 290.707031 334.300781 290.871094 335.382812 291.085938 336.457031 C 291.296875 337.53125 291.566406 338.589844 291.882812 339.636719 C 292.199219 340.683594 292.570312 341.714844 292.988281 342.726562 C 293.40625 343.734375 293.875 344.722656 294.390625 345.6875 C 294.90625 346.65625 295.46875 347.59375 296.078125 348.5 C 296.6875 349.410156 297.335938 350.289062 298.03125 351.136719 C 298.726562 351.980469 299.457031 352.792969 300.230469 353.566406 C 301.003906 354.339844 301.816406 355.074219 302.660156 355.769531 C 303.507812 356.460938 304.382812 357.113281 305.292969 357.722656 C 306.203125 358.332031 307.140625 358.894531 308.105469 359.410156 C 309.066406 359.925781 310.054688 360.394531 311.066406 360.8125 C 312.078125 361.230469 313.105469 361.601562 314.152344 361.917969 C 315.199219 362.238281 316.257812 362.503906 317.328125 362.71875 C 318.402344 362.933594 319.484375 363.09375 320.570312 363.203125 C 321.660156 363.3125 322.75 363.367188 323.84375 363.367188 L 326.105469 363.367188 C 327.199219 363.367188 328.289062 363.3125 329.378906 363.203125 C 330.464844 363.09375 331.546875 362.933594 332.621094 362.71875 C 333.691406 362.503906 334.75 362.238281 335.796875 361.917969 C 336.84375 361.601562 337.875 361.230469 338.882812 360.8125 C 339.894531 360.394531 340.882812 359.925781 341.847656 359.410156 C 342.808594 358.894531 343.746094 358.332031 344.65625 357.722656 C 345.566406 357.113281 346.441406 356.460938 347.289062 355.769531 C 348.132812 355.074219 348.945312 354.339844 349.71875 353.566406 C 350.492188 352.792969 351.222656 351.980469 351.917969 351.136719 C 352.613281 350.289062 353.261719 349.410156 353.871094 348.5 C 354.480469 347.59375 355.042969 346.65625 355.558594 345.6875 C 356.074219 344.722656 356.542969 343.734375 356.960938 342.726562 C 357.378906 341.714844 357.75 340.683594 358.066406 339.636719 C 358.382812 338.589844 358.652344 337.53125 358.863281 336.457031 C 359.078125 335.382812 359.242188 334.300781 359.347656 333.214844 C 359.457031 332.125 359.511719 331.03125 359.511719 329.9375 L 359.511719 218.121094 Z M 290.4375 218.121094 " fill-opacity="1" fill-rule="nonzero"/></g><path fill="#243047" d="M 163.113281 161.390625 C 162.523438 161.390625 161.945312 161.300781 161.378906 161.125 C 160.816406 160.949219 160.289062 160.695312 159.800781 160.355469 C 159.316406 160.019531 158.890625 159.617188 158.527344 159.152344 C 158.164062 158.683594 157.875 158.175781 157.667969 157.621094 L 128.070312 78.832031 L 98.464844 157.621094 C 98.335938 157.984375 98.167969 158.328125 97.96875 158.660156 C 97.773438 158.988281 97.542969 159.296875 97.28125 159.578125 C 97.023438 159.863281 96.738281 160.121094 96.425781 160.347656 C 96.113281 160.574219 95.785156 160.769531 95.433594 160.929688 C 95.085938 161.089844 94.722656 161.21875 94.347656 161.308594 C 93.976562 161.398438 93.59375 161.449219 93.210938 161.460938 C 92.824219 161.476562 92.441406 161.453125 92.0625 161.390625 C 91.683594 161.328125 91.3125 161.230469 90.953125 161.09375 C 90.59375 160.960938 90.25 160.789062 89.921875 160.585938 C 89.59375 160.382812 89.292969 160.148438 89.011719 159.882812 C 88.730469 159.617188 88.480469 159.328125 88.257812 159.015625 C 88.035156 158.703125 87.84375 158.367188 87.6875 158.015625 C 87.53125 157.664062 87.410156 157.300781 87.328125 156.925781 C 87.242188 156.546875 87.195312 156.167969 87.1875 155.78125 C 87.179688 155.398438 87.210938 155.015625 87.277344 154.636719 C 87.34375 154.257812 87.449219 153.886719 87.589844 153.527344 L 122.632812 60.269531 C 122.839844 59.714844 123.125 59.207031 123.488281 58.738281 C 123.851562 58.273438 124.277344 57.871094 124.761719 57.535156 C 125.25 57.199219 125.773438 56.941406 126.335938 56.765625 C 126.902344 56.589844 127.480469 56.503906 128.070312 56.503906 C 128.660156 56.503906 129.238281 56.589844 129.800781 56.765625 C 130.367188 56.941406 130.890625 57.199219 131.375 57.535156 C 131.863281 57.871094 132.289062 58.273438 132.652344 58.738281 C 133.015625 59.207031 133.300781 59.714844 133.507812 60.269531 L 168.554688 153.527344 C 168.71875 153.96875 168.832031 154.421875 168.886719 154.890625 C 168.941406 155.355469 168.941406 155.824219 168.882812 156.289062 C 168.824219 156.757812 168.710938 157.210938 168.542969 157.648438 C 168.375 158.089844 168.160156 158.5 167.890625 158.886719 C 167.621094 159.273438 167.3125 159.625 166.960938 159.933594 C 166.609375 160.246094 166.222656 160.511719 165.808594 160.726562 C 165.390625 160.945312 164.953125 161.109375 164.496094 161.222656 C 164.039062 161.332031 163.578125 161.390625 163.109375 161.390625 Z M 163.113281 161.390625 " fill-opacity="1" fill-rule="nonzero"/><path fill="#243047" d="M 148.242188 121.804688 L 107.898438 121.804688 C 107.519531 121.804688 107.140625 121.765625 106.765625 121.691406 C 106.390625 121.617188 106.027344 121.507812 105.675781 121.363281 C 105.324219 121.214844 104.988281 121.035156 104.671875 120.824219 C 104.355469 120.613281 104.058594 120.371094 103.789062 120.101562 C 103.519531 119.832031 103.28125 119.539062 103.066406 119.21875 C 102.855469 118.902344 102.675781 118.566406 102.53125 118.214844 C 102.386719 117.863281 102.273438 117.5 102.199219 117.125 C 102.125 116.75 102.089844 116.371094 102.089844 115.992188 C 102.089844 115.609375 102.125 115.230469 102.199219 114.855469 C 102.273438 114.480469 102.386719 114.117188 102.53125 113.765625 C 102.675781 113.414062 102.855469 113.078125 103.066406 112.761719 C 103.28125 112.441406 103.519531 112.148438 103.789062 111.878906 C 104.058594 111.609375 104.355469 111.367188 104.671875 111.15625 C 104.988281 110.945312 105.324219 110.765625 105.675781 110.617188 C 106.027344 110.472656 106.390625 110.363281 106.765625 110.289062 C 107.140625 110.214844 107.519531 110.175781 107.898438 110.175781 L 148.242188 110.175781 C 148.621094 110.175781 149 110.214844 149.375 110.289062 C 149.75 110.363281 150.113281 110.472656 150.464844 110.617188 C 150.816406 110.765625 151.152344 110.945312 151.46875 111.15625 C 151.785156 111.367188 152.078125 111.609375 152.347656 111.878906 C 152.617188 112.148438 152.859375 112.441406 153.070312 112.761719 C 153.285156 113.078125 153.460938 113.414062 153.609375 113.765625 C 153.753906 114.117188 153.863281 114.480469 153.9375 114.855469 C 154.011719 115.230469 154.050781 115.609375 154.050781 115.992188 C 154.050781 116.371094 154.011719 116.75 153.9375 117.125 C 153.863281 117.5 153.753906 117.863281 153.609375 118.214844 C 153.460938 118.566406 153.285156 118.902344 153.070312 119.21875 C 152.859375 119.539062 152.617188 119.832031 152.347656 120.101562 C 152.078125 120.371094 151.785156 120.613281 151.46875 120.824219 C 151.152344 121.035156 150.816406 121.214844 150.464844 121.363281 C 150.113281 121.507812 149.75 121.617188 149.375 121.691406 C 149 121.765625 148.621094 121.804688 148.242188 121.804688 Z M 148.242188 121.804688 " fill-opacity="1" fill-rule="nonzero"/><path fill="#243047" d="M 180.867188 108.5 C 180.488281 108.5 180.109375 108.464844 179.734375 108.390625 C 179.359375 108.316406 178.996094 108.203125 178.644531 108.058594 C 178.292969 107.914062 177.957031 107.734375 177.640625 107.523438 C 177.324219 107.308594 177.03125 107.070312 176.761719 106.796875 C 176.492188 106.527344 176.25 106.234375 176.039062 105.917969 C 175.824219 105.601562 175.648438 105.265625 175.5 104.914062 C 175.355469 104.558594 175.246094 104.195312 175.171875 103.820312 C 175.097656 103.449219 175.058594 103.070312 175.058594 102.6875 L 175.058594 62.3125 C 175.058594 61.933594 175.097656 61.554688 175.171875 61.179688 C 175.246094 60.804688 175.355469 60.441406 175.5 60.089844 C 175.648438 59.738281 175.824219 59.402344 176.039062 59.085938 C 176.25 58.765625 176.492188 58.472656 176.761719 58.203125 C 177.03125 57.933594 177.324219 57.691406 177.640625 57.480469 C 177.957031 57.269531 178.292969 57.089844 178.644531 56.941406 C 178.996094 56.796875 179.359375 56.6875 179.734375 56.613281 C 180.109375 56.539062 180.488281 56.5 180.867188 56.5 C 181.25 56.5 181.628906 56.539062 182.003906 56.613281 C 182.375 56.6875 182.738281 56.796875 183.09375 56.941406 C 183.445312 57.089844 183.78125 57.269531 184.097656 57.480469 C 184.414062 57.691406 184.707031 57.933594 184.976562 58.203125 C 185.246094 58.472656 185.488281 58.765625 185.699219 59.085938 C 185.910156 59.402344 186.089844 59.738281 186.238281 60.089844 C 186.382812 60.441406 186.492188 60.804688 186.566406 61.179688 C 186.640625 61.554688 186.679688 61.933594 186.679688 62.3125 L 186.679688 102.6875 C 186.679688 103.070312 186.640625 103.449219 186.566406 103.820312 C 186.492188 104.195312 186.382812 104.558594 186.238281 104.914062 C 186.089844 105.265625 185.910156 105.601562 185.699219 105.917969 C 185.488281 106.234375 185.246094 106.527344 184.976562 106.796875 C 184.707031 107.070312 184.414062 107.308594 184.097656 107.523438 C 183.78125 107.734375 183.445312 107.914062 183.09375 108.058594 C 182.738281 108.203125 182.375 108.316406 182.003906 108.390625 C 181.628906 108.464844 181.25 108.5 180.867188 108.5 Z M 180.867188 108.5 " fill-opacity="1" fill-rule="nonzero"/><path fill="#243047" d="M 201.046875 88.300781 L 160.695312 88.300781 C 160.316406 88.300781 159.9375 88.265625 159.5625 88.191406 C 159.1875 88.117188 158.824219 88.003906 158.472656 87.859375 C 158.121094 87.714844 157.785156 87.535156 157.46875 87.320312 C 157.152344 87.109375 156.859375 86.871094 156.589844 86.597656 C 156.316406 86.328125 156.078125 86.035156 155.867188 85.71875 C 155.652344 85.402344 155.472656 85.066406 155.328125 84.714844 C 155.183594 84.359375 155.070312 83.996094 154.996094 83.621094 C 154.921875 83.25 154.886719 82.871094 154.886719 82.488281 C 154.886719 82.105469 154.921875 81.726562 154.996094 81.355469 C 155.070312 80.980469 155.183594 80.617188 155.328125 80.261719 C 155.472656 79.910156 155.652344 79.574219 155.867188 79.257812 C 156.078125 78.941406 156.316406 78.648438 156.589844 78.378906 C 156.859375 78.105469 157.152344 77.867188 157.46875 77.652344 C 157.785156 77.441406 158.121094 77.261719 158.472656 77.117188 C 158.824219 76.972656 159.1875 76.859375 159.5625 76.785156 C 159.9375 76.710938 160.316406 76.675781 160.695312 76.675781 L 201.046875 76.675781 C 201.425781 76.675781 201.804688 76.710938 202.179688 76.785156 C 202.554688 76.859375 202.917969 76.972656 203.269531 77.117188 C 203.621094 77.261719 203.957031 77.441406 204.273438 77.652344 C 204.589844 77.867188 204.882812 78.105469 205.152344 78.378906 C 205.421875 78.648438 205.664062 78.941406 205.875 79.257812 C 206.089844 79.574219 206.265625 79.910156 206.414062 80.261719 C 206.558594 80.617188 206.667969 80.980469 206.742188 81.355469 C 206.816406 81.726562 206.855469 82.105469 206.855469 82.488281 C 206.855469 82.871094 206.816406 83.25 206.742188 83.621094 C 206.667969 83.996094 206.558594 84.359375 206.414062 84.714844 C 206.265625 85.066406 206.089844 85.402344 205.875 85.71875 C 205.664062 86.035156 205.421875 86.328125 205.152344 86.597656 C 204.882812 86.871094 204.589844 87.109375 204.273438 87.320312 C 203.957031 87.535156 203.621094 87.714844 203.269531 87.859375 C 202.917969 88.003906 202.554688 88.117188 202.179688 88.191406 C 201.804688 88.265625 201.425781 88.300781 201.046875 88.300781 Z M 201.046875 88.300781 " fill-opacity="1" fill-rule="nonzero"/><path fill="#243047" d="M 252.347656 207.066406 L 41.722656 207.066406 C 41.34375 207.066406 40.964844 207.03125 40.589844 206.957031 C 40.214844 206.878906 39.851562 206.769531 39.5 206.625 C 39.148438 206.476562 38.8125 206.300781 38.496094 206.085938 C 38.179688 205.875 37.886719 205.632812 37.613281 205.363281 C 37.34375 205.09375 37.105469 204.800781 36.894531 204.484375 C 36.679688 204.164062 36.5 203.832031 36.355469 203.476562 C 36.210938 203.125 36.097656 202.761719 36.023438 202.386719 C 35.949219 202.011719 35.914062 201.636719 35.914062 201.253906 C 35.914062 200.871094 35.949219 200.492188 36.023438 200.117188 C 36.097656 199.746094 36.210938 199.382812 36.355469 199.027344 C 36.5 198.675781 36.679688 198.339844 36.894531 198.023438 C 37.105469 197.707031 37.34375 197.414062 37.613281 197.140625 C 37.886719 196.871094 38.179688 196.632812 38.496094 196.417969 C 38.8125 196.207031 39.148438 196.027344 39.5 195.882812 C 39.851562 195.734375 40.214844 195.625 40.589844 195.550781 C 40.964844 195.476562 41.34375 195.4375 41.722656 195.4375 L 252.347656 195.4375 C 252.726562 195.4375 253.105469 195.476562 253.480469 195.550781 C 253.855469 195.625 254.21875 195.734375 254.570312 195.882812 C 254.921875 196.027344 255.257812 196.207031 255.574219 196.417969 C 255.890625 196.632812 256.183594 196.871094 256.453125 197.140625 C 256.722656 197.414062 256.964844 197.707031 257.175781 198.023438 C 257.390625 198.339844 257.566406 198.675781 257.714844 199.027344 C 257.859375 199.382812 257.96875 199.746094 258.042969 200.117188 C 258.121094 200.492188 258.15625 200.871094 258.15625 201.253906 C 258.15625 201.636719 258.121094 202.011719 258.042969 202.386719 C 257.96875 202.761719 257.859375 203.125 257.714844 203.476562 C 257.566406 203.832031 257.390625 204.164062 257.175781 204.484375 C 256.964844 204.800781 256.722656 205.09375 256.453125 205.363281 C 256.183594 205.632812 255.890625 205.875 255.574219 206.085938 C 255.257812 206.300781 254.921875 206.476562 254.570312 206.625 C 254.21875 206.769531 253.855469 206.878906 253.480469 206.957031 C 253.105469 207.03125 252.726562 207.066406 252.347656 207.066406 Z M 252.347656 207.066406 " fill-opacity="1" fill-rule="nonzero"/><path fill="#243047" d="M 252.347656 262.785156 L 41.722656 262.785156 C 41.34375 262.785156 40.964844 262.746094 40.589844 262.671875 C 40.214844 262.597656 39.851562 262.488281 39.5 262.34375 C 39.148438 262.195312 38.8125 262.015625 38.496094 261.804688 C 38.179688 261.59375 37.886719 261.351562 37.613281 261.082031 C 37.34375 260.8125 37.105469 260.519531 36.894531 260.199219 C 36.679688 259.882812 36.5 259.546875 36.355469 259.195312 C 36.210938 258.84375 36.097656 258.480469 36.023438 258.105469 C 35.949219 257.730469 35.914062 257.351562 35.914062 256.972656 C 35.914062 256.589844 35.949219 256.210938 36.023438 255.835938 C 36.097656 255.460938 36.210938 255.097656 36.355469 254.746094 C 36.5 254.394531 36.679688 254.058594 36.894531 253.742188 C 37.105469 253.421875 37.34375 253.128906 37.613281 252.859375 C 37.886719 252.589844 38.179688 252.347656 38.496094 252.136719 C 38.8125 251.925781 39.148438 251.746094 39.5 251.601562 C 39.851562 251.453125 40.214844 251.34375 40.589844 251.269531 C 40.964844 251.195312 41.34375 251.15625 41.722656 251.15625 L 252.347656 251.15625 C 252.726562 251.15625 253.105469 251.195312 253.480469 251.269531 C 253.855469 251.34375 254.21875 251.453125 254.570312 251.601562 C 254.921875 251.746094 255.257812 251.925781 255.574219 252.136719 C 255.890625 252.347656 256.183594 252.589844 256.453125 252.859375 C 256.722656 253.128906 256.964844 253.421875 257.175781 253.742188 C 257.390625 254.058594 257.566406 254.394531 257.714844 254.746094 C 257.859375 255.097656 257.96875 255.460938 258.042969 255.835938 C 258.121094 256.210938 258.15625 256.589844 258.15625 256.972656 C 258.15625 257.351562 258.121094 257.730469 258.042969 258.105469 C 257.96875 258.480469 257.859375 258.84375 257.714844 259.195312 C 257.566406 259.546875 257.390625 259.882812 257.175781 260.199219 C 256.964844 260.519531 256.722656 260.8125 256.453125 261.082031 C 256.183594 261.351562 255.890625 261.59375 255.574219 261.804688 C 255.257812 262.015625 254.921875 262.195312 254.570312 262.34375 C 254.21875 262.488281 253.855469 262.597656 253.480469 262.671875 C 253.105469 262.746094 252.726562 262.785156 252.347656 262.785156 Z M 252.347656 262.785156 " fill-opacity="1" fill-rule="nonzero"/><path fill="#243047" d="M 252.347656 318.5 L 41.722656 318.5 C 41.34375 318.5 40.964844 318.460938 40.589844 318.386719 C 40.214844 318.3125 39.851562 318.203125 39.5 318.058594 C 39.148438 317.910156 38.8125 317.730469 38.496094 317.519531 C 38.179688 317.308594 37.886719 317.066406 37.613281 316.796875 C 37.34375 316.527344 37.105469 316.234375 36.894531 315.914062 C 36.679688 315.597656 36.5 315.261719 36.355469 314.910156 C 36.210938 314.558594 36.097656 314.195312 36.023438 313.820312 C 35.949219 313.445312 35.914062 313.066406 35.914062 312.6875 C 35.914062 312.304688 35.949219 311.925781 36.023438 311.550781 C 36.097656 311.175781 36.210938 310.8125 36.355469 310.460938 C 36.5 310.109375 36.679688 309.773438 36.894531 309.457031 C 37.105469 309.136719 37.34375 308.84375 37.613281 308.574219 C 37.886719 308.304688 38.179688 308.0625 38.496094 307.851562 C 38.8125 307.640625 39.148438 307.460938 39.5 307.3125 C 39.851562 307.167969 40.214844 307.058594 40.589844 306.984375 C 40.964844 306.910156 41.34375 306.871094 41.722656 306.871094 L 252.347656 306.871094 C 252.726562 306.871094 253.105469 306.910156 253.480469 306.984375 C 253.855469 307.058594 254.21875 307.167969 254.570312 307.3125 C 254.921875 307.460938 255.257812 307.640625 255.574219 307.851562 C 255.890625 308.0625 256.183594 308.304688 256.453125 308.574219 C 256.722656 308.84375 256.964844 309.136719 257.175781 309.457031 C 257.390625 309.773438 257.566406 310.109375 257.714844 310.460938 C 257.859375 310.8125 257.96875 311.175781 258.042969 311.550781 C 258.121094 311.925781 258.15625 312.304688 258.15625 312.6875 C 258.15625 313.066406 258.121094 313.445312 258.042969 313.820312 C 257.96875 314.195312 257.859375 314.558594 257.714844 314.910156 C 257.566406 315.261719 257.390625 315.597656 257.175781 315.914062 C 256.964844 316.234375 256.722656 316.527344 256.453125 316.796875 C 256.183594 317.066406 255.890625 317.308594 255.574219 317.519531 C 255.257812 317.730469 254.921875 317.910156 254.570312 318.058594 C 254.21875 318.203125 253.855469 318.3125 253.480469 318.386719 C 253.105469 318.460938 252.726562 318.5 252.347656 318.5 Z M 252.347656 318.5 " fill-opacity="1" fill-rule="nonzero"/></svg>