<svg xmlns="http://www.w3.org/2000/svg" xmlns:xlink="http://www.w3.org/1999/xlink" width="500" zoomAndPan="magnify" viewBox="0 0 375 374.999991" height="500" preserveAspectRatio="xMidYMid meet" version="1.0"><defs><clipPath id="19759c1373"><path d="M 17.046875 0 L 358.296875 0 L 358.296875 324 L 17.046875 324 Z M 17.046875 0 " clip-rule="nonzero"/></clipPath></defs><path fill="#243047" d="M 230.5625 342.351562 C 229.726562 341.136719 228.054688 340.300781 226.992188 340.453125 L 148.574219 340.90625 C 148.574219 340.90625 145.765625 341.667969 145.003906 342.882812 C 144.246094 344.097656 144.09375 345.613281 144.699219 346.90625 C 152.148438 363.984375 169.09375 374.992188 187.707031 374.992188 C 206.628906 374.992188 223.574219 363.757812 230.945312 346.375 C 231.476562 345.007812 231.324219 343.488281 230.5625 342.351562 Z M 230.5625 342.351562 " fill-opacity="1" fill-rule="nonzero"/><g clip-path="url(#19759c1373)"><path fill="#243047" d="M 355.257812 300.296875 L 307.15625 260.21875 L 307.15625 153.417969 C 307.15625 99.296875 270.835938 53.523438 221.292969 38.949219 C 221.523438 37.355469 221.824219 35.761719 221.824219 34.09375 C 221.824219 15.265625 206.554688 0.0078125 187.707031 0.0078125 C 168.863281 0.0078125 153.589844 15.265625 153.589844 34.09375 C 153.589844 35.761719 153.894531 37.355469 154.121094 38.949219 C 104.582031 53.523438 68.257812 99.21875 68.257812 153.417969 L 68.257812 260.21875 L 20.085938 300.296875 C 18.109375 301.890625 17.046875 304.320312 17.046875 306.824219 L 17.046875 315.328125 C 17.046875 320.035156 20.84375 323.828125 25.554688 323.828125 L 349.785156 323.828125 C 354.496094 323.828125 358.296875 320.035156 358.296875 315.328125 L 358.296875 306.824219 C 358.296875 304.320312 357.15625 301.890625 355.257812 300.296875 Z M 170.765625 35.457031 C 170.765625 35.003906 170.613281 34.546875 170.613281 34.09375 C 170.613281 24.679688 178.285156 17.011719 187.707031 17.011719 C 197.128906 17.011719 204.730469 24.679688 204.730469 34.09375 C 204.730469 34.546875 204.652344 35.003906 204.578125 35.457031 C 199.03125 34.699219 193.40625 34.09375 187.632812 34.09375 C 181.859375 34.09375 176.3125 34.625 170.765625 35.457031 Z M 170.765625 35.457031 " fill-opacity="1" fill-rule="nonzero"/></g></svg>