<svg xmlns="http://www.w3.org/2000/svg" xmlns:xlink="http://www.w3.org/1999/xlink" width="500" zoomAndPan="magnify" viewBox="0 0 375 374.999991" height="500" preserveAspectRatio="xMidYMid meet" version="1.0"><defs><clipPath id="926e9d22e6"><path d="M 36.328125 0 L 338.578125 0 L 338.578125 375 L 36.328125 375 Z M 36.328125 0 " clip-rule="nonzero"/></clipPath></defs><path fill="#243047" d="M 143.386719 92.503906 L 131.296875 80.710938 C 132.347656 78.113281 132.933594 75.410156 133.046875 72.609375 L 133.046875 48.421875 C 133.046875 47.628906 133.007812 46.839844 132.933594 46.050781 C 132.855469 45.261719 132.738281 44.480469 132.582031 43.703125 C 132.429688 42.925781 132.238281 42.160156 132.007812 41.402344 C 131.777344 40.640625 131.511719 39.898438 131.207031 39.164062 C 130.90625 38.433594 130.566406 37.71875 130.191406 37.019531 C 129.820312 36.320312 129.414062 35.644531 128.972656 34.984375 C 128.53125 34.324219 128.0625 33.691406 127.558594 33.078125 C 127.058594 32.464844 126.527344 31.878906 125.964844 31.320312 C 125.40625 30.757812 124.820312 30.226562 124.207031 29.726562 C 123.59375 29.222656 122.960938 28.75 122.300781 28.3125 C 121.644531 27.871094 120.964844 27.464844 120.265625 27.089844 C 119.566406 26.71875 118.851562 26.378906 118.121094 26.074219 C 117.390625 25.773438 116.644531 25.503906 115.886719 25.277344 C 115.128906 25.046875 114.363281 24.855469 113.585938 24.699219 C 112.808594 24.542969 112.027344 24.429688 111.238281 24.351562 C 110.449219 24.273438 109.660156 24.234375 108.867188 24.234375 C 108.078125 24.234375 107.285156 24.273438 106.5 24.351562 C 105.710938 24.429688 104.925781 24.542969 104.152344 24.699219 C 103.375 24.855469 102.605469 25.046875 101.847656 25.277344 C 101.089844 25.503906 100.347656 25.773438 99.613281 26.074219 C 98.882812 26.378906 98.167969 26.71875 97.46875 27.089844 C 96.769531 27.464844 96.09375 27.871094 95.433594 28.3125 C 94.777344 28.75 94.140625 29.222656 93.527344 29.726562 C 92.917969 30.226562 92.332031 30.757812 91.769531 31.320312 C 91.210938 31.878906 90.679688 32.464844 90.175781 33.078125 C 89.675781 33.691406 89.203125 34.324219 88.761719 34.984375 C 88.324219 35.644531 87.917969 36.320312 87.542969 37.019531 C 87.171875 37.71875 86.832031 38.433594 86.527344 39.164062 C 86.226562 39.898438 85.960938 40.640625 85.730469 41.402344 C 85.5 42.160156 85.308594 42.925781 85.152344 43.703125 C 85 44.480469 84.882812 45.261719 84.804688 46.050781 C 84.726562 46.839844 84.6875 47.628906 84.6875 48.421875 L 84.6875 72.609375 C 84.6875 73.402344 84.726562 74.191406 84.804688 74.980469 C 84.882812 75.769531 85 76.550781 85.152344 77.328125 C 85.308594 78.105469 85.5 78.871094 85.730469 79.628906 C 85.960938 80.390625 86.226562 81.132812 86.527344 81.867188 C 86.832031 82.597656 87.171875 83.3125 87.542969 84.011719 C 87.917969 84.710938 88.324219 85.386719 88.761719 86.046875 C 89.203125 86.707031 89.675781 87.339844 90.175781 87.953125 C 90.679688 88.566406 91.210938 89.152344 91.769531 89.710938 C 92.332031 90.273438 92.917969 90.804688 93.527344 91.304688 C 94.140625 91.808594 94.777344 92.28125 95.433594 92.71875 C 96.09375 93.160156 96.769531 93.566406 97.46875 93.941406 C 98.167969 94.3125 98.882812 94.652344 99.613281 94.957031 C 100.347656 95.257812 101.089844 95.527344 101.847656 95.753906 C 102.605469 95.984375 103.375 96.175781 104.152344 96.332031 C 104.925781 96.488281 105.710938 96.601562 106.5 96.679688 C 107.285156 96.757812 108.078125 96.796875 108.867188 96.796875 C 111.769531 96.78125 114.570312 96.25 117.277344 95.210938 C 119.984375 94.167969 122.421875 92.679688 124.585938 90.75 L 134.800781 101.03125 Z M 120.957031 70.128906 L 113.039062 62.449219 L 104.636719 70.855469 L 116.0625 82.285156 C 115.023438 83.0625 113.890625 83.660156 112.660156 84.074219 C 111.429688 84.488281 110.164062 84.695312 108.867188 84.703125 C 108.074219 84.703125 107.289062 84.625 106.507812 84.472656 C 105.730469 84.316406 104.976562 84.085938 104.242188 83.78125 C 103.507812 83.480469 102.8125 83.105469 102.152344 82.664062 C 101.492188 82.222656 100.878906 81.722656 100.320312 81.160156 C 99.757812 80.597656 99.257812 79.988281 98.816406 79.328125 C 98.375 78.667969 98.003906 77.972656 97.699219 77.238281 C 97.394531 76.503906 97.164062 75.746094 97.011719 74.96875 C 96.855469 74.191406 96.777344 73.402344 96.777344 72.609375 L 96.777344 48.421875 C 96.777344 47.628906 96.855469 46.839844 97.011719 46.0625 C 97.164062 45.285156 97.394531 44.527344 97.699219 43.792969 C 98.003906 43.058594 98.375 42.363281 98.816406 41.703125 C 99.257812 41.042969 99.757812 40.433594 100.320312 39.871094 C 100.878906 39.308594 101.492188 38.808594 102.152344 38.367188 C 102.8125 37.925781 103.507812 37.550781 104.242188 37.25 C 104.976562 36.945312 105.730469 36.714844 106.507812 36.558594 C 107.289062 36.40625 108.074219 36.328125 108.867188 36.328125 C 109.660156 36.328125 110.449219 36.40625 111.226562 36.558594 C 112.003906 36.714844 112.761719 36.945312 113.496094 37.25 C 114.226562 37.550781 114.925781 37.925781 115.585938 38.367188 C 116.246094 38.808594 116.855469 39.308594 117.417969 39.871094 C 117.976562 40.433594 118.480469 41.042969 118.921875 41.703125 C 119.363281 42.363281 119.734375 43.058594 120.039062 43.792969 C 120.339844 44.527344 120.570312 45.285156 120.726562 46.0625 C 120.878906 46.839844 120.957031 47.628906 120.957031 48.421875 Z M 120.957031 70.128906 " fill-opacity="1" fill-rule="nonzero"/><g clip-path="url(#926e9d22e6)"><path fill="#243047" d="M 336.824219 38.082031 L 300.554688 1.800781 C 299.984375 1.234375 299.328125 0.800781 298.582031 0.496094 C 297.839844 0.191406 297.066406 0.0429688 296.261719 0.046875 L 42.375 0.046875 C 41.976562 0.046875 41.582031 0.0859375 41.195312 0.164062 C 40.804688 0.242188 40.425781 0.355469 40.058594 0.507812 C 39.691406 0.660156 39.34375 0.84375 39.015625 1.066406 C 38.683594 1.285156 38.378906 1.539062 38.097656 1.816406 C 37.816406 2.097656 37.566406 2.402344 37.347656 2.734375 C 37.125 3.0625 36.941406 3.414062 36.789062 3.78125 C 36.636719 4.148438 36.523438 4.523438 36.445312 4.914062 C 36.367188 5.304688 36.328125 5.695312 36.328125 6.09375 L 36.328125 368.90625 C 36.328125 369.304688 36.367188 369.695312 36.445312 370.085938 C 36.523438 370.476562 36.636719 370.851562 36.789062 371.21875 C 36.941406 371.585938 37.125 371.933594 37.347656 372.265625 C 37.566406 372.597656 37.816406 372.902344 38.097656 373.183594 C 38.378906 373.460938 38.683594 373.714844 39.015625 373.933594 C 39.34375 374.15625 39.691406 374.339844 40.058594 374.492188 C 40.425781 374.644531 40.804688 374.757812 41.195312 374.835938 C 41.582031 374.914062 41.976562 374.953125 42.375 374.953125 L 332.53125 374.953125 C 332.929688 374.953125 333.324219 374.914062 333.710938 374.835938 C 334.101562 374.757812 334.480469 374.644531 334.847656 374.492188 C 335.214844 374.339844 335.5625 374.15625 335.890625 373.933594 C 336.222656 373.714844 336.527344 373.460938 336.808594 373.183594 C 337.089844 372.902344 337.339844 372.597656 337.558594 372.265625 C 337.78125 371.933594 337.964844 371.585938 338.117188 371.21875 C 338.269531 370.851562 338.382812 370.476562 338.460938 370.085938 C 338.539062 369.695312 338.578125 369.304688 338.578125 368.90625 L 338.578125 42.375 C 338.582031 41.570312 338.433594 40.796875 338.128906 40.054688 C 337.824219 39.308594 337.390625 38.652344 336.824219 38.082031 Z M 302.308594 20.667969 L 317.964844 36.328125 L 302.308594 36.328125 Z M 326.488281 362.859375 L 48.417969 362.859375 L 48.417969 12.140625 L 290.21875 12.140625 L 290.21875 42.375 C 290.21875 42.773438 290.257812 43.164062 290.335938 43.554688 C 290.410156 43.945312 290.527344 44.320312 290.679688 44.6875 C 290.832031 45.054688 291.015625 45.40625 291.238281 45.734375 C 291.457031 46.066406 291.707031 46.371094 291.988281 46.652344 C 292.269531 46.929688 292.574219 47.183594 292.90625 47.402344 C 293.234375 47.625 293.582031 47.808594 293.949219 47.960938 C 294.316406 48.113281 294.695312 48.226562 295.082031 48.304688 C 295.472656 48.382812 295.867188 48.421875 296.261719 48.421875 L 326.488281 48.421875 Z M 326.488281 362.859375 " fill-opacity="1" fill-rule="nonzero"/></g><path fill="#243047" d="M 114.914062 114.9375 L 78.644531 114.9375 C 78.246094 114.9375 77.851562 114.976562 77.464844 115.054688 C 77.074219 115.132812 76.695312 115.246094 76.328125 115.398438 C 75.964844 115.550781 75.613281 115.734375 75.285156 115.957031 C 74.953125 116.175781 74.648438 116.429688 74.367188 116.707031 C 74.089844 116.988281 73.835938 117.292969 73.617188 117.625 C 73.394531 117.953125 73.210938 118.304688 73.058594 118.671875 C 72.90625 119.039062 72.792969 119.414062 72.714844 119.804688 C 72.636719 120.195312 72.597656 120.585938 72.597656 120.984375 L 72.597656 157.265625 C 72.597656 157.664062 72.636719 158.054688 72.714844 158.445312 C 72.792969 158.835938 72.90625 159.210938 73.058594 159.578125 C 73.210938 159.945312 73.394531 160.296875 73.617188 160.625 C 73.835938 160.957031 74.089844 161.261719 74.367188 161.542969 C 74.648438 161.820312 74.953125 162.074219 75.285156 162.292969 C 75.613281 162.515625 75.964844 162.699219 76.328125 162.851562 C 76.695312 163.003906 77.074219 163.117188 77.464844 163.195312 C 77.851562 163.273438 78.246094 163.3125 78.644531 163.3125 L 114.914062 163.3125 C 115.308594 163.3125 115.703125 163.273438 116.09375 163.195312 C 116.480469 163.117188 116.859375 163.003906 117.226562 162.851562 C 117.59375 162.699219 117.941406 162.515625 118.273438 162.292969 C 118.601562 162.074219 118.90625 161.820312 119.1875 161.542969 C 119.46875 161.261719 119.71875 160.957031 119.9375 160.625 C 120.160156 160.296875 120.347656 159.945312 120.496094 159.578125 C 120.648438 159.210938 120.765625 158.835938 120.84375 158.445312 C 120.917969 158.054688 120.957031 157.664062 120.957031 157.265625 L 120.957031 120.984375 C 120.957031 120.585938 120.917969 120.195312 120.84375 119.804688 C 120.765625 119.414062 120.648438 119.039062 120.496094 118.671875 C 120.347656 118.304688 120.160156 117.953125 119.9375 117.625 C 119.71875 117.292969 119.46875 116.988281 119.1875 116.707031 C 118.90625 116.429688 118.601562 116.175781 118.273438 115.957031 C 117.941406 115.734375 117.59375 115.550781 117.226562 115.398438 C 116.859375 115.246094 116.480469 115.132812 116.09375 115.054688 C 115.703125 114.976562 115.308594 114.9375 114.914062 114.9375 Z M 108.867188 151.21875 L 84.6875 151.21875 L 84.6875 127.03125 L 108.867188 127.03125 Z M 108.867188 151.21875 " fill-opacity="1" fill-rule="nonzero"/><path fill="#243047" d="M 114.914062 175.40625 L 78.644531 175.40625 C 78.246094 175.40625 77.851562 175.445312 77.464844 175.523438 C 77.074219 175.601562 76.695312 175.714844 76.328125 175.867188 C 75.964844 176.019531 75.613281 176.203125 75.285156 176.425781 C 74.953125 176.644531 74.648438 176.898438 74.367188 177.175781 C 74.089844 177.457031 73.835938 177.761719 73.617188 178.09375 C 73.394531 178.421875 73.210938 178.773438 73.058594 179.140625 C 72.90625 179.507812 72.792969 179.882812 72.714844 180.273438 C 72.636719 180.664062 72.597656 181.054688 72.597656 181.453125 L 72.597656 217.734375 C 72.597656 218.132812 72.636719 218.523438 72.714844 218.914062 C 72.792969 219.304688 72.90625 219.679688 73.058594 220.046875 C 73.210938 220.414062 73.394531 220.761719 73.617188 221.09375 C 73.835938 221.425781 74.089844 221.730469 74.367188 222.011719 C 74.648438 222.289062 74.953125 222.542969 75.285156 222.761719 C 75.613281 222.984375 75.964844 223.167969 76.328125 223.320312 C 76.695312 223.472656 77.074219 223.585938 77.464844 223.664062 C 77.851562 223.742188 78.246094 223.78125 78.644531 223.78125 L 114.914062 223.78125 C 115.308594 223.78125 115.703125 223.742188 116.09375 223.664062 C 116.480469 223.585938 116.859375 223.472656 117.226562 223.320312 C 117.59375 223.167969 117.941406 222.984375 118.273438 222.761719 C 118.601562 222.542969 118.90625 222.289062 119.1875 222.011719 C 119.46875 221.730469 119.71875 221.425781 119.9375 221.09375 C 120.160156 220.761719 120.347656 220.414062 120.496094 220.046875 C 120.648438 219.679688 120.765625 219.304688 120.84375 218.914062 C 120.917969 218.523438 120.957031 218.132812 120.957031 217.734375 L 120.957031 181.453125 C 120.957031 181.054688 120.917969 180.664062 120.84375 180.273438 C 120.765625 179.882812 120.648438 179.507812 120.496094 179.140625 C 120.347656 178.773438 120.160156 178.421875 119.9375 178.09375 C 119.71875 177.761719 119.46875 177.457031 119.1875 177.175781 C 118.90625 176.898438 118.601562 176.644531 118.273438 176.425781 C 117.941406 176.203125 117.59375 176.019531 117.226562 175.867188 C 116.859375 175.714844 116.480469 175.601562 116.09375 175.523438 C 115.703125 175.445312 115.308594 175.40625 114.914062 175.40625 Z M 108.867188 211.6875 L 84.6875 211.6875 L 84.6875 187.5 L 108.867188 187.5 Z M 108.867188 211.6875 " fill-opacity="1" fill-rule="nonzero"/><path fill="#243047" d="M 114.914062 235.875 L 78.644531 235.875 C 78.246094 235.875 77.851562 235.914062 77.464844 235.992188 C 77.074219 236.070312 76.695312 236.183594 76.328125 236.335938 C 75.964844 236.488281 75.613281 236.671875 75.285156 236.894531 C 74.953125 237.113281 74.648438 237.367188 74.367188 237.644531 C 74.089844 237.925781 73.835938 238.230469 73.617188 238.5625 C 73.394531 238.890625 73.210938 239.242188 73.058594 239.609375 C 72.90625 239.976562 72.792969 240.351562 72.714844 240.742188 C 72.636719 241.132812 72.597656 241.523438 72.597656 241.921875 L 72.597656 278.203125 C 72.597656 278.601562 72.636719 278.992188 72.714844 279.382812 C 72.792969 279.773438 72.90625 280.148438 73.058594 280.515625 C 73.210938 280.882812 73.394531 281.234375 73.617188 281.5625 C 73.835938 281.894531 74.089844 282.199219 74.367188 282.480469 C 74.648438 282.757812 74.953125 283.011719 75.285156 283.230469 C 75.613281 283.453125 75.964844 283.636719 76.328125 283.789062 C 76.695312 283.941406 77.074219 284.054688 77.464844 284.132812 C 77.851562 284.210938 78.246094 284.25 78.644531 284.25 L 114.914062 284.25 C 115.308594 284.25 115.703125 284.210938 116.09375 284.132812 C 116.480469 284.054688 116.859375 283.941406 117.226562 283.789062 C 117.59375 283.636719 117.941406 283.453125 118.273438 283.230469 C 118.601562 283.011719 118.90625 282.757812 119.1875 282.480469 C 119.46875 282.199219 119.71875 281.894531 119.9375 281.5625 C 120.160156 281.230469 120.347656 280.882812 120.496094 280.515625 C 120.648438 280.148438 120.765625 279.773438 120.84375 279.382812 C 120.917969 278.992188 120.957031 278.601562 120.957031 278.203125 L 120.957031 241.921875 C 120.957031 241.523438 120.917969 241.132812 120.84375 240.742188 C 120.765625 240.351562 120.648438 239.976562 120.496094 239.609375 C 120.347656 239.242188 120.160156 238.890625 119.9375 238.5625 C 119.71875 238.230469 119.46875 237.925781 119.1875 237.644531 C 118.90625 237.367188 118.601562 237.113281 118.273438 236.894531 C 117.941406 236.671875 117.59375 236.488281 117.226562 236.335938 C 116.859375 236.183594 116.480469 236.070312 116.09375 235.992188 C 115.703125 235.914062 115.308594 235.875 114.914062 235.875 Z M 108.867188 272.15625 L 84.6875 272.15625 L 84.6875 247.96875 L 108.867188 247.96875 Z M 108.867188 272.15625 " fill-opacity="1" fill-rule="nonzero"/><path fill="#243047" d="M 133.046875 120.984375 L 302.308594 120.984375 L 302.308594 133.078125 L 133.046875 133.078125 Z M 133.046875 120.984375 " fill-opacity="1" fill-rule="nonzero"/><path fill="#243047" d="M 133.046875 145.171875 L 278.128906 145.171875 L 278.128906 157.265625 L 133.046875 157.265625 Z M 133.046875 145.171875 " fill-opacity="1" fill-rule="nonzero"/><path fill="#243047" d="M 290.21875 145.171875 L 302.308594 145.171875 L 302.308594 157.265625 L 290.21875 157.265625 Z M 290.21875 145.171875 " fill-opacity="1" fill-rule="nonzero"/><path fill="#243047" d="M 133.046875 181.453125 L 302.308594 181.453125 L 302.308594 193.546875 L 133.046875 193.546875 Z M 133.046875 181.453125 " fill-opacity="1" fill-rule="nonzero"/><path fill="#243047" d="M 133.046875 205.640625 L 278.128906 205.640625 L 278.128906 217.734375 L 133.046875 217.734375 Z M 133.046875 205.640625 " fill-opacity="1" fill-rule="nonzero"/><path fill="#243047" d="M 290.21875 205.640625 L 302.308594 205.640625 L 302.308594 217.734375 L 290.21875 217.734375 Z M 290.21875 205.640625 " fill-opacity="1" fill-rule="nonzero"/><path fill="#243047" d="M 133.046875 241.921875 L 302.308594 241.921875 L 302.308594 254.015625 L 133.046875 254.015625 Z M 133.046875 241.921875 " fill-opacity="1" fill-rule="nonzero"/><path fill="#243047" d="M 133.046875 266.109375 L 278.128906 266.109375 L 278.128906 278.203125 L 133.046875 278.203125 Z M 133.046875 266.109375 " fill-opacity="1" fill-rule="nonzero"/><path fill="#243047" d="M 290.21875 266.109375 L 302.308594 266.109375 L 302.308594 278.203125 L 290.21875 278.203125 Z M 290.21875 266.109375 " fill-opacity="1" fill-rule="nonzero"/><path fill="#243047" d="M 114.914062 296.34375 L 78.644531 296.34375 C 78.246094 296.34375 77.851562 296.382812 77.464844 296.460938 C 77.074219 296.539062 76.695312 296.652344 76.328125 296.804688 C 75.964844 296.957031 75.613281 297.140625 75.285156 297.363281 C 74.953125 297.582031 74.648438 297.835938 74.367188 298.113281 C 74.089844 298.394531 73.835938 298.699219 73.617188 299.03125 C 73.394531 299.359375 73.210938 299.710938 73.058594 300.078125 C 72.90625 300.445312 72.792969 300.820312 72.714844 301.210938 C 72.636719 301.601562 72.597656 301.992188 72.597656 302.390625 L 72.597656 338.671875 C 72.597656 339.070312 72.636719 339.460938 72.714844 339.851562 C 72.792969 340.242188 72.90625 340.617188 73.058594 340.984375 C 73.210938 341.351562 73.394531 341.699219 73.617188 342.03125 C 73.835938 342.363281 74.089844 342.667969 74.367188 342.949219 C 74.648438 343.226562 74.953125 343.480469 75.285156 343.699219 C 75.613281 343.921875 75.964844 344.105469 76.328125 344.257812 C 76.695312 344.410156 77.074219 344.523438 77.464844 344.601562 C 77.851562 344.679688 78.246094 344.71875 78.644531 344.71875 L 114.914062 344.71875 C 115.308594 344.71875 115.703125 344.679688 116.09375 344.601562 C 116.480469 344.523438 116.859375 344.410156 117.226562 344.257812 C 117.59375 344.105469 117.941406 343.921875 118.273438 343.699219 C 118.601562 343.480469 118.90625 343.226562 119.1875 342.949219 C 119.46875 342.667969 119.71875 342.363281 119.9375 342.03125 C 120.160156 341.699219 120.347656 341.351562 120.496094 340.984375 C 120.648438 340.617188 120.765625 340.242188 120.84375 339.851562 C 120.917969 339.460938 120.957031 339.070312 120.957031 338.671875 L 120.957031 302.390625 C 120.957031 301.992188 120.917969 301.601562 120.84375 301.210938 C 120.765625 300.820312 120.648438 300.441406 120.496094 300.078125 C 120.347656 299.710938 120.160156 299.359375 119.9375 299.03125 C 119.71875 298.699219 119.46875 298.394531 119.1875 298.113281 C 118.90625 297.835938 118.601562 297.582031 118.273438 297.363281 C 117.941406 297.140625 117.59375 296.957031 117.226562 296.804688 C 116.859375 296.652344 116.480469 296.539062 116.09375 296.460938 C 115.703125 296.382812 115.308594 296.34375 114.914062 296.34375 Z M 108.867188 332.625 L 84.6875 332.625 L 84.6875 308.4375 L 108.867188 308.4375 Z M 108.867188 332.625 " fill-opacity="1" fill-rule="nonzero"/><path fill="#243047" d="M 133.046875 302.390625 L 302.308594 302.390625 L 302.308594 314.484375 L 133.046875 314.484375 Z M 133.046875 302.390625 " fill-opacity="1" fill-rule="nonzero"/><path fill="#243047" d="M 133.046875 326.578125 L 278.128906 326.578125 L 278.128906 338.671875 L 133.046875 338.671875 Z M 133.046875 326.578125 " fill-opacity="1" fill-rule="nonzero"/><path fill="#243047" d="M 290.21875 326.578125 L 302.308594 326.578125 L 302.308594 338.671875 L 290.21875 338.671875 Z M 290.21875 326.578125 " fill-opacity="1" fill-rule="nonzero"/><path fill="#243047" d="M 169.316406 96.796875 C 170.109375 96.796875 170.898438 96.757812 171.6875 96.679688 C 172.476562 96.601562 173.257812 96.488281 174.035156 96.332031 C 174.8125 96.175781 175.578125 95.984375 176.335938 95.753906 C 177.09375 95.527344 177.839844 95.257812 178.570312 94.957031 C 179.304688 94.652344 180.019531 94.3125 180.714844 93.941406 C 181.414062 93.566406 182.09375 93.160156 182.75 92.71875 C 183.410156 92.28125 184.046875 91.808594 184.65625 91.304688 C 185.269531 90.804688 185.855469 90.273438 186.414062 89.710938 C 186.976562 89.152344 187.507812 88.566406 188.007812 87.953125 C 188.511719 87.339844 188.984375 86.707031 189.421875 86.046875 C 189.863281 85.386719 190.269531 84.710938 190.644531 84.011719 C 191.015625 83.3125 191.355469 82.597656 191.65625 81.867188 C 191.960938 81.132812 192.226562 80.390625 192.457031 79.628906 C 192.6875 78.871094 192.878906 78.105469 193.035156 77.328125 C 193.1875 76.550781 193.304688 75.769531 193.382812 74.980469 C 193.460938 74.191406 193.5 73.402344 193.5 72.609375 L 193.5 24.234375 L 181.40625 24.234375 L 181.40625 72.609375 C 181.40625 73.402344 181.332031 74.191406 181.175781 74.96875 C 181.019531 75.746094 180.792969 76.503906 180.488281 77.238281 C 180.183594 77.972656 179.8125 78.667969 179.371094 79.328125 C 178.929688 79.988281 178.429688 80.597656 177.867188 81.160156 C 177.304688 81.722656 176.695312 82.222656 176.035156 82.664062 C 175.375 83.105469 174.679688 83.480469 173.945312 83.78125 C 173.210938 84.085938 172.457031 84.316406 171.675781 84.472656 C 170.898438 84.625 170.113281 84.703125 169.316406 84.703125 C 168.523438 84.703125 167.738281 84.625 166.960938 84.472656 C 166.179688 84.316406 165.425781 84.085938 164.691406 83.78125 C 163.957031 83.480469 163.261719 83.105469 162.601562 82.664062 C 161.941406 82.222656 161.332031 81.722656 160.769531 81.160156 C 160.207031 80.597656 159.707031 79.988281 159.265625 79.328125 C 158.824219 78.667969 158.453125 77.972656 158.148438 77.238281 C 157.84375 76.503906 157.617188 75.746094 157.460938 74.96875 C 157.304688 74.191406 157.226562 73.402344 157.226562 72.609375 L 157.226562 24.234375 L 145.136719 24.234375 L 145.136719 72.609375 C 145.136719 73.402344 145.175781 74.191406 145.253906 74.980469 C 145.332031 75.769531 145.449219 76.550781 145.601562 77.328125 C 145.757812 78.105469 145.949219 78.871094 146.179688 79.628906 C 146.410156 80.390625 146.675781 81.132812 146.980469 81.867188 C 147.28125 82.597656 147.621094 83.3125 147.992188 84.011719 C 148.367188 84.710938 148.773438 85.386719 149.214844 86.046875 C 149.652344 86.707031 150.125 87.339844 150.625 87.953125 C 151.128906 88.566406 151.660156 89.152344 152.21875 89.710938 C 152.78125 90.273438 153.367188 90.804688 153.976562 91.304688 C 154.589844 91.808594 155.226562 92.28125 155.882812 92.71875 C 156.542969 93.160156 157.222656 93.566406 157.917969 93.941406 C 158.617188 94.3125 159.332031 94.652344 160.066406 94.957031 C 160.796875 95.257812 161.542969 95.527344 162.300781 95.753906 C 163.058594 95.984375 163.824219 96.175781 164.601562 96.332031 C 165.378906 96.488281 166.160156 96.601562 166.949219 96.679688 C 167.734375 96.757812 168.527344 96.796875 169.316406 96.796875 Z M 169.316406 96.796875 " fill-opacity="1" fill-rule="nonzero"/><path fill="#243047" d="M 205.589844 24.234375 L 217.679688 24.234375 L 217.679688 96.796875 L 205.589844 96.796875 Z M 205.589844 24.234375 " fill-opacity="1" fill-rule="nonzero"/><path fill="#243047" d="M 230.433594 88.027344 C 230.316406 88.257812 230.21875 88.492188 230.132812 88.734375 C 230.046875 88.976562 229.976562 89.222656 229.921875 89.476562 C 229.867188 89.726562 229.832031 89.980469 229.808594 90.234375 C 229.785156 90.492188 229.78125 90.746094 229.792969 91.003906 C 229.800781 91.257812 229.828125 91.515625 229.871094 91.765625 C 229.914062 92.019531 229.976562 92.269531 230.050781 92.515625 C 230.125 92.761719 230.214844 93 230.320312 93.234375 C 230.425781 93.46875 230.546875 93.695312 230.679688 93.914062 C 230.8125 94.132812 230.960938 94.339844 231.121094 94.542969 C 231.28125 94.742188 231.457031 94.929688 231.640625 95.109375 C 231.824219 95.285156 232.019531 95.453125 232.226562 95.605469 C 232.433594 95.757812 232.648438 95.898438 232.871094 96.023438 C 233.09375 96.148438 233.324219 96.257812 233.5625 96.355469 C 233.800781 96.453125 234.042969 96.53125 234.292969 96.597656 C 234.539062 96.664062 234.792969 96.710938 235.046875 96.746094 C 235.300781 96.777344 235.554688 96.796875 235.8125 96.796875 L 272.082031 96.796875 L 272.082031 84.703125 L 245.605469 84.703125 L 271.417969 33.003906 C 271.535156 32.773438 271.632812 32.539062 271.71875 32.296875 C 271.804688 32.054688 271.875 31.808594 271.929688 31.554688 C 271.984375 31.304688 272.019531 31.050781 272.042969 30.796875 C 272.066406 30.539062 272.070312 30.285156 272.058594 30.027344 C 272.046875 29.773438 272.023438 29.515625 271.980469 29.265625 C 271.9375 29.011719 271.875 28.761719 271.800781 28.515625 C 271.726562 28.269531 271.636719 28.03125 271.53125 27.796875 C 271.425781 27.5625 271.304688 27.335938 271.171875 27.117188 C 271.039062 26.898438 270.890625 26.691406 270.730469 26.488281 C 270.566406 26.289062 270.394531 26.101562 270.210938 25.921875 C 270.027344 25.746094 269.832031 25.578125 269.625 25.425781 C 269.417969 25.273438 269.203125 25.132812 268.980469 25.007812 C 268.757812 24.882812 268.523438 24.773438 268.289062 24.675781 C 268.050781 24.578125 267.804688 24.5 267.558594 24.433594 C 267.308594 24.367188 267.058594 24.320312 266.804688 24.285156 C 266.550781 24.253906 266.292969 24.234375 266.039062 24.234375 L 229.769531 24.234375 L 229.769531 36.328125 L 256.246094 36.328125 Z M 230.433594 88.027344 " fill-opacity="1" fill-rule="nonzero"/></svg>