<svg xmlns="http://www.w3.org/2000/svg" xmlns:xlink="http://www.w3.org/1999/xlink" width="500" zoomAndPan="magnify" viewBox="0 0 375 374.999991" height="500" preserveAspectRatio="xMidYMid meet" version="1.0"><defs><clipPath id="e555942db8"><path d="M 0 12.1875 L 233 12.1875 L 233 247 L 0 247 Z M 0 12.1875 " clip-rule="nonzero"/></clipPath><clipPath id="4508c88e62"><path d="M 50 167 L 375 167 L 375 363.1875 L 50 363.1875 Z M 50 167 " clip-rule="nonzero"/></clipPath></defs><path fill="#243047" d="M 190.203125 229.558594 L 187.722656 229.558594 C 178.613281 236.179688 168.585938 241.585938 157.851562 245.503906 L 157.851562 262.207031 L 190.203125 262.207031 Z M 190.203125 229.558594 " fill-opacity="1" fill-rule="nonzero"/><path fill="#243047" d="M 80.847656 268.363281 L 113.199219 268.363281 L 113.199219 301.003906 L 80.847656 301.003906 Z M 80.847656 268.363281 " fill-opacity="1" fill-rule="nonzero"/><path fill="#243047" d="M 190.203125 268.363281 L 157.851562 268.363281 L 157.851562 301.003906 L 190.203125 301.003906 Z M 190.203125 268.363281 " fill-opacity="1" fill-rule="nonzero"/><path fill="#243047" d="M 228.699219 190.765625 L 222.453125 190.765625 C 215.570312 202.828125 206.722656 213.613281 196.347656 222.675781 L 196.347656 223.410156 L 228.699219 223.410156 Z M 228.699219 190.765625 " fill-opacity="1" fill-rule="nonzero"/><path fill="#243047" d="M 151.703125 247.554688 C 141.421875 250.691406 130.570312 252.480469 119.351562 252.761719 L 119.351562 262.203125 L 151.703125 262.203125 Z M 151.703125 247.554688 " fill-opacity="1" fill-rule="nonzero"/><path fill="#243047" d="M 119.347656 268.363281 L 151.699219 268.363281 L 151.699219 301.003906 L 119.347656 301.003906 Z M 119.347656 268.363281 " fill-opacity="1" fill-rule="nonzero"/><path fill="#243047" d="M 119.347656 307.15625 L 151.699219 307.15625 L 151.699219 339.796875 L 119.347656 339.796875 Z M 119.347656 307.15625 " fill-opacity="1" fill-rule="nonzero"/><path fill="#243047" d="M 157.851562 307.15625 L 157.851562 339.800781 L 190.203125 339.800781 L 190.203125 307.15625 Z M 157.851562 307.15625 " fill-opacity="1" fill-rule="nonzero"/><path fill="#243047" d="M 119.347656 207.089844 L 119.347656 223.328125 C 142.726562 222.558594 163.945312 213.078125 179.917969 197.996094 L 168.539062 186.527344 C 167.34375 185.316406 167.351562 183.375 168.554688 182.171875 C 169.761719 180.976562 171.699219 180.984375 172.90625 182.1875 L 184.253906 193.625 C 199.214844 177.527344 208.617188 156.136719 209.375 132.566406 L 193.277344 132.566406 C 191.578125 132.566406 190.203125 131.191406 190.203125 129.492188 C 190.203125 127.789062 191.578125 126.414062 193.277344 126.414062 L 209.375 126.414062 C 208.617188 102.847656 199.21875 81.457031 184.253906 65.355469 L 172.90625 76.792969 C 172.304688 77.398438 171.511719 77.699219 170.722656 77.699219 C 169.941406 77.699219 169.15625 77.402344 168.554688 76.808594 C 167.351562 75.609375 167.34375 73.664062 168.539062 72.453125 L 179.917969 60.988281 C 163.945312 45.902344 142.726562 36.421875 119.347656 35.652344 L 119.347656 51.894531 C 119.347656 53.59375 117.972656 54.972656 116.273438 54.972656 C 114.574219 54.972656 113.199219 53.59375 113.199219 51.894531 L 113.199219 35.652344 C 89.820312 36.421875 68.601562 45.902344 52.628906 60.988281 L 64.007812 72.453125 C 65.207031 73.664062 65.199219 75.609375 63.996094 76.804688 C 63.398438 77.402344 62.613281 77.699219 61.828125 77.699219 C 61.039062 77.699219 60.25 77.398438 59.648438 76.792969 L 48.296875 65.355469 C 33.339844 81.457031 23.933594 102.847656 23.175781 126.414062 L 39.273438 126.414062 C 40.972656 126.414062 42.347656 127.789062 42.347656 129.492188 C 42.347656 131.191406 40.972656 132.566406 39.273438 132.566406 L 23.179688 132.566406 C 23.9375 156.136719 33.339844 177.527344 48.300781 193.625 L 59.652344 182.1875 C 60.851562 180.984375 62.792969 180.976562 64 182.175781 C 65.203125 183.375 65.210938 185.316406 64.011719 186.527344 L 52.632812 197.992188 C 68.601562 213.078125 89.820312 222.558594 113.203125 223.328125 L 113.203125 207.089844 C 113.203125 205.386719 114.578125 204.011719 116.277344 204.011719 C 117.976562 204.011719 119.347656 205.386719 119.347656 207.089844 Z M 105.5 129.492188 C 105.5 126.355469 106.851562 123.550781 108.980469 121.566406 L 90.378906 80.316406 C 89.675781 78.769531 90.367188 76.945312 91.914062 76.25 C 93.460938 75.539062 95.285156 76.238281 95.976562 77.789062 L 114.492188 118.835938 C 115.074219 118.738281 115.664062 118.652344 116.277344 118.652344 C 122.21875 118.652344 127.050781 123.515625 127.050781 129.488281 C 127.050781 130.082031 126.96875 130.652344 126.875 131.21875 L 182.875 153.789062 C 184.449219 154.425781 185.214844 156.21875 184.578125 157.792969 C 184.097656 158.996094 182.945312 159.722656 181.726562 159.722656 C 181.34375 159.722656 180.957031 159.652344 180.582031 159.5 L 124.195312 136.773438 C 122.226562 138.941406 119.417969 140.324219 116.277344 140.324219 C 110.335938 140.324219 105.5 135.464844 105.5 129.492188 Z M 105.5 129.492188 " fill-opacity="1" fill-rule="nonzero"/><path fill="#243047" d="M 120.902344 129.492188 C 120.902344 129.796875 120.871094 130.101562 120.8125 130.402344 C 120.753906 130.707031 120.664062 131 120.546875 131.28125 C 120.433594 131.566406 120.289062 131.835938 120.121094 132.089844 C 119.953125 132.347656 119.761719 132.582031 119.546875 132.800781 C 119.332031 133.019531 119.097656 133.210938 118.84375 133.382812 C 118.59375 133.554688 118.324219 133.699219 118.042969 133.816406 C 117.765625 133.933594 117.476562 134.019531 117.175781 134.082031 C 116.878906 134.140625 116.578125 134.171875 116.273438 134.171875 C 115.972656 134.171875 115.671875 134.140625 115.371094 134.082031 C 115.074219 134.019531 114.785156 133.933594 114.503906 133.816406 C 114.222656 133.699219 113.957031 133.554688 113.703125 133.382812 C 113.453125 133.210938 113.21875 133.019531 113.003906 132.800781 C 112.789062 132.582031 112.597656 132.347656 112.429688 132.089844 C 112.257812 131.835938 112.117188 131.566406 112 131.28125 C 111.882812 131 111.796875 130.707031 111.738281 130.402344 C 111.679688 130.101562 111.648438 129.796875 111.648438 129.492188 C 111.648438 129.183594 111.679688 128.878906 111.738281 128.578125 C 111.796875 128.277344 111.882812 127.984375 112 127.699219 C 112.117188 127.417969 112.257812 127.144531 112.429688 126.890625 C 112.597656 126.636719 112.789062 126.398438 113.003906 126.183594 C 113.21875 125.964844 113.453125 125.769531 113.703125 125.601562 C 113.957031 125.429688 114.222656 125.285156 114.503906 125.167969 C 114.785156 125.050781 115.074219 124.960938 115.371094 124.902344 C 115.671875 124.839844 115.972656 124.8125 116.273438 124.8125 C 116.578125 124.8125 116.878906 124.839844 117.175781 124.902344 C 117.476562 124.960938 117.765625 125.050781 118.042969 125.167969 C 118.324219 125.285156 118.59375 125.429688 118.84375 125.601562 C 119.097656 125.769531 119.332031 125.964844 119.546875 126.183594 C 119.761719 126.398438 119.953125 126.636719 120.121094 126.890625 C 120.289062 127.144531 120.433594 127.417969 120.546875 127.699219 C 120.664062 127.984375 120.753906 128.277344 120.8125 128.578125 C 120.871094 128.878906 120.902344 129.183594 120.902344 129.492188 Z M 120.902344 129.492188 " fill-opacity="1" fill-rule="nonzero"/><path fill="#243047" d="M 196.347656 229.558594 L 228.699219 229.558594 L 228.699219 262.203125 L 196.347656 262.203125 Z M 196.347656 229.558594 " fill-opacity="1" fill-rule="nonzero"/><path fill="#243047" d="M 306.445312 138.050781 L 311.101562 138.050781 C 314.492188 138.050781 317.25 135.292969 317.25 131.898438 L 317.25 96.046875 C 317.25 92.652344 314.492188 89.890625 311.101562 89.890625 L 306.445312 89.890625 C 303.054688 89.890625 300.296875 92.652344 300.296875 96.046875 L 300.296875 131.898438 C 300.296875 135.292969 303.058594 138.050781 306.445312 138.050781 Z M 306.445312 138.050781 " fill-opacity="1" fill-rule="nonzero"/><g clip-path="url(#e555942db8)"><path fill="#243047" d="M 232.550781 129.492188 C 232.550781 64.871094 180.390625 12.296875 116.273438 12.296875 C 52.160156 12.296875 0 64.871094 0 129.492188 C 0 194.113281 52.160156 246.6875 116.273438 246.6875 C 180.386719 246.6875 232.550781 194.113281 232.550781 129.492188 Z M 46.046875 200.257812 C 45.980469 200.191406 45.957031 200.101562 45.894531 200.027344 C 28.019531 181.921875 16.953125 156.984375 16.953125 129.492188 C 16.953125 101.996094 28.015625 77.0625 45.894531 58.957031 C 45.957031 58.886719 45.980469 58.792969 46.046875 58.726562 C 46.113281 58.660156 46.199219 58.640625 46.265625 58.582031 C 64.234375 40.570312 88.984375 29.417969 116.273438 29.417969 C 143.558594 29.417969 168.308594 40.566406 186.28125 58.574219 C 186.347656 58.632812 186.433594 58.652344 186.5 58.71875 C 186.570312 58.785156 186.597656 58.878906 186.65625 58.953125 C 204.535156 77.058594 215.601562 101.996094 215.601562 129.488281 C 215.601562 156.980469 204.535156 181.917969 186.65625 200.023438 C 186.597656 200.097656 186.570312 200.191406 186.5 200.257812 C 186.4375 200.320312 186.351562 200.347656 186.28125 200.402344 C 168.308594 218.410156 143.558594 229.558594 116.273438 229.558594 C 88.984375 229.558594 64.234375 218.40625 46.265625 200.394531 C 46.199219 200.34375 46.113281 200.320312 46.046875 200.257812 Z M 46.046875 200.257812 " fill-opacity="1" fill-rule="nonzero"/></g><path fill="#243047" d="M 196.347656 339.800781 L 228.699219 339.800781 L 228.699219 307.15625 L 196.347656 307.15625 Z M 196.347656 339.800781 " fill-opacity="1" fill-rule="nonzero"/><path fill="#243047" d="M 196.347656 268.363281 L 228.699219 268.363281 L 228.699219 301.003906 L 196.347656 301.003906 Z M 196.347656 268.363281 " fill-opacity="1" fill-rule="nonzero"/><path fill="#243047" d="M 234.847656 301.003906 L 267.203125 301.003906 L 267.203125 268.363281 L 234.847656 268.363281 Z M 234.847656 301.003906 " fill-opacity="1" fill-rule="nonzero"/><path fill="#243047" d="M 311.847656 307.15625 L 344.199219 307.15625 L 344.199219 339.796875 L 311.847656 339.796875 Z M 311.847656 307.15625 " fill-opacity="1" fill-rule="nonzero"/><path fill="#243047" d="M 273.351562 268.363281 L 305.699219 268.363281 L 305.699219 301.003906 L 273.351562 301.003906 Z M 273.351562 268.363281 " fill-opacity="1" fill-rule="nonzero"/><path fill="#243047" d="M 311.847656 190.765625 L 344.199219 190.765625 L 344.199219 223.40625 L 311.847656 223.40625 Z M 311.847656 190.765625 " fill-opacity="1" fill-rule="nonzero"/><path fill="#243047" d="M 273.351562 307.15625 L 305.699219 307.15625 L 305.699219 339.796875 L 273.351562 339.796875 Z M 273.351562 307.15625 " fill-opacity="1" fill-rule="nonzero"/><path fill="#243047" d="M 80.847656 307.15625 L 113.199219 307.15625 L 113.199219 339.796875 L 80.847656 339.796875 Z M 80.847656 307.15625 " fill-opacity="1" fill-rule="nonzero"/><path fill="#243047" d="M 354.15625 117.050781 L 323.398438 117.050781 L 323.398438 131.898438 C 323.398438 138.683594 317.882812 144.207031 311.101562 144.207031 L 306.445312 144.207031 C 299.664062 144.207031 294.152344 138.683594 294.152344 131.898438 L 294.152344 117.050781 L 238.074219 117.050781 C 238.484375 121.144531 238.695312 125.289062 238.695312 129.492188 C 238.695312 140.5 237.238281 151.167969 234.539062 161.332031 L 375 161.332031 L 375 138.074219 C 375 126.480469 365.648438 117.050781 354.15625 117.050781 Z M 354.15625 117.050781 " fill-opacity="1" fill-rule="nonzero"/><path fill="#243047" d="M 311.847656 268.363281 L 344.199219 268.363281 L 344.199219 301.003906 L 311.847656 301.003906 Z M 311.847656 268.363281 " fill-opacity="1" fill-rule="nonzero"/><path fill="#243047" d="M 311.847656 229.558594 L 344.199219 229.558594 L 344.199219 262.203125 L 311.847656 262.203125 Z M 311.847656 229.558594 " fill-opacity="1" fill-rule="nonzero"/><path fill="#243047" d="M 234.847656 262.207031 L 267.203125 262.207031 L 267.203125 229.558594 L 234.847656 229.558594 Z M 234.847656 262.207031 " fill-opacity="1" fill-rule="nonzero"/><path fill="#243047" d="M 273.351562 190.765625 L 305.699219 190.765625 L 305.699219 223.40625 L 273.351562 223.40625 Z M 273.351562 190.765625 " fill-opacity="1" fill-rule="nonzero"/><path fill="#243047" d="M 113.199219 252.761719 C 101.980469 252.480469 91.132812 250.691406 80.847656 247.554688 L 80.847656 262.207031 L 113.199219 262.207031 Z M 113.199219 252.761719 " fill-opacity="1" fill-rule="nonzero"/><g clip-path="url(#4508c88e62)"><path fill="#243047" d="M 225.746094 184.609375 L 347.273438 184.609375 C 348.972656 184.609375 350.347656 185.984375 350.347656 187.6875 L 350.347656 342.878906 C 350.347656 344.582031 348.972656 345.957031 347.273438 345.957031 L 77.777344 345.957031 C 76.074219 345.957031 74.703125 344.582031 74.703125 342.878906 L 74.703125 245.503906 C 65.976562 242.320312 57.726562 238.148438 50.050781 233.152344 L 50.050781 342.054688 C 50.050781 353.648438 59.402344 363.078125 70.894531 363.078125 L 354.152344 363.078125 C 365.648438 363.078125 374.996094 353.648438 374.996094 342.054688 L 374.996094 167.488281 L 232.726562 167.488281 C 230.820312 173.402344 228.480469 179.121094 225.746094 184.609375 Z M 225.746094 184.609375 " fill-opacity="1" fill-rule="nonzero"/></g><path fill="#243047" d="M 273.351562 229.558594 L 305.699219 229.558594 L 305.699219 262.203125 L 273.351562 262.203125 Z M 273.351562 229.558594 " fill-opacity="1" fill-rule="nonzero"/><path fill="#243047" d="M 234.847656 339.800781 L 267.203125 339.800781 L 267.203125 307.15625 L 234.847656 307.15625 Z M 234.847656 339.800781 " fill-opacity="1" fill-rule="nonzero"/><path fill="#243047" d="M 267.203125 223.40625 L 267.203125 190.765625 L 234.847656 190.765625 L 234.847656 223.40625 Z M 267.203125 223.40625 " fill-opacity="1" fill-rule="nonzero"/></svg>