<svg xmlns="http://www.w3.org/2000/svg" xmlns:xlink="http://www.w3.org/1999/xlink" width="500" zoomAndPan="magnify" viewBox="0 0 375 374.999991" height="500" preserveAspectRatio="xMidYMid meet" version="1.0"><defs><clipPath id="84f856ba0e"><path d="M 166.832031 0 L 324.96875 0 L 324.96875 157.5 L 166.832031 157.5 Z M 166.832031 0 " clip-rule="nonzero"/></clipPath></defs><path fill="#243047" d="M 219.347656 253.332031 C 198.507812 253.332031 178.503906 253.332031 157.660156 253.332031 C 157.660156 255 157.660156 256.667969 157.660156 258.332031 C 178.503906 258.332031 198.507812 258.332031 219.347656 258.332031 C 219.347656 256.667969 219.347656 255 219.347656 253.332031 " fill-opacity="1" fill-rule="evenodd"/><path fill="#243047" d="M 219.347656 265 C 191.007812 265 161.828125 265 133.488281 265 C 133.488281 266.667969 133.488281 269.167969 133.488281 270.832031 C 161.828125 270.832031 191.007812 270.832031 219.347656 270.832031 C 219.347656 269.167969 219.347656 266.667969 219.347656 265 " fill-opacity="1" fill-rule="evenodd"/><path fill="#243047" d="M 219.347656 213.332031 C 191.007812 213.332031 161.828125 213.332031 133.488281 213.332031 C 133.488281 215.832031 133.488281 217.5 133.488281 219.167969 C 161.828125 219.167969 191.007812 219.167969 219.347656 219.167969 C 219.347656 217.5 219.347656 215.832031 219.347656 213.332031 " fill-opacity="1" fill-rule="evenodd"/><path fill="#243047" d="M 219.347656 201.667969 C 198.507812 201.667969 178.503906 201.667969 157.660156 201.667969 C 157.660156 203.332031 157.660156 205 157.660156 206.667969 C 178.503906 206.667969 198.507812 206.667969 219.347656 206.667969 C 219.347656 205 219.347656 203.332031 219.347656 201.667969 " fill-opacity="1" fill-rule="evenodd"/><path fill="#243047" d="M 237.6875 354.167969 L 71.800781 354.167969 L 71.800781 108.332031 L 189.574219 108.332031 L 153.355469 86.667969 L 74.0625 86.667969 C 61.027344 86.667969 50.125 97.6875 50.125 110.847656 L 50.125 351.035156 C 50.125 364.195312 61.027344 375 74.0625 375 L 235.671875 375 C 248.703125 375 259.363281 364.195312 259.363281 351.035156 L 259.363281 148.800781 L 237.6875 136.335938 L 237.6875 354.167969 " fill-opacity="1" fill-rule="evenodd"/><path fill="#243047" d="M 219.347656 277.5 C 191.007812 277.5 161.828125 277.5 133.488281 277.5 C 133.488281 279.167969 133.488281 280.832031 133.488281 282.5 C 161.828125 282.5 191.007812 282.5 219.347656 282.5 C 219.347656 280.832031 219.347656 279.167969 219.347656 277.5 " fill-opacity="1" fill-rule="evenodd"/><path fill="#243047" d="M 219.347656 316.667969 L 133.488281 316.667969 L 133.488281 322.5 L 219.347656 322.5 L 219.347656 316.667969 " fill-opacity="1" fill-rule="evenodd"/><path fill="#243047" d="M 219.347656 305 L 157.660156 305 L 157.660156 310 L 219.347656 310 L 219.347656 305 " fill-opacity="1" fill-rule="evenodd"/><path fill="#243047" d="M 133.488281 334.167969 L 219.347656 334.167969 L 219.347656 329.167969 L 133.488281 329.167969 L 133.488281 334.167969 " fill-opacity="1" fill-rule="evenodd"/><path fill="#243047" d="M 219.347656 225.832031 C 191.007812 225.832031 161.828125 225.832031 133.488281 225.832031 C 133.488281 227.5 133.488281 229.167969 133.488281 230.832031 C 161.828125 230.832031 191.007812 230.832031 219.347656 230.832031 C 219.347656 229.167969 219.347656 227.5 219.347656 225.832031 " fill-opacity="1" fill-rule="evenodd"/><path fill="#243047" d="M 116.8125 224.847656 C 116.8125 225.816406 116.636719 226.660156 115.949219 227.214844 C 115.398438 227.90625 114.667969 228.332031 113.707031 228.332031 C 108.085938 228.332031 102.460938 228.332031 96.832031 228.332031 C 95.875 228.332031 95.085938 227.90625 94.398438 227.214844 C 93.851562 226.660156 93.472656 225.816406 93.472656 224.847656 C 93.472656 219.167969 93.472656 213.488281 93.472656 207.808594 C 93.472656 206.84375 93.851562 205.917969 94.398438 205.226562 C 95.085938 204.671875 95.875 204.167969 96.832031 204.167969 C 102.460938 204.167969 108.085938 204.167969 113.707031 204.167969 C 114.53125 204.167969 115.398438 204.671875 115.949219 205.226562 C 116.636719 205.917969 116.8125 206.84375 116.8125 207.808594 C 116.8125 213.488281 116.8125 219.167969 116.8125 224.847656 Z M 122.648438 207.808594 C 122.648438 205.320312 121.609375 203.28125 119.964844 201.617188 C 118.453125 199.957031 116.042969 199.167969 113.707031 199.167969 C 108.085938 199.167969 102.460938 199.167969 96.832031 199.167969 C 94.367188 199.167969 92.03125 199.957031 90.382812 201.617188 C 88.738281 203.28125 87.636719 205.320312 87.636719 207.808594 C 87.636719 213.488281 87.636719 219.167969 87.636719 224.847656 C 87.636719 227.339844 88.738281 229.367188 90.382812 230.890625 C 92.03125 232.554688 94.367188 233.332031 96.832031 233.332031 C 102.460938 233.332031 108.085938 233.332031 113.707031 233.332031 C 116.042969 233.332031 118.453125 232.554688 119.964844 230.890625 C 121.609375 229.367188 122.648438 227.203125 122.648438 224.847656 C 122.648438 219.167969 122.648438 213.488281 122.648438 207.808594 " fill-opacity="1" fill-rule="evenodd"/><path fill="#243047" d="M 116.8125 328.042969 C 116.8125 329.011719 116.636719 329.925781 115.949219 330.476562 C 115.398438 331.171875 114.667969 331.667969 113.707031 331.667969 L 96.832031 331.667969 C 95.875 331.667969 95.085938 331.171875 94.398438 330.476562 C 93.851562 329.925781 93.472656 329.011719 93.472656 328.042969 L 93.472656 311.003906 C 93.472656 310.035156 93.851562 309.183594 94.398438 308.488281 C 95.085938 307.9375 95.875 307.5 96.832031 307.5 L 113.707031 307.5 C 114.53125 307.5 115.398438 307.9375 115.949219 308.488281 C 116.636719 309.183594 116.8125 310.035156 116.8125 311.003906 Z M 113.707031 301.667969 L 96.832031 301.667969 C 94.367188 301.667969 92.03125 302.800781 90.382812 304.464844 C 88.738281 306.125 87.636719 308.511719 87.636719 311.003906 L 87.636719 328.042969 C 87.636719 330.535156 88.738281 332.5625 90.382812 334.226562 C 92.03125 335.75 94.367188 336.667969 96.832031 336.667969 L 113.707031 336.667969 C 116.042969 336.667969 118.480469 335.9375 120.148438 334.414062 L 120.148438 334.277344 C 121.816406 332.75 122.648438 330.535156 122.648438 328.042969 L 122.648438 311.003906 C 122.648438 308.511719 121.609375 306.125 119.964844 304.464844 C 118.453125 302.800781 116.042969 301.667969 113.707031 301.667969 " fill-opacity="1" fill-rule="evenodd"/><path fill="#243047" d="M 116.8125 173.179688 C 116.8125 174.148438 116.636719 174.992188 115.949219 175.6875 C 115.398438 176.238281 114.667969 176.667969 113.707031 176.667969 L 96.832031 176.667969 C 95.875 176.667969 95.085938 176.238281 94.398438 175.6875 C 93.851562 174.992188 93.472656 174.148438 93.472656 173.179688 L 93.472656 156.140625 C 93.472656 155.175781 93.851562 154.25 94.398438 153.699219 C 95.085938 153.003906 95.875 152.5 96.832031 152.5 L 113.707031 152.5 C 114.53125 152.5 115.398438 153.003906 115.949219 153.699219 C 116.636719 154.25 116.8125 155.175781 116.8125 156.140625 Z M 122.648438 156.140625 C 122.648438 153.652344 121.816406 151.433594 120.148438 149.910156 L 120.148438 149.773438 C 118.480469 148.25 116.042969 147.5 113.707031 147.5 L 96.832031 147.5 C 94.367188 147.5 92.03125 148.425781 90.382812 149.949219 C 88.738281 151.613281 87.636719 153.652344 87.636719 156.140625 L 87.636719 173.179688 C 87.636719 175.671875 88.738281 178.046875 90.382812 179.710938 C 92.03125 181.375 94.367188 182.5 96.832031 182.5 L 113.707031 182.5 C 116.042969 182.5 118.453125 181.375 119.964844 179.710938 C 121.609375 178.046875 122.648438 175.671875 122.648438 173.179688 L 122.648438 156.140625 " fill-opacity="1" fill-rule="evenodd"/><path fill="#243047" d="M 116.8125 276.375 C 116.8125 277.347656 116.636719 278.257812 115.949219 278.949219 C 115.398438 279.503906 114.667969 280 113.707031 280 C 108.085938 280 102.460938 280 96.832031 280 C 95.875 280 95.085938 279.503906 94.398438 278.949219 C 93.851562 278.257812 93.472656 277.347656 93.472656 276.375 C 93.472656 270.695312 93.472656 265.015625 93.472656 259.339844 C 93.472656 258.367188 93.851562 257.515625 94.398438 256.960938 C 95.085938 256.269531 95.875 255.832031 96.832031 255.832031 C 102.460938 255.832031 108.085938 255.832031 113.707031 255.832031 C 114.53125 255.832031 115.398438 256.269531 115.949219 256.960938 C 116.636719 257.515625 116.8125 258.367188 116.8125 259.339844 C 116.8125 265.015625 116.8125 270.695312 116.8125 276.375 Z M 122.648438 259.339844 C 122.648438 256.984375 121.609375 254.808594 119.964844 253.285156 C 118.453125 251.625 116.042969 250.832031 113.707031 250.832031 C 108.085938 250.832031 102.460938 250.832031 96.832031 250.832031 C 94.367188 250.832031 92.03125 251.625 90.382812 253.285156 C 88.738281 254.808594 87.636719 256.84375 87.636719 259.339844 C 87.636719 265.015625 87.636719 270.695312 87.636719 276.375 C 87.636719 278.871094 88.738281 280.894531 90.382812 282.558594 C 92.03125 284.21875 94.367188 285 96.832031 285 C 102.460938 285 108.085938 285 113.707031 285 C 116.042969 285 118.453125 284.21875 119.964844 282.558594 C 121.609375 280.894531 122.648438 278.871094 122.648438 276.375 C 122.648438 270.695312 122.648438 265.015625 122.648438 259.339844 " fill-opacity="1" fill-rule="evenodd"/><path fill="#243047" d="M 219.347656 150 L 157.660156 150 L 157.660156 155 L 219.347656 155 L 219.347656 150 " fill-opacity="1" fill-rule="evenodd"/><path fill="#243047" d="M 219.347656 161.667969 L 133.488281 161.667969 L 133.488281 167.5 L 219.347656 167.5 L 219.347656 161.667969 " fill-opacity="1" fill-rule="evenodd"/><path fill="#243047" d="M 228.519531 130.933594 L 204.253906 116.667969 L 80.96875 116.667969 L 80.96875 137.5 L 228.519531 137.5 L 228.519531 130.933594 " fill-opacity="1" fill-rule="evenodd"/><path fill="#243047" d="M 219.347656 174.167969 L 133.488281 174.167969 L 133.488281 179.167969 L 219.347656 179.167969 L 219.347656 174.167969 " fill-opacity="1" fill-rule="evenodd"/><g clip-path="url(#84f856ba0e)"><path fill="#243047" d="M 323.964844 94.78125 C 326.023438 91.179688 324.816406 86.609375 321.25 84.53125 L 178.035156 1.003906 C 174.472656 -1.070312 169.8125 0.175781 167.894531 3.777344 C 165.835938 7.375 167.074219 11.949219 170.5 14.027344 L 313.933594 97.550781 C 314.894531 98.105469 316.050781 98.382812 316.882812 98.523438 L 316.882812 134.949219 C 315.214844 135.644531 313.445312 137.445312 313.445312 139.660156 C 313.445312 141.460938 314.382812 142.984375 316.050781 143.816406 L 316.050781 143.953125 C 315.214844 146.171875 314.417969 150 312.496094 157.5 C 314.28125 157.5 316.203125 157.5 318.121094 157.5 C 320.042969 157.5 321.824219 157.5 323.746094 157.5 C 321.824219 150 321.050781 146.171875 320.21875 143.953125 L 320.21875 143.816406 C 321.882812 142.984375 322.683594 141.460938 322.683594 139.660156 C 322.683594 137.445312 321.050781 135.644531 319.382812 134.949219 L 319.382812 98.246094 C 321.050781 97.828125 323.003906 96.582031 323.964844 94.78125 " fill-opacity="1" fill-rule="evenodd"/></g><path fill="#243047" d="M 157.746094 84.667969 L 259.679688 144.089844 L 291.097656 89.101562 L 189.164062 29.675781 L 157.746094 84.667969 " fill-opacity="1" fill-rule="evenodd"/></svg>