<svg xmlns="http://www.w3.org/2000/svg" xmlns:xlink="http://www.w3.org/1999/xlink" width="500" zoomAndPan="magnify" viewBox="0 0 375 374.999991" height="500" preserveAspectRatio="xMidYMid meet" version="1.0"><path fill="#243047" d="M 142.828125 274.152344 C 151.355469 283.207031 161.9375 288.984375 174.601562 291.4375 L 174.601562 205.355469 C 173.207031 204.8125 171.363281 204.199219 169.027344 203.492188 C 166.6875 202.804688 164.136719 202.191406 161.394531 201.652344 C 151.214844 198.914062 141.175781 195.660156 131.277344 191.957031 C 121.378906 188.253906 112.496094 183.300781 104.652344 177.121094 C 96.8125 170.941406 90.550781 163.253906 85.898438 154.054688 C 81.21875 144.859375 78.882812 133.394531 78.882812 119.644531 C 78.882812 105.636719 81.574219 93.277344 86.9375 82.59375 C 92.300781 71.886719 99.363281 62.878906 108.171875 55.613281 C 116.960938 48.324219 127.144531 42.6875 138.695312 38.726562 C 150.246094 34.742188 162.222656 32.359375 174.601562 31.507812 L 174.601562 -0.164062 L 198.933594 -0.164062 L 198.933594 31.554688 C 211.308594 32.925781 222.933594 35.613281 233.800781 39.574219 C 244.664062 43.5625 254.234375 49.054688 262.476562 56.0625 C 270.722656 63.066406 277.453125 71.792969 282.699219 82.21875 C 287.917969 92.664062 290.941406 105.023438 291.769531 119.292969 L 233.183594 119.292969 C 232.902344 108.300781 229.476562 98.960938 222.863281 91.273438 C 216.269531 83.585938 208.285156 79.71875 198.957031 79.71875 L 198.957031 152.617188 C 202.261719 153.445312 205.617188 154.269531 209.066406 155.09375 C 212.515625 155.917969 216.152344 156.886719 220.003906 157.972656 C 240.367188 163.46875 256.027344 170.28125 267.035156 178.371094 C 278.019531 186.460938 286.148438 194.929688 291.367188 203.703125 C 296.589844 212.476562 299.683594 221.273438 300.652344 230.070312 C 301.621094 238.867188 302.09375 246.675781 302.09375 253.539062 C 302.09375 259.597656 300.582031 267.191406 297.554688 276.390625 C 294.53125 285.613281 289.097656 294.574219 281.257812 303.371094 C 273.414062 312.167969 262.902344 320 249.695312 326.863281 C 236.492188 333.726562 219.578125 337.832031 198.957031 339.222656 L 198.957031 374.222656 L 174.625 374.222656 L 174.625 339.222656 C 143.820312 337.027344 119.75 327.546875 102.433594 310.800781 C 85.09375 294.054688 75.054688 269.480469 72.316406 237.074219 L 130.496094 237.074219 C 130.191406 252.734375 134.324219 265.070312 142.828125 274.152344 Z M 160.992188 81.792969 C 156.601562 83.160156 152.609375 85.304688 149.039062 88.160156 C 145.472656 91.0625 142.664062 94.621094 140.582031 98.867188 C 138.527344 103.136719 137.488281 108.136719 137.488281 113.890625 C 137.488281 122.972656 140.371094 129.953125 146.160156 134.90625 C 151.921875 139.835938 161.417969 143.820312 174.625 146.839844 L 174.625 79.71875 C 169.921875 79.71875 165.386719 80.402344 160.992188 81.792969 Z M 214.429688 287.949219 C 219.789062 286.15625 224.609375 283.609375 228.863281 280.332031 C 233.113281 277.050781 236.632812 272.972656 239.375 268.160156 C 242.113281 263.371094 243.507812 257.664062 243.507812 251.0625 C 243.507812 240.355469 240.128906 232.335938 233.398438 226.980469 C 226.664062 221.628906 215.183594 216.746094 198.957031 212.359375 L 198.957031 291.4375 C 203.894531 290.894531 209.066406 289.742188 214.429688 287.949219 Z M 214.429688 287.949219 " fill-opacity="1" fill-rule="nonzero"/></svg>