<svg xmlns="http://www.w3.org/2000/svg" xmlns:xlink="http://www.w3.org/1999/xlink" width="192" zoomAndPan="magnify" viewBox="0 0 144 72" height="96" preserveAspectRatio="xMidYMid meet" version="1.0"><defs><clipPath id="122fbca0d8"><path d="M 17.199219 1.199219 L 125.929688 1.199219 L 125.929688 69.757812 L 17.199219 69.757812 Z M 17.199219 1.199219 " clip-rule="nonzero"/></clipPath><clipPath id="50821687ae"><path d="M 20.199219 1.199219 L 122.929688 1.199219 C 124.585938 1.199219 125.929688 2.542969 125.929688 4.199219 L 125.929688 66.757812 C 125.929688 68.414062 124.585938 69.757812 122.929688 69.757812 L 20.199219 69.757812 C 18.542969 69.757812 17.199219 68.414062 17.199219 66.757812 L 17.199219 4.199219 C 17.199219 2.542969 18.542969 1.199219 20.199219 1.199219 Z M 20.199219 1.199219 " clip-rule="nonzero"/></clipPath><clipPath id="29f644d618"><path d="M 15.082031 0 L 129 0 L 129 72 L 15.082031 72 Z M 15.082031 0 " clip-rule="nonzero"/></clipPath></defs><g clip-path="url(#122fbca0d8)"><g clip-path="url(#50821687ae)"><path fill="#f4e7bc" d="M 17.199219 1.199219 L 125.929688 1.199219 L 125.929688 69.757812 L 17.199219 69.757812 Z M 17.199219 1.199219 " fill-opacity="1" fill-rule="nonzero"/></g></g><path fill="#243047" d="M 72.65625 54.117188 L 93.820312 54.117188 C 94.039062 54.117188 94.246094 54.074219 94.445312 53.992188 C 94.644531 53.910156 94.824219 53.792969 94.976562 53.640625 C 95.128906 53.488281 95.246094 53.3125 95.328125 53.109375 C 95.414062 52.910156 95.453125 52.703125 95.453125 52.488281 C 95.453125 52.269531 95.414062 52.0625 95.328125 51.863281 C 95.246094 51.664062 95.128906 51.488281 94.976562 51.335938 C 94.824219 51.179688 94.644531 51.0625 94.445312 50.980469 C 94.246094 50.898438 94.039062 50.855469 93.820312 50.855469 L 72.65625 50.855469 C 72.441406 50.855469 72.234375 50.898438 72.03125 50.980469 C 71.832031 51.0625 71.65625 51.179688 71.503906 51.335938 C 71.351562 51.488281 71.230469 51.664062 71.148438 51.863281 C 71.066406 52.0625 71.023438 52.269531 71.023438 52.488281 C 71.023438 52.703125 71.066406 52.910156 71.148438 53.109375 C 71.230469 53.3125 71.351562 53.488281 71.503906 53.640625 C 71.65625 53.792969 71.832031 53.910156 72.03125 53.992188 C 72.234375 54.074219 72.441406 54.117188 72.65625 54.117188 Z M 72.65625 54.117188 " fill-opacity="1" fill-rule="nonzero"/><path fill="#243047" d="M 72.65625 46.382812 L 114.828125 46.382812 C 115.042969 46.382812 115.253906 46.339844 115.453125 46.257812 C 115.652344 46.175781 115.828125 46.058594 115.980469 45.90625 C 116.136719 45.753906 116.253906 45.574219 116.335938 45.375 C 116.417969 45.175781 116.460938 44.96875 116.460938 44.753906 C 116.460938 44.535156 116.417969 44.328125 116.335938 44.128906 C 116.253906 43.929688 116.136719 43.753906 115.980469 43.597656 C 115.828125 43.445312 115.652344 43.328125 115.453125 43.246094 C 115.253906 43.164062 115.042969 43.121094 114.828125 43.121094 L 72.65625 43.121094 C 72.441406 43.121094 72.234375 43.164062 72.03125 43.246094 C 71.832031 43.328125 71.65625 43.445312 71.503906 43.597656 C 71.351562 43.753906 71.230469 43.929688 71.148438 44.128906 C 71.066406 44.328125 71.023438 44.535156 71.023438 44.753906 C 71.023438 44.96875 71.066406 45.175781 71.148438 45.375 C 71.230469 45.574219 71.351562 45.753906 71.503906 45.90625 C 71.65625 46.058594 71.832031 46.175781 72.03125 46.257812 C 72.234375 46.339844 72.441406 46.382812 72.65625 46.382812 Z M 72.65625 46.382812 " fill-opacity="1" fill-rule="nonzero"/><path fill="#243047" d="M 29.039062 60.820312 L 62.441406 60.820312 C 62.660156 60.820312 62.867188 60.78125 63.066406 60.699219 C 63.265625 60.613281 63.445312 60.496094 63.597656 60.34375 C 63.75 60.191406 63.867188 60.015625 63.949219 59.816406 C 64.035156 59.617188 64.074219 59.40625 64.074219 59.191406 L 64.074219 52.746094 L 52.394531 52.746094 C 52.179688 52.746094 51.972656 52.707031 51.769531 52.625 C 51.570312 52.539062 51.394531 52.421875 51.242188 52.269531 C 51.089844 52.117188 50.96875 51.941406 50.886719 51.742188 C 50.804688 51.542969 50.761719 51.332031 50.761719 51.117188 C 50.761719 50.902344 50.804688 50.691406 50.886719 50.492188 C 50.96875 50.292969 51.089844 50.117188 51.242188 49.964844 C 51.394531 49.8125 51.570312 49.695312 51.769531 49.609375 C 51.972656 49.527344 52.179688 49.488281 52.394531 49.488281 L 64.074219 49.488281 L 64.074219 45.40625 L 52.394531 45.40625 C 52.179688 45.40625 51.972656 45.363281 51.769531 45.28125 C 51.570312 45.199219 51.394531 45.078125 51.242188 44.925781 C 51.089844 44.773438 50.96875 44.597656 50.886719 44.398438 C 50.804688 44.199219 50.761719 43.988281 50.761719 43.773438 C 50.761719 43.558594 50.804688 43.351562 50.886719 43.148438 C 50.96875 42.949219 51.089844 42.773438 51.242188 42.621094 C 51.394531 42.46875 51.570312 42.351562 51.769531 42.269531 C 51.972656 42.183594 52.179688 42.144531 52.394531 42.144531 L 64.074219 42.144531 L 64.074219 35.699219 C 64.074219 35.484375 64.035156 35.277344 63.949219 35.074219 C 63.867188 34.875 63.75 34.699219 63.597656 34.546875 C 63.445312 34.394531 63.265625 34.277344 63.066406 34.195312 C 62.867188 34.109375 62.660156 34.070312 62.441406 34.070312 L 29.039062 34.070312 C 28.820312 34.070312 28.613281 34.109375 28.414062 34.195312 C 28.214844 34.277344 28.035156 34.394531 27.882812 34.546875 C 27.730469 34.699219 27.613281 34.875 27.53125 35.074219 C 27.445312 35.277344 27.40625 35.484375 27.40625 35.699219 L 27.40625 42.144531 L 39.164062 42.144531 C 39.378906 42.144531 39.585938 42.183594 39.789062 42.265625 C 39.988281 42.351562 40.164062 42.46875 40.316406 42.621094 C 40.46875 42.773438 40.589844 42.949219 40.671875 43.148438 C 40.753906 43.351562 40.796875 43.558594 40.796875 43.773438 C 40.796875 43.988281 40.753906 44.199219 40.671875 44.398438 C 40.589844 44.597656 40.46875 44.773438 40.316406 44.925781 C 40.164062 45.078125 39.988281 45.199219 39.789062 45.28125 C 39.585938 45.363281 39.378906 45.40625 39.164062 45.40625 L 27.40625 45.40625 L 27.40625 49.488281 L 39.164062 49.488281 C 39.378906 49.488281 39.585938 49.527344 39.789062 49.609375 C 39.988281 49.695312 40.164062 49.8125 40.316406 49.964844 C 40.46875 50.117188 40.589844 50.292969 40.671875 50.492188 C 40.753906 50.691406 40.796875 50.902344 40.796875 51.117188 C 40.796875 51.332031 40.753906 51.542969 40.671875 51.742188 C 40.589844 51.941406 40.46875 52.117188 40.316406 52.269531 C 40.164062 52.421875 39.988281 52.539062 39.789062 52.625 C 39.585938 52.707031 39.378906 52.746094 39.164062 52.746094 L 27.40625 52.746094 L 27.40625 59.191406 C 27.40625 59.40625 27.445312 59.617188 27.53125 59.816406 C 27.613281 60.015625 27.730469 60.191406 27.882812 60.34375 C 28.035156 60.496094 28.214844 60.613281 28.414062 60.699219 C 28.613281 60.78125 28.820312 60.820312 29.039062 60.820312 Z M 29.039062 60.820312 " fill-opacity="1" fill-rule="nonzero"/><g clip-path="url(#29f644d618)"><path fill="#243047" d="M 121.449219 0 L 22.570312 0 C 22.09375 0 21.617188 0.046875 21.148438 0.140625 C 20.679688 0.238281 20.222656 0.375 19.78125 0.558594 C 19.339844 0.742188 18.917969 0.96875 18.519531 1.234375 C 18.125 1.5 17.753906 1.800781 17.417969 2.140625 C 17.078125 2.480469 16.777344 2.847656 16.511719 3.246094 C 16.246094 3.640625 16.019531 4.0625 15.835938 4.503906 C 15.652344 4.945312 15.515625 5.402344 15.421875 5.871094 C 15.328125 6.339844 15.28125 6.8125 15.28125 7.292969 L 15.28125 64.746094 C 15.285156 65.222656 15.332031 65.695312 15.429688 66.164062 C 15.523438 66.628906 15.664062 67.082031 15.847656 67.523438 C 16.03125 67.960938 16.257812 68.378906 16.523438 68.777344 C 16.789062 69.171875 17.09375 69.539062 17.429688 69.875 C 17.769531 70.210938 18.136719 70.511719 18.535156 70.773438 C 18.929688 71.039062 19.347656 71.261719 19.789062 71.445312 C 20.230469 71.628906 20.6875 71.765625 21.152344 71.859375 C 21.621094 71.953125 22.09375 72 22.570312 72 L 121.449219 72 C 121.929688 72 122.402344 71.953125 122.875 71.859375 C 123.34375 71.761719 123.796875 71.625 124.242188 71.441406 C 124.683594 71.257812 125.101562 71.03125 125.5 70.765625 C 125.898438 70.5 126.265625 70.199219 126.605469 69.859375 C 126.945312 69.519531 127.246094 69.152344 127.511719 68.753906 C 127.777344 68.359375 128.003906 67.9375 128.183594 67.496094 C 128.367188 67.054688 128.507812 66.597656 128.601562 66.128906 C 128.691406 65.660156 128.738281 65.1875 128.738281 64.707031 L 128.738281 7.316406 C 128.742188 6.839844 128.695312 6.363281 128.605469 5.894531 C 128.511719 5.421875 128.375 4.964844 128.191406 4.523438 C 128.011719 4.078125 127.785156 3.65625 127.519531 3.257812 C 127.253906 2.859375 126.953125 2.488281 126.613281 2.148438 C 126.277344 1.808594 125.90625 1.507812 125.507812 1.238281 C 125.109375 0.972656 124.691406 0.746094 124.246094 0.5625 C 123.804688 0.375 123.347656 0.238281 122.875 0.144531 C 122.40625 0.046875 121.929688 0 121.449219 0 Z M 125.472656 64.746094 C 125.472656 65.011719 125.449219 65.273438 125.398438 65.53125 C 125.34375 65.792969 125.269531 66.042969 125.167969 66.289062 C 125.066406 66.53125 124.941406 66.761719 124.796875 66.984375 C 124.648438 67.203125 124.484375 67.40625 124.296875 67.59375 C 124.109375 67.78125 123.90625 67.949219 123.6875 68.09375 C 123.46875 68.242188 123.234375 68.367188 122.992188 68.46875 C 122.746094 68.570312 122.496094 68.644531 122.234375 68.699219 C 121.976562 68.75 121.714844 68.777344 121.449219 68.777344 L 22.570312 68.777344 C 22.042969 68.769531 21.53125 68.664062 21.042969 68.457031 C 20.554688 68.25 20.125 67.957031 19.75 67.578125 C 19.378906 67.203125 19.089844 66.769531 18.890625 66.277344 C 18.6875 65.789062 18.585938 65.277344 18.585938 64.746094 L 18.585938 25.839844 L 125.472656 25.839844 Z M 125.472656 11.960938 L 18.585938 11.960938 L 18.585938 7.292969 C 18.585938 6.761719 18.6875 6.25 18.890625 5.761719 C 19.089844 5.269531 19.378906 4.835938 19.75 4.460938 C 20.125 4.082031 20.554688 3.789062 21.042969 3.582031 C 21.53125 3.375 22.042969 3.269531 22.570312 3.261719 L 121.449219 3.261719 C 121.714844 3.261719 121.976562 3.289062 122.234375 3.339844 C 122.496094 3.394531 122.746094 3.46875 122.992188 3.570312 C 123.234375 3.671875 123.46875 3.796875 123.6875 3.945312 C 123.90625 4.089844 124.109375 4.257812 124.296875 4.445312 C 124.484375 4.632812 124.648438 4.835938 124.796875 5.054688 C 124.941406 5.277344 125.066406 5.507812 125.167969 5.75 C 125.269531 5.996094 125.34375 6.246094 125.398438 6.507812 C 125.449219 6.765625 125.472656 7.027344 125.472656 7.292969 Z M 125.472656 11.960938 " fill-opacity="1" fill-rule="nonzero"/></g></svg>