<?xml version="1.0" encoding="UTF-8"?>
<svg width="512px" height="512px" viewBox="0 0 512 512" version="1.1" xmlns="http://www.w3.org/2000/svg" xmlns:xlink="http://www.w3.org/1999/xlink">
    <title>easypaisa</title>
    <g id="Page-1" stroke="none" stroke-width="1" fill="none" fill-rule="evenodd">
        <g id="easypaisa">
            <rect id="Rectangle" fill="#332C3D" x="0" y="0" width="512" height="512" rx="24"></rect>
            <path d="M262.5,40 C358.873689,40 437,104.694854 437,184.5 C437,264.305146 358.873689,312.888484 262.5,312.888484 C167.503705,310.961931 101.249321,279.986358 63.7368483,219.961763 C83.9941902,106.145327 150.248574,46.1580731 262.5,40 Z M256,129.895982 C200.588098,135.504278 166.678091,161.882674 154.269979,209.031171 C171.169579,223.937788 205.079586,232.21051 256,233.849335 C307.156683,233.043022 338.151736,218.127671 338.761565,183.463455 C335.568329,145.160638 298.330895,128.449275 256,129.895982 Z" id="Combined-Shape" fill="#FFFFFF"></path>
            <path d="M56.475383,258 C85.0586937,340.012609 163.887742,385.653589 244.93633,385.653589 C312.144726,385.653589 356.697866,356.566498 380.058631,312.667615 L455.373668,359.84506 C429.122318,424.065922 351.28577,470.631884 259.34808,470.631884 C145.853564,470.631884 48.66404,394.145836 56.4362456,261.147144 C56.4362456,260.088239 56.44933,259.039218 56.475383,258 Z" id="Combined-Shape" fill="#00C252"></path>
        </g>
    </g>
</svg>