<svg xmlns="http://www.w3.org/2000/svg" xmlns:xlink="http://www.w3.org/1999/xlink" width="500" zoomAndPan="magnify" viewBox="0 0 375 374.999991" height="500" preserveAspectRatio="xMidYMid meet" version="1.0"><path fill="#243047" d="M 373.921875 348.105469 L 360.300781 287.027344 C 359.570312 283.804688 357.078125 281.460938 354.148438 281.460938 L 344.410156 281.460938 C 343.238281 281.460938 342.136719 281.023438 341.332031 280.144531 L 308.667969 245.722656 L 312.699219 276.703125 C 313.0625 279.117188 311.011719 281.535156 308.449219 281.460938 L 243.636719 281.460938 C 240.707031 281.460938 238.214844 283.734375 237.484375 287.027344 L 224.007812 348.105469 C 223.421875 350.597656 224.007812 353.160156 225.472656 354.992188 C 226.132812 355.871094 227.671875 357.335938 230.085938 357.335938 L 367.84375 357.335938 C 372.238281 357.335938 374.949219 352.28125 373.921875 348.105469 Z M 302.882812 349.277344 C 302.882812 349.277344 284.136719 349.277344 284.136719 349.277344 C 281.792969 349.277344 279.886719 347.375 279.886719 345.03125 L 279.886719 297.5 C 279.886719 295.15625 281.792969 293.253906 284.136719 293.253906 L 302.882812 293.253906 C 312.113281 293.179688 318.847656 301.382812 317.96875 310.390625 C 317.96875 314.710938 316.210938 318.519531 313.355469 321.304688 C 323.023438 330.53125 317.238281 349.425781 302.882812 349.277344 Z M 224.742188 305.335938 C 220.492188 306.582031 216.246094 307.535156 211.925781 308.339844 C 224.886719 295.085938 235.140625 270.257812 240.414062 238.910156 C 271.757812 233.566406 296.660156 223.3125 309.839844 210.421875 C 308.667969 216.941406 306.984375 223.386719 304.789062 229.683594 C 301.859375 228.144531 298.050781 230.636719 298.5625 234.003906 L 299.589844 241.988281 C 294.09375 253.414062 286.773438 263.886719 277.910156 273.113281 L 243.707031 273.113281 C 236.824219 273.113281 230.890625 278.167969 229.28125 285.34375 Z M 231.625 240.230469 C 214.046875 333.167969 166.296875 333.09375 148.722656 240.230469 C 174.28125 243.820312 206.066406 243.820312 231.625 240.230469 Z M 139.859375 238.910156 C 145.207031 270.257812 155.460938 295.15625 168.421875 308.414062 C 118.695312 299.40625 79.367188 260.078125 70.359375 210.351562 C 83.539062 223.3125 108.441406 233.566406 139.859375 238.910156 Z M 138.542969 147.148438 C 136.785156 160.109375 135.832031 174.023438 135.832031 188.597656 C 135.832031 203.171875 136.785156 217.085938 138.542969 230.050781 C 45.605469 212.398438 45.679688 164.796875 138.542969 147.148438 Z M 241.804688 230.050781 C 245.394531 204.417969 245.394531 172.78125 241.804688 147.148438 C 284.941406 155.128906 311.453125 171.609375 311.890625 188.597656 C 311.304688 206.027344 284.792969 221.996094 241.804688 230.050781 Z M 240.488281 138.285156 C 235.140625 106.941406 224.960938 82.113281 211.996094 68.855469 C 261.726562 77.863281 300.980469 117.121094 309.988281 166.847656 C 296.660156 153.8125 271.832031 143.632812 240.488281 138.285156 Z M 233.015625 145.683594 C 234.921875 158.71875 236.019531 173.074219 236.019531 188.523438 C 236.019531 203.976562 234.921875 218.332031 233.015625 231.441406 C 207.457031 235.398438 172.816406 235.324219 147.257812 231.441406 C 143.300781 205.882812 143.300781 171.242188 147.257812 145.683594 C 172.816406 141.800781 207.457031 141.800781 233.015625 145.683594 Z M 148.722656 136.96875 C 166.519531 44.101562 213.753906 43.808594 231.625 136.96875 C 206.066406 133.378906 174.28125 133.378906 148.722656 136.96875 Z M 145.425781 105.109375 L 152.675781 72.738281 C 157.800781 71.054688 163.003906 69.808594 168.347656 68.855469 C 155.386719 82.113281 145.207031 106.941406 139.859375 138.210938 C 108.441406 143.558594 83.539062 153.8125 70.285156 166.847656 C 70.652344 164.941406 71.015625 163.039062 71.457031 161.207031 C 74.09375 161.355469 76.511719 159.15625 76.070312 156.375 C 75.703125 153.8125 75.410156 151.175781 75.117188 148.539062 C 78.925781 137.480469 84.347656 126.933594 91.378906 117.265625 L 131 117.265625 C 137.957031 117.339844 143.816406 112.285156 145.425781 105.109375 Z M 20.558594 108.84375 L 30.296875 108.84375 C 31.46875 108.84375 32.570312 109.285156 33.375 110.164062 L 65.964844 144.582031 C 64.644531 134.402344 63.253906 123.929688 61.9375 113.605469 C 61.570312 111.113281 63.621094 108.769531 66.183594 108.769531 L 131 108.769531 C 133.855469 108.769531 136.34375 106.5 137.078125 103.203125 C 137.078125 103.132812 150.699219 42.125 150.699219 42.050781 C 151.285156 39.636719 150.699219 37.074219 149.234375 35.242188 C 148.574219 34.363281 147.035156 32.824219 144.621094 32.824219 L 6.9375 32.824219 C 1.808594 33.265625 0.0507812 37.804688 0.785156 42.050781 C 0.785156 42.050781 14.480469 103.203125 14.480469 103.203125 C 15.210938 106.5 17.703125 108.84375 20.558594 108.84375 Z M 51.976562 93.757812 C 51.976562 93.757812 69.625 46.226562 69.625 46.226562 C 70.871094 42.636719 76.363281 42.566406 77.609375 46.226562 C 77.609375 46.226562 95.257812 93.757812 95.257812 93.757812 C 96.0625 95.953125 94.964844 98.445312 92.769531 99.25 C 90.570312 100.054688 88.15625 98.957031 87.277344 96.761719 L 79.511719 75.742188 L 67.796875 75.742188 L 59.957031 96.761719 C 57.910156 101.886719 50 99.03125 51.976562 93.757812 Z M 309.476562 332.070312 C 309.988281 336.390625 307.570312 340.710938 302.882812 340.710938 L 288.382812 340.710938 L 288.382812 325.476562 L 302.882812 325.476562 C 306.546875 325.476562 309.476562 328.40625 309.476562 332.070312 Z M 309.476562 308.339844 C 309.988281 312.660156 307.570312 316.980469 302.882812 316.980469 L 288.382812 316.980469 L 288.382812 301.675781 L 302.882812 301.675781 C 306.546875 301.675781 309.476562 304.679688 309.476562 308.339844 Z M 76.363281 67.246094 L 70.945312 67.246094 L 73.652344 59.996094 Z M 222.835938 29.96875 C 220.492188 28.355469 220.492188 24.621094 222.835938 23.011719 C 222.835938 23.011719 245.320312 6.972656 245.320312 6.972656 C 249.859375 3.75 254.765625 10.632812 250.300781 13.929688 L 239.609375 21.621094 L 361.328125 21.621094 C 363.671875 21.621094 365.574219 23.523438 365.574219 25.867188 L 365.574219 220.75 C 365.574219 223.09375 363.671875 224.996094 361.328125 224.996094 C 358.984375 224.996094 357.078125 223.09375 357.078125 220.75 L 357.078125 30.042969 L 237.703125 30.042969 C 237.703125 30.042969 250.300781 39.050781 250.300781 39.050781 C 254.839844 42.34375 249.859375 49.15625 245.320312 46.007812 C 245.320312 46.007812 222.835938 29.96875 222.835938 29.96875 Z M 152.894531 345.03125 C 155.238281 346.644531 155.238281 350.378906 152.894531 351.988281 C 152.894531 351.988281 130.414062 368.027344 130.414062 368.027344 C 125.871094 371.25 120.964844 364.367188 125.433594 361.070312 L 136.125 353.378906 L 14.480469 353.378906 C 12.136719 353.378906 10.230469 351.476562 10.230469 349.132812 L 10.230469 154.324219 C 10.230469 151.980469 12.136719 150.078125 14.480469 150.078125 C 16.824219 150.078125 18.726562 151.980469 18.726562 154.324219 L 18.726562 344.957031 L 138.027344 344.957031 C 138.027344 344.957031 125.433594 335.949219 125.433594 335.949219 C 120.890625 332.65625 125.871094 325.84375 130.414062 328.992188 Z M 152.894531 345.03125 " fill-opacity="1" fill-rule="nonzero"/></svg>