<svg xmlns="http://www.w3.org/2000/svg" xmlns:xlink="http://www.w3.org/1999/xlink" width="500" zoomAndPan="magnify" viewBox="0 0 375 374.999991" height="500" preserveAspectRatio="xMidYMid meet" version="1.0"><path fill="#ff3131" d="M 318.371094 220.769531 C 316.949219 226.40625 313.933594 232.316406 308.4375 234.183594 C 303.921875 235.738281 299.007812 234.132812 294.449219 232.695312 C 277.585938 227.378906 260.027344 224.292969 242.363281 223.535156 C 239.957031 223.433594 237.246094 223.226562 235.71875 221.363281 C 234.847656 220.296875 234.566406 218.890625 234.339844 217.539062 C 233.425781 211.832031 233.324219 206.007812 234.046875 200.277344 C 234.425781 197.269531 234.933594 193.886719 233.074219 191.5 C 232.039062 190.179688 230.464844 189.4375 228.921875 188.773438 C 203.890625 178.074219 174.058594 179.296875 149.984375 192.023438 C 153.101562 198.441406 154.714844 205.59375 154.644531 212.730469 C 154.617188 214.703125 154.4375 216.789062 153.265625 218.375 C 152.078125 219.976562 150.113281 220.761719 148.257812 221.46875 C 128.542969 228.972656 108.835938 236.484375 89.132812 243.992188 C 87.625 244.570312 85.996094 245.144531 84.433594 244.820312 C 84.359375 244.808594 84.296875 244.792969 84.21875 244.773438 C 82.746094 244.378906 81.609375 243.207031 80.617188 242.035156 C 65.976562 224.949219 61.421875 197.839844 73.449219 178.210938 C 85.488281 158.566406 107.070312 146.554688 128.441406 139.617188 C 163.011719 128.378906 200.519531 127.621094 236.21875 134.5 C 258.121094 138.710938 280.128906 146.113281 296.8125 160.917969 C 313.492188 175.722656 323.859375 199.148438 318.371094 220.769531 Z M 55.164062 190.707031 L 55.148438 190.671875 L 55.171875 190.679688 C 55.164062 190.707031 55.164062 190.707031 55.164062 190.707031 Z M 187.5 0 C 83.945312 0 0 83.945312 0 187.5 C 0 291.054688 83.945312 375 187.5 375 C 291.054688 375 375 291.054688 375 187.5 C 375 83.945312 291.054688 0 187.5 0 " fill-opacity="1" fill-rule="nonzero"/></svg>