<svg xmlns="http://www.w3.org/2000/svg" xmlns:xlink="http://www.w3.org/1999/xlink" width="500" zoomAndPan="magnify" viewBox="0 0 375 374.999991" height="500" preserveAspectRatio="xMidYMid meet" version="1.0"><path fill="#243047" d="M 187.5 375 C 184.429688 375 181.363281 374.925781 178.300781 374.773438 C 175.234375 374.625 172.175781 374.398438 169.121094 374.097656 C 166.066406 373.796875 163.023438 373.421875 159.988281 372.96875 C 156.953125 372.519531 153.929688 371.996094 150.921875 371.398438 C 147.910156 370.796875 144.917969 370.125 141.941406 369.378906 C 138.964844 368.636719 136.007812 367.816406 133.070312 366.925781 C 130.136719 366.035156 127.222656 365.074219 124.332031 364.039062 C 121.445312 363.003906 118.582031 361.902344 115.746094 360.726562 C 112.910156 359.554688 110.105469 358.308594 107.332031 356.996094 C 104.558594 355.6875 101.820312 354.308594 99.113281 352.859375 C 96.40625 351.414062 93.738281 349.902344 91.105469 348.324219 C 88.472656 346.746094 85.882812 345.105469 83.332031 343.402344 C 80.777344 341.695312 78.269531 339.929688 75.804688 338.101562 C 73.339844 336.273438 70.921875 334.386719 68.550781 332.441406 C 66.179688 330.492188 63.855469 328.488281 61.582031 326.429688 C 59.308594 324.367188 57.085938 322.253906 54.917969 320.082031 C 52.746094 317.914062 50.632812 315.691406 48.570312 313.417969 C 46.511719 311.144531 44.507812 308.820312 42.558594 306.449219 C 40.613281 304.078125 38.726562 301.660156 36.898438 299.195312 C 35.070312 296.730469 33.304688 294.222656 31.597656 291.667969 C 29.894531 289.117188 28.253906 286.527344 26.675781 283.894531 C 25.097656 281.261719 23.585938 278.59375 22.140625 275.886719 C 20.691406 273.179688 19.3125 270.441406 18.003906 267.667969 C 16.691406 264.894531 15.445312 262.089844 14.273438 259.253906 C 13.097656 256.417969 11.996094 253.554688 10.960938 250.667969 C 9.925781 247.777344 8.964844 244.863281 8.074219 241.929688 C 7.183594 238.992188 6.363281 236.035156 5.621094 233.058594 C 4.875 230.082031 4.203125 227.089844 3.601562 224.078125 C 3.003906 221.070312 2.480469 218.046875 2.03125 215.011719 C 1.578125 211.976562 1.203125 208.933594 0.902344 205.878906 C 0.601562 202.824219 0.375 199.765625 0.226562 196.699219 C 0.0742188 193.636719 0 190.570312 0 187.5 C 0 184.429688 0.0742188 181.363281 0.226562 178.300781 C 0.375 175.234375 0.601562 172.175781 0.902344 169.121094 C 1.203125 166.066406 1.578125 163.023438 2.03125 159.988281 C 2.480469 156.953125 3.003906 153.929688 3.601562 150.921875 C 4.203125 147.910156 4.875 144.917969 5.621094 141.941406 C 6.363281 138.964844 7.183594 136.007812 8.074219 133.070312 C 8.964844 130.136719 9.925781 127.222656 10.960938 124.332031 C 11.996094 121.445312 13.097656 118.582031 14.273438 115.746094 C 15.445312 112.910156 16.691406 110.105469 18.003906 107.332031 C 19.3125 104.558594 20.691406 101.820312 22.140625 99.113281 C 23.585938 96.40625 25.097656 93.738281 26.675781 91.105469 C 28.253906 88.472656 29.894531 85.882812 31.597656 83.332031 C 33.304688 80.777344 35.070312 78.269531 36.898438 75.804688 C 38.726562 73.339844 40.613281 70.921875 42.558594 68.550781 C 44.507812 66.179688 46.511719 63.855469 48.570312 61.582031 C 50.632812 59.308594 52.746094 57.085938 54.917969 54.917969 C 57.085938 52.746094 59.308594 50.632812 61.582031 48.570312 C 63.855469 46.511719 66.179688 44.507812 68.550781 42.558594 C 70.921875 40.613281 73.339844 38.726562 75.804688 36.898438 C 78.269531 35.070312 80.777344 33.304688 83.332031 31.597656 C 85.882812 29.894531 88.472656 28.253906 91.105469 26.675781 C 93.738281 25.097656 96.40625 23.585938 99.113281 22.140625 C 101.820312 20.691406 104.558594 19.3125 107.332031 18.003906 C 110.105469 16.691406 112.910156 15.445312 115.746094 14.273438 C 118.582031 13.097656 121.445312 11.996094 124.332031 10.960938 C 127.222656 9.925781 130.136719 8.964844 133.070312 8.074219 C 136.007812 7.183594 138.964844 6.363281 141.941406 5.617188 C 144.917969 4.875 147.910156 4.203125 150.921875 3.601562 C 153.929688 3.003906 156.953125 2.480469 159.988281 2.03125 C 163.023438 1.578125 166.066406 1.203125 169.121094 0.902344 C 172.175781 0.601562 175.234375 0.375 178.300781 0.226562 C 181.363281 0.0742188 184.429688 0 187.5 0 C 190.570312 0 193.636719 0.0742188 196.699219 0.226562 C 199.765625 0.375 202.824219 0.601562 205.878906 0.902344 C 208.933594 1.203125 211.976562 1.578125 215.011719 2.03125 C 218.046875 2.480469 221.070312 3.003906 224.078125 3.601562 C 227.089844 4.203125 230.082031 4.875 233.058594 5.617188 C 236.035156 6.363281 238.992188 7.183594 241.929688 8.074219 C 244.863281 8.964844 247.777344 9.925781 250.667969 10.960938 C 253.554688 11.996094 256.417969 13.097656 259.253906 14.273438 C 262.089844 15.445312 264.894531 16.691406 267.667969 18.003906 C 270.441406 19.3125 273.179688 20.691406 275.886719 22.140625 C 278.59375 23.585938 281.261719 25.097656 283.894531 26.675781 C 286.527344 28.253906 289.117188 29.894531 291.667969 31.597656 C 294.222656 33.304688 296.730469 35.070312 299.195312 36.898438 C 301.660156 38.726562 304.078125 40.613281 306.449219 42.558594 C 308.820312 44.507812 311.144531 46.511719 313.417969 48.570312 C 315.691406 50.632812 317.914062 52.746094 320.082031 54.917969 C 322.253906 57.085938 324.367188 59.308594 326.429688 61.582031 C 328.488281 63.855469 330.492188 66.179688 332.441406 68.550781 C 334.386719 70.921875 336.273438 73.339844 338.101562 75.804688 C 339.929688 78.269531 341.695312 80.777344 343.402344 83.332031 C 345.105469 85.882812 346.746094 88.472656 348.324219 91.105469 C 349.902344 93.738281 351.414062 96.40625 352.859375 99.113281 C 354.308594 101.820312 355.6875 104.558594 356.996094 107.332031 C 358.308594 110.105469 359.554688 112.910156 360.726562 115.746094 C 361.902344 118.582031 363.003906 121.445312 364.039062 124.332031 C 365.074219 127.222656 366.035156 130.136719 366.925781 133.070312 C 367.816406 136.007812 368.636719 138.964844 369.378906 141.941406 C 370.125 144.917969 370.796875 147.910156 371.398438 150.921875 C 371.996094 153.929688 372.519531 156.953125 372.96875 159.988281 C 373.421875 163.023438 373.796875 166.066406 374.097656 169.121094 C 374.398438 172.175781 374.625 175.234375 374.773438 178.300781 C 374.925781 181.363281 375 184.429688 375 187.5 C 374.996094 190.566406 374.917969 193.632812 374.765625 196.695312 C 374.609375 199.761719 374.382812 202.820312 374.078125 205.871094 C 373.773438 208.925781 373.394531 211.96875 372.941406 215 C 372.488281 218.035156 371.960938 221.054688 371.359375 224.0625 C 370.761719 227.074219 370.085938 230.0625 369.339844 233.039062 C 368.589844 236.015625 367.769531 238.96875 366.878906 241.902344 C 365.984375 244.839844 365.019531 247.75 363.984375 250.636719 C 362.949219 253.523438 361.84375 256.386719 360.667969 259.21875 C 359.492188 262.050781 358.25 264.855469 356.9375 267.628906 C 355.625 270.398438 354.242188 273.140625 352.796875 275.84375 C 351.347656 278.546875 349.835938 281.214844 348.257812 283.847656 C 346.679688 286.476562 345.039062 289.066406 343.332031 291.617188 C 341.628906 294.167969 339.863281 296.675781 338.035156 299.136719 C 336.207031 301.601562 334.320312 304.019531 332.371094 306.390625 C 330.425781 308.761719 328.421875 311.082031 326.363281 313.355469 C 324.300781 315.628906 322.1875 317.847656 320.019531 320.019531 C 317.847656 322.1875 315.628906 324.300781 313.355469 326.363281 C 311.082031 328.421875 308.761719 330.425781 306.390625 332.371094 C 304.019531 334.320312 301.601562 336.207031 299.136719 338.035156 C 296.675781 339.863281 294.167969 341.628906 291.617188 343.332031 C 289.066406 345.039062 286.476562 346.679688 283.847656 348.257812 C 281.214844 349.835938 278.546875 351.347656 275.84375 352.796875 C 273.140625 354.242188 270.402344 355.625 267.628906 356.9375 C 264.855469 358.25 262.050781 359.492188 259.21875 360.667969 C 256.386719 361.84375 253.523438 362.949219 250.636719 363.984375 C 247.75 365.019531 244.839844 365.984375 241.902344 366.878906 C 238.96875 367.769531 236.015625 368.589844 233.039062 369.339844 C 230.0625 370.085938 227.074219 370.761719 224.0625 371.359375 C 221.054688 371.960938 218.035156 372.488281 215 372.941406 C 211.96875 373.394531 208.925781 373.773438 205.871094 374.078125 C 202.820312 374.382812 199.761719 374.609375 196.695312 374.765625 C 193.632812 374.917969 190.566406 374.996094 187.5 375 Z M 187.5 16.304688 C 184.699219 16.304688 181.898438 16.375 179.101562 16.511719 C 176.300781 16.648438 173.507812 16.855469 170.71875 17.128906 C 167.929688 17.402344 165.152344 17.746094 162.378906 18.15625 C 159.609375 18.570312 156.847656 19.046875 154.101562 19.59375 C 151.351562 20.140625 148.621094 20.753906 145.902344 21.433594 C 143.183594 22.117188 140.484375 22.863281 137.804688 23.675781 C 135.125 24.488281 132.464844 25.367188 129.824219 26.3125 C 127.1875 27.253906 124.574219 28.261719 121.984375 29.335938 C 119.398438 30.40625 116.835938 31.542969 114.304688 32.742188 C 111.773438 33.9375 109.269531 35.199219 106.800781 36.519531 C 104.328125 37.839844 101.890625 39.21875 99.488281 40.660156 C 97.085938 42.101562 94.71875 43.597656 92.390625 45.15625 C 90.058594 46.710938 87.769531 48.324219 85.519531 49.996094 C 83.269531 51.664062 81.058594 53.386719 78.894531 55.164062 C 76.730469 56.941406 74.609375 58.769531 72.53125 60.652344 C 70.457031 62.535156 68.425781 64.464844 66.445312 66.445312 C 64.464844 68.425781 62.535156 70.457031 60.652344 72.53125 C 58.769531 74.609375 56.941406 76.730469 55.164062 78.894531 C 53.386719 81.058594 51.664062 83.269531 49.996094 85.519531 C 48.324219 87.769531 46.710938 90.058594 45.15625 92.390625 C 43.597656 94.71875 42.101562 97.085938 40.660156 99.488281 C 39.21875 101.890625 37.839844 104.328125 36.519531 106.800781 C 35.199219 109.269531 33.9375 111.773438 32.742188 114.304688 C 31.542969 116.835938 30.40625 119.398438 29.335938 121.984375 C 28.261719 124.574219 27.253906 127.1875 26.3125 129.824219 C 25.367188 132.464844 24.488281 135.125 23.675781 137.804688 C 22.863281 140.484375 22.117188 143.183594 21.433594 145.902344 C 20.753906 148.621094 20.140625 151.351562 19.59375 154.101562 C 19.046875 156.847656 18.570312 159.609375 18.15625 162.378906 C 17.746094 165.152344 17.402344 167.933594 17.128906 170.71875 C 16.855469 173.507812 16.648438 176.300781 16.511719 179.101562 C 16.375 181.898438 16.304688 184.699219 16.304688 187.5 C 16.304688 190.300781 16.375 193.101562 16.511719 195.898438 C 16.648438 198.699219 16.855469 201.492188 17.128906 204.28125 C 17.402344 207.070312 17.746094 209.847656 18.15625 212.621094 C 18.570312 215.390625 19.046875 218.152344 19.59375 220.898438 C 20.140625 223.648438 20.753906 226.378906 21.433594 229.097656 C 22.117188 231.816406 22.863281 234.515625 23.675781 237.195312 C 24.488281 239.875 25.367188 242.535156 26.3125 245.175781 C 27.253906 247.8125 28.261719 250.425781 29.335938 253.015625 C 30.40625 255.601562 31.542969 258.164062 32.742188 260.695312 C 33.9375 263.226562 35.199219 265.730469 36.519531 268.199219 C 37.839844 270.671875 39.21875 273.109375 40.660156 275.511719 C 42.101562 277.914062 43.597656 280.28125 45.15625 282.609375 C 46.710938 284.941406 48.324219 287.230469 49.996094 289.480469 C 51.664062 291.730469 53.386719 293.941406 55.164062 296.105469 C 56.941406 298.269531 58.769531 300.390625 60.652344 302.46875 C 62.535156 304.542969 64.464844 306.574219 66.445312 308.554688 C 68.425781 310.535156 70.457031 312.464844 72.53125 314.347656 C 74.609375 316.230469 76.730469 318.058594 78.894531 319.835938 C 81.058594 321.613281 83.269531 323.335938 85.519531 325.003906 C 87.769531 326.675781 90.058594 328.289062 92.390625 329.84375 C 94.71875 331.402344 97.085938 332.898438 99.488281 334.339844 C 101.890625 335.78125 104.328125 337.160156 106.800781 338.480469 C 109.269531 339.800781 111.773438 341.0625 114.304688 342.257812 C 116.835938 343.457031 119.398438 344.59375 121.984375 345.664062 C 124.574219 346.734375 127.1875 347.746094 129.824219 348.6875 C 132.464844 349.632812 135.125 350.511719 137.804688 351.324219 C 140.484375 352.136719 143.183594 352.882812 145.902344 353.566406 C 148.621094 354.246094 151.351562 354.859375 154.101562 355.40625 C 156.847656 355.953125 159.609375 356.429688 162.378906 356.84375 C 165.152344 357.253906 167.929688 357.597656 170.71875 357.871094 C 173.507812 358.144531 176.300781 358.351562 179.101562 358.488281 C 181.898438 358.625 184.699219 358.695312 187.5 358.695312 C 190.300781 358.695312 193.101562 358.625 195.898438 358.488281 C 198.699219 358.351562 201.492188 358.144531 204.28125 357.871094 C 207.066406 357.597656 209.847656 357.253906 212.621094 356.84375 C 215.390625 356.429688 218.152344 355.953125 220.898438 355.40625 C 223.644531 354.859375 226.378906 354.246094 229.097656 353.566406 C 231.816406 352.882812 234.515625 352.136719 237.195312 351.324219 C 239.875 350.511719 242.535156 349.632812 245.175781 348.6875 C 247.8125 347.746094 250.425781 346.734375 253.015625 345.664062 C 255.601562 344.59375 258.164062 343.457031 260.695312 342.257812 C 263.226562 341.0625 265.730469 339.800781 268.199219 338.480469 C 270.671875 337.160156 273.109375 335.78125 275.511719 334.339844 C 277.914062 332.898438 280.28125 331.402344 282.609375 329.84375 C 284.941406 328.289062 287.230469 326.675781 289.480469 325.003906 C 291.730469 323.335938 293.941406 321.613281 296.105469 319.835938 C 298.269531 318.058594 300.390625 316.230469 302.46875 314.347656 C 304.542969 312.464844 306.574219 310.535156 308.554688 308.554688 C 310.535156 306.574219 312.464844 304.542969 314.347656 302.46875 C 316.230469 300.390625 318.058594 298.269531 319.835938 296.105469 C 321.613281 293.941406 323.335938 291.730469 325.003906 289.480469 C 326.675781 287.230469 328.289062 284.941406 329.84375 282.609375 C 331.402344 280.28125 332.898438 277.914062 334.339844 275.511719 C 335.78125 273.109375 337.160156 270.671875 338.480469 268.199219 C 339.800781 265.730469 341.0625 263.226562 342.257812 260.695312 C 343.457031 258.164062 344.59375 255.601562 345.664062 253.015625 C 346.734375 250.425781 347.746094 247.8125 348.6875 245.175781 C 349.632812 242.535156 350.511719 239.875 351.324219 237.195312 C 352.136719 234.515625 352.882812 231.816406 353.566406 229.097656 C 354.246094 226.378906 354.859375 223.644531 355.40625 220.898438 C 355.953125 218.152344 356.429688 215.390625 356.84375 212.621094 C 357.253906 209.847656 357.597656 207.066406 357.871094 204.28125 C 358.144531 201.492188 358.351562 198.699219 358.488281 195.898438 C 358.625 193.101562 358.695312 190.300781 358.695312 187.5 C 358.691406 184.699219 358.621094 181.898438 358.480469 179.101562 C 358.339844 176.304688 358.132812 173.511719 357.855469 170.726562 C 357.578125 167.9375 357.230469 165.160156 356.820312 162.390625 C 356.40625 159.621094 355.925781 156.859375 355.375 154.113281 C 354.828125 151.367188 354.210938 148.636719 353.527344 145.917969 C 352.84375 143.203125 352.097656 140.503906 351.28125 137.824219 C 350.46875 135.144531 349.585938 132.488281 348.640625 129.851562 C 347.695312 127.214844 346.6875 124.601562 345.613281 122.015625 C 344.539062 119.429688 343.40625 116.867188 342.207031 114.335938 C 341.007812 111.804688 339.746094 109.304688 338.425781 106.835938 C 337.105469 104.367188 335.722656 101.929688 334.28125 99.527344 C 332.84375 97.125 331.34375 94.761719 329.785156 92.433594 C 328.230469 90.105469 326.617188 87.816406 324.949219 85.566406 C 323.277344 83.316406 321.554688 81.109375 319.777344 78.945312 C 318 76.78125 316.171875 74.660156 314.292969 72.585938 C 312.410156 70.507812 310.480469 68.480469 308.5 66.5 C 306.519531 64.519531 304.492188 62.589844 302.414062 60.707031 C 300.339844 58.828125 298.21875 57 296.054688 55.222656 C 293.890625 53.445312 291.683594 51.722656 289.433594 50.050781 C 287.183594 48.382812 284.894531 46.769531 282.566406 45.214844 C 280.238281 43.65625 277.875 42.15625 275.472656 40.71875 C 273.070312 39.277344 270.632812 37.894531 268.164062 36.574219 C 265.695312 35.253906 263.195312 33.992188 260.664062 32.792969 C 258.132812 31.59375 255.570312 30.460938 252.984375 29.386719 C 250.398438 28.3125 247.785156 27.304688 245.148438 26.359375 C 242.511719 25.414062 239.855469 24.53125 237.175781 23.71875 C 234.496094 22.902344 231.796875 22.15625 229.082031 21.472656 C 226.363281 20.789062 223.632812 20.171875 220.886719 19.625 C 218.140625 19.074219 215.378906 18.59375 212.609375 18.179688 C 209.839844 17.769531 207.0625 17.421875 204.273438 17.144531 C 201.488281 16.867188 198.695312 16.660156 195.898438 16.519531 C 193.101562 16.378906 190.300781 16.308594 187.5 16.304688 Z M 187.5 16.304688 " fill-opacity="1" fill-rule="nonzero"/><path fill="#243047" d="M 295.453125 238.148438 L 237.800781 203.566406 C 237.019531 203.097656 236.1875 202.769531 235.300781 202.578125 C 234.410156 202.390625 233.515625 202.351562 232.613281 202.460938 C 231.714844 202.574219 230.855469 202.828125 230.039062 203.226562 C 229.222656 203.625 228.496094 204.148438 227.851562 204.789062 L 219.304688 213.34375 C 217.535156 212.992188 215.785156 212.574219 214.050781 212.09375 C 212.3125 211.613281 210.597656 211.070312 208.902344 210.464844 C 207.203125 209.855469 205.53125 209.1875 203.886719 208.457031 C 202.238281 207.730469 200.621094 206.9375 199.03125 206.089844 C 197.445312 205.242188 195.886719 204.335938 194.367188 203.371094 C 192.84375 202.40625 191.359375 201.390625 189.914062 200.316406 C 188.464844 199.242188 187.0625 198.117188 185.695312 196.941406 C 184.332031 195.765625 183.011719 194.539062 181.738281 193.265625 C 180.464844 191.992188 179.242188 190.675781 178.0625 189.308594 C 176.886719 187.945312 175.761719 186.542969 174.6875 185.09375 C 173.617188 183.648438 172.597656 182.164062 171.632812 180.640625 C 170.667969 179.121094 169.761719 177.566406 168.914062 175.976562 C 168.0625 174.386719 167.273438 172.769531 166.542969 171.121094 C 165.8125 169.476562 165.144531 167.804688 164.539062 166.109375 C 163.929688 164.414062 163.386719 162.695312 162.90625 160.960938 C 162.425781 159.226562 162.007812 157.472656 161.65625 155.707031 L 170.210938 147.15625 C 170.851562 146.515625 171.371094 145.785156 171.769531 144.96875 C 172.167969 144.152344 172.421875 143.296875 172.53125 142.394531 C 172.644531 141.492188 172.605469 140.597656 172.417969 139.710938 C 172.226562 138.824219 171.902344 137.988281 171.433594 137.210938 L 136.851562 79.546875 C 136.695312 79.28125 136.519531 79.027344 136.332031 78.78125 C 136.144531 78.539062 135.945312 78.304688 135.730469 78.082031 C 135.515625 77.859375 135.289062 77.648438 135.050781 77.453125 C 134.8125 77.257812 134.566406 77.074219 134.304688 76.90625 C 134.046875 76.738281 133.78125 76.582031 133.503906 76.445312 C 133.226562 76.308594 132.945312 76.183594 132.65625 76.078125 C 132.363281 75.972656 132.070312 75.882812 131.769531 75.8125 C 131.46875 75.738281 131.164062 75.683594 130.859375 75.648438 C 130.554688 75.609375 130.246094 75.589844 129.9375 75.585938 C 129.628906 75.582031 129.320312 75.597656 129.011719 75.628906 C 128.707031 75.660156 128.402344 75.710938 128.101562 75.777344 C 127.796875 75.84375 127.503906 75.925781 127.210938 76.027344 C 126.917969 76.128906 126.632812 76.246094 126.355469 76.378906 C 126.074219 76.511719 125.804688 76.660156 125.542969 76.820312 C 125.28125 76.984375 125.027344 77.164062 124.789062 77.355469 C 124.546875 77.546875 124.316406 77.753906 124.097656 77.96875 L 89.5 112.570312 C 88.589844 113.480469 87.933594 114.542969 87.523438 115.761719 L 75.996094 150.335938 C 75.695312 151.25 75.558594 152.1875 75.589844 153.144531 C 75.617188 154.105469 75.804688 155.03125 76.160156 155.925781 C 79.351562 163.984375 82.945312 171.859375 86.941406 179.550781 C 90.9375 187.242188 95.316406 194.710938 100.078125 201.953125 C 104.835938 209.195312 109.953125 216.179688 115.425781 222.902344 C 120.898438 229.621094 126.699219 236.046875 132.828125 242.175781 C 138.957031 248.304688 145.378906 254.105469 152.101562 259.578125 C 158.824219 265.050781 165.804688 270.167969 173.050781 274.925781 C 180.292969 279.6875 187.761719 284.0625 195.453125 288.0625 C 203.144531 292.058594 211.019531 295.652344 219.078125 298.84375 C 220.042969 299.226562 221.046875 299.417969 222.085938 299.417969 C 222.96875 299.414062 223.828125 299.277344 224.664062 299.003906 L 259.238281 287.476562 C 260.457031 287.066406 261.515625 286.40625 262.421875 285.5 L 297.023438 250.902344 C 297.242188 250.683594 297.445312 250.453125 297.636719 250.210938 C 297.832031 249.972656 298.007812 249.71875 298.171875 249.457031 C 298.335938 249.195312 298.484375 248.925781 298.617188 248.644531 C 298.75 248.367188 298.867188 248.082031 298.964844 247.789062 C 299.066406 247.496094 299.148438 247.203125 299.214844 246.898438 C 299.28125 246.597656 299.332031 246.292969 299.363281 245.988281 C 299.394531 245.679688 299.410156 245.371094 299.40625 245.0625 C 299.40625 244.753906 299.382812 244.445312 299.347656 244.140625 C 299.308594 243.835938 299.253906 243.53125 299.179688 243.230469 C 299.109375 242.929688 299.019531 242.636719 298.914062 242.34375 C 298.808594 242.054688 298.6875 241.773438 298.546875 241.496094 C 298.410156 241.21875 298.257812 240.953125 298.089844 240.695312 C 297.921875 240.433594 297.738281 240.1875 297.539062 239.949219 C 297.34375 239.710938 297.132812 239.484375 296.914062 239.269531 C 296.691406 239.054688 296.457031 238.855469 296.210938 238.667969 C 295.964844 238.480469 295.710938 238.304688 295.445312 238.148438 Z M 252.257812 272.609375 L 222.355469 282.59375 C 215.074219 279.605469 207.960938 276.265625 201.015625 272.574219 C 194.066406 268.882812 187.320312 264.855469 180.769531 260.496094 C 174.222656 256.136719 167.90625 251.460938 161.820312 246.476562 C 155.734375 241.492188 149.910156 236.214844 144.347656 230.652344 C 138.785156 225.089844 133.507812 219.265625 128.523438 213.179688 C 123.539062 207.09375 118.863281 200.777344 114.503906 194.230469 C 110.144531 187.679688 106.117188 180.933594 102.425781 173.984375 C 98.734375 167.039062 95.394531 159.925781 92.40625 152.644531 L 102.375 122.742188 L 128.238281 96.886719 L 154.175781 140.132812 L 147.152344 147.152344 C 146.246094 148.058594 145.589844 149.121094 145.183594 150.335938 C 144.777344 151.550781 144.664062 152.792969 144.84375 154.0625 C 145.183594 156.445312 145.621094 158.808594 146.152344 161.15625 C 146.679688 163.5 147.304688 165.824219 148.023438 168.121094 C 148.738281 170.414062 149.546875 172.679688 150.449219 174.910156 C 151.347656 177.140625 152.335938 179.332031 153.410156 181.484375 C 154.484375 183.636719 155.648438 185.742188 156.890625 187.800781 C 158.136719 189.859375 159.464844 191.863281 160.871094 193.816406 C 162.277344 195.765625 163.757812 197.660156 165.316406 199.492188 C 166.878906 201.324219 168.507812 203.089844 170.207031 204.792969 C 171.910156 206.492188 173.675781 208.121094 175.507812 209.683594 C 177.339844 211.242188 179.234375 212.722656 181.183594 214.128906 C 183.136719 215.535156 185.140625 216.863281 187.199219 218.109375 C 189.257812 219.351562 191.363281 220.515625 193.515625 221.589844 C 195.667969 222.664062 197.859375 223.652344 200.089844 224.550781 C 202.320312 225.453125 204.585938 226.261719 206.878906 226.976562 C 209.175781 227.695312 211.5 228.320312 213.84375 228.847656 C 216.191406 229.378906 218.554688 229.816406 220.9375 230.15625 C 222.207031 230.332031 223.449219 230.21875 224.664062 229.8125 C 225.878906 229.40625 226.941406 228.753906 227.847656 227.847656 L 234.886719 220.824219 L 278.113281 246.761719 Z M 252.257812 272.609375 " fill-opacity="1" fill-rule="nonzero"/><path fill="#243047" d="M 252.71875 65.21875 C 250.847656 65.21875 248.984375 65.308594 247.125 65.492188 C 245.265625 65.675781 243.417969 65.949219 241.585938 66.3125 C 239.75 66.679688 237.941406 67.132812 236.152344 67.675781 C 234.363281 68.21875 232.605469 68.847656 230.878906 69.5625 C 229.152344 70.277344 227.464844 71.074219 225.816406 71.957031 C 224.167969 72.835938 222.566406 73.796875 221.011719 74.835938 C 219.460938 75.871094 217.960938 76.984375 216.515625 78.171875 C 215.070312 79.355469 213.6875 80.609375 212.367188 81.929688 C 211.042969 83.253906 209.792969 84.636719 208.605469 86.082031 C 207.417969 87.527344 206.308594 89.023438 205.269531 90.578125 C 204.230469 92.132812 203.269531 93.734375 202.390625 95.382812 C 201.507812 97.03125 200.710938 98.71875 199.996094 100.445312 C 199.28125 102.171875 198.652344 103.929688 198.109375 105.71875 C 197.566406 107.507812 197.113281 109.316406 196.75 111.148438 C 196.382812 112.984375 196.109375 114.828125 195.925781 116.6875 C 195.742188 118.550781 195.652344 120.414062 195.652344 122.28125 C 195.652344 124.152344 195.742188 126.015625 195.925781 127.875 C 196.109375 129.734375 196.382812 131.582031 196.75 133.414062 C 197.113281 135.25 197.566406 137.058594 198.109375 138.847656 C 198.652344 140.636719 199.28125 142.394531 199.996094 144.121094 C 200.710938 145.847656 201.507812 147.535156 202.390625 149.183594 C 203.269531 150.832031 204.230469 152.433594 205.269531 153.984375 C 206.308594 155.539062 207.417969 157.039062 208.605469 158.484375 C 209.792969 159.929688 211.042969 161.3125 212.367188 162.632812 C 213.6875 163.957031 215.070312 165.207031 216.515625 166.394531 C 217.960938 167.582031 219.460938 168.691406 221.011719 169.730469 C 222.566406 170.769531 224.167969 171.730469 225.816406 172.609375 C 227.464844 173.492188 229.152344 174.289062 230.878906 175.003906 C 232.605469 175.71875 234.363281 176.347656 236.152344 176.890625 C 237.941406 177.433594 239.75 177.886719 241.585938 178.25 C 243.417969 178.617188 245.265625 178.890625 247.125 179.074219 C 248.984375 179.257812 250.847656 179.347656 252.71875 179.347656 C 254.585938 179.347656 256.449219 179.257812 258.3125 179.074219 C 260.171875 178.890625 262.015625 178.617188 263.851562 178.25 C 265.683594 177.886719 267.492188 177.433594 269.28125 176.890625 C 271.070312 176.347656 272.828125 175.71875 274.554688 175.003906 C 276.28125 174.289062 277.96875 173.492188 279.617188 172.609375 C 281.265625 171.730469 282.867188 170.769531 284.421875 169.730469 C 285.976562 168.691406 287.472656 167.582031 288.917969 166.394531 C 290.363281 165.207031 291.746094 163.957031 293.070312 162.632812 C 294.390625 161.3125 295.644531 159.929688 296.828125 158.484375 C 298.015625 157.039062 299.128906 155.539062 300.164062 153.984375 C 301.203125 152.433594 302.164062 150.832031 303.042969 149.183594 C 303.925781 147.535156 304.722656 145.847656 305.4375 144.121094 C 306.152344 142.394531 306.78125 140.636719 307.324219 138.847656 C 307.867188 137.058594 308.320312 135.25 308.6875 133.414062 C 309.050781 131.582031 309.324219 129.734375 309.507812 127.875 C 309.691406 126.015625 309.78125 124.152344 309.78125 122.28125 C 309.78125 120.414062 309.6875 118.550781 309.5 116.691406 C 309.316406 114.832031 309.039062 112.988281 308.675781 111.15625 C 308.308594 109.324219 307.855469 107.511719 307.308594 105.726562 C 306.765625 103.9375 306.136719 102.179688 305.421875 100.457031 C 304.703125 98.730469 303.90625 97.042969 303.023438 95.394531 C 302.144531 93.75 301.183594 92.148438 300.144531 90.59375 C 299.105469 89.042969 297.992188 87.542969 296.808594 86.097656 C 295.621094 84.65625 294.371094 83.273438 293.046875 81.953125 C 291.726562 80.628906 290.34375 79.378906 288.902344 78.191406 C 287.457031 77.007812 285.957031 75.894531 284.40625 74.855469 C 282.851562 73.816406 281.25 72.855469 279.605469 71.976562 C 277.957031 71.09375 276.269531 70.296875 274.542969 69.578125 C 272.820312 68.863281 271.0625 68.234375 269.273438 67.691406 C 267.488281 67.144531 265.675781 66.691406 263.84375 66.324219 C 262.011719 65.960938 260.167969 65.683594 258.308594 65.5 C 256.449219 65.3125 254.585938 65.21875 252.71875 65.21875 Z M 252.71875 81.523438 C 256.710938 81.519531 260.621094 82.097656 264.441406 83.253906 C 268.265625 84.410156 271.839844 86.097656 275.160156 88.3125 L 218.75 144.722656 C 217.734375 143.195312 216.828125 141.609375 216.03125 139.960938 C 215.230469 138.308594 214.546875 136.613281 213.976562 134.871094 C 213.410156 133.132812 212.957031 131.359375 212.628906 129.554688 C 212.296875 127.753906 212.089844 125.9375 212.003906 124.105469 C 211.921875 122.277344 211.960938 120.449219 212.121094 118.621094 C 212.28125 116.796875 212.566406 114.992188 212.972656 113.203125 C 213.378906 111.417969 213.902344 109.664062 214.546875 107.949219 C 215.1875 106.234375 215.945312 104.566406 216.8125 102.953125 C 217.679688 101.339844 218.652344 99.789062 219.726562 98.308594 C 220.804688 96.824219 221.976562 95.421875 223.242188 94.097656 C 224.507812 92.773438 225.859375 91.539062 227.292969 90.394531 C 228.726562 89.253906 230.226562 88.210938 231.800781 87.273438 C 233.375 86.335938 235.003906 85.503906 236.691406 84.785156 C 238.375 84.066406 240.101562 83.464844 241.871094 82.976562 C 243.636719 82.492188 245.429688 82.128906 247.242188 81.882812 C 249.058594 81.640625 250.886719 81.519531 252.71875 81.523438 Z M 252.71875 163.042969 C 248.722656 163.042969 244.816406 162.464844 240.992188 161.308594 C 237.171875 160.152344 233.597656 158.46875 230.273438 156.253906 L 286.6875 99.839844 C 287.699219 101.367188 288.605469 102.957031 289.402344 104.605469 C 290.203125 106.253906 290.886719 107.949219 291.457031 109.691406 C 292.027344 111.433594 292.476562 113.207031 292.804688 115.007812 C 293.136719 116.8125 293.34375 118.628906 293.429688 120.457031 C 293.515625 122.289062 293.476562 124.117188 293.3125 125.941406 C 293.152344 127.769531 292.867188 129.574219 292.460938 131.363281 C 292.054688 133.148438 291.53125 134.898438 290.886719 136.617188 C 290.246094 138.332031 289.492188 139.996094 288.625 141.613281 C 287.753906 143.226562 286.785156 144.773438 285.707031 146.257812 C 284.628906 147.742188 283.457031 149.144531 282.191406 150.46875 C 280.925781 151.792969 279.574219 153.027344 278.144531 154.167969 C 276.710938 155.3125 275.207031 156.351562 273.632812 157.292969 C 272.058594 158.230469 270.429688 159.058594 268.746094 159.777344 C 267.058594 160.5 265.332031 161.101562 263.566406 161.585938 C 261.796875 162.074219 260.007812 162.4375 258.191406 162.679688 C 256.375 162.925781 254.550781 163.046875 252.71875 163.042969 Z M 252.71875 163.042969 " fill-opacity="1" fill-rule="nonzero"/></svg>