<svg xmlns="http://www.w3.org/2000/svg" xmlns:xlink="http://www.w3.org/1999/xlink" width="500" zoomAndPan="magnify" viewBox="0 0 375 374.999991" height="500" preserveAspectRatio="xMidYMid meet" version="1.0"><defs><clipPath id="282114ba42"><path d="M 18.410156 1 L 355 1 L 355 375 L 18.410156 375 Z M 18.410156 1 " clip-rule="nonzero"/></clipPath></defs><g clip-path="url(#282114ba42)"><path fill="#243047" d="M 180.839844 142.363281 C 180.84375 144.136719 180.59375 145.871094 180.085938 147.574219 C 179.578125 149.273438 178.839844 150.867188 177.863281 152.347656 C 177.179688 153.464844 176.375 154.484375 175.449219 155.414062 C 174.085938 156.769531 172.546875 157.882812 170.832031 158.753906 C 169.121094 159.625 167.316406 160.214844 165.417969 160.523438 L 165.417969 164.332031 C 165.40625 164.75 165.355469 165.160156 165.265625 165.566406 C 165.175781 165.96875 165.046875 166.363281 164.878906 166.742188 C 164.710938 167.125 164.511719 167.484375 164.273438 167.828125 C 164.039062 168.167969 163.769531 168.484375 163.472656 168.773438 C 163.175781 169.0625 162.851562 169.324219 162.503906 169.550781 C 162.15625 169.777344 161.789062 169.96875 161.40625 170.125 C 161.019531 170.28125 160.625 170.398438 160.214844 170.480469 C 159.808594 170.558594 159.394531 170.597656 158.980469 170.597656 C 158.566406 170.597656 158.152344 170.558594 157.746094 170.480469 C 157.335938 170.398438 156.941406 170.28125 156.554688 170.125 C 156.171875 169.96875 155.804688 169.777344 155.457031 169.550781 C 155.109375 169.324219 154.785156 169.0625 154.488281 168.773438 C 154.191406 168.484375 153.921875 168.167969 153.6875 167.828125 C 153.449219 167.484375 153.25 167.125 153.082031 166.742188 C 152.914062 166.363281 152.785156 165.96875 152.695312 165.566406 C 152.605469 165.160156 152.554688 164.75 152.542969 164.332031 L 152.542969 160.523438 C 150.539062 160.203125 148.652344 159.554688 146.875 158.574219 C 145.269531 157.746094 143.828125 156.695312 142.554688 155.414062 C 140.816406 153.6875 139.476562 151.691406 138.535156 149.429688 C 137.59375 147.167969 137.121094 144.8125 137.117188 142.363281 C 137.152344 141.957031 137.222656 141.5625 137.332031 141.175781 C 137.4375 140.785156 137.582031 140.410156 137.757812 140.046875 C 137.9375 139.683594 138.148438 139.339844 138.386719 139.015625 C 138.628906 138.691406 138.898438 138.394531 139.199219 138.121094 C 139.496094 137.847656 139.816406 137.605469 140.15625 137.390625 C 140.5 137.175781 140.859375 136.996094 141.238281 136.851562 C 141.613281 136.703125 142 136.59375 142.398438 136.519531 C 142.792969 136.445312 143.195312 136.40625 143.597656 136.40625 C 144.003906 136.40625 144.402344 136.445312 144.800781 136.519531 C 145.199219 136.59375 145.585938 136.703125 145.960938 136.851562 C 146.335938 136.996094 146.695312 137.175781 147.039062 137.390625 C 147.382812 137.605469 147.703125 137.847656 148 138.121094 C 148.296875 138.394531 148.566406 138.695312 148.808594 139.015625 C 149.050781 139.339844 149.261719 139.683594 149.4375 140.046875 C 149.617188 140.410156 149.757812 140.785156 149.867188 141.175781 C 149.976562 141.5625 150.046875 141.957031 150.082031 142.363281 C 150.078125 143.082031 150.214844 143.777344 150.488281 144.445312 C 150.761719 145.113281 151.152344 145.703125 151.660156 146.21875 C 152.175781 146.742188 152.769531 147.152344 153.449219 147.441406 C 154.125 147.730469 154.832031 147.878906 155.566406 147.890625 L 162.445312 147.890625 C 162.804688 147.882812 163.160156 147.839844 163.515625 147.765625 C 163.867188 147.691406 164.210938 147.582031 164.542969 147.441406 C 164.875 147.296875 165.191406 147.125 165.488281 146.925781 C 165.789062 146.722656 166.066406 146.492188 166.320312 146.238281 C 166.574219 145.984375 166.804688 145.707031 167.007812 145.40625 C 167.207031 145.105469 167.378906 144.792969 167.519531 144.460938 C 167.660156 144.128906 167.769531 143.785156 167.84375 143.433594 C 167.921875 143.078125 167.960938 142.722656 167.96875 142.363281 C 167.953125 140.96875 167.472656 139.761719 166.527344 138.738281 C 166.007812 138.160156 165.390625 137.714844 164.679688 137.398438 C 163.96875 137.082031 163.222656 136.925781 162.445312 136.925781 L 155.566406 136.925781 C 152.488281 136.886719 149.59375 136.140625 146.875 134.695312 C 145.261719 133.839844 143.824219 132.753906 142.554688 131.445312 L 142.226562 131.121094 C 141.074219 129.910156 140.101562 128.566406 139.316406 127.089844 C 138.527344 125.617188 137.953125 124.0625 137.589844 122.429688 C 137.230469 120.796875 137.09375 119.144531 137.179688 117.476562 C 137.269531 115.808594 137.578125 114.179688 138.113281 112.59375 C 138.644531 111.007812 139.382812 109.523438 140.320312 108.140625 C 141.261719 106.757812 142.367188 105.523438 143.644531 104.445312 C 144.917969 103.363281 146.316406 102.472656 147.835938 101.769531 C 149.351562 101.070312 150.9375 100.589844 152.589844 100.320312 L 152.589844 96.1875 C 152.613281 95.769531 152.671875 95.363281 152.773438 94.957031 C 152.875 94.554688 153.015625 94.164062 153.195312 93.789062 C 153.371094 93.414062 153.582031 93.054688 153.828125 92.722656 C 154.074219 92.386719 154.351562 92.078125 154.65625 91.796875 C 154.964844 91.511719 155.292969 91.261719 155.648438 91.046875 C 156.003906 90.828125 156.375 90.644531 156.765625 90.5 C 157.15625 90.355469 157.554688 90.246094 157.964844 90.179688 C 158.375 90.113281 158.789062 90.082031 159.207031 90.09375 C 159.621094 90.109375 160.03125 90.160156 160.4375 90.25 C 160.84375 90.34375 161.238281 90.472656 161.617188 90.640625 C 162 90.808594 162.359375 91.011719 162.703125 91.25 C 163.042969 91.488281 163.359375 91.753906 163.648438 92.054688 C 163.9375 92.355469 164.195312 92.675781 164.421875 93.027344 C 164.648438 93.375 164.839844 93.742188 164.996094 94.128906 C 165.148438 94.515625 165.265625 94.914062 165.34375 95.320312 C 165.421875 95.730469 165.460938 96.140625 165.460938 96.558594 L 165.460938 100.320312 C 167.230469 100.636719 168.921875 101.191406 170.535156 101.988281 C 172.144531 102.789062 173.613281 103.796875 174.9375 105.011719 C 175.128906 105.152344 175.261719 105.339844 175.449219 105.476562 C 176.84375 106.867188 177.984375 108.441406 178.871094 110.195312 C 179.761719 111.949219 180.355469 113.800781 180.652344 115.742188 C 180.824219 116.648438 180.898438 117.5625 180.886719 118.484375 L 180.886719 119.597656 C 180.847656 120.023438 180.769531 120.441406 180.652344 120.851562 C 180.53125 121.261719 180.375 121.65625 180.175781 122.035156 C 179.980469 122.414062 179.746094 122.769531 179.480469 123.101562 C 179.214844 123.433594 178.917969 123.738281 178.589844 124.011719 C 178.261719 124.285156 177.914062 124.527344 177.539062 124.734375 C 177.164062 124.9375 176.773438 125.105469 176.367188 125.234375 C 175.960938 125.363281 175.546875 125.449219 175.121094 125.5 C 174.695312 125.546875 174.273438 125.550781 173.847656 125.515625 C 173.421875 125.476562 173.003906 125.398438 172.59375 125.28125 C 172.183594 125.160156 171.789062 125.003906 171.410156 124.808594 C 171.03125 124.613281 170.675781 124.378906 170.34375 124.113281 C 170.007812 123.847656 169.703125 123.550781 169.429688 123.226562 C 169.15625 122.898438 168.914062 122.546875 168.707031 122.175781 C 168.5 121.800781 168.335938 121.410156 168.203125 121.003906 C 168.074219 120.597656 167.988281 120.183594 167.9375 119.757812 C 167.890625 119.335938 167.886719 118.910156 167.921875 118.484375 C 167.925781 117.859375 167.820312 117.257812 167.597656 116.671875 C 167.308594 115.886719 166.875 115.191406 166.300781 114.582031 C 165.222656 113.546875 163.9375 113.019531 162.445312 113.003906 L 155.515625 113.003906 C 154.804688 113.011719 154.117188 113.152344 153.460938 113.425781 C 152.800781 113.699219 152.214844 114.082031 151.707031 114.582031 L 151.660156 114.582031 C 151.328125 114.871094 151.066406 115.210938 150.871094 115.605469 C 150.3125 116.484375 150.035156 117.445312 150.039062 118.484375 C 150.03125 119.925781 150.511719 121.179688 151.480469 122.246094 C 152.007812 122.785156 152.617188 123.203125 153.308594 123.507812 C 154 123.8125 154.722656 123.980469 155.476562 124.011719 L 162.394531 124.011719 C 164.320312 123.988281 166.203125 124.273438 168.039062 124.859375 C 169.875 125.449219 171.570312 126.3125 173.125 127.449219 C 173.976562 128.011719 174.75 128.660156 175.449219 129.402344 L 175.820312 129.820312 C 178.105469 132.203125 179.609375 135.003906 180.332031 138.226562 C 180.6875 139.582031 180.855469 140.960938 180.839844 142.363281 Z M 346.570312 336.847656 C 345.484375 339.0625 344.28125 341.207031 342.953125 343.285156 C 341.625 345.363281 340.183594 347.359375 338.632812 349.277344 C 337.078125 351.191406 335.425781 353.015625 333.667969 354.746094 C 331.910156 356.476562 330.058594 358.101562 328.121094 359.621094 C 326.179688 361.144531 324.160156 362.550781 322.058594 363.84375 C 319.960938 365.140625 317.792969 366.3125 315.5625 367.359375 C 313.332031 368.410156 311.046875 369.332031 308.714844 370.125 C 306.378906 370.917969 304.003906 371.578125 301.597656 372.105469 C 295.765625 373.53125 289.847656 374.242188 283.847656 374.242188 C 277.238281 374.175781 270.730469 373.320312 264.328125 371.679688 C 257.925781 370.035156 251.8125 367.65625 245.984375 364.535156 C 238.585938 360.550781 231.445312 356.152344 224.558594 351.339844 L 220.9375 348.972656 C 207.046875 339.773438 193.246094 330.484375 179.398438 321.144531 L 170.988281 315.480469 C 170.128906 314.980469 169.3125 314.421875 168.539062 313.800781 C 167.765625 313.179688 167.042969 312.503906 166.371094 311.773438 C 165.699219 311.042969 165.085938 310.265625 164.53125 309.441406 C 163.976562 308.621094 163.488281 307.757812 163.0625 306.863281 C 162.636719 305.964844 162.28125 305.042969 161.996094 304.089844 C 161.710938 303.140625 161.5 302.175781 161.359375 301.191406 C 161.21875 300.210938 161.15625 299.222656 161.164062 298.230469 C 161.175781 297.238281 161.257812 296.25 161.417969 295.273438 C 161.59375 293.9375 161.890625 292.628906 162.304688 291.347656 C 162.71875 290.070312 163.242188 288.835938 163.878906 287.648438 C 164.515625 286.464844 165.253906 285.34375 166.089844 284.289062 C 166.929688 283.238281 167.855469 282.269531 168.867188 281.382812 C 169.882812 280.496094 170.964844 279.707031 172.121094 279.019531 C 173.277344 278.328125 174.484375 277.746094 175.746094 277.273438 C 177.007812 276.804688 178.300781 276.449219 179.625 276.207031 C 180.949219 275.96875 182.285156 275.851562 183.632812 275.855469 C 185.804688 276 187.914062 276.449219 189.960938 277.199219 C 192.007812 277.949219 193.90625 278.972656 195.660156 280.265625 C 199.984375 283.195312 204.355469 286.121094 208.8125 289.140625 L 210.671875 290.394531 L 205.519531 273.019531 C 199.242188 251.960938 192.984375 230.917969 186.75 209.890625 C 184.890625 210.539062 183.011719 211.121094 181.113281 211.636719 C 179.214844 212.152344 177.296875 212.601562 175.367188 212.980469 C 173.4375 213.363281 171.496094 213.675781 169.542969 213.921875 C 167.589844 214.167969 165.632812 214.34375 163.664062 214.453125 C 161.699219 214.5625 159.734375 214.601562 157.765625 214.574219 C 155.796875 214.542969 153.835938 214.445312 151.875 214.277344 C 149.914062 214.113281 147.960938 213.875 146.015625 213.574219 C 144.070312 213.269531 142.140625 212.898438 140.222656 212.460938 C 138.300781 212.019531 136.402344 211.515625 134.519531 210.941406 C 132.636719 210.371094 130.773438 209.734375 128.9375 209.03125 C 127.097656 208.328125 125.285156 207.5625 123.5 206.734375 C 121.71875 205.902344 119.964844 205.011719 118.242188 204.0625 C 116.519531 203.109375 114.832031 202.097656 113.179688 201.027344 C 111.527344 199.957031 109.917969 198.832031 108.34375 197.648438 C 106.773438 196.464844 105.242188 195.226562 103.757812 193.9375 C 102.269531 192.648438 100.832031 191.304688 99.441406 189.914062 C 98.484375 188.960938 97.550781 187.984375 96.640625 186.984375 C 95.730469 185.984375 94.847656 184.960938 93.988281 183.917969 C 93.128906 182.875 92.292969 181.8125 91.484375 180.730469 C 90.675781 179.648438 89.890625 178.546875 89.136719 177.425781 C 88.378906 176.304688 87.652344 175.167969 86.949219 174.011719 C 86.25 172.855469 85.574219 171.683594 84.929688 170.496094 C 84.285156 169.308594 83.671875 168.105469 83.082031 166.890625 C 82.496094 165.671875 81.9375 164.441406 81.410156 163.195312 C 80.882812 161.953125 80.386719 160.695312 79.917969 159.429688 C 79.453125 158.160156 79.015625 156.882812 78.609375 155.59375 C 78.203125 154.300781 77.828125 153.003906 77.488281 151.695312 C 77.144531 150.390625 76.832031 149.074219 76.550781 147.753906 C 76.273438 146.429688 76.023438 145.101562 75.808594 143.769531 C 75.59375 142.433594 75.410156 141.09375 75.257812 139.753906 C 75.105469 138.410156 74.988281 137.0625 74.898438 135.714844 C 74.8125 134.367188 74.757812 133.015625 74.738281 131.664062 C 74.714844 130.3125 74.726562 128.960938 74.769531 127.613281 C 74.8125 126.261719 74.890625 124.910156 74.996094 123.566406 C 75.105469 122.21875 75.246094 120.875 75.417969 119.535156 C 75.59375 118.191406 75.796875 116.859375 76.035156 115.527344 C 76.273438 114.195312 76.539062 112.871094 76.839844 111.554688 C 77.144531 110.238281 77.476562 108.925781 77.839844 107.625 C 78.203125 106.324219 78.597656 105.03125 79.023438 103.75 C 79.449219 102.46875 79.90625 101.195312 80.394531 99.933594 C 80.882812 98.675781 81.398438 97.425781 81.949219 96.191406 C 82.496094 94.953125 83.070312 93.734375 83.679688 92.523438 C 84.285156 91.316406 84.921875 90.125 85.582031 88.945312 C 86.246094 87.769531 86.9375 86.609375 87.660156 85.464844 C 88.378906 84.320312 89.125 83.195312 89.898438 82.085938 C 90.671875 80.976562 91.472656 79.890625 92.300781 78.820312 C 93.125 77.75 93.976562 76.699219 94.855469 75.671875 C 95.730469 74.644531 96.632812 73.636719 97.558594 72.652344 C 98.480469 71.667969 99.429688 70.703125 100.402344 69.765625 C 101.375 68.824219 102.367188 67.910156 103.382812 67.015625 C 104.398438 66.125 105.433594 65.257812 106.492188 64.414062 C 107.550781 63.574219 108.628906 62.757812 109.722656 61.96875 C 110.820312 61.175781 111.933594 60.414062 113.070312 59.675781 C 114.203125 58.941406 115.351562 58.230469 116.519531 57.550781 C 117.6875 56.871094 118.871094 56.21875 120.070312 55.59375 C 121.269531 54.96875 122.484375 54.375 123.710938 53.808594 C 124.9375 53.242188 126.179688 52.707031 127.433594 52.199219 C 128.683594 51.695312 129.949219 51.21875 131.226562 50.773438 C 132.503906 50.328125 133.789062 49.914062 135.085938 49.53125 C 136.382812 49.144531 137.6875 48.792969 139 48.472656 C 140.3125 48.152344 141.632812 47.863281 142.960938 47.605469 C 144.285156 47.351562 145.621094 47.125 146.957031 46.933594 C 148.296875 46.738281 149.636719 46.578125 150.984375 46.449219 C 152.328125 46.320312 153.675781 46.226562 155.027344 46.164062 C 156.378906 46.097656 157.726562 46.066406 159.082031 46.070312 C 160.433594 46.070312 161.78125 46.105469 163.132812 46.171875 C 164.484375 46.238281 165.832031 46.335938 167.175781 46.46875 C 168.523438 46.597656 169.863281 46.761719 171.199219 46.960938 C 172.539062 47.15625 173.871094 47.382812 175.195312 47.644531 C 176.523438 47.902344 177.84375 48.195312 179.15625 48.519531 C 180.46875 48.839844 181.773438 49.195312 183.066406 49.582031 C 184.363281 49.96875 185.648438 50.386719 186.921875 50.835938 C 188.199219 51.28125 189.460938 51.761719 190.714844 52.269531 C 191.96875 52.777344 193.207031 53.316406 194.433594 53.886719 C 195.660156 54.453125 196.871094 55.050781 198.070312 55.679688 C 199.265625 56.304688 200.449219 56.960938 201.613281 57.644531 C 202.78125 58.328125 203.929688 59.039062 205.0625 59.777344 C 206.191406 60.519531 207.304688 61.285156 208.402344 62.078125 C 209.496094 62.867188 210.570312 63.6875 211.628906 64.53125 C 212.683594 65.375 213.71875 66.246094 214.730469 67.140625 C 215.746094 68.035156 216.734375 68.953125 217.707031 69.894531 C 218.675781 70.835938 219.621094 71.800781 220.542969 72.789062 C 221.46875 73.773438 222.367188 74.785156 223.242188 75.8125 C 224.117188 76.84375 224.964844 77.894531 225.789062 78.96875 C 226.613281 80.039062 227.410156 81.128906 228.179688 82.238281 C 228.953125 83.347656 229.695312 84.476562 230.414062 85.621094 C 231.132812 86.769531 231.820312 87.929688 232.480469 89.109375 C 233.144531 90.289062 233.773438 91.480469 234.378906 92.691406 C 234.984375 93.902344 235.558594 95.125 236.101562 96.359375 C 236.644531 97.597656 237.160156 98.847656 237.644531 100.109375 C 238.128906 101.371094 238.585938 102.644531 239.007812 103.925781 C 239.429688 105.210938 239.824219 106.503906 240.183594 107.804688 C 240.546875 109.109375 240.875 110.417969 241.171875 111.734375 C 241.472656 113.054688 241.738281 114.378906 241.972656 115.710938 C 242.207031 117.042969 242.410156 118.378906 242.578125 119.71875 C 242.75 121.058594 242.886719 122.402344 242.992188 123.75 C 243.097656 125.097656 243.167969 126.445312 243.210938 127.796875 C 243.25 129.148438 243.257812 130.5 243.234375 131.851562 C 243.207031 133.203125 243.152344 134.550781 243.0625 135.902344 C 242.972656 137.25 242.851562 138.59375 242.695312 139.9375 C 242.542969 141.28125 242.355469 142.617188 242.136719 143.953125 C 241.917969 145.285156 241.664062 146.613281 241.382812 147.933594 C 241.101562 149.257812 240.785156 150.570312 240.441406 151.878906 C 240.09375 153.183594 239.714844 154.480469 239.308594 155.769531 C 238.898438 157.058594 238.460938 158.335938 237.992188 159.601562 C 237.519531 160.871094 237.019531 162.125 236.488281 163.367188 C 235.960938 164.613281 235.398438 165.839844 234.808594 167.058594 C 234.21875 168.273438 233.601562 169.476562 232.953125 170.660156 C 232.308594 171.847656 231.632812 173.019531 230.925781 174.171875 C 230.222656 175.324219 229.492188 176.460938 228.734375 177.582031 C 227.976562 178.699219 227.191406 179.800781 226.378906 180.878906 C 225.566406 181.960938 224.730469 183.023438 223.867188 184.0625 C 225.359375 188.941406 226.800781 193.769531 228.234375 198.648438 L 230.699219 207.011719 C 232.796875 205.175781 235.148438 203.769531 237.753906 202.785156 C 240.363281 201.800781 243.058594 201.304688 245.84375 201.296875 C 247.320312 201.269531 248.78125 201.398438 250.230469 201.683594 C 251.675781 201.96875 253.078125 202.402344 254.433594 202.988281 C 255.789062 203.574219 257.066406 204.296875 258.265625 205.152344 C 259.464844 206.011719 260.5625 206.988281 261.554688 208.078125 C 262.582031 206.96875 263.710938 205.96875 264.9375 205.085938 C 266.167969 204.203125 267.472656 203.453125 268.855469 202.832031 C 270.238281 202.214844 271.664062 201.742188 273.144531 201.410156 C 274.621094 201.082031 276.117188 200.90625 277.628906 200.878906 C 279.152344 200.789062 280.667969 200.875 282.171875 201.128906 C 283.679688 201.386719 285.136719 201.808594 286.542969 202.394531 C 287.953125 202.980469 289.277344 203.71875 290.519531 204.609375 C 291.757812 205.5 292.882812 206.515625 293.890625 207.660156 C 296 205.417969 298.445312 203.636719 301.230469 202.320312 C 302.636719 201.667969 304.09375 201.171875 305.605469 200.828125 C 307.117188 200.488281 308.648438 200.308594 310.199219 200.292969 C 311.75 200.277344 313.285156 200.421875 314.800781 200.734375 C 316.320312 201.042969 317.789062 201.511719 319.210938 202.132812 C 320.582031 202.742188 321.871094 203.492188 323.082031 204.382812 C 324.289062 205.273438 325.386719 206.285156 326.375 207.417969 C 327.363281 208.550781 328.214844 209.773438 328.933594 211.09375 C 329.652344 212.410156 330.222656 213.789062 330.640625 215.234375 C 337.421875 237.484375 344.394531 260.476562 350.945312 283.613281 C 352.304688 287.980469 353.238281 292.441406 353.742188 296.988281 C 354.242188 301.539062 354.308594 306.09375 353.933594 310.65625 C 353.558594 315.214844 352.75 319.699219 351.515625 324.105469 C 350.277344 328.511719 348.628906 332.757812 346.570312 336.847656 Z M 183.351562 198.523438 C 182.5625 195.875 181.769531 193.226562 180.976562 190.578125 C 180.28125 188.261719 179.863281 185.890625 179.722656 183.472656 C 179.707031 182.257812 179.792969 181.054688 179.988281 179.855469 C 180.179688 178.65625 180.476562 177.484375 180.875 176.339844 C 181.277344 175.191406 181.769531 174.089844 182.363281 173.03125 C 182.957031 171.972656 183.636719 170.972656 184.402344 170.03125 C 185.171875 169.089844 186.015625 168.226562 186.933594 167.433594 C 187.851562 166.640625 188.832031 165.933594 189.878906 165.3125 C 190.921875 164.691406 192.007812 164.167969 193.144531 163.738281 C 194.28125 163.308594 195.445312 162.980469 196.636719 162.753906 C 197.65625 162.476562 198.6875 162.277344 199.738281 162.160156 C 200.785156 162.039062 201.839844 162.003906 202.894531 162.050781 C 203.949219 162.09375 204.992188 162.222656 206.027344 162.429688 C 207.0625 162.640625 208.074219 162.929688 209.066406 163.292969 C 210.054688 163.660156 211.011719 164.101562 211.933594 164.617188 C 212.855469 165.132812 213.730469 165.714844 214.558594 166.367188 C 215.390625 167.019531 216.164062 167.734375 216.886719 168.503906 C 217.605469 169.277344 218.257812 170.101562 218.851562 170.976562 C 220.101562 169.136719 221.261719 167.242188 222.335938 165.292969 C 223.410156 163.34375 224.394531 161.351562 225.285156 159.3125 C 226.175781 157.273438 226.972656 155.199219 227.671875 153.085938 C 228.367188 150.972656 228.96875 148.832031 229.46875 146.664062 C 229.972656 144.496094 230.371094 142.3125 230.671875 140.105469 C 230.972656 137.902344 231.167969 135.6875 231.261719 133.464844 C 231.359375 131.242188 231.351562 129.019531 231.242188 126.796875 C 231.128906 124.574219 230.917969 122.363281 230.601562 120.160156 C 230.289062 117.957031 229.871094 115.773438 229.355469 113.609375 C 228.839844 111.445312 228.226562 109.308594 227.511719 107.203125 C 226.796875 105.09375 225.988281 103.023438 225.085938 100.992188 C 224.179688 98.960938 223.183594 96.972656 222.09375 95.03125 C 221.007812 93.089844 219.832031 91.203125 218.570312 89.371094 C 217.304688 87.539062 215.960938 85.769531 214.535156 84.0625 C 213.109375 82.351562 211.609375 80.714844 210.03125 79.144531 C 208.453125 77.574219 206.808594 76.082031 205.09375 74.664062 C 203.378906 73.246094 201.601562 71.910156 199.761719 70.65625 C 197.921875 69.402344 196.03125 68.238281 194.085938 67.160156 C 192.136719 66.082031 190.144531 65.09375 188.109375 64.199219 C 186.070312 63.304688 183.996094 62.503906 181.886719 61.800781 C 179.773438 61.097656 177.636719 60.492188 175.46875 59.988281 C 173.300781 59.480469 171.113281 59.078125 168.910156 58.773438 C 166.707031 58.46875 164.492188 58.265625 162.269531 58.167969 C 160.046875 58.066406 157.824219 58.070312 155.601562 58.175781 C 153.375 58.28125 151.164062 58.488281 148.960938 58.796875 C 146.757812 59.109375 144.570312 59.519531 142.40625 60.03125 C 140.238281 60.542969 138.101562 61.152344 135.992188 61.859375 C 133.882812 62.570312 131.8125 63.375 129.777344 64.273438 C 127.742188 65.175781 125.75 66.167969 123.808594 67.25 C 121.863281 68.335938 119.976562 69.503906 118.140625 70.765625 C 116.304688 72.023438 114.53125 73.363281 112.820312 74.785156 C 111.109375 76.207031 109.464844 77.703125 107.890625 79.277344 L 107.851562 79.277344 C 106.414062 80.71875 105.039062 82.214844 103.730469 83.769531 C 102.417969 85.324219 101.175781 86.933594 100 88.59375 C 98.824219 90.253906 97.722656 91.960938 96.691406 93.714844 C 95.660156 95.46875 94.703125 97.261719 93.824219 99.09375 C 92.945312 100.929688 92.144531 102.796875 91.421875 104.699219 C 90.699219 106.601562 90.058594 108.527344 89.5 110.484375 C 88.941406 112.4375 88.464844 114.414062 88.070312 116.410156 C 87.679688 118.40625 87.371094 120.414062 87.148438 122.4375 C 86.925781 124.457031 86.785156 126.484375 86.734375 128.519531 C 86.683594 130.550781 86.714844 132.582031 86.835938 134.613281 C 86.953125 136.644531 87.15625 138.667969 87.449219 140.679688 C 87.738281 142.691406 88.113281 144.691406 88.570312 146.671875 C 89.027344 148.652344 89.570312 150.613281 90.191406 152.546875 C 90.816406 154.484375 91.519531 156.390625 92.304688 158.265625 C 93.085938 160.144531 93.949219 161.984375 94.890625 163.789062 C 95.828125 165.59375 96.84375 167.351562 97.929688 169.070312 C 99.019531 170.789062 100.175781 172.460938 101.40625 174.082031 C 102.636719 175.703125 103.929688 177.265625 105.292969 178.777344 C 106.652344 180.289062 108.074219 181.742188 109.558594 183.132812 C 111.042969 184.527344 112.582031 185.851562 114.175781 187.113281 C 115.773438 188.375 117.417969 189.570312 119.113281 190.691406 C 120.808594 191.816406 122.550781 192.863281 124.335938 193.839844 C 126.121094 194.816406 127.941406 195.714844 129.800781 196.539062 C 131.664062 197.363281 133.554688 198.105469 135.476562 198.765625 C 137.402344 199.429688 139.347656 200.011719 141.320312 200.511719 C 143.292969 201.007812 145.28125 201.425781 147.289062 201.753906 C 149.296875 202.085938 151.316406 202.332031 153.34375 202.492188 C 155.371094 202.652344 157.402344 202.730469 159.4375 202.71875 C 161.46875 202.707031 163.5 202.613281 165.527344 202.429688 C 167.554688 202.25 169.566406 201.984375 171.570312 201.632812 C 173.574219 201.28125 175.558594 200.84375 177.527344 200.324219 C 179.496094 199.808594 181.4375 199.207031 183.351562 198.523438 Z M 338.859375 284.042969 L 319.90625 220.402344 C 319.632812 219.433594 319.292969 218.488281 318.878906 217.570312 C 318.609375 216.886719 318.257812 216.25 317.820312 215.660156 C 317.382812 215.070312 316.875 214.546875 316.300781 214.089844 C 315.726562 213.632812 315.101562 213.257812 314.429688 212.964844 C 313.753906 212.675781 313.054688 212.472656 312.328125 212.367188 C 311.449219 212.226562 310.566406 212.191406 309.679688 212.265625 C 308.792969 212.34375 307.929688 212.523438 307.085938 212.8125 C 306.242188 213.097656 305.449219 213.484375 304.699219 213.96875 C 303.953125 214.449219 303.273438 215.015625 302.664062 215.664062 C 302.125 216.28125 301.679688 216.960938 301.324219 217.695312 C 300.96875 218.433594 300.71875 219.207031 300.574219 220.011719 C 300.425781 220.816406 300.386719 221.625 300.457031 222.441406 C 300.53125 223.257812 300.707031 224.046875 300.992188 224.816406 L 302.386719 229.460938 C 303.546875 233.316406 304.707031 237.171875 305.824219 241.074219 C 306.125 242.054688 306.171875 243.050781 305.964844 244.054688 C 305.761719 245.0625 305.324219 245.957031 304.664062 246.742188 C 303.953125 247.496094 303.109375 248.035156 302.132812 248.367188 C 301.152344 248.695312 300.152344 248.773438 299.132812 248.601562 C 298.554688 248.507812 298 248.328125 297.476562 248.066406 C 296.949219 247.804688 296.476562 247.472656 296.050781 247.066406 C 295.628906 246.65625 295.273438 246.199219 294.992188 245.683594 C 294.710938 245.167969 294.511719 244.625 294.394531 244.046875 L 293.371094 240.703125 C 291.285156 233.550781 289.148438 226.347656 286.960938 219.242188 C 286.765625 218.65625 286.515625 218.097656 286.210938 217.5625 C 285.90625 217.027344 285.554688 216.527344 285.15625 216.058594 C 284.753906 215.589844 284.316406 215.164062 283.832031 214.78125 C 283.351562 214.398438 282.835938 214.066406 282.289062 213.78125 C 281.746094 213.5 281.175781 213.269531 280.585938 213.09375 C 279.996094 212.917969 279.394531 212.800781 278.78125 212.742188 C 278.171875 212.683594 277.558594 212.683594 276.945312 212.742188 C 276.332031 212.800781 275.730469 212.917969 275.140625 213.09375 C 274.550781 213.265625 273.980469 213.496094 273.433594 213.777344 C 272.890625 214.0625 272.375 214.394531 271.894531 214.777344 C 271.410156 215.160156 270.96875 215.585938 270.570312 216.054688 C 270.167969 216.519531 269.816406 217.023438 269.511719 217.558594 C 269.207031 218.09375 268.957031 218.652344 268.761719 219.234375 C 268.566406 219.816406 268.425781 220.414062 268.34375 221.023438 C 268.265625 221.632812 268.242188 222.246094 268.277344 222.859375 C 268.3125 223.476562 268.40625 224.082031 268.5625 224.675781 C 270.140625 230.25 271.8125 235.777344 273.445312 241.308594 L 275.667969 248.644531 C 275.875 249.289062 276.046875 249.9375 276.183594 250.597656 C 276.304688 251.121094 276.34375 251.652344 276.308594 252.191406 C 276.269531 252.726562 276.15625 253.246094 275.96875 253.75 C 275.777344 254.253906 275.519531 254.722656 275.191406 255.148438 C 274.867188 255.578125 274.484375 255.949219 274.046875 256.265625 C 273.601562 256.664062 273.105469 256.984375 272.554688 257.21875 C 272.003906 257.453125 271.433594 257.59375 270.835938 257.640625 C 270.238281 257.6875 269.652344 257.636719 269.070312 257.488281 C 268.492188 257.339844 267.953125 257.101562 267.449219 256.777344 C 265.992188 255.652344 264.984375 254.210938 264.425781 252.457031 C 261.125 241.726562 257.921875 230.996094 254.808594 220.171875 C 254.636719 219.433594 254.375 218.726562 254.027344 218.054688 C 253.679688 217.378906 253.253906 216.761719 252.75 216.191406 C 252.25 215.625 251.683594 215.128906 251.058594 214.699219 C 250.429688 214.273438 249.761719 213.929688 249.050781 213.667969 C 248.257812 213.410156 247.449219 213.25 246.621094 213.183594 C 245.789062 213.117188 244.964844 213.144531 244.140625 213.269531 C 243.320312 213.394531 242.523438 213.613281 241.75 213.921875 C 240.976562 214.234375 240.253906 214.628906 239.574219 215.105469 C 239.160156 215.382812 238.777344 215.695312 238.417969 216.035156 C 238.058594 216.378906 237.730469 216.75 237.433594 217.148438 C 237.136719 217.546875 236.875 217.964844 236.648438 218.40625 C 236.421875 218.847656 236.234375 219.304688 236.085938 219.78125 C 235.9375 220.253906 235.828125 220.734375 235.761719 221.226562 C 235.695312 221.71875 235.667969 222.210938 235.683594 222.707031 C 235.699219 223.203125 235.757812 223.695312 235.855469 224.183594 C 235.957031 224.667969 236.09375 225.144531 236.273438 225.605469 C 238.039062 231.644531 239.847656 237.683594 241.617188 243.722656 L 246.121094 258.773438 C 246.332031 259.355469 246.441406 259.953125 246.453125 260.570312 C 246.464844 261.191406 246.378906 261.792969 246.1875 262.382812 C 246 262.96875 245.722656 263.511719 245.351562 264.007812 C 244.984375 264.503906 244.542969 264.925781 244.03125 265.277344 C 243.523438 265.671875 242.964844 265.972656 242.355469 266.183594 C 241.746094 266.390625 241.121094 266.496094 240.476562 266.496094 C 239.832031 266.496094 239.207031 266.390625 238.597656 266.183594 C 237.988281 265.972656 237.429688 265.671875 236.917969 265.277344 C 235.796875 264.109375 235.007812 262.746094 234.554688 261.1875 C 227.957031 239.214844 221.386719 217.242188 214.851562 195.273438 L 214.386719 193.785156 L 210.761719 181.523438 C 210.71875 181.382812 210.667969 181.195312 210.621094 181.058594 C 210.546875 180.707031 210.4375 180.367188 210.296875 180.035156 C 209.992188 179.144531 209.558594 178.324219 208.996094 177.570312 C 208.433594 176.820312 207.769531 176.171875 207 175.628906 C 206.234375 175.085938 205.402344 174.675781 204.503906 174.398438 C 203.605469 174.117188 202.6875 173.984375 201.746094 173.996094 C 200.125 174.011719 198.585938 174.367188 197.121094 175.066406 C 195.660156 175.765625 194.414062 176.742188 193.382812 177.992188 C 192.929688 178.613281 192.558594 179.277344 192.269531 179.992188 C 191.980469 180.707031 191.78125 181.441406 191.675781 182.207031 C 191.570312 182.96875 191.5625 183.730469 191.644531 184.496094 C 191.730469 185.261719 191.90625 186.003906 192.175781 186.722656 C 192.871094 189 193.570312 191.277344 194.21875 193.554688 C 195.433594 197.410156 196.59375 201.3125 197.703125 205.167969 C 199.933594 212.550781 202.125 219.890625 204.300781 227.277344 L 223.585938 292.125 C 224.605469 295.519531 225.632812 298.910156 226.609375 302.300781 C 226.867188 302.964844 227.003906 303.652344 227.019531 304.363281 C 227.03125 305.078125 226.921875 305.769531 226.683594 306.441406 C 226.449219 307.117188 226.105469 307.726562 225.652344 308.277344 C 225.199219 308.828125 224.664062 309.28125 224.050781 309.640625 C 223.511719 309.9375 222.941406 310.148438 222.339844 310.273438 C 221.738281 310.402344 221.132812 310.4375 220.519531 310.382812 C 219.90625 310.328125 219.316406 310.1875 218.746094 309.957031 C 218.175781 309.730469 217.652344 309.421875 217.171875 309.035156 C 210.53125 304.53125 203.886719 300.054688 197.238281 295.609375 L 188.503906 289.710938 C 187.484375 288.925781 186.34375 288.378906 185.09375 288.070312 C 183.839844 287.765625 182.578125 287.722656 181.308594 287.945312 C 180.308594 288.164062 179.363281 288.519531 178.46875 289.011719 C 177.574219 289.507812 176.769531 290.121094 176.054688 290.851562 C 175.339844 291.582031 174.746094 292.398438 174.273438 293.304688 C 173.796875 294.210938 173.464844 295.164062 173.269531 296.167969 C 173.082031 297.097656 173.039062 298.03125 173.148438 298.972656 C 173.257812 299.914062 173.511719 300.8125 173.910156 301.675781 C 174.304688 302.535156 174.824219 303.3125 175.46875 304.007812 C 176.113281 304.699219 176.851562 305.277344 177.679688 305.738281 L 190.828125 314.5625 C 200.816406 321.253906 210.777344 327.925781 220.707031 334.585938 C 222.886719 336.070312 225.074219 337.558594 227.253906 339 C 233.621094 343.316406 240.175781 347.777344 246.863281 351.632812 C 250.464844 353.851562 254.230469 355.730469 258.167969 357.277344 C 262.105469 358.824219 266.144531 360.015625 270.292969 360.84375 C 274.441406 361.671875 278.628906 362.125 282.855469 362.210938 C 287.082031 362.292969 291.285156 362.003906 295.460938 361.34375 C 296.832031 361.121094 298.1875 360.847656 299.535156 360.523438 C 300.882812 360.199219 302.21875 359.824219 303.539062 359.402344 C 304.855469 358.976562 306.160156 358.503906 307.441406 357.984375 C 308.726562 357.460938 309.988281 356.894531 311.230469 356.277344 C 312.472656 355.660156 313.6875 355 314.878906 354.289062 C 316.070312 353.582031 317.234375 352.832031 318.371094 352.035156 C 319.503906 351.242188 320.609375 350.40625 321.683594 349.527344 C 322.753906 348.648438 323.792969 347.730469 324.796875 346.777344 C 325.796875 345.820312 326.765625 344.828125 327.695312 343.800781 C 328.621094 342.769531 329.511719 341.707031 330.359375 340.613281 C 331.210938 339.519531 332.015625 338.394531 332.78125 337.238281 C 333.546875 336.082031 334.265625 334.898438 334.941406 333.6875 C 335.617188 332.480469 336.246094 331.246094 336.832031 329.988281 C 337.414062 328.730469 337.949219 327.453125 338.4375 326.15625 C 338.921875 324.859375 339.363281 323.546875 339.75 322.214844 C 340.136719 320.886719 340.476562 319.542969 340.765625 318.1875 C 341.917969 312.507812 342.335938 306.777344 342.011719 300.992188 C 341.691406 295.207031 340.640625 289.558594 338.859375 284.042969 Z M 87.902344 244.527344 C 87.605469 244.878906 87.347656 245.261719 87.125 245.667969 C 86.902344 246.074219 86.726562 246.5 86.589844 246.941406 C 86.449219 247.382812 86.359375 247.835938 86.3125 248.296875 C 86.265625 248.753906 86.265625 249.214844 86.308594 249.675781 C 86.355469 250.136719 86.445312 250.589844 86.578125 251.03125 C 86.714844 251.476562 86.890625 251.898438 87.109375 252.308594 C 87.332031 252.714844 87.589844 253.097656 87.882812 253.453125 C 88.179688 253.808594 88.507812 254.132812 88.867188 254.421875 C 89.230469 254.714844 89.613281 254.964844 90.023438 255.179688 C 90.433594 255.394531 90.863281 255.566406 91.308594 255.695312 C 91.753906 255.824219 92.207031 255.90625 92.667969 255.945312 C 93.128906 255.984375 93.589844 255.976562 94.046875 255.921875 C 94.507812 255.871094 94.957031 255.769531 95.398438 255.628906 C 95.839844 255.484375 96.261719 255.300781 96.664062 255.074219 C 97.066406 254.847656 97.445312 254.582031 97.796875 254.277344 C 98.148438 253.976562 98.464844 253.644531 98.75 253.277344 L 114.585938 233.675781 C 114.882812 233.320312 115.144531 232.9375 115.367188 232.53125 C 115.585938 232.125 115.765625 231.703125 115.902344 231.257812 C 116.039062 230.816406 116.132812 230.367188 116.179688 229.90625 C 116.226562 229.445312 116.226562 228.984375 116.183594 228.523438 C 116.136719 228.0625 116.046875 227.609375 115.910156 227.167969 C 115.777344 226.726562 115.601562 226.300781 115.378906 225.894531 C 115.160156 225.484375 114.902344 225.105469 114.605469 224.746094 C 114.3125 224.390625 113.984375 224.066406 113.621094 223.777344 C 113.261719 223.488281 112.878906 223.234375 112.464844 223.019531 C 112.054688 222.804688 111.628906 222.636719 111.183594 222.507812 C 110.738281 222.378906 110.285156 222.292969 109.824219 222.253906 C 109.363281 222.21875 108.902344 222.222656 108.441406 222.277344 C 107.984375 222.332031 107.53125 222.429688 107.09375 222.574219 C 106.652344 222.714844 106.230469 222.898438 105.828125 223.128906 C 105.421875 223.355469 105.046875 223.617188 104.695312 223.921875 C 104.34375 224.222656 104.027344 224.558594 103.742188 224.921875 Z M 233.773438 11.796875 C 233.996094 11.394531 234.175781 10.980469 234.316406 10.542969 C 234.457031 10.109375 234.550781 9.667969 234.605469 9.210938 C 234.660156 8.757812 234.667969 8.304688 234.636719 7.851562 C 234.601562 7.394531 234.523438 6.949219 234.402344 6.507812 C 234.28125 6.066406 234.117188 5.644531 233.914062 5.234375 C 233.707031 4.828125 233.46875 4.441406 233.1875 4.082031 C 232.910156 3.71875 232.597656 3.386719 232.253906 3.085938 C 231.914062 2.785156 231.542969 2.519531 231.148438 2.289062 C 230.75 2.074219 230.332031 1.894531 229.898438 1.757812 C 229.464844 1.621094 229.019531 1.527344 228.566406 1.472656 C 228.113281 1.421875 227.660156 1.414062 227.207031 1.449219 C 226.753906 1.484375 226.304688 1.5625 225.867188 1.683594 C 225.429688 1.804688 225.003906 1.96875 224.597656 2.171875 C 224.191406 2.371094 223.804688 2.613281 223.441406 2.890625 C 223.082031 3.167969 222.75 3.476562 222.449219 3.816406 C 222.144531 4.15625 221.878906 4.523438 221.648438 4.914062 L 209.222656 26.828125 C 209 27.226562 208.820312 27.640625 208.679688 28.074219 C 208.539062 28.507812 208.441406 28.949219 208.390625 29.402344 C 208.335938 29.855469 208.328125 30.308594 208.363281 30.761719 C 208.398438 31.214844 208.476562 31.664062 208.601562 32.101562 C 208.722656 32.539062 208.886719 32.960938 209.09375 33.367188 C 209.300781 33.773438 209.542969 34.15625 209.824219 34.515625 C 210.105469 34.875 210.417969 35.203125 210.761719 35.5 C 211.109375 35.796875 211.480469 36.058594 211.875 36.28125 C 212.269531 36.507812 212.6875 36.691406 213.117188 36.832031 C 213.550781 36.976562 213.992188 37.078125 214.445312 37.132812 C 214.898438 37.191406 215.351562 37.203125 215.804688 37.167969 C 216.257812 37.136719 216.707031 37.0625 217.144531 36.941406 C 217.585938 36.820312 218.007812 36.660156 218.414062 36.457031 C 218.824219 36.253906 219.207031 36.015625 219.570312 35.734375 C 219.929688 35.457031 220.257812 35.148438 220.558594 34.804688 C 220.859375 34.460938 221.121094 34.09375 221.351562 33.699219 Z M 294.296875 123.21875 L 269.109375 123.683594 C 268.652344 123.691406 268.199219 123.742188 267.75 123.839844 C 267.304688 123.9375 266.871094 124.078125 266.453125 124.261719 C 266.03125 124.445312 265.632812 124.667969 265.257812 124.929688 C 264.882812 125.1875 264.535156 125.484375 264.21875 125.8125 C 263.902344 126.144531 263.617188 126.5 263.371094 126.886719 C 263.125 127.269531 262.917969 127.675781 262.75 128.101562 C 262.582031 128.527344 262.457031 128.964844 262.375 129.417969 C 262.296875 129.867188 262.257812 130.320312 262.265625 130.777344 C 262.277344 131.234375 262.328125 131.6875 262.425781 132.136719 C 262.523438 132.582031 262.664062 133.015625 262.847656 133.433594 C 263.03125 133.855469 263.25 134.253906 263.511719 134.628906 C 263.773438 135.003906 264.070312 135.351562 264.398438 135.667969 C 264.726562 135.984375 265.085938 136.269531 265.472656 136.515625 C 265.855469 136.761719 266.261719 136.96875 266.6875 137.136719 C 267.113281 137.304688 267.550781 137.429688 268.003906 137.507812 C 268.453125 137.589844 268.90625 137.625 269.363281 137.617188 L 294.550781 137.152344 C 295.007812 137.144531 295.460938 137.09375 295.910156 136.996094 C 296.355469 136.898438 296.789062 136.757812 297.210938 136.574219 C 297.628906 136.390625 298.027344 136.167969 298.402344 135.910156 C 298.777344 135.648438 299.125 135.351562 299.441406 135.023438 C 299.761719 134.691406 300.042969 134.335938 300.289062 133.949219 C 300.539062 133.566406 300.746094 133.160156 300.910156 132.734375 C 301.078125 132.308594 301.203125 131.871094 301.285156 131.421875 C 301.367188 130.96875 301.402344 130.515625 301.394531 130.058594 C 301.386719 129.601562 301.332031 129.148438 301.234375 128.703125 C 301.136719 128.253906 300.996094 127.820312 300.8125 127.402344 C 300.632812 126.980469 300.410156 126.585938 300.148438 126.207031 C 299.886719 125.832031 299.589844 125.484375 299.261719 125.167969 C 298.933594 124.851562 298.574219 124.570312 298.191406 124.320312 C 297.804688 124.074219 297.398438 123.867188 296.972656 123.699219 C 296.546875 123.53125 296.109375 123.40625 295.660156 123.328125 C 295.207031 123.246094 294.753906 123.210938 294.296875 123.21875 Z M 50.4375 123.21875 L 25.25 123.683594 C 24.789062 123.691406 24.339844 123.746094 23.890625 123.839844 C 23.445312 123.9375 23.011719 124.078125 22.589844 124.261719 C 22.171875 124.445312 21.773438 124.667969 21.398438 124.929688 C 21.023438 125.191406 20.675781 125.484375 20.359375 125.816406 C 20.039062 126.144531 19.757812 126.503906 19.511719 126.886719 C 19.265625 127.273438 19.058594 127.679688 18.890625 128.105469 C 18.722656 128.53125 18.597656 128.96875 18.519531 129.417969 C 18.4375 129.867188 18.402344 130.324219 18.410156 130.78125 C 18.417969 131.238281 18.472656 131.691406 18.570312 132.136719 C 18.667969 132.585938 18.804688 133.019531 18.988281 133.4375 C 19.171875 133.855469 19.394531 134.253906 19.65625 134.628906 C 19.917969 135.003906 20.210938 135.351562 20.542969 135.667969 C 20.871094 135.988281 21.230469 136.269531 21.613281 136.515625 C 22 136.761719 22.40625 136.96875 22.832031 137.136719 C 23.257812 137.304688 23.695312 137.429688 24.144531 137.511719 C 24.597656 137.589844 25.050781 137.628906 25.507812 137.617188 L 50.695312 137.152344 C 51.152344 137.144531 51.605469 137.09375 52.054688 136.996094 C 52.5 136.898438 52.933594 136.757812 53.355469 136.574219 C 53.773438 136.394531 54.171875 136.171875 54.550781 135.910156 C 54.925781 135.648438 55.273438 135.351562 55.589844 135.023438 C 55.90625 134.695312 56.191406 134.335938 56.4375 133.949219 C 56.683594 133.566406 56.894531 133.160156 57.058594 132.734375 C 57.226562 132.308594 57.351562 131.867188 57.433594 131.417969 C 57.515625 130.96875 57.550781 130.511719 57.542969 130.054688 C 57.53125 129.597656 57.480469 129.144531 57.382812 128.699219 C 57.285156 128.25 57.144531 127.816406 56.960938 127.398438 C 56.777344 126.976562 56.554688 126.582031 56.292969 126.203125 C 56.03125 125.828125 55.734375 125.480469 55.40625 125.164062 C 55.074219 124.847656 54.71875 124.566406 54.332031 124.316406 C 53.945312 124.070312 53.542969 123.863281 53.113281 123.695312 C 52.6875 123.53125 52.25 123.40625 51.800781 123.324219 C 51.347656 123.246094 50.894531 123.210938 50.4375 123.21875 Z M 98.949219 33.699219 C 99.167969 34.109375 99.425781 34.492188 99.71875 34.851562 C 100.015625 35.210938 100.34375 35.535156 100.707031 35.828125 C 101.066406 36.121094 101.453125 36.375 101.867188 36.589844 C 102.277344 36.804688 102.707031 36.976562 103.152344 37.105469 C 103.601562 37.238281 104.054688 37.320312 104.519531 37.359375 C 104.984375 37.398438 105.445312 37.390625 105.90625 37.335938 C 106.367188 37.28125 106.820312 37.183594 107.261719 37.039062 C 107.703125 36.894531 108.128906 36.707031 108.53125 36.476562 C 108.9375 36.246094 109.316406 35.980469 109.664062 35.675781 C 110.015625 35.371094 110.335938 35.035156 110.617188 34.664062 C 110.902344 34.296875 111.144531 33.90625 111.351562 33.488281 C 111.554688 33.070312 111.71875 32.636719 111.835938 32.1875 C 111.953125 31.738281 112.027344 31.28125 112.054688 30.816406 C 112.078125 30.351562 112.058594 29.890625 111.996094 29.429688 C 111.929688 28.96875 111.816406 28.519531 111.664062 28.082031 C 111.507812 27.644531 111.308594 27.226562 111.070312 26.828125 L 98.644531 4.914062 C 98.414062 4.523438 98.148438 4.15625 97.84375 3.816406 C 97.542969 3.476562 97.210938 3.167969 96.851562 2.890625 C 96.488281 2.613281 96.101562 2.371094 95.695312 2.171875 C 95.289062 1.96875 94.863281 1.804688 94.425781 1.683594 C 93.988281 1.5625 93.539062 1.484375 93.085938 1.449219 C 92.632812 1.414062 92.179688 1.421875 91.726562 1.472656 C 91.273438 1.527344 90.828125 1.621094 90.394531 1.757812 C 89.960938 1.894531 89.542969 2.074219 89.144531 2.289062 C 88.75 2.519531 88.382812 2.785156 88.039062 3.085938 C 87.695312 3.386719 87.386719 3.71875 87.105469 4.082031 C 86.828125 4.441406 86.585938 4.828125 86.382812 5.234375 C 86.179688 5.644531 86.019531 6.066406 85.894531 6.507812 C 85.773438 6.945312 85.695312 7.394531 85.660156 7.847656 C 85.628906 8.300781 85.636719 8.757812 85.691406 9.210938 C 85.742188 9.664062 85.839844 10.105469 85.980469 10.539062 C 86.117188 10.972656 86.296875 11.390625 86.519531 11.789062 Z M 98.949219 33.699219 " fill-opacity="1" fill-rule="nonzero"/></g></svg>