<svg xmlns="http://www.w3.org/2000/svg" xmlns:xlink="http://www.w3.org/1999/xlink" width="500" zoomAndPan="magnify" viewBox="0 0 375 374.999991" height="500" preserveAspectRatio="xMidYMid meet" version="1.0"><defs><clipPath id="f38531b372"><path d="M 70 158 L 375 158 L 375 350.863281 L 70 350.863281 Z M 70 158 " clip-rule="nonzero"/></clipPath><clipPath id="2ce09ace91"><path d="M 0 23.863281 L 179 23.863281 L 179 203 L 0 203 Z M 0 23.863281 " clip-rule="nonzero"/></clipPath></defs><path fill="#243047" d="M 351.265625 113.105469 L 316.609375 113.105469 L 316.609375 126.828125 C 316.609375 128.285156 315.429688 129.46875 313.972656 129.46875 L 302.53125 129.46875 C 301.074219 129.46875 299.894531 128.285156 299.894531 126.828125 L 299.894531 113.105469 L 259.425781 113.105469 L 259.425781 126.828125 C 259.425781 128.285156 258.25 129.46875 256.789062 129.46875 L 245.351562 129.46875 C 243.898438 129.46875 242.714844 128.285156 242.714844 126.828125 L 242.714844 113.105469 L 202.246094 113.105469 L 202.246094 126.828125 C 202.246094 128.285156 201.066406 129.46875 199.609375 129.46875 L 188.175781 129.46875 C 186.710938 129.46875 185.53125 128.285156 185.53125 126.828125 L 185.53125 113.105469 L 145.0625 113.105469 L 145.0625 126.828125 C 145.0625 128.285156 143.882812 129.46875 142.425781 129.46875 L 130.984375 129.46875 C 129.527344 129.46875 128.347656 128.285156 128.347656 126.828125 L 128.347656 113.105469 L 93.691406 113.105469 C 82.523438 113.105469 73.46875 122.148438 73.46875 133.308594 L 73.46875 161.332031 L 371.484375 161.332031 L 371.484375 133.308594 C 371.484375 122.148438 362.433594 113.105469 351.265625 113.105469 " fill-opacity="1" fill-rule="nonzero"/><path stroke-linecap="round" transform="matrix(0.162256, 0, 0, -0.162122, -155.832818, 533.737237)" fill="none" stroke-linejoin="round" d="M 3125.306608 2594.539167 L 2911.716114 2594.539167 L 2911.716114 2509.895134 C 2911.716114 2500.90788 2904.445563 2493.607242 2895.46571 2493.607242 L 2824.950994 2493.607242 C 2815.971141 2493.607242 2808.70059 2500.90788 2808.70059 2509.895134 L 2808.70059 2594.539167 L 2559.286983 2594.539167 L 2559.286983 2509.895134 C 2559.286983 2500.90788 2552.040507 2493.607242 2543.036579 2493.607242 L 2472.545938 2493.607242 C 2463.59016 2493.607242 2456.295534 2500.90788 2456.295534 2509.895134 L 2456.295534 2594.539167 L 2206.881927 2594.539167 L 2206.881927 2509.895134 C 2206.881927 2500.90788 2199.611376 2493.607242 2190.631523 2493.607242 L 2120.164957 2493.607242 C 2111.136955 2493.607242 2103.866404 2500.90788 2103.866404 2509.895134 L 2103.866404 2594.539167 L 1854.452797 2594.539167 L 1854.452797 2509.895134 C 1854.452797 2500.90788 1847.182245 2493.607242 1838.202393 2493.607242 L 1767.687677 2493.607242 C 1758.707824 2493.607242 1751.437273 2500.90788 1751.437273 2509.895134 L 1751.437273 2594.539167 L 1537.846779 2594.539167 C 1469.01729 2594.539167 1413.212199 2538.760364 1413.212199 2469.922333 L 1413.212199 2297.06828 L 3249.917113 2297.06828 L 3249.917113 2469.922333 C 3249.917113 2538.760364 3194.136097 2594.539167 3125.306608 2594.539167 Z M 3125.306608 2594.539167 " stroke="#ffffff" stroke-width="40" stroke-opacity="1" stroke-miterlimit="10"/><path fill="#243047" d="M 73.46875 210.269531 C 73.46875 210.398438 73.484375 210.519531 73.492188 210.644531 C 73.484375 210.625 73.484375 210.613281 73.484375 210.59375 C 73.484375 210.703125 73.46875 210.808594 73.46875 210.917969 L 73.46875 327.519531 C 73.46875 338.675781 82.523438 347.71875 93.691406 347.71875 L 351.265625 347.71875 C 362.433594 347.71875 371.484375 338.675781 371.484375 327.519531 L 371.484375 210.917969 C 371.484375 210.808594 371.480469 210.703125 371.472656 210.59375 C 371.472656 210.613281 371.464844 210.625 371.464844 210.644531 C 371.472656 210.519531 371.484375 210.398438 371.484375 210.269531 L 371.484375 161.332031 L 73.46875 161.332031 L 73.46875 210.269531 " fill-opacity="1" fill-rule="nonzero"/><g clip-path="url(#f38531b372)"><path stroke-linecap="round" transform="matrix(0.162256, 0, 0, -0.162122, -155.832818, 533.737237)" fill="none" stroke-linejoin="round" d="M 1413.212199 1995.212191 C 1413.212199 1994.417072 1413.308498 1993.670142 1413.356647 1992.899117 C 1413.308498 1993.01959 1413.308498 1993.091873 1413.308498 1993.212346 C 1413.308498 1992.5377 1413.212199 1991.887148 1413.212199 1991.212501 L 1413.212199 1271.991216 C 1413.212199 1203.17728 1469.01729 1147.398477 1537.846779 1147.398477 L 3125.306608 1147.398477 C 3194.136097 1147.398477 3249.917113 1203.17728 3249.917113 1271.991216 L 3249.917113 1991.212501 C 3249.917113 1991.887148 3249.893038 1992.5377 3249.844889 1993.212346 C 3249.844889 1993.091873 3249.796739 1993.01959 3249.796739 1992.899117 C 3249.844889 1993.670142 3249.917113 1994.417072 3249.917113 1995.212191 L 3249.917113 2297.06828 L 1413.212199 2297.06828 Z M 1413.212199 1995.212191 " stroke="#ffffff" stroke-width="40" stroke-opacity="1" stroke-miterlimit="10"/></g><path fill="#ffffff" d="M 129.621094 208.800781 C 129.621094 212.625 126.515625 215.722656 122.6875 215.722656 L 111.140625 215.722656 C 107.3125 215.722656 104.214844 212.625 104.214844 208.800781 L 104.214844 197.261719 C 104.214844 193.4375 107.3125 190.339844 111.140625 190.339844 L 122.6875 190.339844 C 126.515625 190.339844 129.621094 193.4375 129.621094 197.261719 L 129.621094 208.800781 " fill-opacity="1" fill-rule="nonzero"/><path fill="#ffffff" d="M 182.398438 208.800781 C 182.398438 212.625 179.300781 215.722656 175.472656 215.722656 L 163.925781 215.722656 C 160.097656 215.722656 156.992188 212.625 156.992188 208.800781 L 156.992188 197.261719 C 156.992188 193.4375 160.097656 190.339844 163.925781 190.339844 L 175.472656 190.339844 C 179.300781 190.339844 182.398438 193.4375 182.398438 197.261719 L 182.398438 208.800781 " fill-opacity="1" fill-rule="nonzero"/><path fill="#ffffff" d="M 235.183594 208.800781 C 235.183594 212.625 232.078125 215.722656 228.257812 215.722656 L 216.703125 215.722656 C 212.875 215.722656 209.773438 212.625 209.773438 208.800781 L 209.773438 197.261719 C 209.773438 193.4375 212.875 190.339844 216.703125 190.339844 L 228.257812 190.339844 C 232.078125 190.339844 235.183594 193.4375 235.183594 197.261719 L 235.183594 208.800781 " fill-opacity="1" fill-rule="nonzero"/><path fill="#ffffff" d="M 287.96875 208.800781 C 287.96875 212.625 284.863281 215.722656 281.035156 215.722656 L 269.484375 215.722656 C 265.65625 215.722656 262.558594 212.625 262.558594 208.800781 L 262.558594 197.261719 C 262.558594 193.4375 265.65625 190.339844 269.484375 190.339844 L 281.035156 190.339844 C 284.863281 190.339844 287.96875 193.4375 287.96875 197.261719 L 287.96875 208.800781 " fill-opacity="1" fill-rule="nonzero"/><path fill="#ffffff" d="M 340.746094 208.800781 C 340.746094 212.625 337.644531 215.722656 333.816406 215.722656 L 322.269531 215.722656 C 318.441406 215.722656 315.335938 212.625 315.335938 208.800781 L 315.335938 197.261719 C 315.335938 193.4375 318.441406 190.339844 322.269531 190.339844 L 333.816406 190.339844 C 337.644531 190.339844 340.746094 193.4375 340.746094 197.261719 L 340.746094 208.800781 " fill-opacity="1" fill-rule="nonzero"/><path fill="#ffffff" d="M 129.621094 259.742188 C 129.621094 263.574219 126.515625 266.671875 122.6875 266.671875 L 111.140625 266.671875 C 107.3125 266.671875 104.214844 263.574219 104.214844 259.742188 L 104.214844 248.210938 C 104.214844 244.386719 107.3125 241.289062 111.140625 241.289062 L 122.6875 241.289062 C 126.515625 241.289062 129.621094 244.386719 129.621094 248.210938 L 129.621094 259.742188 " fill-opacity="1" fill-rule="nonzero"/><path fill="#ffffff" d="M 182.398438 259.742188 C 182.398438 263.574219 179.300781 266.671875 175.472656 266.671875 L 163.925781 266.671875 C 160.097656 266.671875 156.992188 263.574219 156.992188 259.742188 L 156.992188 248.210938 C 156.992188 244.386719 160.097656 241.289062 163.925781 241.289062 L 175.472656 241.289062 C 179.300781 241.289062 182.398438 244.386719 182.398438 248.210938 L 182.398438 259.742188 " fill-opacity="1" fill-rule="nonzero"/><path fill="#ffffff" d="M 235.183594 259.742188 C 235.183594 263.574219 232.078125 266.671875 228.257812 266.671875 L 216.703125 266.671875 C 212.875 266.671875 209.773438 263.574219 209.773438 259.742188 L 209.773438 248.210938 C 209.773438 244.386719 212.875 241.289062 216.703125 241.289062 L 228.257812 241.289062 C 232.078125 241.289062 235.183594 244.386719 235.183594 248.210938 L 235.183594 259.742188 " fill-opacity="1" fill-rule="nonzero"/><path fill="#ffffff" d="M 287.96875 259.742188 C 287.96875 263.574219 284.863281 266.671875 281.035156 266.671875 L 269.484375 266.671875 C 265.65625 266.671875 262.558594 263.574219 262.558594 259.742188 L 262.558594 248.210938 C 262.558594 244.386719 265.65625 241.289062 269.484375 241.289062 L 281.035156 241.289062 C 284.863281 241.289062 287.96875 244.386719 287.96875 248.210938 L 287.96875 259.742188 " fill-opacity="1" fill-rule="nonzero"/><path fill="#ffffff" d="M 340.746094 259.742188 C 340.746094 263.574219 337.644531 266.671875 333.816406 266.671875 L 322.269531 266.671875 C 318.441406 266.671875 315.335938 263.574219 315.335938 259.742188 L 315.335938 248.210938 C 315.335938 244.386719 318.441406 241.289062 322.269531 241.289062 L 333.816406 241.289062 C 337.644531 241.289062 340.746094 244.386719 340.746094 248.210938 L 340.746094 259.742188 " fill-opacity="1" fill-rule="nonzero"/><path fill="#ffffff" d="M 129.621094 310.691406 C 129.621094 314.523438 126.515625 317.613281 122.6875 317.613281 L 111.140625 317.613281 C 107.3125 317.613281 104.214844 314.523438 104.214844 310.691406 L 104.214844 299.160156 C 104.214844 295.328125 107.3125 292.230469 111.140625 292.230469 L 122.6875 292.230469 C 126.515625 292.230469 129.621094 295.328125 129.621094 299.160156 L 129.621094 310.691406 " fill-opacity="1" fill-rule="nonzero"/><path fill="#ffffff" d="M 182.398438 310.691406 C 182.398438 314.523438 179.300781 317.613281 175.472656 317.613281 L 163.925781 317.613281 C 160.097656 317.613281 156.992188 314.523438 156.992188 310.691406 L 156.992188 299.160156 C 156.992188 295.328125 160.097656 292.230469 163.925781 292.230469 L 175.472656 292.230469 C 179.300781 292.230469 182.398438 295.328125 182.398438 299.160156 L 182.398438 310.691406 " fill-opacity="1" fill-rule="nonzero"/><path fill="#ffffff" d="M 235.183594 310.691406 C 235.183594 314.523438 232.078125 317.613281 228.257812 317.613281 L 216.703125 317.613281 C 212.875 317.613281 209.773438 314.523438 209.773438 310.691406 L 209.773438 299.160156 C 209.773438 295.328125 212.875 292.230469 216.703125 292.230469 L 228.257812 292.230469 C 232.078125 292.230469 235.183594 295.328125 235.183594 299.160156 L 235.183594 310.691406 " fill-opacity="1" fill-rule="nonzero"/><path fill="#ffffff" d="M 287.96875 310.691406 C 287.96875 314.523438 284.863281 317.613281 281.035156 317.613281 L 269.484375 317.613281 C 265.65625 317.613281 262.558594 314.523438 262.558594 310.691406 L 262.558594 299.160156 C 262.558594 295.328125 265.65625 292.230469 269.484375 292.230469 L 281.035156 292.230469 C 284.863281 292.230469 287.96875 295.328125 287.96875 299.160156 L 287.96875 310.691406 " fill-opacity="1" fill-rule="nonzero"/><path fill="#ffffff" d="M 340.746094 310.691406 C 340.746094 314.523438 337.644531 317.613281 333.816406 317.613281 L 322.269531 317.613281 C 318.441406 317.613281 315.335938 314.523438 315.335938 310.691406 L 315.335938 299.160156 C 315.335938 295.328125 318.441406 292.230469 322.269531 292.230469 L 333.816406 292.230469 C 337.644531 292.230469 340.746094 295.328125 340.746094 299.160156 L 340.746094 310.691406 " fill-opacity="1" fill-rule="nonzero"/><path fill="#243047" d="M 130.984375 132.710938 C 127.742188 132.710938 125.105469 130.070312 125.105469 126.828125 L 125.105469 97.347656 C 125.105469 94.105469 127.742188 91.464844 130.984375 91.464844 L 142.425781 91.464844 C 145.671875 91.464844 148.308594 94.105469 148.308594 97.347656 L 148.308594 126.828125 C 148.308594 130.070312 145.671875 132.710938 142.425781 132.710938 Z M 188.175781 132.710938 C 184.929688 132.710938 182.285156 130.070312 182.285156 126.828125 L 182.285156 97.347656 C 182.285156 94.105469 184.929688 91.464844 188.175781 91.464844 L 199.609375 91.464844 C 202.851562 91.464844 205.488281 94.105469 205.488281 97.347656 L 205.488281 126.828125 C 205.488281 130.070312 202.851562 132.710938 199.609375 132.710938 Z M 245.351562 132.710938 C 242.105469 132.710938 239.46875 130.070312 239.46875 126.828125 L 239.46875 97.347656 C 239.46875 94.105469 242.105469 91.464844 245.351562 91.464844 L 256.789062 91.464844 C 260.035156 91.464844 262.671875 94.105469 262.671875 97.347656 L 262.671875 126.828125 C 262.671875 130.070312 260.035156 132.710938 256.789062 132.710938 Z M 302.53125 132.710938 C 299.289062 132.710938 296.652344 130.070312 296.652344 126.828125 L 296.652344 97.347656 C 296.652344 94.105469 299.289062 91.464844 302.53125 91.464844 L 313.972656 91.464844 C 317.21875 91.464844 319.855469 94.105469 319.855469 97.347656 L 319.855469 126.828125 C 319.855469 130.070312 317.21875 132.710938 313.972656 132.710938 L 302.53125 132.710938 " fill-opacity="1" fill-rule="nonzero"/><path fill="#ffffff" d="M 142.425781 88.222656 L 130.984375 88.222656 C 125.953125 88.222656 121.859375 92.320312 121.859375 97.347656 L 121.859375 126.828125 C 121.859375 131.855469 125.953125 135.953125 130.984375 135.953125 L 142.425781 135.953125 C 147.457031 135.953125 151.554688 131.855469 151.554688 126.828125 L 151.554688 97.347656 C 151.554688 92.320312 147.457031 88.222656 142.425781 88.222656 Z M 199.609375 88.222656 L 188.175781 88.222656 C 183.136719 88.222656 179.042969 92.320312 179.042969 97.347656 L 179.042969 126.828125 C 179.042969 131.855469 183.136719 135.953125 188.175781 135.953125 L 199.609375 135.953125 C 204.640625 135.953125 208.734375 131.855469 208.734375 126.828125 L 208.734375 97.347656 C 208.734375 92.320312 204.640625 88.222656 199.609375 88.222656 Z M 256.789062 88.222656 L 245.351562 88.222656 C 240.316406 88.222656 236.222656 92.320312 236.222656 97.347656 L 236.222656 126.828125 C 236.222656 131.855469 240.316406 135.953125 245.351562 135.953125 L 256.789062 135.953125 C 261.824219 135.953125 265.917969 131.855469 265.917969 126.828125 L 265.917969 97.347656 C 265.917969 92.320312 261.824219 88.222656 256.789062 88.222656 Z M 313.972656 88.222656 L 302.53125 88.222656 C 297.5 88.222656 293.40625 92.320312 293.40625 97.347656 L 293.40625 126.828125 C 293.40625 131.855469 297.5 135.953125 302.53125 135.953125 L 313.972656 135.953125 C 319.003906 135.953125 323.101562 131.855469 323.101562 126.828125 L 323.101562 97.347656 C 323.101562 92.320312 319.003906 88.222656 313.972656 88.222656 Z M 142.425781 94.707031 C 143.882812 94.707031 145.0625 95.894531 145.0625 97.347656 L 145.0625 126.828125 C 145.0625 128.285156 143.882812 129.46875 142.425781 129.46875 L 130.984375 129.46875 C 129.527344 129.46875 128.347656 128.285156 128.347656 126.828125 L 128.347656 97.347656 C 128.347656 95.894531 129.527344 94.707031 130.984375 94.707031 L 142.425781 94.707031 M 199.609375 94.707031 C 201.066406 94.707031 202.246094 95.894531 202.246094 97.347656 L 202.246094 126.828125 C 202.246094 128.285156 201.066406 129.46875 199.609375 129.46875 L 188.175781 129.46875 C 186.710938 129.46875 185.53125 128.285156 185.53125 126.828125 L 185.53125 97.347656 C 185.53125 95.894531 186.710938 94.707031 188.175781 94.707031 L 199.609375 94.707031 M 256.789062 94.707031 C 258.25 94.707031 259.425781 95.894531 259.425781 97.347656 L 259.425781 126.828125 C 259.425781 128.285156 258.25 129.46875 256.789062 129.46875 L 245.351562 129.46875 C 243.898438 129.46875 242.714844 128.285156 242.714844 126.828125 L 242.714844 97.347656 C 242.714844 95.894531 243.898438 94.707031 245.351562 94.707031 L 256.789062 94.707031 M 313.972656 94.707031 C 315.429688 94.707031 316.609375 95.894531 316.609375 97.347656 L 316.609375 126.828125 C 316.609375 128.285156 315.429688 129.46875 313.972656 129.46875 L 302.53125 129.46875 C 301.074219 129.46875 299.894531 128.285156 299.894531 126.828125 L 299.894531 97.347656 C 299.894531 95.894531 301.074219 94.707031 302.53125 94.707031 L 313.972656 94.707031 " fill-opacity="1" fill-rule="nonzero"/><path fill="#243047" d="M 89.515625 199.035156 C 42.09375 199.035156 3.511719 160.488281 3.511719 113.105469 C 3.511719 65.722656 42.09375 27.175781 89.515625 27.175781 C 136.9375 27.175781 175.515625 65.722656 175.515625 113.105469 C 175.515625 160.488281 136.9375 199.035156 89.515625 199.035156 " fill-opacity="1" fill-rule="nonzero"/><g clip-path="url(#2ce09ace91)"><path fill="#ffffff" d="M 89.515625 23.933594 C 40.304688 23.933594 0.269531 63.929688 0.269531 113.105469 C 0.269531 162.273438 40.304688 202.277344 89.515625 202.277344 C 138.722656 202.277344 178.761719 162.273438 178.761719 113.105469 C 178.761719 63.929688 138.722656 23.933594 89.515625 23.933594 Z M 89.515625 30.417969 C 135.21875 30.417969 172.273438 67.433594 172.273438 113.105469 C 172.273438 158.773438 135.21875 195.792969 89.515625 195.792969 C 43.8125 195.792969 6.757812 158.773438 6.757812 113.105469 C 6.757812 67.433594 43.8125 30.417969 89.515625 30.417969 " fill-opacity="1" fill-rule="nonzero"/></g><path fill="#243047" d="M 159.164062 113.105469 C 159.164062 74.664062 127.980469 43.511719 89.515625 43.511719 C 51.050781 43.511719 19.867188 74.664062 19.867188 113.105469 C 19.867188 151.539062 51.050781 182.699219 89.515625 182.699219 C 127.980469 182.699219 159.164062 151.539062 159.164062 113.105469 " fill-opacity="1" fill-rule="nonzero"/><path stroke-linecap="round" transform="matrix(0.162256, 0, 0, -0.162122, -155.832818, 533.737237)" fill="none" stroke-linejoin="round" d="M 1941.362364 2594.539167 C 1941.362364 2831.653293 1749.174254 3023.807054 1512.110954 3023.807054 C 1275.047654 3023.807054 1082.859543 2831.653293 1082.859543 2594.539167 C 1082.859543 2357.47323 1275.047654 2165.271281 1512.110954 2165.271281 C 1749.174254 2165.271281 1941.362364 2357.47323 1941.362364 2594.539167 Z M 1941.362364 2594.539167 " stroke="#ffffff" stroke-width="40" stroke-opacity="1" stroke-miterlimit="10"/><path stroke-linecap="round" transform="matrix(0.162256, 0, 0, -0.162122, -155.832818, 533.737237)" fill="none" stroke-linejoin="round" d="M 1512.110954 2971.835184 L 1512.110954 2906.87637 " stroke="#ffffff" stroke-width="40" stroke-opacity="1" stroke-miterlimit="10"/><path stroke-linecap="round" transform="matrix(0.162256, 0, 0, -0.162122, -155.832818, 533.737237)" fill="none" stroke-linejoin="round" d="M 1512.110954 2282.226058 L 1512.110954 2217.267245 " stroke="#ffffff" stroke-width="40" stroke-opacity="1" stroke-miterlimit="10"/><path stroke-linecap="round" transform="matrix(0.162256, 0, 0, -0.162122, -155.832818, 533.737237)" fill="none" stroke-linejoin="round" d="M 1134.812686 2594.539167 L 1199.766153 2594.539167 " stroke="#ffffff" stroke-width="40" stroke-opacity="1" stroke-miterlimit="10"/><path stroke-linecap="round" transform="matrix(0.162256, 0, 0, -0.162122, -155.832818, 533.737237)" fill="none" stroke-linejoin="round" d="M 1824.407605 2594.539167 L 1889.385146 2594.539167 " stroke="#ffffff" stroke-width="40" stroke-opacity="1" stroke-miterlimit="10"/><path stroke-linecap="round" transform="matrix(0.162256, 0, 0, -0.162122, -155.832818, 533.737237)" fill-opacity="1" fill="#243047" fill-rule="nonzero" stroke-linejoin="round" d="M 1484.762126 2621.910537 L 1306.489176 2800.161762 " stroke="#ffffff" stroke-width="40" stroke-opacity="1" stroke-miterlimit="10"/><path stroke-linecap="round" transform="matrix(0.162256, 0, 0, -0.162122, -155.832818, 533.737237)" fill="none" stroke-linejoin="round" d="M 1512.110954 2633.259053 L 1512.110954 2772.694014 " stroke="#ffffff" stroke-width="40" stroke-opacity="1" stroke-miterlimit="10"/><path fill="#ffffff" d="M 95.796875 113.105469 C 95.796875 109.640625 92.980469 106.828125 89.515625 106.828125 C 86.046875 106.828125 83.234375 109.640625 83.234375 113.105469 C 83.234375 116.570312 86.046875 119.375 89.515625 119.375 C 92.980469 119.375 95.796875 116.570312 95.796875 113.105469 " fill-opacity="1" fill-rule="nonzero"/></svg>