<svg xmlns="http://www.w3.org/2000/svg" xmlns:xlink="http://www.w3.org/1999/xlink" width="500" zoomAndPan="magnify" viewBox="0 0 375 374.999991" height="500" preserveAspectRatio="xMidYMid meet" version="1.0"><defs><clipPath id="d9c735ee6a"><path d="M 16.875 6.445312 L 358.125 6.445312 L 358.125 348 L 16.875 348 Z M 16.875 6.445312 " clip-rule="nonzero"/></clipPath></defs><g clip-path="url(#d9c735ee6a)"><path fill="#6b7282" d="M 358.179688 177.269531 C 358.179688 271.507812 281.792969 347.894531 187.554688 347.894531 C 93.316406 347.894531 16.929688 271.507812 16.929688 177.269531 C 16.925781 83.03125 93.316406 6.644531 187.554688 6.644531 C 281.792969 6.640625 358.179688 83.03125 358.179688 177.269531 " fill-opacity="1" fill-rule="nonzero"/></g><path fill="#243047" d="M 260.183594 153.984375 C 260.183594 153.984375 260.390625 214.828125 257.847656 224.0625 C 255.316406 233.296875 247.167969 243.140625 247.167969 243.140625 C 247.167969 243.140625 241.191406 247.019531 236.847656 243.140625 L 236.847656 228.949219 L 231.957031 243.140625 C 231.957031 243.140625 219.8125 250.148438 206.066406 244.867188 C 192.3125 239.574219 206.066406 193.878906 206.066406 193.878906 L 260.195312 151.8125 " fill-opacity="1" fill-rule="nonzero"/><path fill="#243047" d="M 115.003906 153.984375 C 115.003906 153.984375 114.796875 214.828125 117.335938 224.0625 C 119.871094 233.296875 128.015625 243.140625 128.015625 243.140625 C 128.015625 243.140625 133.992188 247.019531 138.339844 243.140625 L 138.339844 228.949219 L 143.226562 243.140625 C 143.226562 243.140625 155.375 250.148438 169.117188 244.867188 C 182.871094 239.574219 169.117188 193.878906 169.117188 193.878906 L 115.003906 151.8125 " fill-opacity="1" fill-rule="nonzero"/><path fill="#ffffff" d="M 287.09375 348.359375 C 278.664062 354.660156 269.601562 360.179688 260.03125 364.796875 C 258.574219 365.503906 257.109375 366.179688 255.640625 366.839844 C 234.847656 376.164062 211.8125 381.34375 187.554688 381.34375 C 163.292969 381.34375 140.261719 376.164062 119.476562 366.839844 C 117.988281 366.179688 116.523438 365.503906 115.078125 364.796875 C 105.507812 360.171875 96.445312 354.660156 88.015625 348.359375 C 89.492188 315.375 107.015625 286.5625 132.972656 269.550781 C 148.648438 259.261719 167.402344 253.285156 187.554688 253.285156 C 190.628906 253.285156 193.671875 253.425781 196.660156 253.699219 C 213.355469 255.210938 228.851562 260.828125 242.136719 269.550781 C 254.085938 277.382812 264.246094 287.714844 271.871094 299.796875 C 280.824219 313.976562 286.289062 330.566406 287.09375 348.359375 " fill-opacity="1" fill-rule="nonzero"/><path fill="#ffb9b9" d="M 242.136719 269.550781 C 240.617188 281.054688 235.542969 291.453125 228.035156 299.578125 C 217.972656 310.476562 203.570312 317.308594 187.554688 317.308594 C 161.902344 317.308594 140.347656 299.765625 134.230469 276.015625 C 133.6875 273.90625 133.265625 271.746094 132.972656 269.550781 C 148.648438 259.261719 167.402344 253.285156 187.554688 253.285156 C 190.628906 253.285156 193.671875 253.417969 196.667969 253.699219 C 197.191406 253.742188 197.710938 253.796875 198.222656 253.851562 C 198.550781 253.882812 198.875 253.917969 199.191406 253.960938 C 199.546875 253.992188 199.90625 254.046875 200.253906 254.089844 C 200.472656 254.113281 200.699219 254.144531 200.917969 254.175781 C 201.234375 254.210938 201.558594 254.265625 201.882812 254.308594 C 202.132812 254.339844 202.382812 254.382812 202.644531 254.417969 C 202.863281 254.449219 203.078125 254.480469 203.296875 254.523438 C 203.667969 254.578125 204.023438 254.644531 204.394531 254.699219 C 205.980469 254.96875 207.554688 255.273438 209.109375 255.621094 L 210.152344 255.851562 C 210.347656 255.90625 210.554688 255.949219 210.75 256.003906 C 211.117188 256.089844 211.5 256.175781 211.859375 256.273438 C 211.921875 256.285156 211.976562 256.296875 212.019531 256.308594 C 212.488281 256.425781 212.957031 256.546875 213.410156 256.675781 C 213.910156 256.796875 214.398438 256.9375 214.878906 257.078125 C 215.433594 257.230469 215.976562 257.394531 216.53125 257.554688 C 216.953125 257.6875 217.378906 257.816406 217.800781 257.957031 C 218.074219 258.046875 218.355469 258.132812 218.617188 258.21875 C 219.0625 258.359375 219.507812 258.511719 219.941406 258.664062 C 220.484375 258.847656 221.015625 259.035156 221.550781 259.230469 C 221.59375 259.25 221.625 259.261719 221.65625 259.273438 C 222.210938 259.46875 222.753906 259.675781 223.296875 259.882812 C 223.699219 260.042969 224.113281 260.195312 224.527344 260.371094 C 225.601562 260.792969 226.65625 261.238281 227.699219 261.695312 L 229.066406 262.316406 C 229.480469 262.5 229.894531 262.695312 230.304688 262.890625 C 230.6875 263.074219 231.054688 263.25 231.425781 263.433594 C 231.773438 263.597656 232.109375 263.769531 232.445312 263.945312 C 232.664062 264.054688 232.890625 264.160156 233.109375 264.28125 C 234.011719 264.738281 234.890625 265.214844 235.757812 265.695312 C 236.074219 265.867188 236.402344 266.050781 236.703125 266.226562 C 236.910156 266.34375 237.105469 266.453125 237.300781 266.5625 L 238.042969 266.996094 L 238.789062 267.453125 L 239.28125 267.746094 C 239.746094 268.019531 240.203125 268.300781 240.660156 268.59375 C 241.160156 268.910156 241.648438 269.222656 242.136719 269.550781 " fill-opacity="1" fill-rule="nonzero"/><path fill="#ffb9b9" d="M 211.8125 225.960938 L 211.8125 273.691406 C 211.8125 285.761719 201.9375 295.648438 189.867188 295.648438 L 185.238281 295.648438 C 173.167969 295.648438 163.304688 285.761719 163.304688 273.691406 L 163.304688 225.960938 C 163.304688 213.890625 173.167969 204.027344 185.238281 204.027344 L 189.867188 204.027344 C 201.9375 204.027344 211.8125 213.890625 211.8125 225.960938 " fill-opacity="1" fill-rule="nonzero"/><path fill="#968c8c" d="M 211.8125 225.960938 L 211.8125 251.222656 C 204.601562 255.230469 196.953125 257.554688 189.183594 257.554688 C 180.023438 257.554688 171.289062 255.015625 163.304688 250.570312 L 163.304688 225.960938 C 163.304688 213.890625 173.167969 204.027344 185.238281 204.027344 L 189.867188 204.027344 C 201.9375 204.027344 211.8125 213.890625 211.8125 225.960938 " fill-opacity="1" fill-rule="nonzero"/><path fill="#ffb9b9" d="M 246.710938 207.558594 C 246.710938 207.558594 258.074219 203.691406 265.332031 191.023438 C 273.21875 177.269531 268.265625 168.695312 266.703125 166.839844 C 262.429688 161.765625 255.835938 165.023438 254.75 166.839844 C 253.664062 168.652344 237.933594 197.226562 246.710938 207.558594 " fill-opacity="1" fill-rule="nonzero"/><path fill="#968c8c" d="M 257.847656 171.347656 C 257.847656 171.347656 265.0625 172.269531 262.53125 182.40625 C 259.988281 192.554688 253.328125 196.5625 244.265625 201.746094 C 235.214844 206.929688 248.796875 173.410156 257.847656 171.347656 " fill-opacity="1" fill-rule="nonzero"/><path fill="#ffb9b9" d="M 131.351562 207.558594 C 131.351562 207.558594 119.988281 203.691406 112.730469 191.023438 C 104.832031 177.269531 109.789062 168.695312 111.351562 166.839844 C 115.621094 161.765625 122.214844 165.023438 123.300781 166.839844 C 124.390625 168.652344 140.132812 197.226562 131.351562 207.558594 " fill-opacity="1" fill-rule="nonzero"/><path fill="#968c8c" d="M 120.207031 171.347656 C 120.207031 171.347656 113.003906 172.269531 115.535156 182.40625 C 118.066406 192.554688 124.738281 196.5625 133.785156 201.746094 C 142.847656 206.929688 129.265625 173.410156 120.207031 171.347656 " fill-opacity="1" fill-rule="nonzero"/><path fill="#ffb9b9" d="M 257.847656 164.65625 C 257.847656 123.011719 227.113281 89.246094 189.183594 89.246094 C 151.265625 89.246094 120.511719 123.011719 120.511719 164.65625 C 120.511719 206.296875 151.265625 249.832031 189.183594 249.832031 C 224.820312 249.832031 257.847656 205.949219 257.847656 164.65625 " fill-opacity="1" fill-rule="nonzero"/><path fill="#243047" d="M 195.367188 134.246094 C 195.367188 134.246094 208.285156 175.800781 256.867188 171.683594 C 256.867188 171.683594 265.355469 159.417969 262.484375 132.746094 C 259.25 102.683594 232.621094 77.390625 189.183594 86.441406 C 189.183594 86.441406 185.21875 107.8125 195.367188 134.246094 " fill-opacity="1" fill-rule="nonzero"/><path fill="#243047" d="M 197.539062 89.246094 C 197.539062 89.246094 199.34375 81.378906 192.824219 75.21875 C 186.304688 69.058594 94.523438 84.585938 117.371094 172.671875 C 117.371094 172.671875 140.632812 115.046875 193.910156 110.703125 L 197.539062 89.246094 " fill-opacity="1" fill-rule="nonzero"/></svg>