<svg xmlns="http://www.w3.org/2000/svg" xmlns:xlink="http://www.w3.org/1999/xlink" width="500" zoomAndPan="magnify" viewBox="0 0 375 374.999991" height="500" preserveAspectRatio="xMidYMid meet" version="1.0"><defs><g/><clipPath id="4bed835426"><path d="M 66 176 L 301 176 L 301 212.460938 L 66 212.460938 Z M 66 176 " clip-rule="nonzero"/></clipPath><clipPath id="8bd6924b0d"><path d="M 57.023438 158 L 309.78125 158 L 309.78125 168 L 57.023438 168 Z M 57.023438 158 " clip-rule="nonzero"/></clipPath></defs><g fill="#243047" fill-opacity="1"><g transform="translate(65.787223, 337.351068)"><g><path d="M 73.015625 0 L 43.703125 0 L 2.1875 -122.859375 L 27.984375 -122.859375 L 57.8125 -31.265625 L 59.90625 -31.265625 L 89.328125 -122.859375 L 114.453125 -122.859375 Z M 73.015625 0 "/></g></g></g><g fill="#243047" fill-opacity="1"><g transform="translate(182.420304, 337.351068)"><g><path d="M 95.296875 -76.640625 L 95.296875 -122.859375 L 119.484375 -122.859375 L 119.484375 0 L 95.296875 0 L 95.296875 -55.96875 L 40.25 -55.96875 L 40.25 0 L 15.96875 0 L 15.96875 -122.859375 L 40.25 -122.859375 L 40.25 -76.640625 Z M 95.296875 -76.640625 "/></g></g></g><path fill="#243047" d="M 129.273438 36.164062 C 129.273438 37.84375 129.503906 39.488281 129.960938 41.105469 C 130.417969 42.71875 131.089844 44.242188 131.96875 45.667969 C 132.851562 47.097656 133.910156 48.378906 135.144531 49.511719 C 136.382812 50.644531 137.75 51.585938 139.246094 52.335938 C 140.746094 53.085938 142.320312 53.617188 143.964844 53.929688 C 145.609375 54.242188 147.269531 54.324219 148.9375 54.171875 C 150.605469 54.023438 152.222656 53.644531 153.785156 53.042969 C 155.351562 52.441406 156.800781 51.636719 158.140625 50.628906 C 159.261719 49.785156 160.273438 48.828125 161.167969 47.75 C 162.066406 46.671875 162.828125 45.503906 163.453125 44.25 C 164.082031 42.996094 164.554688 41.683594 164.875 40.316406 C 165.199219 38.953125 165.359375 37.566406 165.359375 36.164062 L 165.359375 18.082031 C 165.359375 17.488281 165.332031 16.898438 165.273438 16.308594 C 165.214844 15.71875 165.128906 15.136719 165.011719 14.554688 C 164.898438 13.972656 164.753906 13.398438 164.582031 12.832031 C 164.410156 12.265625 164.210938 11.710938 163.984375 11.164062 C 163.761719 10.613281 163.507812 10.082031 163.230469 9.558594 C 162.949219 9.035156 162.648438 8.527344 162.320312 8.035156 C 161.992188 7.542969 161.640625 7.070312 161.265625 6.609375 C 160.890625 6.152344 160.492188 5.714844 160.074219 5.296875 C 159.65625 4.878906 159.21875 4.480469 158.761719 4.105469 C 158.304688 3.730469 157.832031 3.375 157.339844 3.046875 C 156.847656 2.71875 156.34375 2.414062 155.820312 2.136719 C 155.300781 1.855469 154.765625 1.601562 154.222656 1.375 C 153.675781 1.148438 153.121094 0.949219 152.554688 0.777344 C 151.988281 0.605469 151.417969 0.464844 150.835938 0.347656 C 150.257812 0.230469 149.671875 0.144531 149.085938 0.0859375 C 148.496094 0.0273438 147.90625 0 147.316406 0 C 146.726562 0 146.136719 0.0273438 145.546875 0.0859375 C 144.960938 0.144531 144.375 0.230469 143.796875 0.347656 C 143.21875 0.464844 142.644531 0.605469 142.078125 0.777344 C 141.515625 0.949219 140.957031 1.148438 140.414062 1.375 C 139.867188 1.601562 139.332031 1.855469 138.8125 2.136719 C 138.289062 2.414062 137.785156 2.71875 137.292969 3.046875 C 136.800781 3.375 136.328125 3.730469 135.871094 4.105469 C 135.414062 4.480469 134.976562 4.878906 134.558594 5.296875 C 134.140625 5.714844 133.746094 6.152344 133.371094 6.609375 C 132.996094 7.070312 132.644531 7.542969 132.316406 8.035156 C 131.988281 8.527344 131.683594 9.035156 131.40625 9.558594 C 131.125 10.082031 130.875 10.613281 130.648438 11.164062 C 130.421875 11.710938 130.222656 12.265625 130.050781 12.832031 C 129.878906 13.398438 129.734375 13.972656 129.621094 14.554688 C 129.503906 15.136719 129.417969 15.71875 129.359375 16.308594 C 129.304688 16.898438 129.273438 17.488281 129.273438 18.082031 Z M 129.273438 36.164062 " fill-opacity="1" fill-rule="nonzero"/><path fill="#243047" d="M 201.445312 36.164062 C 201.445312 37.84375 201.671875 39.488281 202.132812 41.105469 C 202.589844 42.71875 203.257812 44.242188 204.140625 45.667969 C 205.019531 47.097656 206.078125 48.378906 207.316406 49.511719 C 208.550781 50.644531 209.917969 51.585938 211.417969 52.335938 C 212.917969 53.085938 214.488281 53.617188 216.136719 53.929688 C 217.78125 54.242188 219.4375 54.324219 221.105469 54.171875 C 222.777344 54.023438 224.390625 53.644531 225.957031 53.042969 C 227.519531 52.441406 228.972656 51.636719 230.3125 50.628906 C 231.433594 49.785156 232.441406 48.828125 233.339844 47.75 C 234.238281 46.671875 235 45.503906 235.625 44.25 C 236.25 42.996094 236.726562 41.683594 237.046875 40.316406 C 237.367188 38.953125 237.53125 37.566406 237.53125 36.164062 L 237.53125 18.082031 C 237.53125 17.488281 237.5 16.898438 237.441406 16.308594 C 237.382812 15.71875 237.296875 15.136719 237.183594 14.554688 C 237.066406 13.972656 236.925781 13.398438 236.753906 12.832031 C 236.582031 12.265625 236.382812 11.710938 236.15625 11.164062 C 235.929688 10.613281 235.675781 10.082031 235.398438 9.558594 C 235.121094 9.035156 234.816406 8.527344 234.488281 8.035156 C 234.160156 7.542969 233.808594 7.070312 233.433594 6.609375 C 233.058594 6.152344 232.664062 5.714844 232.246094 5.296875 C 231.828125 4.878906 231.390625 4.480469 230.933594 4.105469 C 230.476562 3.730469 230.003906 3.375 229.511719 3.046875 C 229.019531 2.71875 228.511719 2.414062 227.992188 2.136719 C 227.472656 1.855469 226.9375 1.601562 226.390625 1.375 C 225.84375 1.148438 225.289062 0.949219 224.722656 0.777344 C 224.160156 0.605469 223.585938 0.464844 223.007812 0.347656 C 222.425781 0.230469 221.84375 0.144531 221.253906 0.0859375 C 220.667969 0.0273438 220.078125 0 219.488281 0 C 218.894531 0 218.304688 0.0273438 217.71875 0.0859375 C 217.128906 0.144531 216.546875 0.230469 215.96875 0.347656 C 215.386719 0.464844 214.816406 0.605469 214.25 0.777344 C 213.683594 0.949219 213.128906 1.148438 212.582031 1.375 C 212.035156 1.601562 211.503906 1.855469 210.980469 2.136719 C 210.460938 2.414062 209.953125 2.71875 209.464844 3.046875 C 208.972656 3.375 208.496094 3.730469 208.039062 4.105469 C 207.585938 4.480469 207.148438 4.878906 206.730469 5.296875 C 206.3125 5.714844 205.914062 6.152344 205.539062 6.609375 C 205.164062 7.070312 204.8125 7.542969 204.484375 8.035156 C 204.15625 8.527344 203.851562 9.035156 203.574219 9.558594 C 203.296875 10.082031 203.042969 10.613281 202.816406 11.164062 C 202.589844 11.710938 202.394531 12.265625 202.222656 12.832031 C 202.050781 13.398438 201.90625 13.972656 201.792969 14.554688 C 201.675781 15.136719 201.589844 15.71875 201.53125 16.308594 C 201.472656 16.898438 201.445312 17.488281 201.445312 18.082031 Z M 201.445312 36.164062 " fill-opacity="1" fill-rule="nonzero"/><path fill="#243047" d="M 140.460938 113.871094 L 147.316406 89.1875 C 147.453125 88.699219 147.664062 88.246094 147.953125 87.828125 C 148.242188 87.414062 148.59375 87.054688 149 86.753906 C 149.410156 86.457031 149.855469 86.230469 150.339844 86.082031 C 150.824219 85.933594 151.320312 85.871094 151.828125 85.890625 L 200.089844 85.890625 C 199.644531 84.9375 199.09375 84.046875 198.4375 83.222656 C 197.78125 82.398438 197.042969 81.660156 196.21875 81.011719 C 195.390625 80.359375 194.5 79.8125 193.546875 79.367188 C 192.59375 78.925781 191.601562 78.597656 190.574219 78.386719 L 164.636719 73.1875 C 164.109375 73.820312 163.550781 74.421875 162.957031 74.996094 C 162.363281 75.570312 161.738281 76.105469 161.085938 76.609375 C 160.433594 77.113281 159.757812 77.582031 159.054688 78.011719 C 158.351562 78.441406 157.625 78.832031 156.878906 79.179688 C 156.132812 79.53125 155.371094 79.839844 154.589844 80.105469 C 153.8125 80.371094 153.019531 80.59375 152.214844 80.773438 C 151.410156 80.953125 150.597656 81.085938 149.78125 81.175781 C 148.960938 81.269531 148.140625 81.3125 147.316406 81.3125 C 146.492188 81.3125 145.671875 81.269531 144.851562 81.175781 C 144.035156 81.085938 143.222656 80.953125 142.417969 80.773438 C 141.613281 80.59375 140.824219 80.371094 140.042969 80.105469 C 139.261719 79.839844 138.5 79.53125 137.753906 79.179688 C 137.007812 78.832031 136.285156 78.441406 135.582031 78.011719 C 134.875 77.582031 134.199219 77.113281 133.546875 76.609375 C 132.894531 76.105469 132.269531 75.570312 131.675781 74.996094 C 131.085938 74.421875 130.523438 73.820312 129.996094 73.1875 L 104.105469 78.386719 C 103.34375 78.535156 102.597656 78.75 101.871094 79.03125 C 101.148438 79.308594 100.449219 79.648438 99.785156 80.046875 C 99.117188 80.445312 98.488281 80.898438 97.898438 81.40625 C 97.308594 81.914062 96.765625 82.46875 96.273438 83.070312 C 95.78125 83.671875 95.339844 84.3125 94.957031 84.988281 C 94.574219 85.667969 94.25 86.371094 93.984375 87.105469 C 93.722656 87.839844 93.523438 88.589844 93.390625 89.355469 C 93.257812 90.121094 93.191406 90.894531 93.1875 91.675781 L 93.1875 135.613281 C 93.1875 136.503906 93.277344 137.386719 93.449219 138.257812 C 93.621094 139.132812 93.878906 139.980469 94.21875 140.804688 C 94.558594 141.625 94.976562 142.40625 95.46875 143.148438 C 95.964844 143.886719 96.523438 144.574219 97.152344 145.203125 C 97.78125 145.832031 98.464844 146.394531 99.203125 146.890625 C 99.941406 147.382812 100.722656 147.800781 101.542969 148.144531 C 102.363281 148.484375 103.210938 148.742188 104.082031 148.914062 C 104.953125 149.089844 105.832031 149.175781 106.722656 149.175781 C 109.050781 149.1875 111.277344 148.703125 113.398438 147.730469 L 133.378906 138.6875 L 137.527344 124.132812 L 112.40625 131.09375 C 112.011719 131.164062 111.621094 131.164062 111.230469 131.09375 C 110.207031 131.089844 109.289062 130.773438 108.480469 130.144531 C 107.925781 129.71875 107.496094 129.191406 107.1875 128.5625 C 106.878906 127.9375 106.722656 127.273438 106.722656 126.574219 L 106.722656 103.96875 L 115.742188 103.96875 L 115.742188 120.652344 Z M 140.460938 113.871094 " fill-opacity="1" fill-rule="nonzero"/><path fill="#243047" d="M 219.488281 63.285156 C 216.386719 63.292969 213.378906 62.765625 210.464844 61.703125 L 210.464844 67.808594 C 210.492188 68.09375 210.492188 68.378906 210.464844 68.664062 C 211.078125 69.246094 211.738281 69.765625 212.449219 70.222656 C 213.160156 70.679688 213.910156 71.0625 214.691406 71.375 C 215.476562 71.691406 216.285156 71.925781 217.113281 72.085938 C 217.941406 72.246094 218.777344 72.324219 219.621094 72.324219 C 220.464844 72.324219 221.304688 72.246094 222.132812 72.085938 C 222.960938 71.925781 223.765625 71.691406 224.550781 71.375 C 225.335938 71.0625 226.082031 70.679688 226.792969 70.222656 C 227.503906 69.765625 228.167969 69.246094 228.777344 68.664062 C 228.664062 68.386719 228.570312 68.101562 228.507812 67.808594 L 228.507812 61.703125 C 225.59375 62.765625 222.585938 63.292969 219.488281 63.285156 Z M 219.488281 63.285156 " fill-opacity="1" fill-rule="nonzero"/><path fill="#243047" d="M 273.613281 149.175781 L 273.613281 91.675781 C 273.613281 90.898438 273.546875 90.125 273.414062 89.359375 C 273.28125 88.59375 273.085938 87.84375 272.824219 87.113281 C 272.5625 86.382812 272.242188 85.675781 271.859375 85 C 271.476562 84.324219 271.039062 83.683594 270.546875 83.085938 C 270.054688 82.484375 269.515625 81.929688 268.929688 81.417969 C 268.34375 80.910156 267.71875 80.457031 267.050781 80.058594 C 266.386719 79.65625 265.691406 79.316406 264.96875 79.035156 C 264.246094 78.753906 263.503906 78.539062 262.742188 78.386719 L 236.808594 73.1875 C 236.28125 73.820312 235.71875 74.421875 235.125 74.996094 C 234.53125 75.570312 233.910156 76.105469 233.257812 76.609375 C 232.605469 77.113281 231.925781 77.582031 231.222656 78.011719 C 230.519531 78.441406 229.796875 78.832031 229.050781 79.179688 C 228.304688 79.53125 227.539062 79.839844 226.761719 80.105469 C 225.980469 80.371094 225.1875 80.59375 224.386719 80.773438 C 223.582031 80.953125 222.769531 81.085938 221.949219 81.175781 C 221.132812 81.269531 220.3125 81.3125 219.488281 81.3125 C 218.664062 81.3125 217.84375 81.269531 217.023438 81.175781 C 216.203125 81.085938 215.394531 80.953125 214.589844 80.773438 C 213.785156 80.59375 212.992188 80.371094 212.214844 80.105469 C 211.433594 79.839844 210.671875 79.53125 209.925781 79.179688 C 209.179688 78.832031 208.453125 78.441406 207.75 78.011719 C 207.046875 77.582031 206.367188 77.113281 205.714844 76.609375 C 205.0625 76.105469 204.441406 75.570312 203.847656 74.996094 C 203.253906 74.421875 202.695312 73.820312 202.167969 73.1875 L 201.082031 73.1875 C 203.207031 74.738281 205.003906 76.605469 206.476562 78.785156 C 207.949219 80.96875 209.007812 83.335938 209.652344 85.890625 L 233.019531 85.890625 C 233.730469 85.890625 234.402344 86.046875 235.035156 86.367188 C 235.671875 86.683594 236.203125 87.128906 236.628906 87.695312 C 237.046875 88.261719 237.320312 88.886719 237.445312 89.578125 C 237.574219 90.269531 237.539062 90.953125 237.347656 91.628906 L 220.976562 149.175781 L 251.0625 149.175781 L 251.0625 103.96875 L 260.082031 103.96875 L 260.082031 149.175781 Z M 273.613281 149.175781 " fill-opacity="1" fill-rule="nonzero"/><path fill="#243047" d="M 147.316406 63.285156 C 144.21875 63.292969 141.210938 62.765625 138.296875 61.703125 L 138.296875 67.808594 C 138.320312 68.09375 138.320312 68.378906 138.296875 68.664062 C 138.90625 69.246094 139.570312 69.765625 140.28125 70.222656 C 140.992188 70.679688 141.738281 71.0625 142.523438 71.375 C 143.308594 71.691406 144.113281 71.925781 144.941406 72.085938 C 145.773438 72.246094 146.609375 72.324219 147.453125 72.324219 C 148.296875 72.324219 149.132812 72.246094 149.960938 72.085938 C 150.789062 71.925781 151.597656 71.691406 152.382812 71.375 C 153.164062 71.0625 153.914062 70.679688 154.625 70.222656 C 155.335938 69.765625 155.996094 69.246094 156.609375 68.664062 C 156.492188 68.386719 156.402344 68.101562 156.339844 67.808594 L 156.339844 61.703125 C 153.425781 62.765625 150.417969 63.292969 147.316406 63.285156 Z M 147.316406 63.285156 " fill-opacity="1" fill-rule="nonzero"/><g clip-path="url(#4bed835426)"><path fill="#243047" d="M 66.125 176.296875 L 66.125 212.460938 L 300.679688 212.460938 L 300.679688 176.296875 Z M 84.167969 194.378906 L 75.148438 194.378906 L 75.148438 185.339844 L 84.167969 185.339844 Z M 102.210938 194.378906 L 93.1875 194.378906 L 93.1875 185.339844 L 102.210938 185.339844 Z M 120.253906 194.378906 L 111.230469 194.378906 L 111.230469 185.339844 L 120.253906 185.339844 Z M 120.253906 194.378906 " fill-opacity="1" fill-rule="nonzero"/></g><g clip-path="url(#8bd6924b0d)"><path fill="#243047" d="M 309.699219 167.257812 L 309.699219 158.214844 L 57.105469 158.214844 L 57.105469 167.257812 Z M 309.699219 167.257812 " fill-opacity="1" fill-rule="nonzero"/></g><path fill="#243047" d="M 227.019531 94.929688 L 155.210938 94.929688 L 139.785156 149.175781 L 211.59375 149.175781 Z M 187.914062 126.574219 L 178.890625 126.574219 L 178.890625 117.53125 L 187.914062 117.53125 Z M 187.914062 126.574219 " fill-opacity="1" fill-rule="nonzero"/></svg>