<svg xmlns="http://www.w3.org/2000/svg" xmlns:xlink="http://www.w3.org/1999/xlink" width="500" zoomAndPan="magnify" viewBox="0 0 375 374.999991" height="500" preserveAspectRatio="xMidYMid meet" version="1.0"><path fill="#243047" d="M 25 75 C 11.1875 75 0 86.1875 0 100 L 0 275 C 0 288.8125 11.1875 300 25 300 L 237.5 300 C 251.3125 300 262.5 288.8125 262.5 275 L 262.5 100 C 262.5 86.1875 251.3125 75 237.5 75 Z M 362.5 100 C 360.871094 100 359.304688 100.304688 357.796875 100.917969 C 356.289062 101.53125 354.949219 102.40625 353.785156 103.539062 L 287.5 162.5 L 287.5 212.5 L 354.050781 271.703125 L 354.246094 271.875 C 355.386719 272.878906 356.667969 273.652344 358.089844 274.191406 C 359.511719 274.726562 360.980469 274.996094 362.5 275 C 363.320312 275 364.132812 274.917969 364.9375 274.761719 C 365.742188 274.601562 366.523438 274.363281 367.285156 274.046875 C 368.042969 273.734375 368.761719 273.347656 369.445312 272.894531 C 370.128906 272.4375 370.757812 271.917969 371.339844 271.339844 C 371.917969 270.757812 372.4375 270.128906 372.894531 269.445312 C 373.347656 268.761719 373.734375 268.042969 374.046875 267.285156 C 374.363281 266.523438 374.601562 265.742188 374.757812 264.9375 C 374.917969 264.132812 375 263.320312 375 262.5 L 375 112.5 C 375 111.679688 374.917969 110.867188 374.757812 110.0625 C 374.601562 109.257812 374.363281 108.476562 374.046875 107.714844 C 373.734375 106.957031 373.347656 106.238281 372.894531 105.554688 C 372.4375 104.871094 371.917969 104.242188 371.339844 103.660156 C 370.757812 103.082031 370.128906 102.5625 369.445312 102.105469 C 368.761719 101.652344 368.042969 101.265625 367.285156 100.953125 C 366.523438 100.636719 365.742188 100.398438 364.9375 100.238281 C 364.132812 100.078125 363.320312 100 362.5 100 Z M 362.5 100 " fill-opacity="1" fill-rule="nonzero"/></svg>