<svg xmlns="http://www.w3.org/2000/svg" xmlns:xlink="http://www.w3.org/1999/xlink" width="500" zoomAndPan="magnify" viewBox="0 0 375 374.999991" height="500" preserveAspectRatio="xMidYMid meet" version="1.0"><defs><clipPath id="db1214bc70"><path d="M 0 105 L 162 105 L 162 344.71875 L 0 344.71875 Z M 0 105 " clip-rule="nonzero"/></clipPath><clipPath id="0a5caec913"><path d="M 60 30.46875 L 338 30.46875 L 338 188 L 60 188 Z M 60 30.46875 " clip-rule="nonzero"/></clipPath></defs><g clip-path="url(#db1214bc70)"><path fill="#243047" d="M 97.390625 198.089844 C 98.984375 200.003906 101.359375 201.105469 103.832031 201.105469 C 104.007812 201.105469 104.183594 201.101562 104.359375 201.089844 C 107.019531 200.921875 109.457031 199.484375 110.898438 197.242188 L 133.460938 162.058594 C 135.585938 158.75 135.082031 154.515625 132.507812 151.777344 L 161.882812 107.9375 L 158.394531 105.597656 L 128.957031 149.53125 C 125.421875 148.394531 121.429688 149.710938 119.332031 152.988281 L 102.941406 178.539062 L 80.882812 152.136719 C 79.429688 150.390625 77.414062 149.394531 75.320312 149.171875 C 74.515625 148.90625 73.660156 148.753906 72.765625 148.753906 L 32.214844 148.753906 C 32.132812 148.753906 32.050781 148.765625 31.96875 148.769531 C 30.09375 148.777344 26.875 149.164062 23.210938 151.011719 C 17.566406 153.816406 11.476562 159.941406 7.21875 170.796875 C 2.910156 181.699219 0.015625 197.457031 0 221.253906 C 0.00390625 227.40625 0.199219 234.09375 0.628906 241.375 C 0.890625 245.839844 4.589844 249.285156 9.003906 249.285156 C 9.167969 249.285156 9.335938 249.28125 9.503906 249.269531 C 14.128906 248.996094 17.664062 245.023438 17.390625 240.386719 C 16.980469 233.40625 16.792969 227.042969 16.796875 221.253906 C 16.757812 195.8125 20.464844 181.527344 24.105469 174.074219 L 24.105469 331.609375 C 24.105469 338.78125 29.917969 344.59375 37.082031 344.59375 C 44.246094 344.59375 50.058594 338.78125 50.058594 331.609375 L 50.058594 236.8125 L 54.921875 236.8125 L 54.921875 331.609375 C 54.921875 338.78125 60.734375 344.59375 67.898438 344.59375 C 75.066406 344.59375 80.875 338.78125 80.875 331.609375 L 80.875 178.324219 Z M 97.390625 198.089844 " fill-opacity="1" fill-rule="nonzero"/></g><path fill="#243047" d="M 76.105469 119.140625 C 76.105469 119.914062 76.066406 120.6875 75.992188 121.457031 C 75.914062 122.226562 75.800781 122.992188 75.652344 123.75 C 75.5 124.511719 75.3125 125.261719 75.089844 126 C 74.863281 126.742188 74.605469 127.46875 74.308594 128.183594 C 74.011719 128.898438 73.679688 129.597656 73.316406 130.28125 C 72.953125 130.960938 72.554688 131.625 72.125 132.269531 C 71.695312 132.914062 71.234375 133.535156 70.746094 134.132812 C 70.253906 134.730469 69.734375 135.300781 69.1875 135.851562 C 68.640625 136.398438 68.070312 136.917969 67.472656 137.40625 C 66.875 137.898438 66.253906 138.359375 65.609375 138.789062 C 64.96875 139.21875 64.304688 139.617188 63.621094 139.980469 C 62.941406 140.34375 62.242188 140.675781 61.527344 140.972656 C 60.8125 141.269531 60.085938 141.527344 59.34375 141.753906 C 58.605469 141.976562 57.855469 142.164062 57.097656 142.316406 C 56.339844 142.46875 55.574219 142.582031 54.804688 142.65625 C 54.035156 142.734375 53.265625 142.769531 52.492188 142.769531 C 51.71875 142.769531 50.945312 142.734375 50.175781 142.65625 C 49.40625 142.582031 48.640625 142.46875 47.882812 142.316406 C 47.125 142.164062 46.375 141.976562 45.636719 141.753906 C 44.894531 141.527344 44.167969 141.269531 43.453125 140.972656 C 42.738281 140.675781 42.039062 140.34375 41.359375 139.980469 C 40.675781 139.617188 40.015625 139.21875 39.371094 138.789062 C 38.726562 138.359375 38.109375 137.898438 37.507812 137.40625 C 36.910156 136.917969 36.339844 136.398438 35.792969 135.851562 C 35.246094 135.300781 34.726562 134.730469 34.234375 134.132812 C 33.746094 133.535156 33.285156 132.914062 32.855469 132.269531 C 32.425781 131.625 32.027344 130.960938 31.664062 130.28125 C 31.300781 129.597656 30.96875 128.898438 30.671875 128.183594 C 30.378906 127.46875 30.117188 126.742188 29.894531 126 C 29.667969 125.261719 29.480469 124.511719 29.328125 123.75 C 29.179688 122.992188 29.066406 122.226562 28.988281 121.457031 C 28.914062 120.6875 28.875 119.914062 28.875 119.140625 C 28.875 118.367188 28.914062 117.597656 28.988281 116.824219 C 29.066406 116.054688 29.179688 115.292969 29.328125 114.53125 C 29.480469 113.773438 29.667969 113.023438 29.894531 112.28125 C 30.117188 111.542969 30.378906 110.816406 30.671875 110.097656 C 30.96875 109.382812 31.300781 108.6875 31.664062 108.003906 C 32.027344 107.320312 32.425781 106.65625 32.855469 106.015625 C 33.285156 105.371094 33.746094 104.75 34.234375 104.152344 C 34.726562 103.554688 35.246094 102.980469 35.792969 102.433594 C 36.339844 101.886719 36.910156 101.367188 37.507812 100.875 C 38.109375 100.386719 38.726562 99.925781 39.371094 99.496094 C 40.015625 99.066406 40.675781 98.667969 41.359375 98.304688 C 42.039062 97.9375 42.738281 97.609375 43.453125 97.3125 C 44.167969 97.015625 44.894531 96.753906 45.636719 96.53125 C 46.375 96.304688 47.125 96.117188 47.882812 95.96875 C 48.640625 95.816406 49.40625 95.703125 50.175781 95.628906 C 50.945312 95.550781 51.71875 95.511719 52.492188 95.511719 C 53.265625 95.511719 54.035156 95.550781 54.804688 95.628906 C 55.574219 95.703125 56.339844 95.816406 57.097656 95.96875 C 57.855469 96.117188 58.605469 96.304688 59.34375 96.53125 C 60.085938 96.753906 60.8125 97.015625 61.527344 97.3125 C 62.242188 97.609375 62.941406 97.9375 63.621094 98.304688 C 64.304688 98.667969 64.96875 99.066406 65.609375 99.496094 C 66.253906 99.925781 66.875 100.386719 67.472656 100.875 C 68.070312 101.367188 68.640625 101.886719 69.1875 102.433594 C 69.734375 102.980469 70.253906 103.554688 70.746094 104.152344 C 71.234375 104.75 71.695312 105.371094 72.125 106.015625 C 72.554688 106.65625 72.953125 107.320312 73.316406 108.003906 C 73.679688 108.6875 74.011719 109.382812 74.308594 110.097656 C 74.605469 110.816406 74.863281 111.542969 75.089844 112.28125 C 75.3125 113.023438 75.5 113.773438 75.652344 114.53125 C 75.800781 115.292969 75.914062 116.054688 75.992188 116.824219 C 76.066406 117.597656 76.105469 118.367188 76.105469 119.140625 Z M 76.105469 119.140625 " fill-opacity="1" fill-rule="nonzero"/><g clip-path="url(#0a5caec913)"><path fill="#243047" d="M 337.507812 30.59375 L 60.429688 30.59375 L 60.429688 83.597656 L 65.679688 83.597656 L 65.679688 35.839844 L 332.257812 35.839844 L 332.257812 181.816406 L 137.679688 181.816406 L 137.679688 187.070312 L 337.507812 187.070312 Z M 337.507812 30.59375 " fill-opacity="1" fill-rule="nonzero"/></g><path fill="#243047" d="M 169.246094 255.742188 C 169.246094 256.515625 169.207031 257.289062 169.128906 258.058594 C 169.054688 258.828125 168.941406 259.59375 168.789062 260.351562 C 168.640625 261.109375 168.453125 261.859375 168.226562 262.601562 C 168.003906 263.339844 167.742188 264.070312 167.445312 264.785156 C 167.152344 265.5 166.820312 266.199219 166.457031 266.878906 C 166.089844 267.5625 165.695312 268.226562 165.265625 268.871094 C 164.835938 269.511719 164.375 270.132812 163.882812 270.730469 C 163.394531 271.332031 162.875 271.902344 162.328125 272.449219 C 161.78125 272.996094 161.207031 273.515625 160.609375 274.007812 C 160.011719 274.5 159.390625 274.957031 158.75 275.386719 C 158.105469 275.820312 157.445312 276.214844 156.761719 276.582031 C 156.078125 276.945312 155.382812 277.277344 154.667969 277.570312 C 153.953125 277.867188 153.226562 278.128906 152.484375 278.351562 C 151.746094 278.578125 150.996094 278.765625 150.238281 278.917969 C 149.476562 279.066406 148.714844 279.179688 147.945312 279.257812 C 147.175781 279.332031 146.402344 279.371094 145.628906 279.371094 C 144.855469 279.371094 144.085938 279.332031 143.316406 279.257812 C 142.546875 279.179688 141.78125 279.066406 141.023438 278.917969 C 140.265625 278.765625 139.515625 278.578125 138.773438 278.351562 C 138.035156 278.128906 137.308594 277.867188 136.59375 277.570312 C 135.878906 277.277344 135.179688 276.945312 134.496094 276.582031 C 133.816406 276.214844 133.152344 275.820312 132.511719 275.386719 C 131.867188 274.957031 131.246094 274.5 130.648438 274.007812 C 130.050781 273.515625 129.480469 272.996094 128.933594 272.449219 C 128.386719 271.902344 127.867188 271.332031 127.375 270.730469 C 126.882812 270.132812 126.425781 269.511719 125.996094 268.871094 C 125.566406 268.226562 125.167969 267.5625 124.804688 266.878906 C 124.4375 266.199219 124.109375 265.5 123.8125 264.785156 C 123.515625 264.070312 123.257812 263.339844 123.03125 262.601562 C 122.808594 261.859375 122.621094 261.109375 122.46875 260.351562 C 122.316406 259.59375 122.203125 258.828125 122.128906 258.058594 C 122.054688 257.289062 122.015625 256.515625 122.015625 255.742188 C 122.015625 254.96875 122.054688 254.195312 122.128906 253.425781 C 122.203125 252.65625 122.316406 251.890625 122.46875 251.132812 C 122.621094 250.375 122.808594 249.625 123.03125 248.882812 C 123.257812 248.140625 123.515625 247.414062 123.8125 246.699219 C 124.109375 245.984375 124.4375 245.285156 124.804688 244.605469 C 125.167969 243.921875 125.566406 243.257812 125.996094 242.613281 C 126.425781 241.972656 126.882812 241.351562 127.375 240.753906 C 127.867188 240.152344 128.386719 239.582031 128.933594 239.035156 C 129.480469 238.488281 130.050781 237.96875 130.648438 237.476562 C 131.246094 236.984375 131.867188 236.527344 132.511719 236.09375 C 133.152344 235.664062 133.816406 235.269531 134.496094 234.902344 C 135.179688 234.539062 135.878906 234.207031 136.59375 233.910156 C 137.308594 233.617188 138.035156 233.355469 138.773438 233.128906 C 139.515625 232.90625 140.265625 232.71875 141.023438 232.566406 C 141.78125 232.417969 142.546875 232.304688 143.316406 232.226562 C 144.085938 232.152344 144.855469 232.113281 145.628906 232.113281 C 146.402344 232.113281 147.175781 232.152344 147.945312 232.226562 C 148.714844 232.304688 149.476562 232.417969 150.238281 232.566406 C 150.996094 232.71875 151.746094 232.90625 152.484375 233.128906 C 153.226562 233.355469 153.953125 233.617188 154.667969 233.910156 C 155.382812 234.207031 156.078125 234.539062 156.761719 234.902344 C 157.445312 235.269531 158.105469 235.664062 158.75 236.09375 C 159.390625 236.527344 160.011719 236.984375 160.609375 237.476562 C 161.207031 237.96875 161.78125 238.488281 162.328125 239.035156 C 162.875 239.582031 163.394531 240.152344 163.882812 240.753906 C 164.375 241.351562 164.835938 241.972656 165.265625 242.613281 C 165.695312 243.257812 166.089844 243.921875 166.457031 244.605469 C 166.820312 245.285156 167.152344 245.984375 167.445312 246.699219 C 167.742188 247.414062 168.003906 248.140625 168.226562 248.882812 C 168.453125 249.625 168.640625 250.375 168.789062 251.132812 C 168.941406 251.890625 169.054688 252.65625 169.128906 253.425781 C 169.207031 254.195312 169.246094 254.96875 169.246094 255.742188 Z M 169.246094 255.742188 " fill-opacity="1" fill-rule="nonzero"/><path fill="#243047" d="M 257.929688 255.742188 C 257.929688 256.515625 257.890625 257.289062 257.816406 258.058594 C 257.742188 258.828125 257.628906 259.59375 257.476562 260.351562 C 257.324219 261.109375 257.136719 261.859375 256.914062 262.601562 C 256.6875 263.339844 256.429688 264.070312 256.132812 264.785156 C 255.835938 265.5 255.507812 266.199219 255.140625 266.878906 C 254.777344 267.5625 254.378906 268.226562 253.949219 268.871094 C 253.519531 269.511719 253.0625 270.132812 252.570312 270.730469 C 252.078125 271.332031 251.5625 271.902344 251.015625 272.449219 C 250.46875 272.996094 249.894531 273.515625 249.296875 274.007812 C 248.699219 274.5 248.078125 274.957031 247.433594 275.386719 C 246.792969 275.820312 246.128906 276.214844 245.449219 276.582031 C 244.765625 276.945312 244.066406 277.277344 243.351562 277.570312 C 242.636719 277.867188 241.910156 278.128906 241.171875 278.351562 C 240.429688 278.578125 239.679688 278.765625 238.921875 278.917969 C 238.164062 279.066406 237.398438 279.179688 236.628906 279.257812 C 235.859375 279.332031 235.089844 279.371094 234.316406 279.371094 C 233.542969 279.371094 232.769531 279.332031 232 279.257812 C 231.230469 279.179688 230.46875 279.066406 229.707031 278.917969 C 228.949219 278.765625 228.199219 278.578125 227.460938 278.351562 C 226.71875 278.128906 225.992188 277.867188 225.277344 277.570312 C 224.5625 277.277344 223.867188 276.945312 223.183594 276.582031 C 222.5 276.214844 221.839844 275.820312 221.195312 275.386719 C 220.554688 274.957031 219.933594 274.5 219.335938 274.007812 C 218.738281 273.515625 218.164062 272.996094 217.617188 272.449219 C 217.070312 271.902344 216.550781 271.332031 216.0625 270.730469 C 215.570312 270.132812 215.109375 269.511719 214.679688 268.871094 C 214.25 268.226562 213.855469 267.5625 213.488281 266.878906 C 213.125 266.199219 212.792969 265.5 212.5 264.785156 C 212.203125 264.070312 211.941406 263.339844 211.71875 262.601562 C 211.492188 261.859375 211.304688 261.109375 211.15625 260.351562 C 211.003906 259.59375 210.890625 258.828125 210.816406 258.058594 C 210.738281 257.289062 210.699219 256.515625 210.699219 255.742188 C 210.699219 254.96875 210.738281 254.195312 210.816406 253.425781 C 210.890625 252.65625 211.003906 251.890625 211.15625 251.132812 C 211.304688 250.375 211.492188 249.625 211.71875 248.882812 C 211.941406 248.140625 212.203125 247.414062 212.5 246.699219 C 212.792969 245.984375 213.125 245.285156 213.488281 244.605469 C 213.855469 243.921875 214.25 243.257812 214.679688 242.613281 C 215.109375 241.972656 215.570312 241.351562 216.0625 240.753906 C 216.550781 240.152344 217.070312 239.582031 217.617188 239.035156 C 218.164062 238.488281 218.738281 237.96875 219.335938 237.476562 C 219.933594 236.984375 220.554688 236.527344 221.195312 236.09375 C 221.839844 235.664062 222.5 235.269531 223.183594 234.902344 C 223.867188 234.539062 224.5625 234.207031 225.277344 233.910156 C 225.992188 233.617188 226.71875 233.355469 227.460938 233.128906 C 228.199219 232.90625 228.949219 232.71875 229.707031 232.566406 C 230.46875 232.417969 231.230469 232.304688 232 232.226562 C 232.769531 232.152344 233.542969 232.113281 234.316406 232.113281 C 235.089844 232.113281 235.859375 232.152344 236.628906 232.226562 C 237.398438 232.304688 238.164062 232.417969 238.921875 232.566406 C 239.679688 232.71875 240.429688 232.90625 241.171875 233.128906 C 241.910156 233.355469 242.636719 233.617188 243.351562 233.910156 C 244.066406 234.207031 244.765625 234.539062 245.449219 234.902344 C 246.128906 235.269531 246.792969 235.664062 247.433594 236.09375 C 248.078125 236.527344 248.699219 236.984375 249.296875 237.476562 C 249.894531 237.96875 250.46875 238.488281 251.015625 239.035156 C 251.5625 239.582031 252.078125 240.152344 252.570312 240.753906 C 253.0625 241.351562 253.519531 241.972656 253.949219 242.613281 C 254.378906 243.257812 254.777344 243.921875 255.140625 244.605469 C 255.507812 245.285156 255.835938 245.984375 256.132812 246.699219 C 256.429688 247.414062 256.6875 248.140625 256.914062 248.882812 C 257.136719 249.625 257.324219 250.375 257.476562 251.132812 C 257.628906 251.890625 257.742188 252.65625 257.816406 253.425781 C 257.890625 254.195312 257.929688 254.96875 257.929688 255.742188 Z M 257.929688 255.742188 " fill-opacity="1" fill-rule="nonzero"/><path fill="#243047" d="M 117.246094 310.679688 L 117.246094 342.527344 L 174.015625 342.527344 L 174.015625 310.730469 C 174.640625 312.003906 175.265625 313.46875 175.886719 315.179688 C 178.050781 321.179688 179.957031 330.007812 180.824219 342.527344 L 199.109375 342.527344 C 200.226562 326.421875 203.097656 316.480469 205.929688 310.679688 L 205.929688 342.527344 L 262.703125 342.527344 L 262.703125 310.726562 C 263.324219 312.003906 263.953125 313.46875 264.570312 315.179688 C 266.734375 321.179688 268.644531 330.007812 269.511719 342.527344 L 287.792969 342.527344 C 288.910156 326.421875 291.785156 316.480469 294.617188 310.679688 L 294.617188 342.527344 L 351.386719 342.527344 L 351.386719 310.726562 C 352.011719 312.003906 352.636719 313.46875 353.257812 315.179688 C 355.421875 321.179688 357.328125 330.007812 358.195312 342.527344 L 375.019531 342.527344 C 373.617188 320.261719 369.179688 306.777344 363.484375 298.066406 C 360.035156 292.832031 356.003906 289.472656 352.277344 287.613281 C 348.691406 285.804688 345.539062 285.398438 343.644531 285.371094 C 343.523438 285.367188 343.402344 285.351562 343.277344 285.351562 L 302.726562 285.351562 C 302.585938 285.351562 302.449219 285.367188 302.3125 285.375 C 300.414062 285.402344 297.28125 285.816406 293.722656 287.613281 C 288.46875 290.21875 282.835938 295.707031 278.648438 305.203125 C 277.453125 302.515625 276.160156 300.152344 274.796875 298.066406 C 271.351562 292.832031 267.316406 289.472656 263.589844 287.613281 C 260.003906 285.800781 256.851562 285.394531 254.957031 285.371094 C 254.835938 285.367188 254.714844 285.351562 254.589844 285.351562 L 214.039062 285.351562 C 213.898438 285.351562 213.761719 285.367188 213.625 285.371094 C 211.726562 285.398438 208.597656 285.816406 205.035156 287.613281 C 199.78125 290.21875 194.148438 295.707031 189.960938 305.203125 C 188.765625 302.515625 187.476562 300.152344 186.109375 298.066406 C 182.664062 292.832031 178.628906 289.472656 174.902344 287.613281 C 171.316406 285.800781 168.164062 285.394531 166.269531 285.371094 C 166.148438 285.363281 166.027344 285.351562 165.902344 285.351562 L 125.351562 285.351562 C 125.210938 285.351562 125.074219 285.363281 124.9375 285.371094 C 123.039062 285.398438 119.910156 285.816406 116.347656 287.613281 C 110.699219 290.410156 104.617188 296.539062 100.355469 307.398438 C 97.046875 315.761719 94.582031 327.003906 93.601562 342.527344 L 110.417969 342.527344 C 111.539062 326.421875 114.414062 316.484375 117.246094 310.679688 Z M 117.246094 310.679688 " fill-opacity="1" fill-rule="nonzero"/><path fill="#243047" d="M 346.617188 255.742188 C 346.617188 256.515625 346.578125 257.289062 346.503906 258.058594 C 346.425781 258.828125 346.3125 259.59375 346.164062 260.351562 C 346.011719 261.109375 345.824219 261.859375 345.597656 262.601562 C 345.375 263.339844 345.113281 264.070312 344.820312 264.785156 C 344.523438 265.5 344.191406 266.199219 343.828125 266.878906 C 343.464844 267.5625 343.066406 268.226562 342.636719 268.871094 C 342.207031 269.511719 341.746094 270.132812 341.257812 270.730469 C 340.765625 271.332031 340.246094 271.902344 339.699219 272.449219 C 339.152344 272.996094 338.582031 273.515625 337.984375 274.007812 C 337.382812 274.5 336.765625 274.957031 336.121094 275.386719 C 335.476562 275.820312 334.816406 276.214844 334.132812 276.582031 C 333.453125 276.945312 332.753906 277.277344 332.039062 277.570312 C 331.324219 277.867188 330.597656 278.128906 329.855469 278.351562 C 329.117188 278.578125 328.367188 278.765625 327.609375 278.917969 C 326.851562 279.066406 326.085938 279.179688 325.316406 279.257812 C 324.546875 279.332031 323.773438 279.371094 323 279.371094 C 322.226562 279.371094 321.457031 279.332031 320.6875 279.257812 C 319.917969 279.179688 319.152344 279.066406 318.394531 278.917969 C 317.636719 278.765625 316.886719 278.578125 316.148438 278.351562 C 315.40625 278.128906 314.679688 277.867188 313.964844 277.570312 C 313.25 277.277344 312.550781 276.945312 311.871094 276.582031 C 311.1875 276.214844 310.523438 275.820312 309.882812 275.386719 C 309.238281 274.957031 308.617188 274.5 308.019531 274.007812 C 307.421875 273.515625 306.851562 272.996094 306.304688 272.449219 C 305.757812 271.902344 305.238281 271.332031 304.746094 270.730469 C 304.257812 270.132812 303.796875 269.511719 303.367188 268.871094 C 302.9375 268.226562 302.539062 267.5625 302.175781 266.878906 C 301.8125 266.199219 301.480469 265.5 301.183594 264.785156 C 300.886719 264.070312 300.628906 263.339844 300.402344 262.601562 C 300.179688 261.859375 299.992188 261.109375 299.839844 260.351562 C 299.691406 259.59375 299.578125 258.828125 299.5 258.058594 C 299.425781 257.289062 299.386719 256.515625 299.386719 255.742188 C 299.386719 254.96875 299.425781 254.195312 299.5 253.425781 C 299.578125 252.65625 299.691406 251.890625 299.839844 251.132812 C 299.992188 250.375 300.179688 249.625 300.402344 248.882812 C 300.628906 248.140625 300.886719 247.414062 301.183594 246.699219 C 301.480469 245.984375 301.8125 245.285156 302.175781 244.605469 C 302.539062 243.921875 302.9375 243.257812 303.367188 242.613281 C 303.796875 241.972656 304.257812 241.351562 304.746094 240.753906 C 305.238281 240.152344 305.757812 239.582031 306.304688 239.035156 C 306.851562 238.488281 307.421875 237.96875 308.019531 237.476562 C 308.617188 236.984375 309.238281 236.527344 309.882812 236.09375 C 310.523438 235.664062 311.1875 235.269531 311.871094 234.902344 C 312.550781 234.539062 313.25 234.207031 313.964844 233.910156 C 314.679688 233.617188 315.40625 233.355469 316.148438 233.128906 C 316.886719 232.90625 317.636719 232.71875 318.394531 232.566406 C 319.152344 232.417969 319.917969 232.304688 320.6875 232.226562 C 321.457031 232.152344 322.226562 232.113281 323 232.113281 C 323.773438 232.113281 324.546875 232.152344 325.316406 232.226562 C 326.085938 232.304688 326.851562 232.417969 327.609375 232.566406 C 328.367188 232.71875 329.117188 232.90625 329.855469 233.128906 C 330.597656 233.355469 331.324219 233.617188 332.039062 233.910156 C 332.753906 234.207031 333.453125 234.539062 334.132812 234.902344 C 334.816406 235.269531 335.476562 235.664062 336.121094 236.09375 C 336.765625 236.527344 337.382812 236.984375 337.984375 237.476562 C 338.582031 237.96875 339.152344 238.488281 339.699219 239.035156 C 340.246094 239.582031 340.765625 240.152344 341.257812 240.753906 C 341.746094 241.351562 342.207031 241.972656 342.636719 242.613281 C 343.066406 243.257812 343.464844 243.921875 343.828125 244.605469 C 344.191406 245.285156 344.523438 245.984375 344.820312 246.699219 C 345.113281 247.414062 345.375 248.140625 345.597656 248.882812 C 345.824219 249.625 346.011719 250.375 346.164062 251.132812 C 346.3125 251.890625 346.425781 252.65625 346.503906 253.425781 C 346.578125 254.195312 346.617188 254.96875 346.617188 255.742188 Z M 346.617188 255.742188 " fill-opacity="1" fill-rule="nonzero"/></svg>