<svg xmlns="http://www.w3.org/2000/svg" xmlns:xlink="http://www.w3.org/1999/xlink" width="500" zoomAndPan="magnify" viewBox="0 0 375 374.999991" height="500" preserveAspectRatio="xMidYMid meet" version="1.0"><defs><clipPath id="16115d8397"><path d="M 59.53125 11.132812 L 315.46875 11.132812 L 315.46875 375 L 59.53125 375 Z M 59.53125 11.132812 " clip-rule="nonzero"/></clipPath><clipPath id="b472e25fed"><path d="M 204 15.1875 L 213 15.1875 L 213 19 L 204 19 Z M 204 15.1875 " clip-rule="nonzero"/></clipPath><clipPath id="badc274f4d"><path d="M 66.097656 15.1875 L 309.097656 15.1875 L 309.097656 370.6875 L 66.097656 370.6875 Z M 66.097656 15.1875 " clip-rule="nonzero"/></clipPath><clipPath id="bc9508fb51"><path d="M 240 15.1875 L 245 15.1875 L 245 85 L 240 85 Z M 240 15.1875 " clip-rule="nonzero"/></clipPath><clipPath id="0e2f43cf7e"><path d="M 240 81 L 309.097656 81 L 309.097656 85 L 240 85 Z M 240 81 " clip-rule="nonzero"/></clipPath><clipPath id="5e7d3c0005"><path d="M 248 0 L 359 0 L 359 90 L 248 90 Z M 248 0 " clip-rule="nonzero"/></clipPath><clipPath id="84cdc5b18b"><path d="M 318.464844 -59.390625 L 398.015625 20.15625 L 328.410156 89.761719 L 248.859375 10.214844 Z M 318.464844 -59.390625 " clip-rule="nonzero"/></clipPath><clipPath id="21594363c4"><path d="M 358.242188 -19.617188 L 328.410156 89.761719 L 248.859375 10.214844 L 358.242188 -19.617188 " clip-rule="nonzero"/></clipPath></defs><g clip-path="url(#16115d8397)"><path fill="#243047" d="M 59.53125 11.132812 L 315.585938 11.132812 L 315.585938 375 L 59.53125 375 Z M 59.53125 11.132812 " fill-opacity="1" fill-rule="nonzero"/></g><g clip-path="url(#b472e25fed)"><path fill="#ffffff" d="M 210.925781 18.707031 L 205.863281 18.707031 C 204.945312 18.707031 204.207031 17.96875 204.207031 17.054688 C 204.207031 16.140625 204.945312 15.398438 205.863281 15.398438 L 210.925781 15.398438 C 211.84375 15.398438 212.585938 16.140625 212.585938 17.054688 C 212.585938 17.96875 211.84375 18.707031 210.925781 18.707031 Z M 210.925781 18.707031 " fill-opacity="1" fill-rule="nonzero"/></g><g clip-path="url(#badc274f4d)"><path fill="#ffffff" d="M 307.414062 370.472656 L 67.738281 370.472656 C 66.820312 370.472656 66.078125 369.730469 66.078125 368.816406 L 66.078125 17.054688 C 66.078125 16.140625 66.820312 15.398438 67.738281 15.398438 L 181.273438 15.398438 C 182.1875 15.398438 182.929688 16.140625 182.929688 17.054688 C 182.929688 17.96875 182.1875 18.707031 181.273438 18.707031 L 69.394531 18.707031 L 69.394531 367.167969 L 305.757812 367.167969 L 305.757812 82.535156 L 241.832031 18.707031 L 225.753906 18.707031 C 224.835938 18.707031 224.097656 17.96875 224.097656 17.054688 C 224.097656 16.140625 224.835938 15.398438 225.753906 15.398438 L 242.515625 15.398438 C 242.957031 15.398438 243.378906 15.570312 243.6875 15.882812 L 308.585938 80.679688 C 308.898438 80.992188 309.070312 81.414062 309.070312 81.851562 L 309.070312 368.820312 C 309.070312 369.730469 308.328125 370.472656 307.414062 370.472656 Z M 307.414062 370.472656 " fill-opacity="1" fill-rule="nonzero"/></g><g clip-path="url(#bc9508fb51)"><path fill="#ffffff" d="M 242.460938 84.371094 C 241.546875 84.371094 240.804688 83.628906 240.804688 82.714844 L 240.804688 17.054688 C 240.804688 16.140625 241.546875 15.398438 242.460938 15.398438 C 243.378906 15.398438 244.121094 16.140625 244.121094 17.054688 L 244.121094 82.714844 C 244.121094 83.628906 243.378906 84.371094 242.460938 84.371094 Z M 242.460938 84.371094 " fill-opacity="1" fill-rule="nonzero"/></g><g clip-path="url(#0e2f43cf7e)"><path fill="#ffffff" d="M 307.414062 84.316406 L 242.460938 84.316406 C 241.546875 84.316406 240.804688 83.578125 240.804688 82.660156 C 240.804688 81.746094 241.546875 81.007812 242.460938 81.007812 L 307.414062 81.007812 C 308.328125 81.007812 309.070312 81.746094 309.070312 82.660156 C 309.070312 83.578125 308.328125 84.316406 307.414062 84.316406 Z M 307.414062 84.316406 " fill-opacity="1" fill-rule="nonzero"/></g><path fill="#ffffff" d="M 111.957031 85.421875 L 107.589844 98.632812 L 101.96875 98.632812 L 116.265625 56.625 L 122.824219 56.625 L 137.179688 98.632812 L 131.375 98.632812 L 126.878906 85.421875 Z M 125.753906 81.179688 L 121.632812 69.089844 C 120.695312 66.347656 120.070312 63.855469 119.449219 61.425781 L 119.324219 61.425781 C 118.699219 63.917969 118.015625 66.472656 117.203125 69.027344 L 113.085938 81.179688 Z M 125.753906 81.179688 " fill-opacity="1" fill-rule="nonzero"/><path fill="#ffffff" d="M 159.210938 65.476562 L 159.210938 80.121094 L 173.316406 80.121094 L 173.316406 83.863281 L 159.210938 83.863281 L 159.210938 98.632812 L 155.214844 98.632812 L 155.214844 83.863281 L 141.109375 83.863281 L 141.109375 80.121094 L 155.214844 80.121094 L 155.214844 65.476562 Z M 159.210938 65.476562 " fill-opacity="1" fill-rule="nonzero"/><path fill="#ffffff" d="M 274.9375 147.6875 L 100.414062 147.6875 C 99.496094 147.6875 98.753906 146.945312 98.753906 146.03125 C 98.753906 145.117188 99.496094 144.378906 100.414062 144.378906 L 274.9375 144.378906 C 275.855469 144.378906 276.59375 145.117188 276.59375 146.03125 C 276.59375 146.945312 275.855469 147.6875 274.9375 147.6875 Z M 274.9375 147.6875 " fill-opacity="1" fill-rule="nonzero"/><path fill="#ffffff" d="M 274.839844 190.324219 L 100.3125 190.324219 C 99.398438 190.324219 98.65625 189.585938 98.65625 188.667969 C 98.65625 187.753906 99.398438 187.015625 100.3125 187.015625 L 274.839844 187.015625 C 275.753906 187.015625 276.496094 187.753906 276.496094 188.667969 C 276.496094 189.585938 275.753906 190.324219 274.839844 190.324219 Z M 274.839844 190.324219 " fill-opacity="1" fill-rule="nonzero"/><path fill="#ffffff" d="M 274.742188 232.960938 L 100.214844 232.960938 C 99.296875 232.960938 98.554688 232.222656 98.554688 231.308594 C 98.554688 230.394531 99.296875 229.652344 100.214844 229.652344 L 274.742188 229.652344 C 275.660156 229.652344 276.402344 230.394531 276.402344 231.308594 C 276.402344 232.222656 275.660156 232.960938 274.742188 232.960938 Z M 274.742188 232.960938 " fill-opacity="1" fill-rule="nonzero"/><path fill="#ffffff" d="M 274.644531 275.597656 L 100.117188 275.597656 C 99.203125 275.597656 98.460938 274.859375 98.460938 273.945312 C 98.460938 273.03125 99.203125 272.289062 100.117188 272.289062 L 274.644531 272.289062 C 275.558594 272.289062 276.300781 273.03125 276.300781 273.945312 C 276.300781 274.859375 275.558594 275.597656 274.644531 275.597656 Z M 274.644531 275.597656 " fill-opacity="1" fill-rule="nonzero"/><path fill="#ffffff" d="M 187.988281 318.238281 L 100.019531 318.238281 C 99.101562 318.238281 98.359375 317.496094 98.359375 316.582031 C 98.359375 315.667969 99.101562 314.925781 100.019531 314.925781 L 187.988281 314.925781 C 188.90625 314.925781 189.648438 315.667969 189.648438 316.582031 C 189.648438 317.496094 188.90625 318.238281 187.988281 318.238281 Z M 187.988281 318.238281 " fill-opacity="1" fill-rule="nonzero"/><g clip-path="url(#5e7d3c0005)"><g clip-path="url(#84cdc5b18b)"><g clip-path="url(#21594363c4)"><path fill="#ffffff" d="M 318.464844 -59.390625 L 398.015625 20.15625 L 328.410156 89.761719 L 248.859375 10.214844 Z M 318.464844 -59.390625 " fill-opacity="1" fill-rule="nonzero"/></g></g></g></svg>