<svg xmlns="http://www.w3.org/2000/svg" xmlns:xlink="http://www.w3.org/1999/xlink" width="500" zoomAndPan="magnify" viewBox="0 0 375 374.999991" height="500" preserveAspectRatio="xMidYMid meet" version="1.0"><path fill="#243047" d="M 363.8125 134.730469 L 326.222656 130.75 C 326.054688 130.347656 325.886719 129.945312 325.71875 129.539062 L 349.492188 100.148438 C 353.507812 95.179688 353.132812 87.964844 348.609375 83.445312 L 291.554688 26.390625 C 287.019531 21.851562 279.820312 21.484375 274.855469 25.511719 L 245.460938 49.28125 C 245.054688 49.109375 244.660156 48.949219 244.257812 48.78125 L 240.277344 11.183594 C 239.601562 4.820312 234.242188 0 227.84375 0 L 147.15625 0 C 140.757812 0 135.398438 4.820312 134.722656 11.179688 L 130.742188 48.777344 C 130.339844 48.9375 129.945312 49.109375 129.539062 49.28125 L 100.148438 25.511719 C 95.171875 21.484375 87.976562 21.851562 83.445312 26.390625 L 26.390625 83.445312 C 21.867188 87.964844 21.492188 95.179688 25.507812 100.148438 L 49.28125 129.539062 C 49.113281 129.945312 48.945312 130.347656 48.78125 130.75 L 11.1875 134.730469 C 4.828125 135.398438 0 140.757812 0 147.15625 L 0 227.84375 C 0 234.242188 4.828125 239.597656 11.1875 240.269531 L 48.777344 244.25 C 48.945312 244.652344 49.113281 245.054688 49.28125 245.457031 L 25.507812 274.851562 C 21.492188 279.820312 21.867188 287.035156 26.390625 291.550781 L 83.445312 348.609375 C 87.976562 353.136719 95.171875 353.503906 100.144531 349.488281 L 129.539062 325.71875 C 129.945312 325.890625 130.339844 326.0625 130.742188 326.21875 L 134.722656 363.816406 C 135.398438 370.179688 140.757812 375 147.15625 375 L 227.84375 375 C 234.242188 375 239.597656 370.179688 240.277344 363.816406 L 244.257812 326.222656 C 244.660156 326.050781 245.054688 325.890625 245.457031 325.71875 L 274.851562 349.488281 C 279.820312 353.503906 287.019531 353.136719 291.550781 348.609375 L 348.609375 291.554688 C 353.132812 287.035156 353.507812 279.820312 349.492188 274.855469 L 325.71875 245.460938 C 325.886719 245.054688 326.054688 244.652344 326.21875 244.25 L 363.8125 240.269531 C 370.171875 239.601562 375 234.242188 375 227.84375 L 375 147.15625 C 375 140.757812 370.171875 135.398438 363.8125 134.730469 Z M 350 216.601562 L 315.953125 220.203125 C 311.140625 220.703125 307.054688 223.949219 305.460938 228.515625 C 303.898438 233.007812 302.027344 237.5 299.910156 241.871094 C 297.796875 246.226562 298.394531 251.417969 301.433594 255.1875 L 322.980469 281.824219 L 281.828125 322.972656 L 255.1875 301.441406 C 251.414062 298.375 246.226562 297.804688 241.875 299.914062 C 237.4375 302.0625 232.953125 303.917969 228.546875 305.445312 C 223.96875 307.03125 220.714844 311.121094 220.203125 315.941406 L 216.59375 350 L 158.40625 350 L 154.796875 315.941406 C 154.285156 311.121094 151.03125 307.03125 146.453125 305.445312 C 142.023438 303.917969 137.542969 302.050781 133.128906 299.914062 C 128.777344 297.804688 123.589844 298.375 119.8125 301.441406 L 93.171875 322.972656 L 52.019531 281.824219 L 73.566406 255.1875 C 76.605469 251.414062 77.203125 246.226562 75.089844 241.871094 C 72.972656 237.5 71.101562 233.007812 69.539062 228.515625 C 67.945312 223.949219 63.859375 220.703125 59.046875 220.203125 L 25 216.601562 L 25 158.398438 L 59.046875 154.796875 C 63.859375 154.296875 67.945312 151.050781 69.539062 146.484375 C 71.101562 141.992188 72.972656 137.5 75.089844 133.128906 C 77.203125 128.773438 76.605469 123.585938 73.566406 119.8125 L 52.019531 93.175781 L 93.171875 52.027344 L 119.8125 73.558594 C 123.589844 76.625 128.777344 77.210938 133.128906 75.085938 C 137.542969 72.949219 142.023438 71.082031 146.453125 69.554688 C 151.03125 67.96875 154.285156 63.878906 154.796875 59.058594 L 158.40625 25 L 216.59375 25 L 220.203125 59.058594 C 220.714844 63.878906 223.96875 67.96875 228.546875 69.554688 C 232.953125 71.082031 237.4375 72.9375 241.875 75.085938 C 246.226562 77.210938 251.414062 76.625 255.1875 73.558594 L 281.828125 52.027344 L 322.980469 93.175781 L 301.433594 119.8125 C 298.394531 123.582031 297.796875 128.773438 299.910156 133.128906 C 302.027344 137.5 303.898438 141.992188 305.460938 146.484375 C 307.054688 151.050781 311.140625 154.296875 315.953125 154.796875 L 350 158.398438 Z M 350 216.601562 " fill-opacity="1" fill-rule="nonzero"/><path fill="#243047" d="M 187.5 85.375 C 131.1875 85.375 85.382812 131.1875 85.382812 187.5 C 85.382812 243.8125 131.1875 289.625 187.5 289.625 C 243.8125 289.625 289.617188 243.8125 289.617188 187.5 C 289.617188 131.1875 243.8125 85.375 187.5 85.375 Z M 187.5 264.625 C 144.976562 264.625 110.382812 230.027344 110.382812 187.5 C 110.382812 144.972656 144.976562 110.375 187.5 110.375 C 230.023438 110.375 264.617188 144.972656 264.617188 187.5 C 264.617188 230.027344 230.023438 264.625 187.5 264.625 Z M 187.5 264.625 " fill-opacity="1" fill-rule="nonzero"/></svg>