<svg xmlns="http://www.w3.org/2000/svg" xmlns:xlink="http://www.w3.org/1999/xlink" width="500" zoomAndPan="magnify" viewBox="0 0 375 374.999991" height="500" preserveAspectRatio="xMidYMid meet" version="1.0"><defs><clipPath id="a6d247a8a9"><path d="M 56.25 0 L 94 0 L 94 316 L 56.25 316 Z M 56.25 0 " clip-rule="nonzero"/></clipPath><clipPath id="f6badcaed0"><path d="M 56.25 280 L 318.75 280 L 318.75 354 L 56.25 354 Z M 56.25 280 " clip-rule="nonzero"/></clipPath><clipPath id="5dd2f7f216"><path d="M 93 0 L 318.75 0 L 318.75 281 L 93 281 Z M 93 0 " clip-rule="nonzero"/></clipPath></defs><path fill="#eaf5ff" d="M 306.90625 299.40625 L 306.90625 335.910156 L 75.316406 335.910156 L 65.167969 315.664062 L 94.398438 290.582031 L 306.90625 290.582031 Z M 306.90625 299.40625 " fill-opacity="1" fill-rule="nonzero"/><g clip-path="url(#a6d247a8a9)"><path fill="#000000" d="M 93.59375 280.3125 L 56.488281 315.664062 L 56.488281 43.304688 C 56.460938 40.128906 56.773438 36.988281 57.421875 33.882812 C 58.070312 30.777344 59.039062 27.773438 60.335938 24.875 C 61.628906 21.976562 63.214844 19.25 65.097656 16.691406 C 66.976562 14.136719 69.105469 11.808594 71.488281 9.707031 C 74.578125 6.988281 78.011719 4.8125 81.789062 3.175781 C 85.566406 1.542969 89.503906 0.53125 93.601562 0.140625 Z M 93.59375 280.3125 " fill-opacity="1" fill-rule="nonzero"/></g><g clip-path="url(#f6badcaed0)"><path fill="#000000" d="M 92.839844 353.054688 C 91.625 353.054688 90.417969 352.996094 89.210938 352.875 C 88.003906 352.753906 86.804688 352.570312 85.617188 352.332031 C 84.429688 352.089844 83.257812 351.789062 82.097656 351.433594 C 80.941406 351.074219 79.800781 350.660156 78.683594 350.1875 C 77.570312 349.714844 76.476562 349.1875 75.414062 348.609375 C 74.351562 348.027344 73.316406 347.394531 72.316406 346.710938 C 71.316406 346.027344 70.351562 345.292969 69.425781 344.511719 C 68.496094 343.730469 67.609375 342.90625 66.765625 342.039062 C 65.917969 341.167969 65.121094 340.257812 64.367188 339.308594 C 63.613281 338.359375 62.90625 337.375 62.25 336.355469 C 61.59375 335.335938 60.992188 334.285156 60.441406 333.207031 C 59.890625 332.125 59.394531 331.019531 58.953125 329.890625 C 58.515625 328.761719 58.132812 327.613281 57.804688 326.445312 C 57.480469 325.277344 57.214844 324.097656 57.007812 322.902344 C 56.800781 321.707031 56.652344 320.503906 56.566406 319.296875 C 56.480469 318.085938 56.453125 316.875 56.488281 315.664062 C 57.03125 295.851562 72.3125 280.3125 93.601562 280.3125 L 318.652344 280.3125 L 318.652344 290.363281 C 318.652344 290.957031 318.59375 291.542969 318.476562 292.125 C 318.363281 292.710938 318.191406 293.273438 317.964844 293.824219 C 317.734375 294.371094 317.457031 294.894531 317.128906 295.386719 C 316.796875 295.878906 316.421875 296.335938 316.003906 296.757812 C 315.582031 297.175781 315.125 297.550781 314.632812 297.882812 C 314.140625 298.210938 313.617188 298.492188 313.070312 298.71875 C 312.519531 298.945312 311.953125 299.117188 311.371094 299.230469 C 310.789062 299.347656 310.203125 299.40625 309.609375 299.40625 L 93.351562 299.40625 C 92.175781 299.394531 91.007812 299.492188 89.847656 299.703125 C 88.6875 299.910156 87.5625 300.226562 86.460938 300.652344 C 85.363281 301.078125 84.316406 301.601562 83.316406 302.222656 C 82.316406 302.847656 81.386719 303.558594 80.523438 304.359375 C 79.65625 305.160156 78.878906 306.035156 78.179688 306.984375 C 77.480469 307.929688 76.878906 308.9375 76.375 310 C 75.867188 311.0625 75.464844 312.164062 75.167969 313.304688 C 74.871094 314.445312 74.683594 315.601562 74.605469 316.777344 C 74.578125 317.390625 74.578125 318.007812 74.609375 318.621094 C 74.644531 319.238281 74.707031 319.847656 74.800781 320.457031 C 74.894531 321.066406 75.019531 321.667969 75.175781 322.265625 C 75.332031 322.863281 75.515625 323.449219 75.730469 324.027344 C 75.949219 324.605469 76.191406 325.167969 76.464844 325.722656 C 76.734375 326.273438 77.035156 326.8125 77.363281 327.335938 C 77.6875 327.855469 78.039062 328.363281 78.417969 328.847656 C 78.796875 329.335938 79.199219 329.800781 79.625 330.25 C 80.046875 330.695312 80.496094 331.117188 80.960938 331.519531 C 81.429688 331.917969 81.917969 332.296875 82.425781 332.648438 C 82.929688 333 83.453125 333.324219 83.992188 333.621094 C 84.53125 333.921875 85.082031 334.191406 85.648438 334.433594 C 86.214844 334.675781 86.792969 334.890625 87.382812 335.074219 C 87.96875 335.257812 88.566406 335.414062 89.167969 335.535156 C 89.773438 335.660156 90.382812 335.753906 90.992188 335.816406 C 91.605469 335.878906 92.222656 335.910156 92.839844 335.910156 L 309.609375 335.910156 C 310.203125 335.910156 310.789062 335.96875 311.371094 336.082031 C 311.953125 336.199219 312.519531 336.371094 313.070312 336.597656 C 313.617188 336.824219 314.140625 337.101562 314.632812 337.433594 C 315.125 337.761719 315.582031 338.136719 316.003906 338.558594 C 316.421875 338.976562 316.796875 339.433594 317.128906 339.929688 C 317.457031 340.421875 317.734375 340.941406 317.964844 341.492188 C 318.191406 342.039062 318.363281 342.605469 318.476562 343.1875 C 318.59375 343.769531 318.652344 344.359375 318.652344 344.953125 L 318.652344 353.054688 Z M 92.839844 353.054688 " fill-opacity="1" fill-rule="nonzero"/></g><g clip-path="url(#5dd2f7f216)"><path fill="#243047" d="M 93.59375 0.144531 L 318.652344 0.144531 L 318.652344 280.3125 L 93.59375 280.3125 Z M 93.59375 0.144531 " fill-opacity="1" fill-rule="nonzero"/></g><path fill="#243047" d="M 306.90625 312.847656 L 98.730469 312.847656 C 98.222656 312.847656 97.734375 312.945312 97.265625 313.140625 C 96.796875 313.335938 96.382812 313.613281 96.023438 313.976562 C 95.664062 314.335938 95.390625 314.75 95.195312 315.21875 C 95 315.6875 94.902344 316.175781 94.902344 316.6875 C 94.902344 317.195312 95 317.683594 95.195312 318.152344 C 95.390625 318.621094 95.664062 319.035156 96.023438 319.394531 C 96.382812 319.757812 96.796875 320.035156 97.265625 320.230469 C 97.734375 320.425781 98.222656 320.523438 98.730469 320.523438 L 306.90625 320.523438 Z M 306.90625 312.847656 " fill-opacity="1" fill-rule="nonzero"/><path fill="#243047" d="M 106.496094 312.847656 L 141.316406 312.847656 L 141.316406 335.910156 L 106.496094 335.910156 Z M 106.496094 312.847656 " fill-opacity="1" fill-rule="nonzero"/><path fill="#243047" d="M 115.765625 312.847656 L 115.765625 374.855469 L 141.316406 363.011719 L 166.867188 374.855469 L 166.867188 312.847656 Z M 115.765625 312.847656 " fill-opacity="1" fill-rule="nonzero"/></svg>