<svg xmlns="http://www.w3.org/2000/svg" xmlns:xlink="http://www.w3.org/1999/xlink" width="353" zoomAndPan="magnify" viewBox="0 0 264.75 282.749996" height="377" preserveAspectRatio="xMidYMid meet" version="1.0"><defs><clipPath id="8835cb1e5e"><path d="M 37.957031 38 L 226.957031 38 L 226.957031 244.910156 L 37.957031 244.910156 Z M 37.957031 38 " clip-rule="nonzero"/></clipPath><clipPath id="9e99851f56"><path d="M 90.078125 69.007812 L 157.578125 69.007812 L 157.578125 214.507812 L 90.078125 214.507812 Z M 90.078125 69.007812 " clip-rule="nonzero"/></clipPath></defs><path fill="#ffffff" d="M 154.128906 194.714844 L 174.675781 195.558594 L 154.128906 196.398438 Z M 154.128906 194.714844 " fill-opacity="1" fill-rule="nonzero"/><path fill="#ffffff" d="M 153.753906 200.027344 L 174.3125 200.875 L 153.753906 201.71875 Z M 153.753906 200.027344 " fill-opacity="1" fill-rule="nonzero"/><path fill="#ffffff" d="M 154.128906 205.351562 L 174.675781 206.195312 L 154.128906 207.039062 Z M 154.128906 205.351562 " fill-opacity="1" fill-rule="nonzero"/><path fill="#ffffff" d="M 110.785156 196.398438 L 90.234375 195.558594 L 110.785156 194.714844 Z M 110.785156 196.398438 " fill-opacity="1" fill-rule="nonzero"/><path fill="#ffffff" d="M 111.15625 201.71875 L 90.597656 200.875 L 111.15625 200.027344 Z M 111.15625 201.71875 " fill-opacity="1" fill-rule="nonzero"/><path fill="#ffffff" d="M 110.785156 207.039062 L 90.234375 206.195312 L 110.785156 205.351562 Z M 110.785156 207.039062 " fill-opacity="1" fill-rule="nonzero"/><g clip-path="url(#8835cb1e5e)"><path fill="#ffffff" d="M 220.53125 57.144531 L 219.546875 116.253906 C 219.160156 139.890625 212.714844 163.089844 200.46875 183.339844 C 199.578125 184.8125 198.660156 186.269531 197.714844 187.703125 C 182.132812 211.203125 160.183594 228.027344 132.457031 237.738281 C 104.726562 228.027344 82.777344 211.203125 67.199219 187.703125 C 66.253906 186.269531 65.332031 184.8125 64.441406 183.339844 C 52.199219 163.089844 45.75 139.890625 45.363281 116.253906 L 44.378906 57.144531 L 44.378906 53.90625 C 44.378906 48.84375 49.03125 44.722656 54.75 44.722656 L 210.160156 44.722656 C 215.878906 44.722656 220.53125 48.84375 220.53125 53.90625 Z M 210.160156 38.363281 L 54.75 38.363281 C 45.492188 38.363281 37.996094 45.324219 37.996094 53.90625 L 37.996094 61.957031 L 39.273438 118.449219 C 39.878906 145.402344 48.222656 171.679688 63.652344 193.828125 C 77.640625 213.90625 99.214844 233.351562 132.457031 244.460938 C 165.695312 233.351562 187.269531 213.90625 201.257812 193.828125 C 216.6875 171.679688 225.03125 145.402344 225.636719 118.449219 L 226.914062 61.957031 L 226.914062 53.90625 C 226.914062 45.324219 219.417969 38.363281 210.160156 38.363281 " fill-opacity="1" fill-rule="nonzero"/></g><path fill="#ffffff" d="M 64.226562 104.265625 C 63.683594 103.25 62.957031 102.105469 62.003906 100.820312 C 61.617188 102.316406 61.390625 103.613281 61.277344 104.730469 C 60.75 110.046875 62.917969 111.359375 63.835938 111.679688 C 63.765625 111.1875 63.554688 110.714844 63.230469 110.351562 C 62.722656 109.78125 62.003906 108.660156 62.035156 106.953125 C 62.035156 106.890625 62.035156 106.839844 62.035156 106.839844 C 62.035156 106.882812 62.035156 106.921875 62.035156 106.953125 C 62.042969 107.414062 62.179688 109.175781 63.636719 110.34375 L 62.867188 105.09375 L 64.21875 110.246094 C 65.121094 108.707031 64.554688 107.011719 64.386719 106.582031 C 64.371094 106.550781 64.363281 106.511719 64.347656 106.480469 C 64.347656 106.480469 64.363281 106.519531 64.386719 106.582031 C 65.089844 108.167969 64.855469 109.441406 64.605469 110.132812 C 64.441406 110.578125 64.433594 111.074219 64.554688 111.558594 C 65.300781 110.980469 66.808594 109.078125 64.226562 104.265625 " fill-opacity="1" fill-rule="nonzero"/><path fill="#ffffff" d="M 66.875 96.375 C 66.488281 95.402344 65.945312 94.296875 65.21875 93.035156 C 64.710938 94.320312 64.363281 95.441406 64.144531 96.414062 C 63.109375 101.070312 64.945312 102.507812 65.742188 102.902344 C 65.726562 102.460938 65.589844 102.019531 65.332031 101.65625 C 64.9375 101.078125 64.394531 99.996094 64.605469 98.492188 C 64.613281 98.429688 64.621094 98.386719 64.621094 98.386719 C 64.613281 98.429688 64.613281 98.453125 64.605469 98.492188 C 64.5625 98.894531 64.507812 100.480469 65.703125 101.695312 L 65.558594 96.9375 L 66.234375 101.6875 C 67.222656 100.433594 66.882812 98.855469 66.777344 98.453125 C 66.761719 98.417969 66.753906 98.386719 66.746094 98.355469 C 66.746094 98.355469 66.753906 98.386719 66.777344 98.453125 C 67.246094 99.949219 66.898438 101.042969 66.601562 101.632812 C 66.40625 102.011719 66.347656 102.453125 66.40625 102.894531 C 67.140625 102.46875 68.707031 100.972656 66.875 96.375 " fill-opacity="1" fill-rule="nonzero"/><path fill="#ffffff" d="M 74.257812 93.871094 C 74.425781 92.679688 74.507812 91.246094 74.484375 89.53125 C 73.191406 90.394531 72.164062 91.214844 71.367188 91.996094 C 67.535156 95.691406 68.609375 98.347656 69.21875 99.289062 C 69.46875 98.855469 69.582031 98.339844 69.53125 97.808594 C 69.441406 96.980469 69.515625 95.570312 70.621094 94.289062 C 70.671875 94.234375 70.695312 94.203125 70.695312 94.203125 C 70.671875 94.226562 70.648438 94.257812 70.621094 94.289062 C 70.347656 94.644531 69.347656 96.109375 69.894531 98.113281 L 72.542969 93.476562 L 70.460938 98.476562 C 72.238281 97.976562 72.8125 96.238281 72.933594 95.777344 C 72.941406 95.738281 72.949219 95.707031 72.957031 95.667969 C 72.957031 95.667969 72.949219 95.707031 72.933594 95.777344 C 72.554688 97.535156 71.535156 98.332031 70.878906 98.675781 C 70.453125 98.902344 70.128906 99.28125 69.9375 99.75 C 70.945312 99.859375 73.488281 99.539062 74.257812 93.871094 " fill-opacity="1" fill-rule="nonzero"/><path fill="#ffffff" d="M 62.148438 112.839844 C 61.390625 112 60.421875 111.089844 59.207031 110.109375 C 59.207031 111.695312 59.3125 113.039062 59.484375 114.175781 C 60.300781 119.5625 62.667969 120.214844 63.609375 120.253906 C 63.417969 119.792969 63.109375 119.390625 62.714844 119.125 C 62.09375 118.714844 61.140625 117.820312 60.75 116.140625 C 60.734375 116.066406 60.726562 116.027344 60.726562 116.027344 C 60.734375 116.066406 60.742188 116.097656 60.75 116.140625 C 60.871094 116.582031 61.4375 118.28125 63.09375 118.996094 L 61.074219 114.054688 L 63.621094 118.738281 C 64.085938 116.953125 63.132812 115.445312 62.867188 115.078125 C 62.851562 115.042969 62.828125 115.019531 62.804688 114.988281 C 62.804688 114.988281 62.828125 115.019531 62.867188 115.078125 C 63.925781 116.429688 64.015625 117.75 63.949219 118.507812 C 63.910156 118.988281 64.023438 119.488281 64.265625 119.929688 C 64.816406 119.140625 65.769531 116.816406 62.148438 112.839844 " fill-opacity="1" fill-rule="nonzero"/><path fill="#ffffff" d="M 62.554688 123.144531 C 61.640625 122.523438 60.515625 121.894531 59.136719 121.25 C 59.507812 122.820312 59.910156 124.125 60.339844 125.195312 C 62.351562 130.285156 64.75 130.277344 65.648438 130.058594 C 65.363281 129.65625 64.976562 129.351562 64.539062 129.199219 C 63.863281 128.957031 62.746094 128.34375 61.996094 126.78125 C 61.957031 126.71875 61.9375 126.6875 61.9375 126.6875 C 61.957031 126.71875 61.972656 126.75 61.996094 126.78125 C 62.214844 127.191406 63.132812 128.714844 64.871094 128.964844 L 61.816406 124.632812 L 65.308594 128.5625 C 65.339844 126.671875 64.097656 125.445312 63.757812 125.148438 C 63.722656 125.125 63.699219 125.101562 63.675781 125.082031 C 63.675781 125.082031 63.707031 125.109375 63.757812 125.148438 C 65.066406 126.195312 65.460938 127.476562 65.574219 128.238281 C 65.648438 128.730469 65.863281 129.191406 66.195312 129.558594 C 66.535156 128.625 66.90625 126.066406 62.554688 123.144531 " fill-opacity="1" fill-rule="nonzero"/><path fill="#ffffff" d="M 75.550781 123.746094 C 75.710938 122.644531 75.800781 121.316406 75.785156 119.722656 C 74.582031 120.511719 73.617188 121.269531 72.867188 121.984375 C 69.289062 125.382812 70.273438 127.863281 70.832031 128.738281 C 71.066406 128.335938 71.171875 127.851562 71.125 127.363281 C 71.050781 126.597656 71.132812 125.285156 72.171875 124.109375 C 72.214844 124.054688 72.238281 124.027344 72.238281 124.027344 C 72.214844 124.054688 72.1875 124.078125 72.171875 124.109375 C 71.90625 124.441406 70.96875 125.785156 71.460938 127.652344 L 73.957031 123.367188 L 71.988281 128 C 73.644531 127.546875 74.183594 125.9375 74.304688 125.511719 C 74.3125 125.476562 74.320312 125.445312 74.328125 125.40625 C 74.328125 125.40625 74.320312 125.445312 74.304688 125.511719 C 73.933594 127.136719 72.988281 127.871094 72.375 128.183594 C 71.980469 128.382812 71.671875 128.738281 71.488281 129.164062 C 72.433594 129.277344 74.789062 129.003906 75.550781 123.746094 " fill-opacity="1" fill-rule="nonzero"/><path fill="#ffffff" d="M 79.144531 129.980469 C 79.03125 128.835938 78.796875 127.5 78.410156 125.9375 C 77.457031 127.054688 76.738281 128.078125 76.195312 128.996094 C 73.617188 133.367188 75.136719 135.535156 75.871094 136.242188 C 76.003906 135.785156 75.992188 135.277344 75.824219 134.800781 C 75.574219 134.070312 75.339844 132.757812 76.035156 131.292969 C 76.066406 131.226562 76.082031 131.195312 76.082031 131.195312 C 76.066406 131.226562 76.050781 131.257812 76.035156 131.292969 C 75.871094 131.695312 75.308594 133.289062 76.210938 134.988281 L 77.554688 130.058594 L 76.792969 135.179688 C 78.246094 134.261719 78.375 132.523438 78.386719 132.0625 C 78.386719 132.03125 78.394531 131.992188 78.386719 131.953125 C 78.386719 131.953125 78.394531 132 78.386719 132.0625 C 78.425781 133.769531 77.707031 134.769531 77.207031 135.261719 C 76.875 135.566406 76.671875 136 76.601562 136.476562 C 77.519531 136.324219 79.683594 135.371094 79.144531 129.980469 " fill-opacity="1" fill-rule="nonzero"/><path fill="#ffffff" d="M 83.539062 135.710938 C 83.117188 134.640625 82.527344 133.410156 81.738281 132.007812 C 81.164062 133.425781 80.777344 134.65625 80.523438 135.734375 C 79.355469 140.863281 81.367188 142.472656 82.246094 142.917969 C 82.230469 142.425781 82.085938 141.941406 81.800781 141.53125 C 81.367188 140.894531 80.777344 139.6875 81.019531 138.03125 C 81.027344 137.957031 81.035156 137.917969 81.035156 137.917969 C 81.027344 137.957031 81.027344 137.988281 81.019531 138.03125 C 80.96875 138.480469 80.898438 140.226562 82.214844 141.578125 L 82.085938 136.324219 L 82.804688 141.578125 C 83.894531 140.195312 83.539062 138.457031 83.417969 138.003906 C 83.410156 137.972656 83.402344 137.933594 83.382812 137.902344 C 83.382812 137.902344 83.402344 137.941406 83.417969 138.003906 C 83.933594 139.664062 83.539062 140.871094 83.207031 141.515625 C 82.988281 141.933594 82.917969 142.417969 82.988281 142.910156 C 83.796875 142.449219 85.542969 140.808594 83.539062 135.710938 " fill-opacity="1" fill-rule="nonzero"/><path fill="#ffffff" d="M 76.84375 148.761719 C 75.9375 149.105469 74.894531 149.605469 73.722656 150.316406 C 74.992188 151.039062 76.097656 151.5625 77.058594 151.917969 C 81.609375 153.609375 82.890625 151.652344 83.230469 150.773438 C 82.796875 150.742188 82.382812 150.855469 82.042969 151.113281 C 81.511719 151.515625 80.492188 152.011719 79.03125 151.609375 C 78.964844 151.59375 78.933594 151.585938 78.933594 151.585938 C 78.964844 151.59375 79 151.601562 79.03125 151.609375 C 79.425781 151.699219 80.953125 151.941406 82.058594 150.683594 L 77.472656 150.347656 L 82.019531 150.066406 C 80.742188 148.792969 79.242188 149.019531 78.863281 149.097656 C 78.828125 149.105469 78.796875 149.105469 78.765625 149.125 C 78.765625 149.125 78.804688 149.105469 78.863281 149.097656 C 80.273438 148.710938 81.355469 149.234375 81.945312 149.640625 C 82.320312 149.90625 82.753906 150.023438 83.175781 149.992188 C 82.722656 149.105469 81.179688 147.136719 76.84375 148.761719 " fill-opacity="1" fill-rule="nonzero"/><path fill="#ffffff" d="M 88.933594 140.414062 C 88.433594 139.460938 87.753906 138.390625 86.875 137.183594 C 86.503906 138.585938 86.285156 139.792969 86.179688 140.832031 C 85.671875 145.78125 87.691406 147.023438 88.546875 147.320312 C 88.480469 146.871094 88.289062 146.425781 87.980469 146.082031 C 87.511719 145.550781 86.84375 144.503906 86.882812 142.910156 C 86.882812 142.84375 86.882812 142.804688 86.882812 142.804688 C 86.882812 142.84375 86.882812 142.875 86.882812 142.910156 C 86.890625 143.335938 87.011719 144.984375 88.367188 146.082031 L 87.664062 141.175781 L 88.910156 145.992188 C 89.757812 144.558594 89.234375 142.972656 89.078125 142.570312 C 89.0625 142.539062 89.054688 142.503906 89.039062 142.472656 C 89.039062 142.472656 89.054688 142.515625 89.078125 142.570312 C 89.734375 144.050781 89.5 145.242188 89.265625 145.886719 C 89.121094 146.296875 89.105469 146.765625 89.226562 147.222656 C 89.910156 146.675781 91.332031 144.914062 88.933594 140.414062 " fill-opacity="1" fill-rule="nonzero"/><path fill="#ffffff" d="M 73.773438 116.195312 C 74.09375 115.148438 74.386719 113.871094 74.621094 112.316406 C 73.296875 112.871094 72.222656 113.433594 71.355469 113.988281 C 67.269531 116.648438 67.875 119.230469 68.296875 120.1875 C 68.59375 119.84375 68.773438 119.398438 68.804688 118.910156 C 68.84375 118.152344 69.121094 116.886719 70.339844 115.929688 C 70.386719 115.882812 70.421875 115.867188 70.421875 115.867188 C 70.386719 115.882812 70.363281 115.90625 70.339844 115.929688 C 70.023438 116.203125 68.886719 117.347656 69.097656 119.246094 L 72.238281 115.535156 L 69.574219 119.683594 C 71.285156 119.535156 72.078125 118.070312 72.261719 117.675781 C 72.269531 117.644531 72.285156 117.621094 72.300781 117.582031 C 72.300781 117.582031 72.285156 117.621094 72.261719 117.675781 C 71.648438 119.199219 70.589844 119.738281 69.925781 119.929688 C 69.5 120.058594 69.144531 120.34375 68.894531 120.726562 C 69.824219 121.011719 72.222656 121.171875 73.773438 116.195312 " fill-opacity="1" fill-rule="nonzero"/><path fill="#ffffff" d="M 73.125 108.765625 C 73.441406 107.824219 73.730469 106.671875 73.964844 105.269531 C 72.753906 105.746094 71.769531 106.230469 70.976562 106.710938 C 67.207031 109.03125 67.714844 111.390625 68.078125 112.265625 C 68.351562 111.960938 68.53125 111.558594 68.5625 111.117188 C 68.621094 110.429688 68.886719 109.296875 70.007812 108.449219 C 70.058594 108.410156 70.089844 108.394531 70.089844 108.394531 C 70.058594 108.410156 70.039062 108.425781 70.007812 108.449219 C 69.726562 108.691406 68.667969 109.699219 68.820312 111.429688 L 71.746094 108.136719 L 69.242188 111.832031 C 70.808594 111.734375 71.550781 110.429688 71.730469 110.078125 C 71.738281 110.046875 71.753906 110.019531 71.769531 109.988281 C 71.769531 109.988281 71.753906 110.019531 71.730469 110.078125 C 71.140625 111.4375 70.171875 111.90625 69.5625 112.066406 C 69.175781 112.171875 68.84375 112.421875 68.609375 112.765625 C 69.449219 113.039062 71.632812 113.242188 73.125 108.765625 " fill-opacity="1" fill-rule="nonzero"/><path fill="#ffffff" d="M 74.09375 101.777344 C 74.449219 101.019531 74.796875 100.078125 75.121094 98.925781 C 74.039062 99.199219 73.160156 99.5 72.433594 99.828125 C 69.007812 101.382812 69.234375 103.417969 69.46875 104.191406 C 69.734375 103.957031 69.910156 103.644531 69.984375 103.273438 C 70.089844 102.703125 70.421875 101.777344 71.460938 101.1875 C 71.503906 101.15625 71.527344 101.148438 71.527344 101.148438 C 71.503906 101.15625 71.480469 101.171875 71.460938 101.1875 C 71.1875 101.359375 70.195312 102.097656 70.179688 103.5625 L 72.964844 101.109375 L 70.5 103.949219 C 71.851562 104.039062 72.601562 103.015625 72.777344 102.734375 C 72.796875 102.710938 72.8125 102.695312 72.828125 102.664062 C 72.828125 102.664062 72.8125 102.695312 72.777344 102.734375 C 72.164062 103.8125 71.285156 104.113281 70.757812 104.183594 C 70.414062 104.234375 70.105469 104.402344 69.878906 104.667969 C 70.574219 104.988281 72.421875 105.382812 74.09375 101.777344 " fill-opacity="1" fill-rule="nonzero"/><path fill="#ffffff" d="M 65.160156 132.683594 C 64.070312 132.378906 62.769531 132.136719 61.21875 131.976562 C 62.066406 133.464844 62.859375 134.664062 63.601562 135.621094 C 67.140625 140.164062 69.492188 139.277344 70.316406 138.722656 C 69.910156 138.40625 69.433594 138.230469 68.957031 138.230469 C 68.214844 138.230469 66.9375 138.003906 65.71875 136.660156 C 65.664062 136.613281 65.636719 136.582031 65.636719 136.582031 C 65.664062 136.613281 65.695312 136.636719 65.71875 136.660156 C 66.058594 137.007812 67.433594 138.238281 69.21875 137.867188 L 64.886719 134.503906 L 69.523438 137.289062 C 68.972656 135.316406 67.375 134.503906 66.957031 134.328125 C 66.914062 134.308594 66.882812 134.292969 66.851562 134.285156 C 66.851562 134.285156 66.890625 134.292969 66.957031 134.328125 C 68.5625 134.929688 69.339844 136.113281 69.683594 136.863281 C 69.902344 137.34375 70.265625 137.738281 70.695312 137.996094 C 70.742188 136.910156 70.332031 134.125 65.160156 132.683594 " fill-opacity="1" fill-rule="nonzero"/><path fill="#ffffff" d="M 70.242188 141.195312 C 69.105469 141.113281 67.769531 141.136719 66.203125 141.304688 C 67.3125 142.652344 68.3125 143.707031 69.226562 144.527344 C 73.539062 148.421875 75.710938 147.023438 76.429688 146.28125 C 75.96875 146.039062 75.46875 145.960938 75 146.0625 C 74.257812 146.226562 72.949219 146.257812 71.503906 145.144531 C 71.4375 145.105469 71.40625 145.074219 71.40625 145.074219 C 71.4375 145.105469 71.46875 145.121094 71.503906 145.144531 C 71.898438 145.429688 73.480469 146.402344 75.1875 145.636719 L 70.300781 143.109375 L 75.386719 144.984375 C 74.5 143.078125 72.769531 142.585938 72.320312 142.488281 C 72.277344 142.488281 72.246094 142.472656 72.207031 142.472656 C 72.207031 142.472656 72.246094 142.480469 72.320312 142.488281 C 74.015625 142.769531 75 143.816406 75.476562 144.511719 C 75.777344 144.960938 76.203125 145.285156 76.679688 145.460938 C 76.535156 144.332031 75.628906 141.570312 70.242188 141.195312 " fill-opacity="1" fill-rule="nonzero"/><path fill="#ffffff" d="M 69.9375 98.886719 C 69.9375 98.886719 69.78125 99.113281 69.523438 99.546875 C 69.265625 99.988281 68.878906 100.632812 68.464844 101.496094 C 68.046875 102.347656 67.578125 103.402344 67.125 104.660156 C 66.648438 105.90625 66.226562 107.355469 65.855469 108.957031 C 65.484375 110.558594 65.210938 112.332031 65.066406 114.222656 C 64.960938 116.125 64.945312 118.136719 65.1875 120.207031 C 65.234375 120.71875 65.339844 121.234375 65.414062 121.757812 C 65.484375 122.28125 65.566406 122.8125 65.695312 123.328125 C 65.808594 123.859375 65.929688 124.382812 66.042969 124.914062 C 66.1875 125.4375 66.359375 125.953125 66.519531 126.476562 L 66.761719 127.265625 C 66.851562 127.523438 66.964844 127.78125 67.050781 128.039062 C 67.253906 128.554688 67.457031 129.070312 67.65625 129.585938 C 67.875 130.089844 68.125 130.589844 68.359375 131.089844 C 68.601562 131.589844 68.820312 132.105469 69.113281 132.578125 C 69.675781 133.539062 70.203125 134.519531 70.847656 135.414062 C 71.164062 135.871094 71.46875 136.332031 71.785156 136.78125 C 72.109375 137.222656 72.457031 137.644531 72.796875 138.078125 C 73.132812 138.503906 73.464844 138.929688 73.8125 139.351562 C 74.175781 139.746094 74.539062 140.128906 74.902344 140.523438 C 75.265625 140.910156 75.628906 141.296875 75.992188 141.683594 C 76.375 142.039062 76.753906 142.402344 77.132812 142.753906 C 77.503906 143.101562 77.875 143.457031 78.246094 143.800781 C 78.617188 144.148438 79.023438 144.445312 79.402344 144.769531 C 79.789062 145.074219 80.171875 145.378906 80.550781 145.6875 C 80.929688 145.992188 81.300781 146.289062 81.6875 146.554688 C 82.457031 147.101562 83.199219 147.632812 83.925781 148.140625 C 84.652344 148.648438 85.402344 149.058594 86.089844 149.5 C 86.792969 149.921875 87.449219 150.355469 88.109375 150.703125 C 88.773438 151.046875 89.394531 151.378906 89.984375 151.683594 C 90.574219 151.988281 91.113281 152.289062 91.632812 152.546875 C 92.15625 152.777344 92.632812 152.996094 93.070312 153.1875 C 94.804688 153.96875 95.808594 154.378906 95.808594 154.378906 C 95.808594 154.378906 94.886719 153.792969 93.273438 152.8125 C 92.867188 152.5625 92.421875 152.296875 91.9375 151.996094 C 91.460938 151.675781 90.953125 151.335938 90.402344 150.976562 C 89.863281 150.613281 89.28125 150.226562 88.667969 149.816406 C 88.054688 149.40625 87.441406 148.929688 86.785156 148.464844 C 86.148438 147.980469 85.445312 147.519531 84.78125 146.964844 C 84.105469 146.425781 83.410156 145.863281 82.699219 145.292969 C 82.328125 145.007812 81.988281 144.695312 81.640625 144.382812 C 81.292969 144.058594 80.945312 143.746094 80.582031 143.414062 C 80.234375 143.09375 79.863281 142.78125 79.515625 142.441406 C 79.167969 142.09375 78.820312 141.742188 78.472656 141.386719 C 78.117188 141.03125 77.769531 140.679688 77.414062 140.324219 C 77.078125 139.9375 76.746094 139.558594 76.414062 139.171875 C 76.074219 138.785156 75.742188 138.398438 75.402344 138.011719 C 75.089844 137.609375 74.765625 137.199219 74.449219 136.789062 C 74.136719 136.378906 73.8125 135.96875 73.507812 135.550781 C 73.214844 135.113281 72.925781 134.679688 72.632812 134.246094 C 72.027344 133.390625 71.550781 132.449219 71.027344 131.546875 C 70.742188 131.097656 70.535156 130.621094 70.300781 130.15625 C 70.074219 129.679688 69.832031 129.214844 69.621094 128.738281 C 69.425781 128.257812 69.234375 127.773438 69.039062 127.296875 C 68.941406 127.046875 68.835938 126.816406 68.757812 126.574219 L 68.515625 125.832031 C 67.835938 123.882812 67.398438 121.894531 67.085938 119.964844 C 66.800781 118.015625 66.6875 116.105469 66.6875 114.296875 C 66.738281 112.476562 66.851562 110.761719 67.078125 109.183594 C 67.328125 107.605469 67.585938 106.164062 67.917969 104.902344 C 68.238281 103.636719 68.554688 102.542969 68.871094 101.65625 C 69.167969 100.761719 69.425781 100.070312 69.621094 99.601562 C 69.816406 99.136719 69.9375 98.886719 69.9375 98.886719 " fill-opacity="1" fill-rule="nonzero"/><path fill="#ffffff" d="M 200.6875 104.265625 C 201.226562 103.25 201.953125 102.105469 202.90625 100.820312 C 203.292969 102.316406 203.519531 103.613281 203.632812 104.730469 C 204.160156 110.046875 201.996094 111.359375 201.074219 111.679688 C 201.144531 111.1875 201.355469 110.714844 201.679688 110.351562 C 202.1875 109.78125 202.90625 108.660156 202.875 106.953125 C 202.875 106.890625 202.875 106.839844 202.875 106.839844 C 202.875 106.882812 202.875 106.921875 202.875 106.953125 C 202.867188 107.414062 202.730469 109.175781 201.277344 110.34375 L 202.042969 105.09375 L 200.695312 110.246094 C 199.789062 108.707031 200.355469 107.011719 200.523438 106.582031 C 200.539062 106.550781 200.546875 106.511719 200.566406 106.480469 C 200.566406 106.480469 200.546875 106.519531 200.523438 106.582031 C 199.820312 108.167969 200.054688 109.441406 200.304688 110.132812 C 200.46875 110.578125 200.476562 111.074219 200.355469 111.558594 C 199.613281 110.980469 198.101562 109.078125 200.6875 104.265625 " fill-opacity="1" fill-rule="nonzero"/><path fill="#ffffff" d="M 198.035156 96.375 C 198.425781 95.402344 198.964844 94.296875 199.691406 93.035156 C 200.203125 94.320312 200.546875 95.441406 200.765625 96.414062 C 201.800781 101.070312 199.96875 102.507812 199.167969 102.902344 C 199.183594 102.460938 199.320312 102.019531 199.578125 101.65625 C 199.976562 101.078125 200.515625 99.996094 200.304688 98.492188 C 200.296875 98.429688 200.289062 98.386719 200.289062 98.386719 C 200.296875 98.429688 200.296875 98.453125 200.304688 98.492188 C 200.347656 98.894531 200.402344 100.480469 199.207031 101.695312 L 199.351562 96.9375 L 198.675781 101.6875 C 197.6875 100.433594 198.027344 98.855469 198.132812 98.453125 C 198.148438 98.417969 198.15625 98.386719 198.164062 98.355469 C 198.164062 98.355469 198.148438 98.386719 198.132812 98.453125 C 197.664062 99.949219 198.011719 101.042969 198.3125 101.632812 C 198.503906 102.011719 198.5625 102.453125 198.503906 102.894531 C 197.769531 102.46875 196.203125 100.972656 198.035156 96.375 " fill-opacity="1" fill-rule="nonzero"/><path fill="#ffffff" d="M 190.652344 93.871094 C 190.484375 92.679688 190.402344 91.246094 190.425781 89.53125 C 191.71875 90.394531 192.746094 91.214844 193.546875 91.996094 C 197.375 95.691406 196.300781 98.347656 195.695312 99.289062 C 195.445312 98.855469 195.332031 98.339844 195.378906 97.808594 C 195.46875 96.980469 195.394531 95.570312 194.289062 94.289062 C 194.238281 94.234375 194.214844 94.203125 194.214844 94.203125 C 194.238281 94.226562 194.265625 94.257812 194.289062 94.289062 C 194.5625 94.644531 195.566406 96.109375 195.015625 98.113281 L 192.367188 93.476562 L 194.449219 98.476562 C 192.671875 97.976562 192.097656 96.238281 191.976562 95.777344 C 191.96875 95.738281 191.960938 95.707031 191.953125 95.667969 C 191.953125 95.667969 191.960938 95.707031 191.976562 95.777344 C 192.359375 97.535156 193.375 98.332031 194.039062 98.675781 C 194.457031 98.902344 194.78125 99.28125 194.976562 99.75 C 193.964844 99.859375 191.421875 99.539062 190.652344 93.871094 " fill-opacity="1" fill-rule="nonzero"/><path fill="#ffffff" d="M 202.761719 112.839844 C 203.519531 112 204.492188 111.089844 205.703125 110.109375 C 205.703125 111.695312 205.597656 113.039062 205.425781 114.175781 C 204.613281 119.5625 202.246094 120.214844 201.300781 120.253906 C 201.492188 119.792969 201.800781 119.390625 202.195312 119.125 C 202.816406 118.714844 203.769531 117.820312 204.160156 116.140625 C 204.175781 116.066406 204.183594 116.027344 204.183594 116.027344 C 204.175781 116.066406 204.167969 116.097656 204.160156 116.140625 C 204.039062 116.582031 203.472656 118.28125 201.816406 118.996094 L 203.835938 114.054688 L 201.292969 118.738281 C 200.824219 116.953125 201.777344 115.445312 202.042969 115.078125 C 202.058594 115.042969 202.082031 115.019531 202.109375 114.988281 C 202.109375 114.988281 202.082031 115.019531 202.042969 115.078125 C 200.984375 116.429688 200.894531 117.75 200.960938 118.507812 C 201 118.988281 200.886719 119.488281 200.644531 119.929688 C 200.097656 119.140625 199.144531 116.816406 202.761719 112.839844 " fill-opacity="1" fill-rule="nonzero"/><path fill="#ffffff" d="M 202.359375 123.144531 C 203.269531 122.523438 204.394531 121.894531 205.773438 121.25 C 205.402344 122.820312 205 124.125 204.570312 125.195312 C 202.558594 130.285156 200.160156 130.277344 199.265625 130.058594 C 199.546875 129.65625 199.933594 129.351562 200.371094 129.199219 C 201.050781 128.957031 202.164062 128.34375 202.914062 126.78125 C 202.957031 126.71875 202.972656 126.6875 202.972656 126.6875 C 202.957031 126.71875 202.941406 126.75 202.914062 126.78125 C 202.695312 127.191406 201.777344 128.714844 200.039062 128.964844 L 203.09375 124.632812 L 199.601562 128.5625 C 199.570312 126.671875 200.816406 125.445312 201.15625 125.148438 C 201.1875 125.125 201.210938 125.101562 201.234375 125.082031 C 201.234375 125.082031 201.203125 125.109375 201.15625 125.148438 C 199.847656 126.195312 199.449219 127.476562 199.335938 128.238281 C 199.265625 128.730469 199.046875 129.191406 198.714844 129.558594 C 198.375 128.625 198.003906 126.066406 202.359375 123.144531 " fill-opacity="1" fill-rule="nonzero"/><path fill="#ffffff" d="M 189.359375 123.746094 C 189.199219 122.644531 189.109375 121.316406 189.128906 119.722656 C 190.332031 120.511719 191.292969 121.269531 192.042969 121.984375 C 195.621094 125.382812 194.636719 127.863281 194.078125 128.738281 C 193.84375 128.335938 193.738281 127.851562 193.789062 127.363281 C 193.859375 126.597656 193.78125 125.285156 192.738281 124.109375 C 192.695312 124.054688 192.671875 124.027344 192.671875 124.027344 C 192.695312 124.054688 192.722656 124.078125 192.738281 124.109375 C 193.003906 124.441406 193.941406 125.785156 193.449219 127.652344 L 190.953125 123.367188 L 192.921875 128 C 191.265625 127.546875 190.726562 125.9375 190.605469 125.511719 C 190.597656 125.476562 190.589844 125.445312 190.582031 125.40625 C 190.582031 125.40625 190.589844 125.445312 190.605469 125.511719 C 190.976562 127.136719 191.921875 127.871094 192.535156 128.183594 C 192.929688 128.382812 193.238281 128.738281 193.425781 129.164062 C 192.480469 129.277344 190.121094 129.003906 189.359375 123.746094 " fill-opacity="1" fill-rule="nonzero"/><path fill="#ffffff" d="M 185.765625 129.980469 C 185.878906 128.835938 186.113281 127.5 186.5 125.9375 C 187.453125 127.054688 188.175781 128.078125 188.714844 128.996094 C 191.292969 133.367188 189.773438 135.535156 189.039062 136.242188 C 188.910156 135.785156 188.917969 135.277344 189.085938 134.800781 C 189.335938 134.070312 189.570312 132.757812 188.875 131.292969 C 188.84375 131.226562 188.828125 131.195312 188.828125 131.195312 C 188.84375 131.226562 188.859375 131.257812 188.875 131.292969 C 189.039062 131.695312 189.605469 133.289062 188.699219 134.988281 L 187.359375 130.058594 L 188.117188 135.179688 C 186.664062 134.261719 186.535156 132.523438 186.527344 132.0625 C 186.527344 132.03125 186.519531 131.992188 186.527344 131.953125 C 186.527344 131.953125 186.519531 132 186.527344 132.0625 C 186.484375 133.769531 187.203125 134.769531 187.707031 135.261719 C 188.035156 135.566406 188.238281 136 188.3125 136.476562 C 187.390625 136.324219 185.226562 135.371094 185.765625 129.980469 " fill-opacity="1" fill-rule="nonzero"/><path fill="#ffffff" d="M 181.371094 135.710938 C 181.792969 134.640625 182.382812 133.410156 183.175781 132.007812 C 183.746094 133.425781 184.136719 134.65625 184.386719 135.734375 C 185.558594 140.863281 183.546875 142.472656 182.664062 142.917969 C 182.679688 142.425781 182.828125 141.941406 183.109375 141.53125 C 183.546875 140.894531 184.136719 139.6875 183.894531 138.03125 C 183.882812 137.957031 183.875 137.917969 183.875 137.917969 C 183.882812 137.957031 183.882812 137.988281 183.894531 138.03125 C 183.941406 138.480469 184.015625 140.226562 182.699219 141.578125 L 182.828125 136.324219 L 182.109375 141.578125 C 181.015625 140.195312 181.371094 138.457031 181.492188 138.003906 C 181.5 137.972656 181.511719 137.933594 181.527344 137.902344 C 181.527344 137.902344 181.511719 137.941406 181.492188 138.003906 C 180.976562 139.664062 181.371094 140.871094 181.703125 141.515625 C 181.921875 141.933594 181.996094 142.417969 181.921875 142.910156 C 181.113281 142.449219 179.371094 140.808594 181.371094 135.710938 " fill-opacity="1" fill-rule="nonzero"/><path fill="#ffffff" d="M 188.0625 148.761719 C 188.972656 149.105469 190.015625 149.605469 191.1875 150.316406 C 189.917969 151.039062 188.8125 151.5625 187.851562 151.917969 C 183.304688 153.609375 182.019531 151.652344 181.679688 150.773438 C 182.117188 150.742188 182.527344 150.855469 182.867188 151.113281 C 183.398438 151.515625 184.417969 152.011719 185.878906 151.609375 C 185.945312 151.59375 185.976562 151.585938 185.976562 151.585938 C 185.945312 151.59375 185.914062 151.601562 185.878906 151.609375 C 185.484375 151.699219 183.957031 151.941406 182.851562 150.683594 L 187.4375 150.347656 L 182.890625 150.066406 C 184.167969 148.792969 185.667969 149.019531 186.050781 149.097656 C 186.082031 149.105469 186.113281 149.105469 186.144531 149.125 C 186.144531 149.125 186.105469 149.105469 186.050781 149.097656 C 184.636719 148.710938 183.554688 149.234375 182.964844 149.640625 C 182.59375 149.90625 182.15625 150.023438 181.734375 149.992188 C 182.1875 149.105469 183.730469 147.136719 188.0625 148.761719 " fill-opacity="1" fill-rule="nonzero"/><path fill="#ffffff" d="M 175.976562 140.414062 C 176.476562 139.460938 177.15625 138.390625 178.035156 137.183594 C 178.40625 138.585938 178.625 139.792969 178.730469 140.832031 C 179.238281 145.78125 177.222656 147.023438 176.363281 147.320312 C 176.429688 146.871094 176.625 146.425781 176.929688 146.082031 C 177.398438 145.550781 178.070312 144.503906 178.027344 142.910156 C 178.027344 142.84375 178.027344 142.804688 178.027344 142.804688 C 178.027344 142.84375 178.027344 142.875 178.027344 142.910156 C 178.019531 143.335938 177.898438 144.984375 176.542969 146.082031 L 177.246094 141.175781 L 176 145.992188 C 175.152344 144.558594 175.679688 142.972656 175.832031 142.570312 C 175.847656 142.539062 175.855469 142.503906 175.871094 142.472656 C 175.871094 142.472656 175.855469 142.515625 175.832031 142.570312 C 175.175781 144.050781 175.410156 145.242188 175.644531 145.886719 C 175.792969 146.296875 175.808594 146.765625 175.6875 147.222656 C 175 146.675781 173.578125 144.914062 175.976562 140.414062 " fill-opacity="1" fill-rule="nonzero"/><path fill="#ffffff" d="M 191.136719 116.195312 C 190.816406 115.148438 190.523438 113.871094 190.289062 112.316406 C 191.613281 112.871094 192.6875 113.433594 193.554688 113.988281 C 197.640625 116.648438 197.035156 119.230469 196.613281 120.1875 C 196.316406 119.84375 196.136719 119.398438 196.105469 118.910156 C 196.066406 118.152344 195.789062 116.886719 194.570312 115.929688 C 194.523438 115.882812 194.492188 115.867188 194.492188 115.867188 C 194.523438 115.882812 194.546875 115.90625 194.570312 115.929688 C 194.886719 116.203125 196.023438 117.347656 195.816406 119.246094 L 192.671875 115.535156 L 195.339844 119.683594 C 193.625 119.535156 192.835938 118.070312 192.648438 117.675781 C 192.640625 117.644531 192.625 117.621094 192.609375 117.582031 C 192.609375 117.582031 192.625 117.621094 192.648438 117.675781 C 193.261719 119.199219 194.320312 119.738281 194.984375 119.929688 C 195.410156 120.058594 195.765625 120.34375 196.015625 120.726562 C 195.089844 121.011719 192.6875 121.171875 191.136719 116.195312 " fill-opacity="1" fill-rule="nonzero"/><path fill="#ffffff" d="M 191.785156 108.765625 C 191.46875 107.824219 191.179688 106.671875 190.945312 105.269531 C 192.15625 105.746094 193.140625 106.230469 193.933594 106.710938 C 197.707031 109.03125 197.195312 111.390625 196.832031 112.265625 C 196.558594 111.960938 196.378906 111.558594 196.347656 111.117188 C 196.292969 110.429688 196.023438 109.296875 194.902344 108.449219 C 194.855469 108.410156 194.820312 108.394531 194.820312 108.394531 C 194.855469 108.410156 194.871094 108.425781 194.902344 108.449219 C 195.183594 108.691406 196.242188 109.699219 196.089844 111.429688 L 193.164062 108.136719 L 195.667969 111.832031 C 194.101562 111.734375 193.359375 110.429688 193.183594 110.078125 C 193.171875 110.046875 193.15625 110.019531 193.140625 109.988281 C 193.140625 109.988281 193.15625 110.019531 193.183594 110.078125 C 193.773438 111.4375 194.742188 111.90625 195.347656 112.066406 C 195.734375 112.171875 196.066406 112.421875 196.300781 112.765625 C 195.460938 113.039062 193.277344 113.242188 191.785156 108.765625 " fill-opacity="1" fill-rule="nonzero"/><path fill="#ffffff" d="M 190.816406 101.777344 C 190.460938 101.019531 190.113281 100.078125 189.789062 98.925781 C 190.871094 99.199219 191.753906 99.5 192.480469 99.828125 C 195.902344 101.382812 195.679688 103.417969 195.445312 104.191406 C 195.175781 103.957031 195 103.644531 194.925781 103.273438 C 194.820312 102.703125 194.492188 101.777344 193.449219 101.1875 C 193.40625 101.15625 193.382812 101.148438 193.382812 101.148438 C 193.40625 101.15625 193.433594 101.171875 193.449219 101.1875 C 193.722656 101.359375 194.714844 102.097656 194.734375 103.5625 L 191.945312 101.109375 L 194.410156 103.949219 C 193.0625 104.039062 192.308594 103.015625 192.132812 102.734375 C 192.117188 102.710938 192.097656 102.695312 192.082031 102.664062 C 192.082031 102.664062 192.097656 102.695312 192.132812 102.734375 C 192.746094 103.8125 193.625 104.113281 194.152344 104.183594 C 194.5 104.234375 194.804688 104.402344 195.03125 104.667969 C 194.335938 104.988281 192.488281 105.382812 190.816406 101.777344 " fill-opacity="1" fill-rule="nonzero"/><path fill="#ffffff" d="M 199.75 132.683594 C 200.839844 132.378906 202.140625 132.136719 203.691406 131.976562 C 202.84375 133.464844 202.050781 134.664062 201.308594 135.621094 C 197.769531 140.164062 195.417969 139.277344 194.59375 138.722656 C 195 138.40625 195.476562 138.230469 195.953125 138.230469 C 196.695312 138.230469 197.972656 138.003906 199.191406 136.660156 C 199.25 136.613281 199.273438 136.582031 199.273438 136.582031 C 199.25 136.613281 199.214844 136.636719 199.191406 136.660156 C 198.851562 137.007812 197.480469 138.238281 195.695312 137.867188 L 200.023438 134.503906 L 195.386719 137.289062 C 195.9375 135.316406 197.535156 134.503906 197.957031 134.328125 C 197.996094 134.308594 198.027344 134.292969 198.0625 134.285156 C 198.0625 134.285156 198.019531 134.292969 197.957031 134.328125 C 196.347656 134.929688 195.574219 136.113281 195.226562 136.863281 C 195.007812 137.34375 194.644531 137.738281 194.214844 137.996094 C 194.167969 136.910156 194.578125 134.125 199.75 132.683594 " fill-opacity="1" fill-rule="nonzero"/><path fill="#ffffff" d="M 194.667969 141.195312 C 195.808594 141.113281 197.140625 141.136719 198.707031 141.304688 C 197.601562 142.652344 196.597656 143.707031 195.6875 144.527344 C 191.371094 148.421875 189.199219 147.023438 188.480469 146.28125 C 188.941406 146.039062 189.441406 145.960938 189.910156 146.0625 C 190.652344 146.226562 191.960938 146.257812 193.40625 145.144531 C 193.472656 145.105469 193.503906 145.074219 193.503906 145.074219 C 193.472656 145.105469 193.441406 145.121094 193.40625 145.144531 C 193.011719 145.429688 191.429688 146.402344 189.726562 145.636719 L 194.613281 143.109375 L 189.523438 144.984375 C 190.410156 143.078125 192.140625 142.585938 192.59375 142.488281 C 192.632812 142.488281 192.664062 142.472656 192.707031 142.472656 C 192.707031 142.472656 192.664062 142.480469 192.59375 142.488281 C 190.894531 142.769531 189.910156 143.816406 189.433594 144.511719 C 189.136719 144.960938 188.707031 145.285156 188.230469 145.460938 C 188.375 144.332031 189.28125 141.570312 194.667969 141.195312 " fill-opacity="1" fill-rule="nonzero"/><path fill="#ffffff" d="M 194.976562 98.886719 C 194.976562 98.886719 195.128906 99.113281 195.386719 99.546875 C 195.644531 99.988281 196.035156 100.632812 196.445312 101.496094 C 196.863281 102.347656 197.332031 103.402344 197.785156 104.660156 C 198.261719 105.90625 198.683594 107.355469 199.054688 108.957031 C 199.425781 110.558594 199.699219 112.332031 199.847656 114.222656 C 199.949219 116.125 199.96875 118.136719 199.726562 120.207031 C 199.675781 120.71875 199.570312 121.234375 199.5 121.757812 C 199.425781 122.28125 199.34375 122.8125 199.214844 123.328125 C 199.101562 123.859375 198.980469 124.382812 198.867188 124.914062 C 198.722656 125.4375 198.554688 125.953125 198.390625 126.476562 L 198.148438 127.265625 C 198.0625 127.523438 197.949219 127.78125 197.851562 128.039062 C 197.65625 128.554688 197.453125 129.070312 197.253906 129.585938 C 197.035156 130.089844 196.785156 130.589844 196.550781 131.089844 C 196.308594 131.589844 196.089844 132.105469 195.800781 132.578125 C 195.234375 133.539062 194.707031 134.519531 194.0625 135.414062 C 193.746094 135.871094 193.441406 136.332031 193.125 136.78125 C 192.800781 137.222656 192.453125 137.644531 192.117188 138.078125 C 191.777344 138.503906 191.445312 138.929688 191.097656 139.351562 C 190.734375 139.746094 190.371094 140.128906 190.007812 140.523438 C 189.644531 140.910156 189.28125 141.296875 188.917969 141.683594 C 188.539062 142.039062 188.15625 142.402344 187.777344 142.753906 C 187.40625 143.101562 187.035156 143.457031 186.664062 143.800781 C 186.292969 144.148438 185.886719 144.445312 185.507812 144.769531 C 185.121094 145.074219 184.742188 145.378906 184.359375 145.6875 C 183.980469 145.992188 183.609375 146.289062 183.222656 146.554688 C 182.453125 147.101562 181.710938 147.632812 180.984375 148.140625 C 180.257812 148.648438 179.507812 149.058594 178.820312 149.5 C 178.117188 149.921875 177.464844 150.355469 176.800781 150.703125 C 176.136719 151.046875 175.515625 151.378906 174.925781 151.683594 C 174.335938 151.988281 173.796875 152.289062 173.277344 152.546875 C 172.753906 152.777344 172.277344 152.996094 171.839844 153.1875 C 170.105469 153.96875 169.101562 154.378906 169.101562 154.378906 C 169.101562 154.378906 170.023438 153.792969 171.640625 152.8125 C 172.042969 152.5625 172.488281 152.296875 172.972656 151.996094 C 173.449219 151.675781 173.957031 151.335938 174.507812 150.976562 C 175.046875 150.613281 175.628906 150.226562 176.242188 149.816406 C 176.855469 149.40625 177.472656 148.929688 178.125 148.464844 C 178.761719 147.980469 179.464844 147.519531 180.128906 146.964844 C 180.808594 146.425781 181.5 145.863281 182.210938 145.292969 C 182.585938 145.007812 182.921875 144.695312 183.269531 144.382812 C 183.617188 144.058594 183.964844 143.746094 184.328125 143.414062 C 184.675781 143.09375 185.046875 142.78125 185.394531 142.441406 C 185.742188 142.09375 186.089844 141.742188 186.4375 141.386719 C 186.792969 141.03125 187.140625 140.679688 187.496094 140.324219 C 187.835938 139.9375 188.164062 139.558594 188.496094 139.171875 C 188.835938 138.785156 189.167969 138.398438 189.507812 138.011719 C 189.820312 137.609375 190.144531 137.199219 190.460938 136.789062 C 190.773438 136.378906 191.097656 135.96875 191.40625 135.550781 C 191.695312 135.113281 191.988281 134.679688 192.277344 134.246094 C 192.882812 133.390625 193.359375 132.449219 193.882812 131.546875 C 194.167969 131.097656 194.378906 130.621094 194.613281 130.15625 C 194.835938 129.679688 195.082031 129.214844 195.289062 128.738281 C 195.484375 128.257812 195.679688 127.773438 195.871094 127.296875 C 195.96875 127.046875 196.074219 126.816406 196.15625 126.574219 L 196.398438 125.832031 C 197.074219 123.882812 197.511719 121.894531 197.828125 119.964844 C 198.109375 118.015625 198.222656 116.105469 198.222656 114.296875 C 198.171875 112.476562 198.0625 110.761719 197.835938 109.183594 C 197.585938 107.605469 197.324219 106.164062 196.996094 104.902344 C 196.671875 103.636719 196.355469 102.542969 196.042969 101.65625 C 195.742188 100.761719 195.484375 100.070312 195.289062 99.601562 C 195.097656 99.136719 194.976562 98.886719 194.976562 98.886719 " fill-opacity="1" fill-rule="nonzero"/><g clip-path="url(#9e99851f56)"><path fill="#ffffff" d="M 157.457031 106.253906 C 157.410156 104.976562 156.867188 103.742188 157.199219 102.429688 C 157.304688 102.023438 157.269531 101.570312 157.121094 101.152344 C 157.03125 100.902344 157.007812 100.644531 157.027344 100.386719 C 157.078125 99.773438 156.839844 99.257812 156.503906 98.78125 C 155.617188 97.519531 154.707031 96.28125 153.488281 95.300781 C 152.515625 94.515625 151.667969 93.574219 150.507812 93.023438 C 150.191406 92.871094 149.785156 92.679688 149.695312 92.296875 C 149.609375 91.917969 149.359375 91.789062 149.082031 91.648438 C 148.746094 91.484375 148.445312 91.300781 148.207031 90.988281 C 147.972656 90.679688 147.578125 90.480469 147.226562 90.570312 C 146.726562 90.695312 146.484375 90.4375 146.214844 90.140625 C 145.960938 89.867188 145.664062 89.644531 145.367188 89.417969 C 145.128906 89.230469 144.863281 89.023438 144.863281 88.65625 C 144.863281 87.828125 144.648438 87.015625 144.671875 86.175781 C 144.695312 85.234375 144.59375 84.273438 144.457031 83.347656 C 144.292969 82.230469 144.492188 81.1875 144.726562 80.136719 C 145.019531 78.808594 145.683594 77.640625 146.4375 76.523438 C 146.976562 75.722656 146.734375 75.011719 145.832031 74.695312 C 145.621094 74.621094 145.34375 74.667969 145.214844 74.445312 C 144.902344 73.914062 144.441406 73.53125 143.890625 73.355469 C 143.363281 73.1875 143.289062 72.484375 142.710938 72.46875 C 142.207031 72.449219 142.101562 72.15625 142.109375 71.730469 C 142.113281 71.5 142.117188 71.269531 142.085938 71.042969 C 142.023438 70.574219 141.828125 70.390625 141.363281 70.34375 C 141.074219 70.3125 140.800781 70.378906 140.527344 70.480469 C 140.046875 70.660156 139.554688 70.8125 139.0625 70.960938 C 138.621094 71.09375 138.195312 71.019531 137.894531 70.652344 C 137.214844 69.820312 136.238281 69.589844 135.285156 69.300781 C 134.390625 69.03125 133.46875 69.175781 132.5625 69.101562 C 131.355469 69.003906 130.246094 69.316406 129.144531 69.734375 C 128.546875 69.960938 128.015625 70.285156 127.652344 70.835938 C 127.472656 71.105469 127.253906 71.339844 126.957031 71.453125 C 126.667969 71.5625 126.476562 71.773438 126.3125 71.996094 C 125.917969 72.523438 125.199219 72.847656 125.257812 73.667969 C 125.261719 73.707031 125.195312 73.753906 125.152344 73.792969 C 124.363281 74.578125 123.917969 75.558594 123.550781 76.585938 C 123.386719 77.039062 123.0625 77.429688 122.984375 77.925781 C 122.332031 78.3125 122.25 79.046875 121.957031 79.652344 C 121.898438 79.777344 121.851562 79.914062 121.707031 79.988281 C 121.164062 80.269531 120.734375 80.695312 120.269531 81.085938 C 119.828125 81.457031 119.492188 82.105469 118.730469 81.921875 C 118.617188 81.894531 118.488281 82.019531 118.5 82.128906 C 118.53125 82.445312 118.65625 82.742188 118.851562 82.988281 C 119.011719 83.1875 119.148438 82.984375 119.289062 82.910156 C 119.433594 82.835938 119.640625 82.886719 119.691406 82.957031 C 120.074219 83.511719 120.527344 83.277344 120.976562 83.109375 C 120.988281 83.363281 121.265625 83.582031 121.136719 83.820312 C 120.890625 84.261719 120.492188 84.652344 120.957031 85.183594 C 120.980469 85.207031 120.890625 85.328125 120.863281 85.40625 C 120.628906 86.140625 120.46875 86.890625 120.003906 87.554688 C 119.847656 87.78125 119.382812 88.027344 119.601562 88.414062 C 119.769531 88.714844 120.242188 88.613281 120.492188 88.894531 C 120.558594 89.058594 120.40625 89.203125 120.402344 89.371094 C 120.402344 89.566406 120.320312 89.800781 120.546875 89.914062 C 120.730469 90.003906 120.9375 89.984375 121.132812 89.894531 C 121.324219 89.808594 121.425781 89.632812 121.554688 89.480469 C 121.65625 89.363281 121.65625 89.125 121.90625 89.164062 C 122.105469 89.371094 121.980469 89.570312 121.890625 89.78125 C 121.636719 90.382812 121.691406 91.023438 121.648438 91.652344 C 121.632812 91.878906 121.714844 92.066406 121.933594 92.125 C 122.097656 92.167969 122.277344 92.140625 122.347656 91.925781 C 122.394531 91.769531 122.519531 91.636719 122.640625 91.808594 C 122.96875 92.28125 123.171875 92.003906 123.425781 91.734375 C 123.835938 91.292969 124.027344 90.773438 124.007812 90.179688 C 124.003906 90.039062 123.921875 89.871094 124.050781 89.785156 C 124.40625 89.558594 124.519531 89.136719 124.78125 88.777344 C 125.078125 89.292969 124.851562 89.652344 124.601562 89.949219 C 124.234375 90.375 124.210938 90.773438 124.578125 91.171875 C 124.792969 91.40625 124.8125 91.695312 124.65625 91.867188 C 124.414062 92.148438 124.4375 92.445312 124.421875 92.753906 C 124.371094 93.582031 123.996094 94.101562 123.171875 94.378906 C 122.355469 94.652344 121.550781 94.851562 120.675781 94.847656 C 118.816406 94.839844 116.984375 95.042969 115.203125 95.625 C 113.371094 96.21875 111.492188 96.5 109.5625 96.398438 C 109.074219 96.375 108.597656 96.425781 108.113281 96.535156 C 106.292969 96.960938 104.46875 97.390625 102.65625 97.851562 C 100.890625 98.300781 99.085938 98.566406 97.261719 98.628906 C 96.035156 98.671875 94.804688 98.644531 93.578125 98.648438 C 92.78125 98.648438 91.980469 98.710938 91.195312 98.492188 C 91.003906 98.4375 90.800781 98.417969 90.605469 98.382812 C 90.417969 98.347656 90.265625 98.414062 90.171875 98.574219 C 90.074219 98.738281 90.101562 98.921875 90.21875 99.058594 C 90.328125 99.1875 90.46875 99.292969 90.605469 99.394531 C 91.300781 99.921875 92.0625 100.292969 92.945312 100.359375 C 93.21875 100.378906 93.425781 100.421875 93.46875 100.78125 C 93.507812 101.128906 93.792969 101.289062 94.121094 101.375 C 94.59375 101.503906 95.066406 101.597656 95.558594 101.574219 C 97.417969 101.484375 99.265625 101.6875 101.121094 101.785156 C 101.140625 102.132812 100.925781 102.355469 100.710938 102.578125 C 100.429688 102.867188 100.144531 103.148438 99.867188 103.441406 C 99.570312 103.753906 99.316406 104.109375 99.210938 104.535156 C 99.132812 104.847656 99.148438 105.175781 99.441406 105.398438 C 99.761719 105.636719 100.035156 105.476562 100.296875 105.273438 C 100.75 104.921875 101.167969 104.53125 101.511719 104.074219 C 102.113281 103.277344 102.917969 102.742188 103.789062 102.292969 C 104.347656 102.003906 104.921875 101.734375 105.378906 101.292969 C 105.761719 100.925781 106.238281 100.769531 106.707031 100.8125 C 107.53125 100.886719 108.359375 100.804688 109.179688 100.90625 C 111.109375 101.148438 113.054688 101.027344 114.988281 101.21875 C 115.476562 101.269531 115.933594 101.042969 116.429688 101.042969 C 117.253906 101.039062 118.070312 100.898438 118.882812 100.75 C 119.921875 100.566406 120.957031 100.394531 122.019531 100.664062 C 122.492188 100.785156 123.003906 100.734375 123.441406 100.496094 C 124.109375 100.128906 124.820312 100.203125 125.53125 100.1875 C 125.910156 100.179688 126.046875 100.339844 126.175781 100.707031 C 126.515625 101.695312 126.632812 102.691406 126.707031 103.730469 C 126.746094 104.285156 126.605469 104.601562 126.222656 104.863281 C 125.550781 105.316406 124.984375 105.878906 124.476562 106.503906 C 123.335938 107.90625 122.113281 109.222656 120.671875 110.328125 C 119.769531 111.019531 118.933594 111.820312 117.765625 112.0625 C 117.628906 112.089844 117.46875 112.136719 117.375 112.230469 C 116.730469 112.863281 115.882812 112.761719 115.128906 112.757812 C 113.558594 112.746094 112.105469 112.28125 110.921875 111.164062 C 110.820312 111.070312 110.683594 111.011719 110.5625 110.9375 C 109.742188 110.417969 108.863281 109.992188 108.175781 109.28125 C 108.078125 109.179688 107.941406 109.109375 107.8125 109.058594 C 107.4375 108.914062 107.195312 109.113281 107.25 109.523438 C 107.308594 109.941406 107.539062 110.289062 107.820312 110.566406 C 108.285156 111.03125 108.789062 111.457031 109.300781 111.871094 C 110.105469 112.515625 110.949219 113.125 111.582031 113.945312 C 112.035156 114.527344 112.550781 114.992188 113.195312 115.320312 C 113.683594 115.570312 113.980469 115.957031 114.117188 116.507812 C 113.75 116.652344 113.414062 116.765625 113.03125 116.796875 C 112.375 116.847656 111.828125 117.160156 111.476562 117.734375 C 111.351562 117.9375 111.152344 118.175781 111.367188 118.441406 C 111.546875 118.664062 111.769531 118.585938 111.996094 118.515625 C 112.789062 118.273438 113.585938 118.148438 114.425781 118.125 C 116.09375 118.078125 117.519531 117.378906 118.625 116.113281 C 119.585938 115.019531 120.691406 114.15625 122.070312 113.675781 C 122.855469 113.402344 123.613281 113.078125 124.347656 112.699219 C 125.488281 112.105469 126.65625 111.566406 127.769531 110.914062 C 128.355469 110.570312 128.582031 110.636719 128.828125 111.25 C 129.125 111.988281 129.527344 112.6875 129.625 113.507812 C 129.671875 113.890625 129.835938 114.253906 130.195312 114.527344 C 131.171875 115.273438 132.183594 115.96875 133.257812 116.578125 C 133.804688 116.886719 134.394531 117.039062 134.988281 116.902344 C 135.910156 116.6875 136.808594 116.941406 137.714844 116.925781 C 137.898438 116.921875 138.144531 116.890625 138.15625 117.195312 C 138.167969 117.398438 138.179688 117.679688 137.960938 117.714844 C 137.378906 117.816406 137.242188 118.28125 137.011719 118.707031 C 136.898438 118.921875 136.695312 119.105469 136.4375 119.203125 C 136.253906 119.273438 136.054688 119.34375 135.910156 119.472656 C 134.617188 120.636719 133.367188 121.851562 132.105469 123.046875 C 131.644531 123.480469 131.289062 124.125 130.566406 124.203125 C 130.042969 124.261719 129.816406 124.558594 129.753906 125.042969 C 129.65625 125.835938 129.277344 126.503906 128.824219 127.136719 C 128.257812 127.929688 127.796875 128.78125 127.464844 129.707031 C 126.691406 131.835938 125.761719 133.882812 124.246094 135.605469 C 124.15625 135.707031 124.023438 135.921875 124.058594 135.96875 C 124.570312 136.632812 123.894531 136.871094 123.609375 137.21875 C 123.335938 137.554688 123.03125 137.855469 122.878906 138.269531 C 122.792969 138.507812 122.792969 138.757812 123.085938 138.828125 C 123.390625 138.902344 123.394531 139.089844 123.394531 139.335938 C 123.398438 140.113281 123.429688 140.890625 123.425781 141.664062 C 123.425781 142.050781 123.296875 142.410156 122.992188 142.65625 C 122.546875 143.023438 122.25 143.515625 121.910156 143.964844 C 121.539062 144.457031 121.324219 145.027344 121.339844 145.644531 C 121.351562 146.324219 121.195312 146.980469 120.941406 147.570312 C 120.554688 148.46875 120.441406 149.382812 120.464844 150.335938 C 120.480469 151.085938 120.375 151.835938 120.207031 152.542969 C 120.027344 153.28125 119.976562 154.011719 119.910156 154.75 C 119.875 155.15625 119.988281 155.390625 120.4375 155.460938 C 121.085938 155.558594 121.6875 155.820312 122.296875 156.078125 C 122.796875 156.289062 123.25 156.574219 123.746094 156.78125 C 124.667969 157.164062 125.632812 157.164062 126.609375 157.179688 C 127.492188 157.195312 128.351562 157.382812 129.15625 157.78125 C 129.445312 157.921875 129.609375 158.113281 129.554688 158.453125 C 129.351562 159.753906 129.101562 161.046875 128.972656 162.355469 C 128.875 163.355469 128.652344 164.332031 128.515625 165.324219 C 128.386719 166.253906 128.375 167.195312 128.121094 168.121094 C 127.632812 169.917969 127.332031 171.761719 127.332031 173.628906 C 127.332031 174.414062 127.25 175.171875 126.996094 175.898438 C 126.53125 177.230469 126.222656 178.578125 126.089844 179.992188 C 126.019531 180.703125 126.015625 181.417969 125.925781 182.128906 C 125.800781 183.121094 125.6875 184.117188 125.628906 185.117188 C 125.550781 186.378906 125.664062 187.636719 125.929688 188.875 C 125.996094 189.1875 125.964844 189.492188 125.84375 189.800781 C 125.539062 190.601562 125.246094 191.410156 124.976562 192.222656 C 124.390625 193.980469 123.570312 195.664062 123.398438 197.550781 C 123.355469 198.035156 123.085938 198.46875 122.8125 198.875 C 122.425781 199.445312 122.054688 200.023438 121.660156 200.589844 C 121.515625 200.800781 121.464844 201.050781 121.269531 201.246094 C 120.53125 201.972656 119.992188 202.863281 119.382812 203.695312 C 119.132812 204.039062 119.070312 204.417969 119.113281 204.839844 C 119.199219 205.609375 119.257812 206.386719 119.3125 207.160156 C 119.351562 207.714844 119.566406 208.140625 120.078125 208.40625 C 120.328125 208.539062 120.570312 208.703125 120.777344 208.898438 C 122.402344 210.433594 124.191406 211.789062 125.710938 213.441406 C 125.914062 213.664062 126.148438 213.800781 126.4375 213.859375 C 127.726562 214.132812 129.027344 214.402344 130.339844 214.429688 C 134.257812 214.503906 138.175781 214.449219 142.09375 214.386719 C 142.886719 214.375 143.675781 214.417969 144.472656 214.371094 C 144.976562 214.34375 145.496094 214.332031 145.992188 214.25 C 146.917969 214.101562 147.238281 213.371094 146.847656 212.53125 C 146.753906 212.328125 146.632812 212.203125 146.429688 212.144531 C 145.832031 211.964844 145.242188 211.78125 144.613281 211.691406 C 143.554688 211.539062 142.464844 211.460938 141.511719 210.832031 C 141.011719 210.503906 140.484375 210.238281 140.117188 209.738281 C 140.015625 209.605469 139.867188 209.480469 139.714844 209.425781 C 138.886719 209.132812 138.351562 208.320312 137.527344 208.097656 C 136.5 207.820312 136.546875 206.757812 135.945312 206.195312 C 135.679688 205.949219 135.609375 205.617188 135.488281 205.296875 C 135.1875 204.492188 135.28125 203.652344 135.1875 202.828125 C 135.003906 201.207031 134.710938 199.601562 134.722656 197.960938 C 134.722656 197.703125 134.730469 197.4375 134.679688 197.1875 C 134.425781 195.929688 134.523438 194.664062 134.59375 193.410156 C 134.679688 191.921875 134.914062 190.441406 134.878906 188.949219 C 134.859375 188.160156 135.035156 187.460938 135.472656 186.84375 C 136.734375 185.066406 137.726562 183.117188 138.980469 181.34375 C 139.800781 180.183594 140.574219 178.96875 141.75 178.109375 C 142.464844 177.589844 143.148438 177.023438 143.808594 176.429688 C 144.78125 175.550781 145.585938 174.527344 145.828125 173.230469 C 146 172.339844 146.375 171.46875 146.230469 170.523438 C 146.210938 170.417969 146.238281 170.285156 146.285156 170.1875 C 146.609375 169.519531 146.632812 168.796875 146.652344 168.078125 C 146.6875 167.023438 146.910156 165.988281 146.96875 164.929688 C 147.019531 163.992188 147.101562 162.984375 147.722656 162.15625 C 147.917969 161.894531 147.847656 161.601562 147.75 161.265625 C 147.46875 160.261719 147.679688 159.226562 147.726562 158.203125 C 147.730469 158.148438 147.777344 158.101562 147.796875 158.046875 C 148.257812 156.714844 148.566406 155.351562 148.636719 153.941406 C 148.667969 153.339844 148.6875 152.738281 148.863281 152.160156 C 148.941406 151.898438 149 151.625 148.855469 151.40625 C 148.585938 151.007812 148.707031 150.707031 149.015625 150.429688 C 149.546875 149.949219 149.605469 149.414062 149.410156 148.71875 C 149.273438 148.222656 149.042969 147.6875 149.207031 147.132812 C 149.554688 145.953125 149.554688 144.757812 149.382812 143.546875 C 149.28125 142.839844 149.332031 142.152344 149.566406 141.4375 C 149.824219 140.65625 150.269531 140.007812 150.652344 139.308594 C 151.300781 138.132812 151.777344 136.871094 152.542969 135.75 C 152.976562 135.109375 153.109375 134.320312 153.109375 133.527344 C 153.105469 132.167969 153.464844 130.863281 153.855469 129.585938 C 154.488281 127.519531 154.898438 125.425781 154.984375 123.273438 C 155.015625 122.550781 155.039062 121.847656 155.238281 121.148438 C 155.574219 119.972656 155.648438 118.75 155.441406 117.5625 C 155.253906 116.480469 155.277344 115.394531 155.171875 114.3125 C 155.15625 114.171875 155.140625 113.988281 155.210938 113.890625 C 155.679688 113.261719 155.75 112.445312 156.230469 111.824219 C 156.894531 110.960938 157.171875 109.949219 157.28125 108.878906 C 157.324219 108.453125 157.351562 108.015625 157.453125 107.605469 C 157.570312 107.140625 157.476562 106.707031 157.457031 106.253906 Z M 157.457031 106.253906 " fill-opacity="1" fill-rule="nonzero"/></g></svg>